<svg width="79" height="78" viewBox="0 0 79 78" fill="none" xmlns="http://www.w3.org/2000/svg">
<path d="M73.24 19.4443C69.7562 13.4758 65.0305 8.75018 59.0618 5.26649C53.0921 1.78297 46.5753 0.0415649 39.5065 0.0415649C32.4383 0.0415649 25.9196 1.78297 19.9509 5.26649C13.9819 8.74965 9.2562 13.4753 5.77233 19.4443C2.28828 25.4137 0.546875 31.9325 0.546875 39.0001C0.546875 46.068 2.28881 52.5857 5.7718 58.5555C9.25549 64.524 13.9811 69.2496 19.9502 72.7337C25.9196 76.217 32.4378 77.9586 39.5057 77.9586C46.5737 77.9586 53.0926 76.217 59.0617 72.7337C65.0303 69.2509 69.7558 64.524 73.2393 58.5555C76.7223 52.5863 78.4635 46.0677 78.4635 39.0001C78.4637 31.9318 76.7223 25.4128 73.24 19.4443ZM63.3984 52.8483C60.9298 57.0754 57.582 60.4232 53.3549 62.8931C49.1278 65.3617 44.5118 66.5948 39.5059 66.5948C34.5013 66.5948 29.8849 65.3617 25.6573 62.8931C21.4302 60.4232 18.0824 57.0754 15.6138 52.8483C13.1446 48.6212 11.9105 44.005 11.9105 39.0001C11.9105 33.9948 13.1452 29.3786 15.6138 25.1515C18.0819 20.9244 21.4306 17.5759 25.6573 15.1074C29.8844 12.6386 34.5006 11.4047 39.5059 11.4047C44.5116 11.4047 49.1278 12.6386 53.3549 15.1074C57.582 17.5761 60.9299 20.9244 63.3984 25.1515C65.8672 29.3786 67.1008 33.9948 67.1008 39.0001C67.1008 44.005 65.8672 48.6212 63.3984 52.8483Z" fill="#7B7E78"/>
<path d="M39.5174 26.0138C35.9324 26.0138 32.8722 27.2822 30.3355 29.818C27.7997 32.3547 26.5312 35.415 26.5312 39C26.5312 42.5846 27.799 45.6454 30.3355 48.181C32.8722 50.7177 35.933 51.9861 39.5174 51.9861C43.1027 51.9861 46.1636 50.7177 48.699 48.181C51.2352 45.6454 52.5036 42.5846 52.5036 39C52.5036 35.415 51.2352 32.3547 48.699 29.818C46.1636 27.282 43.1027 26.0138 39.5174 26.0138Z" fill="#7B7E78"/>
</svg>
