<svg width="85" height="86" viewBox="0 0 85 86" fill="none" xmlns="http://www.w3.org/2000/svg">
<path d="M38.9557 21.75C38.9557 25.2523 37.9173 28.6761 35.9712 31.5884C34.0254 34.5003 31.2597 36.7702 28.024 38.1104C24.7883 39.4505 21.2278 39.8015 17.7927 39.118C14.3576 38.4348 11.2023 36.7482 8.72572 34.2715C6.24917 31.7952 4.5626 28.6399 3.87934 25.2049C3.19605 21.7695 3.54674 18.2091 4.88701 14.9733C6.22732 11.7375 8.49707 8.97187 11.4092 7.02604C14.3213 5.08025 17.745 4.04166 21.2474 4.04166C25.944 4.04166 30.4483 5.90737 33.7689 9.22832C37.09 12.5493 38.9557 17.0535 38.9557 21.75ZM63.7474 39.4583C67.2497 39.4583 70.6735 38.4199 73.5858 36.4738C76.4977 34.528 78.7676 31.7623 80.1077 28.5266C81.4479 25.2909 81.7989 21.7304 81.1154 18.2953C80.4322 14.8602 78.7456 11.7049 76.2689 9.22832C73.7926 6.75177 70.6373 5.0652 67.2023 4.38194C63.7669 3.69865 60.2064 4.04934 56.9708 5.38961C53.7351 6.72992 50.9694 8.99967 49.0236 11.9118C47.0775 14.8239 46.039 18.2476 46.039 21.75C46.039 26.4466 47.9048 30.9509 51.2258 34.2715C54.5468 37.5926 59.0508 39.4583 63.7474 39.4583ZM21.2474 46.5416C17.745 46.5416 14.3213 47.5801 11.4092 49.5262C8.49707 51.472 6.22732 54.2377 4.88701 57.4733C3.54674 60.709 3.19605 64.2695 3.87934 67.7049C4.5626 71.1399 6.24917 74.2952 8.72572 76.7715C11.2023 79.2482 14.3576 80.9348 17.7927 81.6179C21.2278 82.3015 24.7883 81.9505 28.024 80.6103C31.2597 79.2702 34.0254 77.0003 35.9712 74.0884C37.9173 71.1761 38.9557 67.7523 38.9557 64.25C38.9557 59.5534 37.09 55.0494 33.7689 51.7284C30.4483 48.4074 25.944 46.5416 21.2474 46.5416ZM63.7474 46.5416C60.245 46.5416 56.8213 47.5801 53.9093 49.5262C50.997 51.472 48.7272 54.2377 47.387 57.4733C46.0468 60.709 45.6959 64.2695 46.3794 67.7049C47.0626 71.1399 48.7491 74.2952 51.2258 76.7715C53.7022 79.2482 56.8574 80.9348 60.2925 81.6179C63.7279 82.3015 67.2883 81.9505 70.524 80.6103C73.76 79.2702 76.5254 77.0003 78.4715 74.0884C80.4173 71.1761 81.4557 67.7523 81.4557 64.25C81.4557 59.5534 79.59 55.0494 76.2689 51.7284C72.9483 48.4074 68.444 46.5416 63.7474 46.5416Z" fill="#7B7E78"/>
</svg>
