<svg width="10" height="12" viewBox="0 0 10 12" fill="none" xmlns="http://www.w3.org/2000/svg">
<path d="M9 3.5V3.4C9 2.55992 9 2.13988 8.83651 1.81901C8.6927 1.53677 8.46323 1.3073 8.18099 1.16349C7.86012 1 7.44008 1 6.6 1H3.4C2.55992 1 2.13988 1 1.81901 1.16349C1.53677 1.3073 1.3073 1.53677 1.16349 1.81901C1 2.13988 1 2.55992 1 3.4V8.6C1 9.44008 1 9.86012 1.16349 10.181C1.3073 10.4632 1.53677 10.6927 1.81901 10.8365C2.13988 11 2.55992 11 3.4 11H5.25M4.75 6H3M7 3.5H3M8 9V6.25C8 5.83579 8.33579 5.5 8.75 5.5C9.16421 5.5 9.5 5.83579 9.5 6.25V9C9.5 9.82843 8.82843 10.5 8 10.5C7.17157 10.5 6.5 9.82843 6.5 9V7" stroke="#7A8882" stroke-width="0.875" stroke-linecap="round" stroke-linejoin="round"/>
</svg>
