<svg width="28" height="28" viewBox="0 0 28 28" fill="none" xmlns="http://www.w3.org/2000/svg">
<rect width="28" height="28" rx="14" fill="#E2E6E4"/>
<path d="M16.6197 7.45732C15.9546 6.73921 15.0256 6.34375 14.0002 6.34375C12.9693 6.34375 12.0373 6.73682 11.3752 7.45049C10.706 8.17202 10.3799 9.15264 10.4564 10.2115C10.6082 12.3006 12.1979 14 14.0002 14C15.8025 14 17.3895 12.3009 17.5436 10.2122C17.6212 9.16289 17.2931 8.18433 16.6197 7.45732ZM20.0158 21.6562H7.98457C7.82709 21.6583 7.67114 21.6252 7.52805 21.5594C7.38497 21.4936 7.25836 21.3967 7.15742 21.2758C6.93525 21.0103 6.8457 20.6476 6.91201 20.2809C7.20049 18.6806 8.10078 17.3363 9.51582 16.3926C10.7729 15.5548 12.3654 15.0937 14.0002 15.0937C15.635 15.0937 17.2274 15.5552 18.4846 16.3926C19.8996 17.3359 20.7999 18.6802 21.0884 20.2805C21.1547 20.6473 21.0651 21.0099 20.843 21.2755C20.7421 21.3964 20.6155 21.4934 20.4724 21.5593C20.3293 21.6251 20.1733 21.6583 20.0158 21.6562Z" fill="#9FAAA5"/>
<rect x="15.75" y="15.75" width="12.25" height="12.25" rx="6.125" fill="#DEFCBD"/>
<path d="M21.875 18.8125V24.9375M18.8125 21.875H24.9375" stroke="#181B1A" stroke-width="0.765625" stroke-linecap="round" stroke-linejoin="round"/>
</svg>
