<svg width="48" height="48" viewBox="0 0 48 48" fill="none" xmlns="http://www.w3.org/2000/svg">
<path d="M29.3717 15.0291L31.3056 20.4546H27.4379L29.3717 15.0291ZM13.2562 34.7437V2.5127H11.4656C8.49317 2.5127 6.09375 4.91212 6.09375 7.88453V36.1225C7.07859 35.2451 8.34992 34.7437 9.67498 34.7437H13.2562ZM6.09375 41.9062C6.09375 43.8758 7.7053 45.4874 9.67498 45.4874H41.906V38.3249H9.67498C7.7053 38.3249 6.09375 39.9365 6.09375 41.9062ZM41.906 6.09392V34.7437H16.8374V2.5127H38.3248C40.2945 2.5127 41.906 4.12425 41.906 6.09392ZM37.6623 27.6171L31.8965 11.4658C31.5025 10.3914 30.5177 9.69305 29.3717 9.69305C28.2257 9.69305 27.2409 10.3914 26.847 11.4837L21.0812 27.635H24.8773L26.1486 24.0538H32.5769L33.8482 27.635H37.6444L37.6623 27.6171Z" fill="#7B7E78"/>
</svg>
