<svg width="48" height="48" viewBox="0 0 48 48" fill="none" xmlns="http://www.w3.org/2000/svg">
<path d="M27.829 32.7317H20.1695C19.2518 32.7317 18.5079 31.9878 18.5079 31.0701V28.3782H4.65706C3.75484 28.3782 3.02344 29.1096 3.02344 30.0119V39.7071C3.02344 42.2376 5.09381 44.308 7.62426 44.308H40.3247C42.8552 44.308 44.9256 42.2376 44.9256 39.7071V30.0119C44.9256 29.1096 44.1942 28.3782 43.2919 28.3782H29.4905V31.0701C29.4905 31.9878 28.7466 32.7317 27.829 32.7317Z" fill="#CEFFA3"/>
<path d="M14.8486 9.77716H5.10278C2.57232 9.77716 0.501953 11.8475 0.501953 14.378V24.3701C0.501953 25.2723 1.23335 26.0037 2.13558 26.0037H18.5095V23.4108C18.5095 22.4931 19.2534 21.7492 20.1711 21.7492H27.8305C28.7482 21.7492 29.4921 22.4931 29.4921 23.4108V26.0037H45.866C46.7682 26.0037 47.4996 25.2723 47.4996 24.3701V14.3285C47.4996 11.7981 45.4292 9.72769 42.8988 9.72769H33.153V7.69937C33.153 7.60043 33.153 7.55095 33.153 7.40254C33.0045 5.32475 31.273 3.6922 29.1458 3.6922H18.8558C16.7285 3.6922 14.997 5.37422 14.8486 7.40254V7.69937L14.8486 9.77716ZM18.8558 6.01735H29.1953C30.0363 6.01735 30.7289 6.66047 30.8773 7.45201C30.8773 7.55096 30.9268 7.60043 30.9268 7.74884V9.77716H17.1243V7.74884C17.1243 7.6499 17.1243 7.60043 17.1738 7.45201C17.2727 6.66047 17.9653 6.01735 18.8558 6.01735Z" fill="#CEFFA3"/>
</svg>
