<svg width="28" height="28" viewBox="0 0 28 28" fill="none" xmlns="http://www.w3.org/2000/svg">
<rect width="28" height="28" rx="4" fill="white"/>
<g clip-path="url(#clip0_3555_607690)">
<path d="M12.3333 14.833C12.6912 15.3114 13.1478 15.7073 13.6721 15.9938C14.1964 16.2802 14.7762 16.4506 15.3722 16.4933C15.9681 16.5359 16.5663 16.45 17.1261 16.2411C17.6859 16.0323 18.1942 15.7055 18.6166 15.283L21.1166 12.783C21.8756 11.9971 22.2956 10.9446 22.2861 9.85214C22.2766 8.75965 21.8384 7.7146 21.0659 6.94207C20.2934 6.16953 19.2483 5.73133 18.1558 5.72184C17.0633 5.71234 16.0108 6.13232 15.225 6.89131L13.7916 8.31631M15.6666 13.1663C15.3088 12.6879 14.8522 12.292 14.3279 12.0055C13.8035 11.7191 13.2237 11.5487 12.6278 11.506C12.0318 11.4634 11.4337 11.5493 10.8739 11.7582C10.3141 11.967 9.80572 12.2938 9.38332 12.7163L6.88332 15.2163C6.12432 16.0022 5.70435 17.0547 5.71384 18.1472C5.72334 19.2396 6.16154 20.2847 6.93407 21.0572C7.70661 21.8298 8.75166 22.268 9.84414 22.2775C10.9366 22.2869 11.9891 21.867 12.775 21.108L14.2 19.683" stroke="#353B38" stroke-width="1.75" stroke-linecap="round" stroke-linejoin="round"/>
</g>
<defs>
<clipPath id="clip0_3555_607690">
<rect width="20" height="20" fill="white" transform="translate(4 4)"/>
</clipPath>
</defs>
</svg>
