<svg width="48" height="48" viewBox="0 0 48 48" fill="none" xmlns="http://www.w3.org/2000/svg">
<path d="M24.0078 3C12.4578 3 3.00781 12.45 3.00781 24C3.00781 35.55 12.4578 45 24.0078 45C35.5578 45 45.0078 35.55 45.0078 24C45.0078 12.45 35.5579 3 24.0078 3ZM24.0078 40.8001C14.7678 40.8001 7.20775 33.24 7.20775 24C7.20775 14.76 14.7678 7.19994 24.0078 7.19994C33.2479 7.19994 40.8079 14.7601 40.8079 24C40.8079 33.24 33.2479 40.8001 24.0078 40.8001Z" fill="#7B7E78"/>
<path d="M24.0102 11.3999C17.0802 11.3999 11.4102 17.0699 11.4102 23.9999C11.4102 30.9299 17.0802 36.5999 24.0102 36.5999C30.9402 36.5999 36.6102 30.9299 36.6102 23.9999C36.6102 17.0699 30.9402 11.3999 24.0102 11.3999ZM24.0102 32.4C19.3902 32.4 15.6102 28.62 15.6102 24C15.6102 19.38 19.3902 15.5999 24.0102 15.5999C28.6301 15.5999 32.4102 19.3799 32.4102 23.9999C32.4102 28.6199 28.6302 32.4 24.0102 32.4Z" fill="#7B7E78"/>
<path d="M24.0086 28.2001C26.3283 28.2001 28.2087 26.3197 28.2087 24.0001C28.2087 21.6805 26.3283 19.8 24.0086 19.8C21.689 19.8 19.8086 21.6805 19.8086 24.0001C19.8086 26.3197 21.689 28.2001 24.0086 28.2001Z" fill="#7B7E78"/>
</svg>
