<svg width="48" height="48" viewBox="0 0 48 48" fill="none" xmlns="http://www.w3.org/2000/svg">
<path d="M42.434 23.9077V35.0614C42.434 36.0219 41.6984 36.8202 40.7434 36.8994C40.6918 36.9031 40.6402 36.905 40.5904 36.905C39.6981 36.905 38.9238 36.2597 38.7744 35.3656C38.0573 31.0645 32.1007 29.5306 26.7653 29.5306H18.4692V9.25112H26.7653C32.1007 9.25112 38.0573 7.71909 38.7744 3.41615C38.933 2.47039 39.7976 1.79379 40.7452 1.88229C41.7021 1.96156 42.4358 2.75984 42.4358 3.72035V14.8741C44.5394 15.3018 46.123 17.1601 46.123 19.3909C46.123 21.6216 44.5375 23.4799 42.434 23.9077ZM14.7801 29.5306V9.25112H12.0147C6.42314 9.25112 1.875 13.7993 1.875 19.3909C1.875 24.9825 6.42314 29.5306 12.0147 29.5306H14.7801ZM17.5879 33.2178H12.0147C10.3961 33.2178 8.84193 32.9376 7.39655 32.4232L11.399 43.1013C11.8193 44.2535 12.6637 45.1735 13.7754 45.6915C14.393 45.9791 15.0511 46.1229 15.7111 46.1229C16.2421 46.1229 16.7749 46.0289 17.2874 45.8427C18.4397 45.4223 19.3596 44.578 19.8777 43.4663C20.3957 42.3528 20.4492 41.1065 20.0288 39.9561L17.5861 33.2159L17.5879 33.2178Z" fill="#7B7E78"/>
</svg>
