<svg width="48" height="49" viewBox="0 0 48 49" fill="none" xmlns="http://www.w3.org/2000/svg">
<path d="M45 12.5716C45 10.9803 44.3679 9.45422 43.2426 8.329C42.1174 7.20378 40.5913 6.57164 39 6.57164H37.5V5.11383C37.5 4.30664 36.8794 3.61383 36.0722 3.57352C35.8694 3.56374 35.6667 3.59525 35.4764 3.66613C35.2861 3.737 35.1122 3.84577 34.9652 3.98585C34.8182 4.12592 34.7012 4.29438 34.6212 4.48102C34.5413 4.66766 34.5 4.86859 34.5 5.07164V6.57164H13.5V5.11383C13.5 4.30664 12.8794 3.61383 12.0722 3.57352C11.8694 3.56374 11.6667 3.59525 11.4764 3.66613C11.2861 3.737 11.1122 3.84577 10.9652 3.98585C10.8182 4.12592 10.7012 4.29438 10.6212 4.48102C10.5413 4.66766 10.5 4.86859 10.5 5.07164V6.57164H9C7.4087 6.57164 5.88258 7.20378 4.75736 8.329C3.63214 9.45422 3 10.9803 3 12.5716V13.6966C3 13.7961 3.03951 13.8915 3.10984 13.9618C3.18016 14.0321 3.27554 14.0716 3.375 14.0716H44.625C44.7245 14.0716 44.8198 14.0321 44.8902 13.9618C44.9605 13.8915 45 13.7961 45 13.6966V12.5716ZM3 39.5716C3 41.1629 3.63214 42.6891 4.75736 43.8143C5.88258 44.9395 7.4087 45.5716 9 45.5716H39C40.5913 45.5716 42.1174 44.9395 43.2426 43.8143C44.3679 42.6891 45 41.1629 45 39.5716V17.3529C45 17.2783 44.9704 17.2068 44.9176 17.154C44.8649 17.1013 44.7933 17.0716 44.7188 17.0716H3.28125C3.20666 17.0716 3.13512 17.1013 3.08238 17.154C3.02963 17.2068 3 17.2783 3 17.3529V39.5716ZM35.25 20.0716C35.695 20.0716 36.13 20.2036 36.5 20.4508C36.87 20.6981 37.1584 21.0495 37.3287 21.4606C37.499 21.8717 37.5436 22.3241 37.4568 22.7606C37.3699 23.1971 37.1557 23.598 36.841 23.9126C36.5263 24.2273 36.1254 24.4416 35.689 24.5284C35.2525 24.6152 34.8001 24.5707 34.389 24.4004C33.9778 24.2301 33.6264 23.9417 33.3792 23.5717C33.132 23.2017 33 22.7666 33 22.3216C33 21.7249 33.2371 21.1526 33.659 20.7306C34.081 20.3087 34.6533 20.0716 35.25 20.0716ZM35.25 27.5716C35.695 27.5716 36.13 27.7036 36.5 27.9508C36.87 28.1981 37.1584 28.5495 37.3287 28.9606C37.499 29.3717 37.5436 29.8241 37.4568 30.2606C37.3699 30.6971 37.1557 31.098 36.841 31.4126C36.5263 31.7273 36.1254 31.9416 35.689 32.0284C35.2525 32.1152 34.8001 32.0707 34.389 31.9004C33.9778 31.7301 33.6264 31.4417 33.3792 31.0717C33.132 30.7017 33 30.2666 33 29.8216C33 29.2249 33.2371 28.6526 33.659 28.2307C34.081 27.8087 34.6533 27.5716 35.25 27.5716ZM27.75 20.0716C28.195 20.0716 28.63 20.2036 29 20.4508C29.37 20.6981 29.6584 21.0495 29.8287 21.4606C29.999 21.8717 30.0436 22.3241 29.9568 22.7606C29.87 23.1971 29.6557 23.598 29.341 23.9126C29.0263 24.2273 28.6254 24.4416 28.189 24.5284C27.7525 24.6152 27.3001 24.5707 26.889 24.4004C26.4778 24.2301 26.1264 23.9417 25.8792 23.5717C25.632 23.2017 25.5 22.7666 25.5 22.3216C25.5 21.7249 25.7371 21.1526 26.159 20.7306C26.581 20.3087 27.1533 20.0716 27.75 20.0716ZM27.75 27.5716C28.195 27.5716 28.63 27.7036 29 27.9508C29.37 28.1981 29.6584 28.5495 29.8287 28.9606C29.999 29.3717 30.0436 29.8241 29.9568 30.2606C29.87 30.6971 29.6557 31.098 29.341 31.4126C29.0263 31.7273 28.6254 31.9416 28.189 32.0284C27.7525 32.1152 27.3001 32.0707 26.889 31.9004C26.4778 31.7301 26.1264 31.4417 25.8792 31.0717C25.632 30.7017 25.5 30.2666 25.5 29.8216C25.5 29.2249 25.7371 28.6526 26.159 28.2307C26.581 27.8087 27.1533 27.5716 27.75 27.5716ZM27.75 35.0716C28.195 35.0716 28.63 35.2036 29 35.4508C29.37 35.6981 29.6584 36.0495 29.8287 36.4606C29.999 36.8717 30.0436 37.3241 29.9568 37.7606C29.87 38.197 29.6557 38.598 29.341 38.9126C29.0263 39.2273 28.6254 39.4416 28.189 39.5284C27.7525 39.6152 27.3001 39.5707 26.889 39.4004C26.4778 39.2301 26.1264 38.9417 25.8792 38.5717C25.632 38.2017 25.5 37.7666 25.5 37.3216C25.5 36.7249 25.7371 36.1526 26.159 35.7307C26.581 35.3087 27.1533 35.0716 27.75 35.0716ZM20.25 27.5716C20.695 27.5716 21.13 27.7036 21.5 27.9508C21.87 28.1981 22.1584 28.5495 22.3287 28.9606C22.499 29.3717 22.5436 29.8241 22.4568 30.2606C22.37 30.6971 22.1557 31.098 21.841 31.4126C21.5263 31.7273 21.1254 31.9416 20.689 32.0284C20.2525 32.1152 19.8001 32.0707 19.389 31.9004C18.9778 31.7301 18.6264 31.4417 18.3792 31.0717C18.132 30.7017 18 30.2666 18 29.8216C18 29.2249 18.2371 28.6526 18.659 28.2307C19.081 27.8087 19.6533 27.5716 20.25 27.5716ZM20.25 35.0716C20.695 35.0716 21.13 35.2036 21.5 35.4508C21.87 35.6981 22.1584 36.0495 22.3287 36.4606C22.499 36.8717 22.5436 37.3241 22.4568 37.7606C22.37 38.197 22.1557 38.598 21.841 38.9126C21.5263 39.2273 21.1254 39.4416 20.689 39.5284C20.2525 39.6152 19.8001 39.5707 19.389 39.4004C18.9778 39.2301 18.6264 38.9417 18.3792 38.5717C18.132 38.2017 18 37.7666 18 37.3216C18 36.7249 18.2371 36.1526 18.659 35.7307C19.081 35.3087 19.6533 35.0716 20.25 35.0716ZM12.75 27.5716C13.195 27.5716 13.63 27.7036 14 27.9508C14.37 28.1981 14.6584 28.5495 14.8287 28.9606C14.999 29.3717 15.0436 29.8241 14.9568 30.2606C14.87 30.6971 14.6557 31.098 14.341 31.4126C14.0263 31.7273 13.6254 31.9416 13.189 32.0284C12.7525 32.1152 12.3001 32.0707 11.889 31.9004C11.4778 31.7301 11.1264 31.4417 10.8792 31.0717C10.632 30.7017 10.5 30.2666 10.5 29.8216C10.5 29.2249 10.7371 28.6526 11.159 28.2307C11.581 27.8087 12.1533 27.5716 12.75 27.5716ZM12.75 35.0716C13.195 35.0716 13.63 35.2036 14 35.4508C14.37 35.6981 14.6584 36.0495 14.8287 36.4606C14.999 36.8717 15.0436 37.3241 14.9568 37.7606C14.87 38.197 14.6557 38.598 14.341 38.9126C14.0263 39.2273 13.6254 39.4416 13.189 39.5284C12.7525 39.6152 12.3001 39.5707 11.889 39.4004C11.4778 39.2301 11.1264 38.9417 10.8792 38.5717C10.632 38.2017 10.5 37.7666 10.5 37.3216C10.5 36.7249 10.7371 36.1526 11.159 35.7307C11.581 35.3087 12.1533 35.0716 12.75 35.0716Z" fill="#E0E5DA"/>
</svg>
