<svg width="80" height="80" viewBox="0 0 80 80" fill="none" xmlns="http://www.w3.org/2000/svg">
<path d="M40 0C17.908 0 0 17.9088 0 40C0 62.0912 17.908 80 40 80C62.0904 80 80 62.0912 80 40C80 17.9088 62.0904 0 40 0ZM40 69.8488C23.5416 69.8488 10.1512 56.4592 10.1512 40C10.1512 23.5408 23.5416 10.1512 40 10.1512C56.4584 10.1512 69.8488 23.5416 69.8488 40C69.8488 56.4584 56.4584 69.8488 40 69.8488Z" fill="#F01616"/>
<path d="M17.5703 10.3828L69.6061 62.4186L62.4292 69.5955L10.3934 17.5597L17.5703 10.3828Z" fill="#F01616"/>
</svg>
