<svg width="48" height="49" viewBox="0 0 48 49" fill="none" xmlns="http://www.w3.org/2000/svg">
<path d="M42 38.1597H6C5.60218 38.1597 5.22064 38.0016 4.93934 37.7203C4.65804 37.439 4.5 37.0575 4.5 36.6597C4.5 36.2618 4.65804 35.8803 4.93934 35.599C5.22064 35.3177 5.60218 35.1597 6 35.1597H42C42.3978 35.1597 42.7794 35.3177 43.0607 35.599C43.342 35.8803 43.5 36.2618 43.5 36.6597C43.5 37.0575 43.342 37.439 43.0607 37.7203C42.7794 38.0016 42.3978 38.1597 42 38.1597ZM39 42.6597H9C8.60218 42.6597 8.22064 42.5016 7.93934 42.2203C7.65804 41.939 7.5 41.5575 7.5 41.1597C7.5 40.7618 7.65804 40.3803 7.93934 40.099C8.22064 39.8177 8.60218 39.6597 9 39.6597H39C39.3978 39.6597 39.7794 39.8177 40.0607 40.099C40.342 40.3803 40.5 40.7618 40.5 41.1597C40.5 41.5575 40.342 41.939 40.0607 42.2203C39.7794 42.5016 39.3978 42.6597 39 42.6597ZM3 26.1597H1.5V30.6597C1.5 31.4553 1.81607 32.2184 2.37868 32.781C2.94129 33.3436 3.70435 33.6597 4.5 33.6597H9V32.1597C8.99826 30.5689 8.36556 29.0438 7.24072 27.9189C6.11588 26.7941 4.59077 26.1614 3 26.1597Z" fill="#E0E5DA"/>
<path d="M45 23.1597H46.5V17.1597H45C42.6139 17.1569 40.3263 16.2079 38.6391 14.5206C36.9518 12.8334 36.0027 10.5458 36 8.15967V6.65967H12V8.15967C11.9973 10.5458 11.0482 12.8334 9.36095 14.5206C7.67371 16.2079 5.38611 17.1569 3 17.1597H1.5V23.1597H3C5.38611 23.1624 7.67371 24.1115 9.36095 25.7987C11.0482 27.486 11.9973 29.7736 12 32.1597V33.6597H36V32.1597C36.0027 29.7736 36.9518 27.486 38.6391 25.7987C40.3263 24.1115 42.6139 23.1624 45 23.1597ZM24 29.1597C22.22 29.1597 20.4799 28.6318 18.9999 27.6429C17.5198 26.654 16.3663 25.2484 15.6851 23.6038C15.0039 21.9593 14.8257 20.1497 15.1729 18.4039C15.5202 16.658 16.3774 15.0544 17.636 13.7957C18.8947 12.537 20.4984 11.6799 22.2442 11.3326C23.99 10.9853 25.7996 11.1636 27.4442 11.8448C29.0887 12.5259 30.4943 13.6795 31.4832 15.1595C32.4722 16.6396 33 18.3796 33 20.1597C32.9973 22.5458 32.0482 24.8334 30.3609 26.5206C28.6737 28.2079 26.3861 29.1569 24 29.1597Z" fill="#E0E5DA"/>
<path d="M24 26.1597C27.3137 26.1597 30 23.4734 30 20.1597C30 16.846 27.3137 14.1597 24 14.1597C20.6863 14.1597 18 16.846 18 20.1597C18 23.4734 20.6863 26.1597 24 26.1597Z" fill="#E0E5DA"/>
<path d="M39 32.1597V33.6597H43.5C44.2957 33.6597 45.0587 33.3436 45.6213 32.781C46.1839 32.2184 46.5 31.4553 46.5 30.6597V26.1597H45C43.4092 26.1614 41.8841 26.7941 40.7593 27.9189C39.6344 29.0438 39.0017 30.5689 39 32.1597ZM45 14.1597H46.5V9.65967C46.5 8.86402 46.1839 8.10096 45.6213 7.53835C45.0587 6.97574 44.2957 6.65967 43.5 6.65967H39V8.15967C39.0017 9.75043 39.6344 11.2755 40.7593 12.4004C41.8841 13.5252 43.4092 14.1579 45 14.1597ZM9 8.15967V6.65967H4.5C3.70435 6.65967 2.94129 6.97574 2.37868 7.53835C1.81607 8.10096 1.5 8.86402 1.5 9.65967V14.1597H3C4.59077 14.1579 6.11588 13.5252 7.24072 12.4004C8.36556 11.2755 8.99826 9.75043 9 8.15967Z" fill="#E0E5DA"/>
</svg>
