<svg width="49" height="48" viewBox="0 0 49 48" fill="none" xmlns="http://www.w3.org/2000/svg">
<path d="M42.6641 37.5H6.66406C6.26624 37.5 5.88471 37.342 5.6034 37.0607C5.3221 36.7794 5.16406 36.3978 5.16406 36C5.16406 35.6022 5.3221 35.2206 5.6034 34.9393C5.88471 34.658 6.26624 34.5 6.66406 34.5H42.6641C43.0619 34.5 43.4434 34.658 43.7247 34.9393C44.006 35.2206 44.1641 35.6022 44.1641 36C44.1641 36.3978 44.006 36.7794 43.7247 37.0607C43.4434 37.342 43.0619 37.5 42.6641 37.5ZM39.6641 42H9.66406C9.26624 42 8.88471 41.842 8.6034 41.5607C8.3221 41.2794 8.16406 40.8978 8.16406 40.5C8.16406 40.1022 8.3221 39.7206 8.6034 39.4393C8.88471 39.158 9.26624 39 9.66406 39H39.6641C40.0619 39 40.4434 39.158 40.7247 39.4393C41.006 39.7206 41.1641 40.1022 41.1641 40.5C41.1641 40.8978 41.006 41.2794 40.7247 41.5607C40.4434 41.842 40.0619 42 39.6641 42ZM3.66406 25.5H2.16406V30C2.16406 30.7956 2.48013 31.5587 3.04274 32.1213C3.60535 32.6839 4.36841 33 5.16406 33H9.66406V31.5C9.66233 29.9092 9.02963 28.3841 7.90478 27.2593C6.77994 26.1344 5.25483 25.5017 3.66406 25.5Z" fill="#7B7E78"/>
<path d="M45.6641 22.5H47.1641V16.5H45.6641C43.278 16.4973 40.9904 15.5482 39.3031 13.8609C37.6159 12.1737 36.6668 9.88611 36.6641 7.5V6H12.6641V7.5C12.6613 9.88611 11.7122 12.1737 10.025 13.8609C8.33777 15.5482 6.05017 16.4973 3.66406 16.5H2.16406V22.5H3.66406C6.05017 22.5027 8.33777 23.4518 10.025 25.1391C11.7122 26.8263 12.6613 29.1139 12.6641 31.5V33H36.6641V31.5C36.6668 29.1139 37.6159 26.8263 39.3031 25.1391C40.9904 23.4518 43.278 22.5027 45.6641 22.5ZM24.6641 28.5C22.884 28.5 21.144 27.9722 19.6639 26.9832C18.1839 25.9943 17.0303 24.5887 16.3491 22.9442C15.668 21.2996 15.4897 19.49 15.837 17.7442C16.1843 15.9984 17.0414 14.3947 18.3001 13.136C19.5588 11.8774 21.1624 11.0202 22.9082 10.6729C24.6541 10.3257 26.4637 10.5039 28.1082 11.1851C29.7527 11.8663 31.1584 13.0198 32.1473 14.4999C33.1362 15.9799 33.6641 17.72 33.6641 19.5C33.6613 21.8861 32.7122 24.1737 31.025 25.8609C29.3378 27.5482 27.0502 28.4973 24.6641 28.5Z" fill="#7B7E78"/>
<path d="M24.6641 25.5C27.9778 25.5 30.6641 22.8137 30.6641 19.5C30.6641 16.1863 27.9778 13.5 24.6641 13.5C21.3504 13.5 18.6641 16.1863 18.6641 19.5C18.6641 22.8137 21.3504 25.5 24.6641 25.5Z" fill="#7B7E78"/>
<path d="M39.6641 31.5V33H44.1641C44.9597 33 45.7228 32.6839 46.2854 32.1213C46.848 31.5587 47.1641 30.7956 47.1641 30V25.5H45.6641C44.0733 25.5017 42.5482 26.1344 41.4233 27.2593C40.2985 28.3841 39.6658 29.9092 39.6641 31.5ZM45.6641 13.5H47.1641V9C47.1641 8.20435 46.848 7.44129 46.2854 6.87868C45.7228 6.31607 44.9597 6 44.1641 6H39.6641V7.5C39.6658 9.09077 40.2985 10.6159 41.4233 11.7407C42.5482 12.8656 44.0733 13.4983 45.6641 13.5ZM9.66406 7.5V6H5.16406C4.36841 6 3.60535 6.31607 3.04274 6.87868C2.48013 7.44129 2.16406 8.20435 2.16406 9V13.5H3.66406C5.25483 13.4983 6.77994 12.8656 7.90478 11.7407C9.02963 10.6159 9.66233 9.09077 9.66406 7.5Z" fill="#7B7E78"/>
</svg>
