<svg width="48" height="48" viewBox="0 0 48 48" fill="none" xmlns="http://www.w3.org/2000/svg">
<path d="M42 37.5H6C5.60218 37.5 5.22064 37.342 4.93934 37.0607C4.65804 36.7794 4.5 36.3978 4.5 36C4.5 35.6022 4.65804 35.2206 4.93934 34.9393C5.22064 34.658 5.60218 34.5 6 34.5H42C42.3978 34.5 42.7794 34.658 43.0607 34.9393C43.342 35.2206 43.5 35.6022 43.5 36C43.5 36.3978 43.342 36.7794 43.0607 37.0607C42.7794 37.342 42.3978 37.5 42 37.5ZM39 42H9C8.60218 42 8.22064 41.842 7.93934 41.5607C7.65804 41.2794 7.5 40.8978 7.5 40.5C7.5 40.1022 7.65804 39.7206 7.93934 39.4393C8.22064 39.158 8.60218 39 9 39H39C39.3978 39 39.7794 39.158 40.0607 39.4393C40.342 39.7206 40.5 40.1022 40.5 40.5C40.5 40.8978 40.342 41.2794 40.0607 41.5607C39.7794 41.842 39.3978 42 39 42ZM3 25.5H1.5V30C1.5 30.7956 1.81607 31.5587 2.37868 32.1213C2.94129 32.6839 3.70435 33 4.5 33H9V31.5C8.99826 29.9092 8.36556 28.3841 7.24072 27.2593C6.11588 26.1344 4.59077 25.5017 3 25.5Z" fill="#7B7E78"/>
<path d="M45 22.5H46.5V16.5H45C42.6139 16.4973 40.3263 15.5482 38.6391 13.8609C36.9518 12.1737 36.0027 9.88611 36 7.5V6H12V7.5C11.9973 9.88611 11.0482 12.1737 9.36095 13.8609C7.67371 15.5482 5.38611 16.4973 3 16.5H1.5V22.5H3C5.38611 22.5027 7.67371 23.4518 9.36095 25.1391C11.0482 26.8263 11.9973 29.1139 12 31.5V33H36V31.5C36.0027 29.1139 36.9518 26.8263 38.6391 25.1391C40.3263 23.4518 42.6139 22.5027 45 22.5ZM24 28.5C22.22 28.5 20.4799 27.9722 18.9999 26.9832C17.5198 25.9943 16.3663 24.5887 15.6851 22.9442C15.0039 21.2996 14.8257 19.49 15.1729 17.7442C15.5202 15.9984 16.3774 14.3947 17.636 13.136C18.8947 11.8774 20.4984 11.0202 22.2442 10.6729C23.99 10.3257 25.7996 10.5039 27.4442 11.1851C29.0887 11.8663 30.4943 13.0198 31.4832 14.4999C32.4722 15.9799 33 17.72 33 19.5C32.9973 21.8861 32.0482 24.1737 30.3609 25.8609C28.6737 27.5482 26.3861 28.4973 24 28.5Z" fill="#7B7E78"/>
<path d="M24 25.5C27.3137 25.5 30 22.8137 30 19.5C30 16.1863 27.3137 13.5 24 13.5C20.6863 13.5 18 16.1863 18 19.5C18 22.8137 20.6863 25.5 24 25.5Z" fill="#7B7E78"/>
<path d="M39 31.5V33H43.5C44.2957 33 45.0587 32.6839 45.6213 32.1213C46.1839 31.5587 46.5 30.7956 46.5 30V25.5H45C43.4092 25.5017 41.8841 26.1344 40.7593 27.2593C39.6344 28.3841 39.0017 29.9092 39 31.5ZM45 13.5H46.5V9C46.5 8.20435 46.1839 7.44129 45.6213 6.87868C45.0587 6.31607 44.2957 6 43.5 6H39V7.5C39.0017 9.09077 39.6344 10.6159 40.7593 11.7407C41.8841 12.8656 43.4092 13.4983 45 13.5ZM9 7.5V6H4.5C3.70435 6 2.94129 6.31607 2.37868 6.87868C1.81607 7.44129 1.5 8.20435 1.5 9V13.5H3C4.59077 13.4983 6.11588 12.8656 7.24072 11.7407C8.36556 10.6159 8.99826 9.09077 9 7.5Z" fill="#7B7E78"/>
</svg>
