<svg width="48" height="48" viewBox="0 0 48 48" fill="none" xmlns="http://www.w3.org/2000/svg">
<path d="M27.7235 44.5391C27.7235 45.566 26.8836 46.4062 25.8571 46.4062H3.46016C2.43363 46.4062 1.59375 45.566 1.59375 44.5391C1.59375 37.313 7.43561 31.4688 14.6586 31.4688C21.8816 31.4688 27.7235 37.313 27.7235 44.5391ZM22.1243 20.2656C22.1243 16.1391 18.7834 12.7969 14.6586 12.7969C10.5339 12.7969 7.19298 16.1391 7.19298 20.2656C7.19298 24.3921 10.5339 27.7344 14.6586 27.7344C18.7834 27.7344 22.1243 24.3921 22.1243 20.2656ZM37.0555 1.59375H18.3914C13.3708 1.59375 9.30202 5.58953 9.09672 10.5563C10.7392 9.60398 12.6242 9.0625 14.6586 9.0625C19.7726 9.0625 24.0653 12.4981 25.4091 17.1848L29.5899 21.3673L36.2903 14.6641H33.3227C32.2962 14.6641 31.4563 13.8238 31.4563 12.7969C31.4563 11.7699 32.2962 10.9297 33.3227 10.9297H38.9219C40.975 10.9297 42.6548 12.6102 42.6548 14.6641V20.2656C42.6548 21.2926 41.8149 22.1328 40.7884 22.1328C39.7618 22.1328 38.9219 21.2926 38.9219 20.2656V17.2968L32.2215 24C30.7657 25.4564 28.3954 25.4564 26.9396 24L25.5958 22.6556C25.5958 22.6556 25.5958 22.6743 25.5958 22.693C25.0172 25.3257 23.5054 27.6037 21.4337 29.1721C24.3639 30.4605 26.8463 32.5704 28.6194 35.2031H37.0742C42.2255 35.2031 46.4062 31.0206 46.4062 25.8672V10.9297C46.4062 5.77625 42.2255 1.59375 37.0742 1.59375H37.0555Z" fill="#7B7E78"/>
</svg>
