<svg width="51" height="50" viewBox="0 0 51 50" fill="none" xmlns="http://www.w3.org/2000/svg">
<g clip-path="url(#clip0_137_3847)">
<path d="M32.8704 11.2339C30.0477 5.47028 24.1431 1.65973 17.5199 1.65973C8.04286 1.65973 0.332784 9.32605 0.332784 18.7492C0.332784 21.31 0.882576 23.7646 1.96771 26.0531L0.361201 34.0866C0.156714 35.1092 1.05884 36.0131 2.08167 35.8108L10.2142 34.2029C11.3092 34.7223 12.442 35.1173 13.6059 35.3895C10.9969 23.0323 20.3635 11.4329 32.8704 11.2339Z" fill="#CEFFA3"/>
<path d="M48.6983 38.5528C48.9789 37.961 49.223 37.3578 49.4317 36.7449H49.3781C53.0351 26.011 45.3445 14.7297 33.9911 14.1804C33.9909 14.1798 33.9908 14.1792 33.9906 14.1786C24.2217 13.7284 16.1055 21.5501 16.1055 31.2489C16.1055 40.6641 23.7577 48.3244 33.1698 48.3381C35.7228 48.3346 38.1698 47.785 40.4517 46.7026C49.3584 48.4635 48.6638 48.3383 48.8684 48.3383C49.794 48.3383 50.4855 47.4901 50.3048 46.5863L48.6983 38.5528Z" fill="#CEFFA3"/>
</g>
<defs>
<clipPath id="clip0_137_3847">
<rect width="50" height="50" fill="white" transform="translate(0.332031)"/>
</clipPath>
</defs>
</svg>
