<svg width="48" height="48" viewBox="0 0 48 48" fill="none" xmlns="http://www.w3.org/2000/svg">
<path d="M36.25 3H11.75C9.43021 3.00278 7.20623 3.92554 5.56588 5.56588C3.92554 7.20623 3.00278 9.43021 3 11.75L3 36.25C3.00278 38.5698 3.92554 40.7938 5.56588 42.4341C7.20623 44.0745 9.43021 44.9972 11.75 45H36.25C38.5698 44.9972 40.7938 44.0745 42.4341 42.4341C44.0745 40.7938 44.9972 38.5698 45 36.25V11.75C44.9972 9.43021 44.0745 7.20623 42.4341 5.56588C40.7938 3.92554 38.5698 3.00278 36.25 3ZM41.5 27.5V34.5H34.5V41.5H27.5V34.5H20.5V41.5H13.5V34.5H6.5V27.5H13.5V20.5H6.5V13.5H13.5V6.5H20.5V13.5H27.5V6.5H34.5V13.5H41.5V20.5H34.5V27.5H41.5ZM20.5 20.5H13.5V13.5H20.5V20.5ZM27.5 20.5V13.5H34.5V20.5H27.5ZM20.5 27.5V34.5H13.5V27.5H20.5ZM27.5 27.5H34.5V34.5H27.5V27.5ZM20.5 20.5H27.5V27.5H20.5V20.5Z" fill="#7B7E78"/>
</svg>
