<svg width="50" height="50" viewBox="0 0 50 50" fill="none" xmlns="http://www.w3.org/2000/svg">
<path d="M37.7604 3.125H12.2396C9.82313 3.12789 7.50649 4.08911 5.7978 5.7978C4.08911 7.50649 3.12789 9.82313 3.125 12.2396L3.125 37.7604C3.12789 40.1769 4.08911 42.4935 5.7978 44.2022C7.50649 45.9109 9.82313 46.8721 12.2396 46.875H37.7604C40.1769 46.8721 42.4935 45.9109 44.2022 44.2022C45.9109 42.4935 46.8721 40.1769 46.875 37.7604V12.2396C46.8721 9.82313 45.9109 7.50649 44.2022 5.7978C42.4935 4.08911 40.1769 3.12789 37.7604 3.125ZM43.2292 28.6458V35.9375H35.9375V43.2292H28.6458V35.9375H21.3542V43.2292H14.0625V35.9375H6.77083V28.6458H14.0625V21.3542H6.77083V14.0625H14.0625V6.77083H21.3542V14.0625H28.6458V6.77083H35.9375V14.0625H43.2292V21.3542H35.9375V28.6458H43.2292ZM21.3542 21.3542H14.0625V14.0625H21.3542V21.3542ZM28.6458 21.3542V14.0625H35.9375V21.3542H28.6458ZM21.3542 28.6458V35.9375H14.0625V28.6458H21.3542ZM28.6458 28.6458H35.9375V35.9375H28.6458V28.6458ZM21.3542 21.3542H28.6458V28.6458H21.3542V21.3542Z" fill="#7B7E78"/>
</svg>
