<svg width="48" height="49" viewBox="0 0 48 49" fill="none" xmlns="http://www.w3.org/2000/svg">
<path d="M13.1677 9.25761C13.3901 9.03751 13.5645 8.7737 13.6799 8.48283C13.7953 8.19196 13.8492 7.88034 13.8382 7.56762C13.8271 7.25489 13.7514 6.94784 13.6158 6.66583C13.4802 6.38382 13.2876 6.13296 13.0502 5.92907C11.8556 4.90954 10.3379 4.34714 8.76737 4.34204L8.4214 4.35156H8.37061C4.78921 4.56952 1.99603 7.6801 2.00343 11.4308C2.00343 13.441 2.84985 14.5054 3.51852 15.3571C3.70615 15.5952 3.94138 15.7916 4.20917 15.9337C4.47697 16.0758 4.77145 16.1605 5.07381 16.1824C5.10132 16.1824 5.14787 16.1877 5.28542 16.1877C5.5574 16.1873 5.82649 16.1318 6.0765 16.0247C6.32651 15.9177 6.55227 15.7611 6.7402 15.5645L13.1677 9.25761ZM39.6394 4.35368L39.2934 4.3431H39.2384C37.6664 4.34719 36.147 4.90965 34.9513 5.93013C34.7143 6.134 34.522 6.38474 34.3866 6.66656C34.2512 6.94838 34.1756 7.25518 34.1645 7.56764C34.1535 7.8801 34.2073 8.19147 34.3225 8.48214C34.4377 8.7728 34.6118 9.03647 34.8339 9.25655L41.2635 15.5677C41.4518 15.765 41.6782 15.922 41.929 16.0293C42.1798 16.1366 42.4497 16.1919 42.7225 16.1919C42.8579 16.1919 42.9045 16.1919 42.9341 16.1866C43.2363 16.1646 43.5305 16.0798 43.7981 15.9377C44.0658 15.7956 44.3008 15.5993 44.4883 15.3613C45.1612 14.5096 45.9992 13.4484 46.0034 11.435C46.0098 7.6801 43.2166 4.56952 39.6394 4.35368Z" fill="#CEFFA3"/>
<path d="M24.0092 7.72778C13.7464 7.72778 5.38805 16.0809 5.38805 26.349C5.38442 30.7025 6.91296 34.9185 9.70584 38.2581L5.88427 42.0807C5.72333 42.2371 5.59509 42.4239 5.507 42.6303C5.41891 42.8366 5.37273 43.0585 5.37114 43.2828C5.36955 43.5072 5.41258 43.7297 5.49774 43.9373C5.5829 44.1449 5.70848 44.3335 5.86718 44.4921C6.02588 44.6507 6.21454 44.7762 6.42217 44.8613C6.62981 44.9464 6.85229 44.9893 7.07667 44.9876C7.30106 44.9859 7.52286 44.9396 7.7292 44.8515C7.93553 44.7633 8.12228 44.635 8.27857 44.474L12.1001 40.6524C15.4416 43.4421 19.6563 44.9703 24.0092 44.9703C28.3622 44.9703 32.5769 43.4421 35.9183 40.6524L39.741 44.474C39.8973 44.635 40.084 44.7633 40.2904 44.8515C40.4967 44.9396 40.7185 44.9859 40.9429 44.9876C41.1673 44.9893 41.3897 44.9464 41.5974 44.8613C41.805 44.7762 41.9937 44.6507 42.1524 44.4921C42.3111 44.3335 42.4367 44.1449 42.5218 43.9373C42.607 43.7297 42.65 43.5072 42.6484 43.2828C42.6468 43.0585 42.6006 42.8366 42.5126 42.6303C42.4245 42.4239 42.2962 42.2371 42.1353 42.0807L38.3127 38.2581C41.106 34.9187 42.6346 30.7026 42.6304 26.349C42.6304 16.0862 34.2774 7.72778 24.0092 7.72778ZM25.7021 26.349C25.7021 26.7979 25.5237 27.2285 25.2063 27.546C24.8888 27.8635 24.4582 28.0418 24.0092 28.0418H15.5451C15.0961 28.0418 14.6655 27.8635 14.3481 27.546C14.0306 27.2285 13.8522 26.7979 13.8522 26.349C13.8522 25.9 14.0306 25.4694 14.3481 25.152C14.6655 24.8345 15.0961 24.6561 15.5451 24.6561H22.3164V14.4991C22.3164 14.0502 22.4948 13.6196 22.8122 13.3021C23.1297 12.9846 23.5603 12.8063 24.0092 12.8063C24.4582 12.8063 24.8888 12.9846 25.2063 13.3021C25.5237 13.6196 25.7021 14.0502 25.7021 14.4991V26.349Z" fill="#CEFFA3"/>
</svg>
