<svg width="49" height="48" viewBox="0 0 49 48" fill="none" xmlns="http://www.w3.org/2000/svg">
<path d="M13.5002 8.59819C13.7226 8.37808 13.897 8.11428 14.0124 7.82341C14.1278 7.53254 14.1817 7.22092 14.1707 6.90819C14.1596 6.59546 14.0839 6.28841 13.9483 6.0064C13.8127 5.72439 13.6201 5.47353 13.3828 5.26965C12.1881 4.25011 10.6704 3.68771 9.09989 3.68262L8.75392 3.69214H8.70313C5.12172 3.91009 2.32855 7.02068 2.33595 10.7714C2.33595 12.7816 3.18237 13.846 3.85104 14.6977C4.03867 14.9358 4.2739 15.1322 4.54169 15.2743C4.80949 15.4164 5.10397 15.5011 5.40633 15.5229C5.43384 15.5229 5.48039 15.5282 5.61794 15.5282C5.88992 15.5278 6.15901 15.4724 6.40902 15.3653C6.65902 15.2582 6.88479 15.1017 7.07272 14.9051L13.5002 8.59819ZM39.9719 3.69426L39.6259 3.68368H39.5709C37.999 3.68777 36.4796 4.25023 35.2838 5.27071C35.0468 5.47458 34.8545 5.72532 34.7191 6.00713C34.5837 6.28895 34.5081 6.59575 34.4971 6.90822C34.486 7.22068 34.5398 7.53205 34.655 7.82271C34.7702 8.11338 34.9443 8.37705 35.1664 8.59713L41.596 14.9082C41.7843 15.1055 42.0107 15.2626 42.2615 15.3699C42.5123 15.4772 42.7822 15.5325 43.055 15.5325C43.1904 15.5325 43.237 15.5325 43.2666 15.5272C43.5688 15.5051 43.8631 15.4204 44.1307 15.2783C44.3983 15.1362 44.6333 14.9399 44.8208 14.7019C45.4937 13.8502 46.3317 12.789 46.3359 10.7756C46.3423 7.02068 43.5491 3.91009 39.9719 3.69426Z" fill="#7B7E78"/>
<path d="M24.3491 7.06836C14.0863 7.06836 5.7279 15.4214 5.7279 25.6896C5.72426 30.0431 7.25281 34.259 10.0457 37.5987L6.22411 41.4213C6.06318 41.5777 5.93494 41.7645 5.84685 41.9708C5.75875 42.1772 5.71257 42.399 5.71098 42.6234C5.70939 42.8478 5.75242 43.0703 5.83758 43.2779C5.92274 43.4855 6.04832 43.6741 6.20702 43.8327C6.36572 43.9913 6.55438 44.1168 6.76202 44.2019C6.96966 44.2869 7.19214 44.3299 7.41652 44.3282C7.6409 44.3265 7.86271 44.2802 8.06904 44.192C8.27538 44.1039 8.46212 43.9755 8.61842 43.8145L12.44 39.993C15.7814 42.7827 19.9962 44.3109 24.3491 44.3109C28.702 44.3109 32.9168 42.7827 36.2582 39.993L40.0808 43.8145C40.2371 43.9755 40.4239 44.1039 40.6302 44.192C40.8365 44.2802 41.0583 44.3265 41.2827 44.3282C41.5071 44.3299 41.7296 44.2869 41.9372 44.2019C42.1449 44.1168 42.3335 43.9913 42.4922 43.8327C42.6509 43.6741 42.7765 43.4855 42.8617 43.2779C42.9468 43.0703 42.9899 42.8478 42.9883 42.6234C42.9867 42.399 42.9405 42.1772 42.8524 41.9708C42.7643 41.7645 42.6361 41.5777 42.4751 41.4213L38.6525 37.5987C41.4459 34.2593 42.9745 30.0432 42.9703 25.6896C42.9703 15.4267 34.6172 7.06836 24.3491 7.06836ZM26.0419 25.6896C26.0419 26.1385 25.8636 26.5691 25.5461 26.8866C25.2286 27.204 24.7981 27.3824 24.3491 27.3824H15.8849C15.4359 27.3824 15.0054 27.204 14.6879 26.8866C14.3704 26.5691 14.1921 26.1385 14.1921 25.6896C14.1921 25.2406 14.3704 24.81 14.6879 24.4925C15.0054 24.1751 15.4359 23.9967 15.8849 23.9967H22.6563V13.8397C22.6563 13.3907 22.8346 12.9602 23.1521 12.6427C23.4695 12.3252 23.9001 12.1469 24.3491 12.1469C24.7981 12.1469 25.2286 12.3252 25.5461 12.6427C25.8636 12.9602 26.0419 13.3907 26.0419 13.8397V25.6896Z" fill="#7B7E78"/>
</svg>
