<svg width="75" height="76" viewBox="0 0 75 76" fill="none" xmlns="http://www.w3.org/2000/svg">
<g clip-path="url(#clip0_208_34198)">
<path fill-rule="evenodd" clip-rule="evenodd" d="M11.4895 44.5745C11.4614 44.284 11.6112 44.0052 11.8688 43.8682C12.1267 43.7312 12.4416 43.763 12.6666 43.9488C16.1342 46.8092 25.3461 54.4086 28.7657 57.2294C28.9885 57.4131 29.0801 57.712 28.9987 57.9893C28.9173 58.2663 28.6785 58.4681 28.3915 58.502C25.6102 58.8326 20.3428 59.4581 20.3428 59.4581C20.3428 59.4581 16.6554 63.6343 14.7586 65.7825C14.5684 65.9978 14.2688 66.0798 13.9954 65.9913C13.7223 65.9027 13.5276 65.6603 13.4999 65.3745C13.0755 60.9838 11.923 49.058 11.4895 44.5745Z" fill="#6E8B90"/>
<path fill-rule="evenodd" clip-rule="evenodd" d="M2.70626 6.73393C2.67821 6.44347 2.828 6.16469 3.08562 6.02765C3.3435 5.89062 3.65837 5.9224 3.88341 6.108C7.351 8.96869 16.5629 16.568 19.9825 19.3888C20.2053 19.5725 20.2969 19.8714 20.2155 20.1484C20.1341 20.4257 19.8953 20.6273 19.6085 20.6615C16.827 20.9918 11.5598 21.6176 11.5598 21.6176C11.5598 21.6176 7.87224 25.7935 5.97541 27.9419C5.78522 28.1572 5.4856 28.2393 5.21222 28.1505C4.93909 28.0619 4.74435 27.8197 4.71666 27.5337C4.29234 23.143 3.13981 11.2174 2.70626 6.73393Z" fill="#6E8B90"/>
<path fill-rule="evenodd" clip-rule="evenodd" d="M72.8173 59.4228C72.8729 57.83 71.6268 56.4938 70.0343 56.4382C63.0513 56.1943 45.2964 55.5743 38.3134 55.3304C36.7209 55.2748 35.3846 56.5209 35.329 58.1137L35.0269 66.7647C34.9713 68.3572 36.2174 69.6935 37.8099 69.7491L69.5308 70.8568C71.1233 70.9124 72.4596 69.6663 72.5152 68.0738C72.603 65.561 72.7296 61.9356 72.8173 59.4228Z" fill="#6E8B90"/>
<path fill-rule="evenodd" clip-rule="evenodd" d="M64.0341 21.582C64.0897 19.9895 62.8436 18.6532 61.2511 18.5976C54.2681 18.3537 36.5132 17.7337 29.5302 17.4899C27.9377 17.4342 26.6014 18.6803 26.5458 20.2728L26.2437 28.9239C26.1881 30.5166 27.4342 31.8529 29.0267 31.9085L60.7476 33.0162C62.3401 33.0718 63.6764 31.8257 63.732 30.233C63.8198 27.7202 63.9464 24.0948 64.0341 21.582Z" fill="#6E8B90"/>
<path fill-rule="evenodd" clip-rule="evenodd" d="M42.3354 64.133L65.4051 64.9386C66.2008 64.9664 66.8694 64.3427 66.8972 63.547C66.9249 62.7513 66.3015 62.0827 65.5058 62.0549L42.4361 61.2493C41.6404 61.2215 40.9716 61.845 40.9438 62.6407C40.916 63.4364 41.5397 64.1052 42.3354 64.133Z" fill="#6E8B90"/>
<path fill-rule="evenodd" clip-rule="evenodd" d="M33.5519 26.2924L56.6216 27.098C57.4174 27.1258 58.0862 26.5024 58.1139 25.7067C58.1417 24.9109 57.5181 24.2421 56.7223 24.2144L33.6526 23.4087C32.8569 23.381 32.1884 24.0046 32.1606 24.8004C32.1328 25.5961 32.7562 26.2646 33.5519 26.2924Z" fill="#6E8B90"/>
</g>
<defs>
<clipPath id="clip0_208_34198">
<rect width="72" height="72" fill="white" transform="translate(2.82031 0.892578) rotate(2)"/>
</clipPath>
</defs>
</svg>
