<svg width="48" height="49" viewBox="0 0 48 49" fill="none" xmlns="http://www.w3.org/2000/svg">
<path d="M38.8613 22.4581C39.0828 22.6889 39.1843 23.0211 39.0921 23.3535C38.3444 26.0304 37.2367 29.012 35.8982 31.975C32.7136 39.0458 27.0182 46.1073 24.6551 46.1073C24.5166 46.1073 24.3874 46.0889 24.2674 46.0335C23.9074 45.8673 22.7905 45.3689 23.6397 39.655C23.9721 37.4581 24.8582 33.0181 27.1105 28.015C28.4582 25.0427 29.9628 22.2458 31.4674 19.9104C31.6521 19.6335 31.9659 19.4858 32.2798 19.495C32.7505 18.535 33.2675 17.4919 33.7751 16.4766C34.5228 17.4181 35.4828 18.175 36.609 18.6735C37.5874 19.1165 38.6767 19.3566 39.7567 19.3566C39.8859 19.3566 40.0151 19.3566 40.1443 19.3473C39.7197 20.3904 39.2675 21.4704 38.8613 22.4581Z" fill="#CEFFA3"/>
<path d="M46.1576 7.98419C46.1669 10.1535 45.7238 12.6642 45.0869 14.0765C44.1084 16.2365 41.9853 17.5104 39.7515 17.5104C38.9576 17.5104 38.1361 17.3442 37.3607 16.9934C35.9392 16.3565 34.8592 15.2027 34.3053 13.7442C33.7515 12.2858 33.7976 10.698 34.4438 9.27652C35.7084 6.98726 37.1669 6.5811 38.45 6.22114C39.8346 5.84265 41.1453 5.47345 42.7515 2.82423C42.9915 2.42725 43.4899 2.27035 43.9146 2.46421C45.7607 3.29495 46.1576 5.92575 46.1576 7.98419Z" fill="#CEFFA3"/>
<path d="M32.5886 14.3999C31.9886 12.8214 31.924 11.1322 32.3855 9.54447C31.564 8.80602 30.687 8.1691 29.764 7.60603C27.0409 5.95369 23.9117 5.00295 20.6624 4.93833C15.6779 4.84604 10.9517 6.71062 7.3886 10.1999C3.82553 13.6983 1.85938 18.3691 1.85938 23.363C1.85938 30.2491 5.65321 36.5076 11.7548 39.6922C12.484 40.0799 13.2686 40.2737 14.0625 40.2737C14.9947 40.2737 15.9363 40.006 16.7763 39.4798C18.2994 38.5199 19.1671 36.9045 19.1117 35.1414C19.0102 32.0952 20.007 29.5753 21.9178 28.0522C22.9794 27.2122 24.2901 26.7137 25.7486 26.5753C27.0409 23.7691 28.4901 21.1383 29.9209 18.9137C30.1978 18.4891 30.567 18.166 30.9917 17.9537C31.5271 16.8737 32.1086 15.683 32.6717 14.5845C32.6348 14.5291 32.6163 14.4645 32.5886 14.3999ZM12.2255 30.286C10.5455 30.286 9.19785 28.9291 9.19785 27.2583C9.19785 25.5876 10.5455 24.2307 12.2255 24.2307C13.8963 24.2307 15.244 25.5876 15.244 27.2583C15.244 28.9291 13.8963 30.286 12.2255 30.286ZM13.8501 19.9568C12.1701 19.9568 10.8225 18.5999 10.8225 16.9291C10.8225 15.2583 12.1701 13.8922 13.8501 13.8922C15.5209 13.8922 16.8686 15.2583 16.8686 16.9291C16.8686 18.5999 15.5209 19.9568 13.8501 19.9568ZM24.4471 18.3322C22.7671 18.3322 21.4194 16.966 21.4194 15.3045C21.4194 13.6337 22.7671 12.2676 24.4471 12.2676C26.1179 12.2676 27.4655 13.6337 27.4655 15.3045C27.4655 16.966 26.1179 18.3322 24.4471 18.3322Z" fill="#CEFFA3"/>
</svg>
