<svg width="15" height="15" viewBox="0 0 15 15" fill="none" xmlns="http://www.w3.org/2000/svg">
<g clip-path="url(#clip0_3384_133457)">
<path d="M13.3062 4.27876C12.7324 3.29571 11.9541 2.51737 10.971 1.94358C9.98776 1.36983 8.9144 1.08301 7.75012 1.08301C6.58596 1.08301 5.51228 1.36983 4.52921 1.94358C3.54607 2.51728 2.76773 3.29562 2.19392 4.27876C1.62007 5.26195 1.33325 6.33563 1.33325 7.4997C1.33325 8.66384 1.62016 9.73734 2.19383 10.7206C2.76761 11.7036 3.54596 12.482 4.52909 13.0558C5.51228 13.6296 6.58587 13.9164 7.75001 13.9164C8.91414 13.9164 9.98785 13.6296 10.971 13.0558C11.9541 12.4822 12.7324 11.7036 13.3061 10.7206C13.8798 9.73743 14.1666 8.66378 14.1666 7.4997C14.1666 6.33551 13.8798 5.2618 13.3062 4.27876ZM11.6853 9.78059C11.2787 10.4768 10.7273 11.0282 10.031 11.435C9.33482 11.8416 8.57453 12.0447 7.75004 12.0447C6.92575 12.0447 6.1654 11.8416 5.46909 11.435C4.77286 11.0282 4.22146 10.4768 3.81486 9.78059C3.40818 9.08437 3.20491 8.32405 3.20491 7.4997C3.20491 6.6753 3.40827 5.91498 3.81486 5.21876C4.22138 4.52253 4.77292 3.97101 5.46909 3.56445C6.16532 3.15782 6.92563 2.95458 7.75004 2.95458C8.5745 2.95458 9.33482 3.15782 10.031 3.56445C10.7273 3.97104 11.2787 4.52253 11.6853 5.21876C12.0919 5.91498 12.2951 6.6753 12.2951 7.4997C12.2951 8.32405 12.0919 9.08437 11.6853 9.78059Z" fill="#697D67"/>
<path d="M7.74998 5.36035C7.15952 5.36035 6.65547 5.56927 6.23766 5.98693C5.82 6.40474 5.61108 6.90878 5.61108 7.49925C5.61108 8.08966 5.81988 8.59379 6.23766 9.01142C6.65547 9.42923 7.1596 9.63815 7.74998 9.63815C8.34051 9.63815 8.84464 9.42923 9.26225 9.01142C9.67996 8.59379 9.88888 8.08966 9.88888 7.49925C9.88888 6.90878 9.67996 6.40474 9.26225 5.98693C8.84464 5.56924 8.34051 5.36035 7.74998 5.36035Z" fill="#697D67"/>
</g>
<defs>
<clipPath id="clip0_3384_133457">
<rect width="14" height="14" fill="white" transform="translate(0.75 0.5)"/>
</clipPath>
</defs>
</svg>
