<svg width="48" height="48" viewBox="0 0 48 48" fill="none" xmlns="http://www.w3.org/2000/svg">
<g clip-path="url(#clip0_204_30820)">
<path d="M19.3044 13.5914C19.4171 15.2155 21.2727 16.1048 22.614 15.1821C23.7939 14.3699 25.4045 15.2159 25.4045 16.6494V22.5472H29.8228C29.0381 19.343 31.5787 16.2214 34.9581 16.4548C37.9315 16.6609 40.1365 19.5239 39.394 22.5472H43.8569C47.5914 16.9009 43.8304 8.73195 36.5531 8.35826C37.376 4.01285 34.0255 0.00738525 29.6345 0.00738525C28.0483 0.00738525 26.583 0.534635 25.4045 1.42282V10.2253C25.4045 11.6578 23.7951 12.5052 22.6138 11.6926C21.1786 10.7052 19.18 11.7959 19.3044 13.5914Z" fill="#CEFFA3"/>
<path d="M10.175 22.5473C11.6078 22.5473 12.455 24.1571 11.6421 25.3381C10.6594 26.7661 11.7384 28.771 13.5415 28.6465C15.1694 28.5336 16.0543 26.6765 15.1327 25.3378C14.3202 24.1573 15.167 22.5473 16.6001 22.5473H22.5927V18.2212C19.5626 18.9656 16.7051 16.7522 16.4993 13.7858C16.266 10.4206 19.3745 7.86324 22.5927 8.6512V1.42289C17.5476 -2.37923 10.3203 1.96214 11.4274 8.26524C4.1067 8.6542 0.401985 16.8409 4.16877 22.5473H10.175Z" fill="#CEFFA3"/>
<path d="M43.8096 25.3589H37.8219C36.3884 25.3589 35.542 23.7488 36.3546 22.5684C37.2768 21.229 36.3895 19.3725 34.7634 19.2597C32.9605 19.1346 31.8808 21.1394 32.864 22.5681C33.6766 23.7491 32.83 25.3589 31.3969 25.3589H25.4043V29.6826C28.6133 28.8969 31.7316 31.4438 31.4977 34.8171C31.2918 37.7846 28.4335 39.9962 25.4043 39.2526V46.5773C30.4494 50.3794 37.6767 46.038 36.5696 39.7349C43.7143 39.3551 47.6857 31.3396 43.8096 25.3589Z" fill="#CEFFA3"/>
<path d="M28.692 34.6226C28.8164 32.828 26.8178 31.7363 25.3826 32.7241C24.202 33.5359 22.5918 32.6905 22.5918 31.2568V25.3591H18.1711C18.9363 28.4734 16.5642 31.4639 13.3805 31.4639C10.1669 31.4639 7.8461 28.4357 8.59994 25.3591H4.16838C0.40366 31.0648 4.10116 39.2649 11.4433 39.642C10.6204 43.9874 13.971 47.9929 18.3619 47.9929C19.9481 47.9929 21.4134 47.4656 22.5919 46.5774V37.681C22.5919 36.2487 24.2014 35.401 25.3823 36.2136C26.7209 37.1349 28.5791 36.2501 28.692 34.6226Z" fill="#CEFFA3"/>
</g>
<defs>
<clipPath id="clip0_204_30820">
<rect width="48" height="48" fill="white"/>
</clipPath>
</defs>
</svg>
