<svg width="48" height="48" viewBox="0 0 48 48" fill="none" xmlns="http://www.w3.org/2000/svg">
<path d="M19.3333 3H5.33333C4.71449 3 4.121 3.24584 3.68341 3.68341C3.24584 4.121 3 4.71449 3 5.33333V19.3333C3 19.9521 3.24584 20.5457 3.68341 20.9832C4.121 21.4207 4.71449 21.6667 5.33333 21.6667H19.3333C19.9521 21.6667 20.5457 21.4207 20.9832 20.9832C21.4207 20.5457 21.6667 19.9521 21.6667 19.3333V5.33333C21.6667 4.71449 21.4207 4.121 20.9832 3.68341C20.5457 3.24584 19.9521 3 19.3333 3ZM42.6667 3H28.6667C28.0479 3 27.4543 3.24584 27.0168 3.68341C26.5793 4.121 26.3333 4.71449 26.3333 5.33333V19.3333C26.3333 19.9521 26.5793 20.5457 27.0168 20.9832C27.4543 21.4207 28.0479 21.6667 28.6667 21.6667H42.6667C43.2855 21.6667 43.8791 21.4207 44.3166 20.9832C44.7541 20.5457 45 19.9521 45 19.3333V5.33333C45 4.71449 44.7541 4.121 44.3166 3.68341C43.8791 3.24584 43.2855 3 42.6667 3ZM19.3333 26.3333H5.33333C4.71449 26.3333 4.121 26.5793 3.68341 27.0168C3.24584 27.4543 3 28.0479 3 28.6667V42.6667C3 43.2855 3.24584 43.8791 3.68341 44.3166C4.121 44.7541 4.71449 45 5.33333 45H19.3333C19.9521 45 20.5457 44.7541 20.9832 44.3166C21.4207 43.8791 21.6667 43.2855 21.6667 42.6667V28.6667C21.6667 28.0479 21.4207 27.4543 20.9832 27.0168C20.5457 26.5793 19.9521 26.3333 19.3333 26.3333ZM38 28.6667H33.3333V33.3333H28.6667V38H33.3333V42.6667H38V38H42.6667V33.3333H38V28.6667Z" fill="#7B7E78"/>
</svg>
