<svg width="48" height="48" viewBox="0 0 48 48" fill="none" xmlns="http://www.w3.org/2000/svg">
<g clip-path="url(#clip0_204_30827)">
<path d="M15.999 15.9998C25.156 15.9998 31.9982 12.3799 31.9982 9.14309C31.9982 5.90662 25.1559 2.28656 15.999 2.28656C6.84221 2.28656 0 5.90662 0 9.14309C0 12.3799 6.84206 15.9998 15.999 15.9998Z" fill="#CEFFA3"/>
<path d="M15.999 43.4274C17.3356 43.4274 18.622 43.3497 19.8456 43.2081C18.8141 41.8826 17.9612 40.4116 17.3222 38.8319C16.8831 38.8467 16.4425 38.8569 15.9989 38.8569C10.7666 38.8569 5.81154 37.8201 2.04686 35.9377C1.30559 35.5671 0.62346 35.1688 0 34.7473V36.5709C0 39.8074 6.84206 43.4274 15.999 43.4274Z" fill="#CEFFA3"/>
<path d="M15.9992 34.2849C16.0461 34.2849 16.0923 34.2842 16.1391 34.284C16.0454 33.5348 15.9964 32.7718 15.9964 31.9976C15.9964 31.2237 16.0452 30.4611 16.1391 29.7125C16.0923 29.7125 16.046 29.7142 15.9992 29.7142C10.7669 29.7142 5.812 28.6774 2.04716 26.795C1.30575 26.4244 0.62346 26.0262 0 25.6048V27.4282C0.000152398 30.6649 6.84221 34.2849 15.9992 34.2849Z" fill="#CEFFA3"/>
<path d="M15.9992 25.1421C16.4527 25.1421 16.9002 25.133 17.342 25.1156C18.0515 23.3748 19.0212 21.7668 20.2035 20.3408C18.8347 20.4917 17.4279 20.5717 15.9992 20.5717C10.7669 20.5717 5.812 19.535 2.04716 17.6525C1.30575 17.2818 0.62346 16.8837 0 16.4622V18.2858C0.000152398 21.5224 6.84221 25.1421 15.9992 25.1421Z" fill="#CEFFA3"/>
<path d="M22.8569 24.4208C21.8679 25.9078 21.1612 27.5977 20.8136 29.4137C20.6531 30.2508 20.5684 31.1145 20.5684 31.9976C20.5684 32.6616 20.6168 33.3145 20.7084 33.9535C20.9335 35.5233 21.4253 37.0077 22.1364 38.3599C22.8825 39.7789 23.8696 41.0522 25.0435 42.1243C27.4831 44.3525 30.7277 45.7134 34.2842 45.7134C41.8471 45.7134 48 39.5605 48 31.9976C48 24.4346 41.8471 18.2818 34.2842 18.2818C33.5025 18.2818 32.7361 18.3485 31.9897 18.4747C28.1876 19.1177 24.9129 21.3304 22.8569 24.4208Z" fill="#CEFFA3"/>
</g>
<defs>
<clipPath id="clip0_204_30827">
<rect width="48" height="48" fill="white"/>
</clipPath>
</defs>
</svg>
