<svg width="48" height="49" viewBox="0 0 48 49" fill="none" xmlns="http://www.w3.org/2000/svg">
<path d="M10 6.24463C10 7.03576 9.76541 7.80911 9.32588 8.46691C8.88635 9.12471 8.26164 9.6374 7.53074 9.94015C6.79983 10.2429 5.99556 10.3221 5.21964 10.1678C4.44372 10.0134 3.73098 9.63247 3.17157 9.07306C2.61216 8.51365 2.2312 7.80092 2.07686 7.02499C1.92252 6.24907 2.00173 5.4448 2.30448 4.7139C2.60723 3.98299 3.11992 3.35828 3.77772 2.91875C4.43552 2.47923 5.20888 2.24463 6 2.24463C7.06087 2.24463 8.07828 2.66606 8.82843 3.4162C9.57857 4.16635 10 5.18376 10 6.24463ZM6 20.2446C6.39556 20.2446 6.78224 20.1273 7.11114 19.9076C7.44004 19.6878 7.69639 19.3755 7.84776 19.01C7.99914 18.6445 8.03874 18.2424 7.96157 17.8545C7.8844 17.4665 7.69392 17.1101 7.41422 16.8304C7.13451 16.5507 6.77814 16.3602 6.39018 16.2831C6.00222 16.2059 5.60009 16.2455 5.23463 16.3969C4.86918 16.5482 4.55683 16.8046 4.33706 17.1335C4.1173 17.4624 4 17.8491 4 18.2446C4 18.7751 4.21072 19.2838 4.58579 19.6588C4.96086 20.0339 5.46957 20.2446 6 20.2446ZM6 32.2446C6.39556 32.2446 6.78224 32.1273 7.11114 31.9076C7.44004 31.6878 7.69639 31.3755 7.84776 31.01C7.99914 30.6445 8.03874 30.2424 7.96157 29.8545C7.8844 29.4665 7.69392 29.1101 7.41422 28.8304C7.13451 28.5507 6.77814 28.3602 6.39018 28.2831C6.00222 28.2059 5.60009 28.2455 5.23463 28.3969C4.86918 28.5482 4.55683 28.8046 4.33706 29.1335C4.1173 29.4624 4 29.8491 4 30.2446C4 30.7751 4.21072 31.2838 4.58579 31.6588C4.96086 32.0339 5.46957 32.2446 6 32.2446ZM6 38.2446C5.20888 38.2446 4.43552 38.4792 3.77772 38.9188C3.11992 39.3583 2.60723 39.983 2.30448 40.7139C2.00173 41.4448 1.92252 42.2491 2.07686 43.025C2.2312 43.8009 2.61216 44.5136 3.17157 45.0731C3.73098 45.6325 4.44372 46.0134 5.21964 46.1678C5.99556 46.3221 6.79983 46.2429 7.53074 45.9401C8.26164 45.6374 8.88635 45.1247 9.32588 44.4669C9.76541 43.8091 10 43.0358 10 42.2446C10 41.1838 9.57857 40.1663 8.82843 39.4162C8.07828 38.6661 7.06087 38.2446 6 38.2446ZM18 2.24463C17.2089 2.24463 16.4355 2.47923 15.7777 2.91875C15.1199 3.35828 14.6072 3.98299 14.3045 4.7139C14.0017 5.4448 13.9225 6.24907 14.0769 7.02499C14.2312 7.80092 14.6122 8.51365 15.1716 9.07306C15.731 9.63247 16.4437 10.0134 17.2196 10.1678C17.9956 10.3221 18.7998 10.2429 19.5307 9.94015C20.2616 9.6374 20.8864 9.12471 21.3259 8.46691C21.7654 7.80911 22 7.03576 22 6.24463C22 5.18376 21.5786 4.16635 20.8284 3.4162C20.0783 2.66606 19.0609 2.24463 18 2.24463ZM20 18.2446C20 17.8491 19.8827 17.4624 19.6629 17.1335C19.4432 16.8046 19.1308 16.5482 18.7654 16.3969C18.3999 16.2455 17.9978 16.2059 17.6098 16.2831C17.2219 16.3602 16.8655 16.5507 16.5858 16.8304C16.3061 17.1101 16.1156 17.4665 16.0384 17.8545C15.9613 18.2424 16.0009 18.6445 16.1522 19.01C16.3036 19.3755 16.56 19.6878 16.8889 19.9076C17.2178 20.1273 17.6044 20.2446 18 20.2446C18.5304 20.2446 19.0391 20.0339 19.4142 19.6588C19.7893 19.2838 20 18.7751 20 18.2446ZM18 26.2446C17.2089 26.2446 16.4355 26.4792 15.7777 26.9188C15.1199 27.3583 14.6072 27.983 14.3045 28.7139C14.0017 29.4448 13.9225 30.2491 14.0769 31.025C14.2312 31.8009 14.6122 32.5136 15.1716 33.0731C15.731 33.6325 16.4437 34.0134 17.2196 34.1678C17.9956 34.3221 18.7998 34.2429 19.5307 33.9401C20.2616 33.6374 20.8864 33.1247 21.3259 32.4669C21.7654 31.8091 22 31.0358 22 30.2446C22 29.1838 21.5786 28.1663 20.8284 27.4162C20.0783 26.6661 19.0609 26.2446 18 26.2446ZM18 40.2446C17.6044 40.2446 17.2178 40.3619 16.8889 40.5817C16.56 40.8015 16.3036 41.1138 16.1522 41.4793C16.0009 41.8447 15.9613 42.2468 16.0384 42.6348C16.1156 43.0228 16.3061 43.3791 16.5858 43.6588C16.8655 43.9385 17.2219 44.129 17.6098 44.2062C17.9978 44.2834 18.3999 44.2438 18.7654 44.0924C19.1308 43.941 19.4432 43.6847 19.6629 43.3558C19.8827 43.0269 20 42.6402 20 42.2446C20 41.7142 19.7893 41.2055 19.4142 40.8304C19.0391 40.4553 18.5304 40.2446 18 40.2446ZM30 8.24463C30.3956 8.24463 30.7822 8.12733 31.1111 7.90757C31.44 7.68781 31.6964 7.37545 31.8478 7.01C31.9991 6.64455 32.0387 6.24241 31.9616 5.85445C31.8844 5.46649 31.6939 5.11012 31.4142 4.83042C31.1345 4.55071 30.7781 4.36023 30.3902 4.28306C30.0022 4.20589 29.6001 4.2455 29.2346 4.39687C28.8692 4.54825 28.5568 4.80459 28.3371 5.13349C28.1173 5.46239 28 5.84907 28 6.24463C28 6.77506 28.2107 7.28377 28.5858 7.65884C28.9609 8.03392 29.4696 8.24463 30 8.24463ZM30 14.2446C29.2089 14.2446 28.4355 14.4792 27.7777 14.9188C27.1199 15.3583 26.6072 15.983 26.3045 16.7139C26.0017 17.4448 25.9225 18.2491 26.0769 19.025C26.2312 19.8009 26.6122 20.5136 27.1716 21.0731C27.731 21.6325 28.4437 22.0134 29.2196 22.1678C29.9956 22.3221 30.7998 22.2429 31.5307 21.9401C32.2616 21.6374 32.8864 21.1247 33.3259 20.4669C33.7654 19.8091 34 19.0358 34 18.2446C34 17.1838 33.5786 16.1663 32.8284 15.4162C32.0783 14.6661 31.0609 14.2446 30 14.2446ZM32 30.2446C32 29.8491 31.8827 29.4624 31.6629 29.1335C31.4432 28.8046 31.1308 28.5482 30.7654 28.3969C30.3999 28.2455 29.9978 28.2059 29.6098 28.2831C29.2219 28.3602 28.8655 28.5507 28.5858 28.8304C28.3061 29.1101 28.1156 29.4665 28.0384 29.8545C27.9613 30.2424 28.0009 30.6445 28.1522 31.01C28.3036 31.3755 28.56 31.6878 28.8889 31.9076C29.2178 32.1273 29.6044 32.2446 30 32.2446C30.5304 32.2446 31.0391 32.0339 31.4142 31.6588C31.7893 31.2838 32 30.7751 32 30.2446ZM30 38.2446C29.2089 38.2446 28.4355 38.4792 27.7777 38.9188C27.1199 39.3583 26.6072 39.983 26.3045 40.7139C26.0017 41.4448 25.9225 42.2491 26.0769 43.025C26.2312 43.8009 26.6122 44.5136 27.1716 45.0731C27.731 45.6325 28.4437 46.0134 29.2196 46.1678C29.9956 46.3221 30.7998 46.2429 31.5307 45.9401C32.2616 45.6374 32.8864 45.1247 33.3259 44.4669C33.7654 43.8091 34 43.0358 34 42.2446C34 41.1838 33.5786 40.1663 32.8284 39.4162C32.0783 38.6661 31.0609 38.2446 30 38.2446ZM42 10.2446C42.7911 10.2446 43.5645 10.01 44.2223 9.57051C44.8801 9.13098 45.3928 8.50627 45.6955 7.77536C45.9983 7.04446 46.0775 6.24019 45.9231 5.46427C45.7688 4.68835 45.3878 3.97561 44.8284 3.4162C44.269 2.85679 43.5563 2.47583 42.7804 2.32149C42.0044 2.16715 41.2002 2.24636 40.4693 2.54911C39.7384 2.85186 39.1136 3.36455 38.6741 4.02235C38.2346 4.68015 38 5.45351 38 6.24463C38 7.3055 38.4214 8.32291 39.1716 9.07306C39.9217 9.8232 40.9391 10.2446 42 10.2446ZM40 18.2446C40 18.6402 40.1173 19.0269 40.3371 19.3558C40.5568 19.6847 40.8692 19.941 41.2346 20.0924C41.6001 20.2438 42.0022 20.2834 42.3902 20.2062C42.7781 20.129 43.1345 19.9385 43.4142 19.6588C43.6939 19.3791 43.8844 19.0228 43.9616 18.6348C44.0387 18.2468 43.9991 17.8447 43.8478 17.4793C43.6964 17.1138 43.44 16.8015 43.1111 16.5817C42.7822 16.3619 42.3956 16.2446 42 16.2446C41.4696 16.2446 40.9609 16.4553 40.5858 16.8304C40.2107 17.2055 40 17.7142 40 18.2446ZM42 26.2446C41.2089 26.2446 40.4355 26.4792 39.7777 26.9188C39.1199 27.3583 38.6072 27.983 38.3045 28.7139C38.0017 29.4448 37.9225 30.2491 38.0769 31.025C38.2312 31.8009 38.6122 32.5136 39.1716 33.0731C39.731 33.6325 40.4437 34.0134 41.2196 34.1678C41.9956 34.3221 42.7998 34.2429 43.5307 33.9401C44.2616 33.6374 44.8864 33.1247 45.3259 32.4669C45.7654 31.8091 46 31.0358 46 30.2446C46 29.1838 45.5786 28.1663 44.8284 27.4162C44.0783 26.6661 43.0609 26.2446 42 26.2446ZM42 40.2446C41.6044 40.2446 41.2178 40.3619 40.8889 40.5817C40.56 40.8015 40.3036 41.1138 40.1522 41.4793C40.0009 41.8447 39.9613 42.2468 40.0384 42.6348C40.1156 43.0228 40.3061 43.3791 40.5858 43.6588C40.8655 43.9385 41.2219 44.129 41.6098 44.2062C41.9978 44.2834 42.3999 44.2438 42.7654 44.0924C43.1308 43.941 43.4432 43.6847 43.6629 43.3558C43.8827 43.0269 44 42.6402 44 42.2446C44 41.7142 43.7893 41.2055 43.4142 40.8304C43.0391 40.4553 42.5304 40.2446 42 40.2446Z" fill="#CEFFA3"/>
</svg>
