<svg width="24" height="25" viewBox="0 0 24 25" fill="none" xmlns="http://www.w3.org/2000/svg">
<g clip-path="url(#clip0_4067_6980)">
<path d="M24 12.04C24 5.41262 18.6274 0.0400391 12 0.0400391C5.37258 0.0400391 0 5.41262 0 12.04C0 18.0295 4.3882 22.994 10.125 23.8943V15.5088H7.07812V12.04H10.125V9.39629C10.125 6.38879 11.9166 4.72754 14.6576 4.72754C15.9701 4.72754 17.3438 4.96191 17.3438 4.96191V7.91504H15.8306C14.34 7.91504 13.875 8.84012 13.875 9.79004V12.04H17.2031L16.6711 15.5088H13.875V23.8943C19.6118 22.994 24 18.0295 24 12.04Z" fill="#004049"/>
</g>
<defs>
<clipPath id="clip0_4067_6980">
<rect width="24" height="24" fill="white" transform="translate(0 0.0400391)"/>
</clipPath>
</defs>
</svg>
