<svg width="232" height="167" viewBox="0 0 232 167" fill="none" xmlns="http://www.w3.org/2000/svg">
<g clip-path="url(#clip0_64_3439)">
<path d="M95.2341 160.43L11.3841 110.62C-2.57594 102.33 -2.57594 82.13 11.3841 73.84L95.2341 24.04C108.034 16.44 123.954 16.44 136.754 24.04L220.614 73.84C234.574 82.13 234.574 102.33 220.614 110.62L136.754 160.42C123.954 168.02 108.034 168.02 95.2341 160.42V160.43Z" fill="#F1F3EE"/>
<path d="M115.993 130.98C152.742 130.98 182.533 114.858 182.533 94.97C182.533 75.0822 152.742 58.96 115.993 58.96C79.2441 58.96 49.4531 75.0822 49.4531 94.97C49.4531 114.858 79.2441 130.98 115.993 130.98Z" fill="white"/>
<mask id="mask0_64_3439" style="mask-type:luminance" maskUnits="userSpaceOnUse" x="0" y="18" width="232" height="149">
<path d="M95.2341 160.43L11.3841 110.62C-2.57594 102.33 -2.57594 82.13 11.3841 73.84L95.2341 24.04C108.034 16.44 123.954 16.44 136.754 24.04L220.614 73.84C234.574 82.13 234.574 102.33 220.614 110.62L136.754 160.42C123.954 168.02 108.034 168.02 95.2341 160.42V160.43Z" fill="white"/>
</mask>
<g mask="url(#mask0_64_3439)">
<path d="M178.523 -33.5349L-23.0996 84.3781L-22.5948 85.2413L179.027 -32.6716L178.523 -33.5349Z" fill="#E0E5DA"/>
<path d="M165.817 -51.8439L-35.8047 66.069L-35.2999 66.9322L166.322 -50.9807L165.817 -51.8439Z" fill="#E0E5DA"/>
<path d="M200.942 4.22345L-0.679688 122.136L-0.174859 123L201.447 5.08667L200.942 4.22345Z" fill="#E0E5DA"/>
<path d="M188.225 -14.0893L-13.3887 103.819L-12.8838 104.682L188.73 -13.226L188.225 -14.0893Z" fill="#E0E5DA"/>
<path d="M223.373 41.9618L21.7598 159.87L22.2646 160.733L223.878 42.825L223.373 41.9618Z" fill="#E0E5DA"/>
<path d="M210.663 23.6489L9.04102 141.562L9.54584 142.425L211.168 24.5121L210.663 23.6489Z" fill="#E0E5DA"/>
<path d="M245.804 79.7149L44.1816 197.628L44.6865 198.491L246.309 80.5781L245.804 79.7149Z" fill="#E0E5DA"/>
<path d="M233.074 61.4122L31.4609 179.32L31.9658 180.183L233.579 62.2754L233.074 61.4122Z" fill="#E0E5DA"/>
<path d="M240.121 109.368L62.6602 213.151L63.165 214.014L240.626 110.231L240.121 109.368Z" fill="#E0E5DA"/>
<path d="M-21.6828 96.3604L-22.1895 97.2225L155.053 201.377L155.56 200.515L-21.6828 96.3604Z" fill="#E0E5DA"/>
<path d="M-4.04219 80.0739L-4.54883 80.936L172.694 185.09L173.201 184.228L-4.04219 80.0739Z" fill="#E0E5DA"/>
<path d="M13.5906 63.7923L13.084 64.6544L190.327 168.809L190.834 167.946L13.5906 63.7923Z" fill="#E0E5DA"/>
<path d="M18.5848 40.0712L18.0781 40.9333L207.969 152.52L208.476 151.658L18.5848 40.0712Z" fill="#E0E5DA"/>
<path d="M25.1297 17.2653L24.623 18.1274L225.618 136.239L226.125 135.377L25.1297 17.2653Z" fill="#E0E5DA"/>
<path d="M29.8406 -6.60801L29.334 -5.74585L243.253 119.961L243.76 119.098L29.8406 -6.60801Z" fill="#E0E5DA"/>
<path d="M84.157 -1.34397L83.6504 -0.481812L260.893 103.672L261.4 102.81L84.157 -1.34397Z" fill="#E0E5DA"/>
<path d="M99.9949 -17.1806L99.4883 -16.3185L276.731 87.8357L277.238 86.9735L99.9949 -17.1806Z" fill="#E0E5DA"/>
</g>
<path d="M157.484 107C157.434 107.01 157.374 107.02 157.314 107.03C157.074 107.04 156.814 107.07 156.514 107.13C154.854 107.43 152.874 108.29 152.094 109.05C151.564 109.57 151.734 109.91 152.414 109.98L137.764 117.93C136.864 118.2 135.924 118.54 135.074 118.92C133.534 119.61 132.804 120.22 133.114 120.45L119.184 128.01L118.954 127.95L117.564 127.51L151.494 109.19C153.864 107.87 154.424 106.77 152.974 106.3L147.034 104.4L125.194 97.4C125.094 97.37 124.984 97.34 124.854 97.32C123.344 97.09 120.034 97.75 117.504 98.71L116.334 98.97C114.504 99.41 112.624 100.06 111.344 100.78L41.2145 138.62C38.7745 139.98 38.2045 141.11 39.6945 141.59L66.8745 150.29C67.7045 150.56 69.4445 150.4 71.3445 149.99L72.2445 149.79C74.4945 149.72 78.3345 148.73 80.4545 147.54H80.4645L112.284 130.36L113.894 130.88L110.784 132.57C109.944 132.83 109.054 133.15 108.264 133.51C106.784 134.18 106.044 134.76 106.274 135.02L90.3045 143.69C87.8145 144.39 85.9445 145.25 86.1145 145.61C86.1145 145.63 86.1445 145.65 86.1645 145.66C86.1345 145.71 86.1245 145.76 86.1445 145.8C86.1645 145.83 86.1945 145.86 86.2445 145.89L84.8445 146.65L87.9145 146.05C88.6945 146 89.6845 145.84 90.7745 145.54C93.2845 144.84 95.3245 143.7 95.1445 143.33C95.1445 143.32 95.1245 143.31 95.1145 143.3C95.2045 143.21 95.2445 143.12 95.2145 143.06C95.1545 142.93 94.8545 142.89 94.3845 142.9L108.904 135.03C110.264 134.81 112.024 134.38 113.314 133.8C115.234 132.93 115.464 132.11 114.394 132.06L115.574 131.42L121.404 133.29C121.074 133.46 120.824 133.62 120.674 133.75C120.574 133.83 120.514 133.88 120.514 133.88C120.514 133.9 120.514 133.92 120.514 133.93C120.474 134.02 120.514 134.08 120.624 134.12C120.664 134.13 120.724 134.14 120.784 134.15L120.764 134.17L134.564 139.04C135.194 139.24 135.804 137.48 138.554 136.51C141.314 135.54 143.034 134.59 142.404 134.39L130.754 130.66C130.754 130.66 130.734 130.66 130.694 130.67C130.674 130.65 130.644 130.63 130.594 130.61C130.264 130.5 129.354 130.63 128.164 130.91L120.834 128.56L135.854 120.42C137.184 120.2 138.864 119.77 140.104 119.21C141.964 118.37 142.244 117.57 141.274 117.48L156.344 109.31C157.824 108.88 159.404 108.26 159.944 107.74C160.724 106.98 159.124 106.7 157.464 107H157.484Z" fill="#181B1A"/>
<path d="M143.314 138.03C143.314 139.33 141.434 140.38 139.114 140.38C136.794 140.38 134.914 139.33 134.914 138.03V113.93C134.914 113.93 137.024 112.11 139.114 112.11C141.204 112.11 143.314 113.96 143.314 113.96V138.03Z" fill="#181B1A"/>
<path d="M139.114 140.88C136.484 140.88 134.414 139.63 134.414 138.03V113.93C134.414 113.78 134.474 113.65 134.584 113.55C134.674 113.47 136.864 111.61 139.104 111.61C141.344 111.61 143.544 113.5 143.634 113.58C143.744 113.67 143.804 113.81 143.804 113.96V138.03C143.804 139.63 141.744 140.88 139.104 140.88H139.114ZM135.414 114.17V138.03C135.414 138.91 136.934 139.88 139.114 139.88C141.294 139.88 142.814 138.91 142.814 138.03V114.19C142.294 113.78 140.684 112.61 139.114 112.61C137.544 112.61 135.944 113.76 135.414 114.17Z" fill="#181B1A"/>
<path d="M143.314 113.64C143.314 114.94 141.434 115.99 139.114 115.99C136.794 115.99 134.914 114.94 134.914 113.64C134.914 112.34 136.794 111.29 139.114 111.29C141.434 111.29 143.314 112.34 143.314 113.64Z" fill="#C3B9B9"/>
<path d="M139.114 116.49C136.484 116.49 134.414 115.24 134.414 113.64C134.414 112.04 136.474 110.79 139.114 110.79C141.754 110.79 143.814 112.04 143.814 113.64C143.814 115.24 141.754 116.49 139.114 116.49ZM139.114 111.79C136.934 111.79 135.414 112.76 135.414 113.64C135.414 114.52 136.934 115.49 139.114 115.49C141.294 115.49 142.814 114.52 142.814 113.64C142.814 112.76 141.294 111.79 139.114 111.79Z" fill="#181B1A"/>
<path d="M141.964 112.98C141.964 113.86 140.694 114.57 139.114 114.57C137.534 114.57 136.264 113.86 136.264 112.98V86.69C136.264 86.69 137.694 85.45 139.114 85.45C140.534 85.45 141.964 86.7 141.964 86.7V112.97V112.98Z" fill="#F1F0F0"/>
<path d="M139.114 115.07C137.234 115.07 135.764 114.15 135.764 112.98V86.69C135.764 86.54 135.824 86.41 135.934 86.31C135.994 86.25 137.524 84.95 139.104 84.95C140.684 84.95 142.214 86.27 142.284 86.33C142.394 86.42 142.454 86.56 142.454 86.71V112.98C142.454 114.15 140.984 115.07 139.104 115.07H139.114ZM136.764 86.93V112.98C136.764 113.5 137.764 114.07 139.114 114.07C140.464 114.07 141.464 113.49 141.464 112.98V86.95C141.074 86.65 140.074 85.96 139.114 85.96C138.234 85.96 137.244 86.57 136.764 86.93Z" fill="#181B1A"/>
<g style="mix-blend-mode:multiply">
<path d="M141.984 93.3201C141.984 93.3201 141.004 94.8801 139.334 96.0401V114.56L137.324 115.56C137.324 115.56 134.094 115.06 135.174 112.76C135.174 112.76 135.894 111.97 136.534 111.97V93.2401L141.844 90.4401L141.984 93.3101V93.3201Z" fill="#C3B9B9"/>
</g>
<path d="M172.924 1.11004L97.4238 41.58C94.7438 43.13 93.0938 45.99 93.0938 49.08V105.24C93.0938 106.95 93.9937 108.35 95.2637 109.14L98.5137 111.02L175.474 68.74C178.154 67.19 179.804 64.33 179.804 61.24L180.304 2.75004L177.194 0.940044C175.904 0.320044 174.334 0.290044 172.924 1.11004Z" fill="#C3B9B9"/>
<path d="M98.5137 111.52C98.4237 111.52 98.3437 111.5 98.2637 111.45L95.0137 109.57C93.4937 108.63 92.5938 107.01 92.5938 105.23V49.07C92.5938 45.81 94.3538 42.77 97.1738 41.14L172.684 0.670019C174.104 -0.149981 175.914 -0.219981 177.404 0.490019L180.554 2.32002C180.714 2.41002 180.804 2.58002 180.804 2.76002L180.304 61.25C180.304 64.51 178.544 67.55 175.724 69.18L98.7537 111.46C98.6737 111.5 98.5937 111.52 98.5137 111.52ZM175.214 0.990019C174.504 0.990019 173.814 1.18002 173.174 1.54002L97.6637 42.02C95.1637 43.47 93.5938 46.17 93.5938 49.08V105.24C93.5938 106.67 94.3138 107.97 95.5338 108.72L98.5238 110.45L175.234 68.31C177.744 66.86 179.304 64.15 179.304 61.25L179.804 3.05002L176.944 1.38002C176.424 1.13002 175.814 0.990019 175.214 0.990019Z" fill="#181B1A"/>
<path d="M176.254 1.96999L99.7237 43.04C97.1137 44.54 95.5137 47.32 95.5137 50.33V107.75C95.5137 111.07 99.1037 113.14 101.984 111.48L178.514 70.41C181.114 68.91 182.724 66.13 182.724 63.12V5.69999C182.724 2.37999 179.134 0.309986 176.254 1.96999Z" fill="white"/>
<path d="M99.8337 112.56C97.1737 112.56 95.0137 110.4 95.0137 107.74V50.32C95.0137 47.14 96.7237 44.18 99.4737 42.6L176.014 1.53001C176.734 1.11001 177.564 0.890015 178.394 0.890015C181.054 0.890015 183.214 3.05001 183.214 5.71001V63.13C183.214 66.31 181.504 69.27 178.754 70.85L102.214 111.93C101.494 112.35 100.664 112.57 99.8337 112.57V112.56ZM178.404 1.88001C177.734 1.88001 177.104 2.05001 176.504 2.40001L99.9637 43.48C97.5337 44.88 96.0137 47.51 96.0137 50.33V107.75C96.0137 110.11 97.9937 111.57 99.8337 111.57C100.504 111.57 101.134 111.4 101.734 111.05L178.274 69.97C180.704 68.57 182.224 65.94 182.224 63.12V5.70001C182.224 3.34001 180.244 1.88001 178.404 1.88001Z" fill="#181B1A"/>
<path d="M99.8341 109.66C98.9141 109.66 97.9141 108.93 97.9141 107.74V50.32C97.9141 48.18 99.0641 46.18 100.924 45.11L177.384 4.08003C177.754 3.87003 178.074 3.78003 178.394 3.78003C179.314 3.78003 180.314 4.51003 180.314 5.70003V63.12C180.314 65.26 179.164 67.26 177.304 68.33L100.844 109.36C100.474 109.57 100.154 109.66 99.8341 109.66Z" fill="#F37748"/>
<path d="M99.8341 110.16C98.6741 110.16 97.4141 109.24 97.4141 107.74V50.32C97.4141 48 98.6641 45.84 100.674 44.68L177.154 3.64003C177.574 3.40003 177.974 3.28003 178.404 3.28003C179.564 3.28003 180.824 4.20003 180.824 5.70003V63.12C180.824 65.44 179.574 67.61 177.564 68.76L101.084 109.8C100.664 110.04 100.264 110.16 99.8341 110.16ZM178.404 4.28003C178.154 4.28003 177.924 4.35003 177.634 4.51003L101.154 45.55C99.4641 46.52 98.4041 48.36 98.4041 50.32V107.74C98.4041 108.62 99.1441 109.16 99.8241 109.16C100.074 109.16 100.304 109.09 100.584 108.93L177.064 67.89C178.754 66.92 179.814 65.09 179.814 63.12V5.70003C179.814 4.82003 179.074 4.28003 178.394 4.28003H178.404Z" fill="#181B1A"/>
<path d="M178.403 3.78003C178.283 3.78003 178.163 3.80003 178.033 3.82003C178.093 4.01003 178.143 4.21003 178.143 4.44003V61.86C178.143 64 176.993 66 175.133 67.07L98.6734 108.1C98.4434 108.23 98.2334 108.31 98.0234 108.35C98.2934 109.16 99.0834 109.65 99.8334 109.65C100.163 109.65 100.483 109.56 100.843 109.35L177.303 68.32C179.163 67.25 180.313 65.25 180.313 63.11V5.70003C180.313 4.52003 179.313 3.78003 178.393 3.78003H178.403Z" fill="#181B1A"/>
<path d="M99.8332 110.16C98.8132 110.16 97.8732 109.48 97.5532 108.52C97.5032 108.38 97.5232 108.24 97.5932 108.11C97.6632 107.99 97.7832 107.9 97.9232 107.87C98.0932 107.83 98.2532 107.77 98.4232 107.67L174.903 66.63C176.593 65.66 177.653 63.82 177.653 61.86V4.44003C177.653 4.30003 177.623 4.15003 177.573 3.98003C177.523 3.84003 177.543 3.70003 177.613 3.57003C177.683 3.45003 177.803 3.36003 177.943 3.33003C178.113 3.29003 178.263 3.28003 178.413 3.28003C179.573 3.28003 180.833 4.20003 180.833 5.70003V63.12C180.833 65.44 179.583 67.61 177.573 68.76L101.093 109.8C100.673 110.04 100.273 110.16 99.8432 110.16H99.8332ZM98.7332 108.63C99.0232 108.98 99.4532 109.16 99.8232 109.16C100.073 109.16 100.303 109.09 100.583 108.93L177.063 67.89C178.753 66.92 179.813 65.09 179.813 63.12V5.70003C179.813 4.93003 179.243 4.41003 178.633 4.30003C178.633 4.35003 178.633 4.39003 178.633 4.44003V61.86C178.633 64.18 177.383 66.34 175.373 67.5L98.8932 108.54C98.8332 108.57 98.7832 108.6 98.7232 108.63H98.7332Z" fill="#181B1A"/>
<path d="M107.214 115.84L104.574 113.86C104.434 113.76 104.364 113.59 104.374 113.42C104.384 113.25 104.484 113.1 104.634 113.02L180.794 71.64C180.964 71.55 181.164 71.56 181.314 71.67L184.174 73.65L183.604 74.47L180.994 72.66L105.784 113.53L107.804 115.04L107.204 115.84H107.214Z" fill="#181B1A"/>
<path d="M182.011 72.7801L106.193 113.877L106.67 114.756L182.488 73.6592L182.011 72.7801Z" fill="#181B1A"/>
<path d="M108.643 116.46C110.533 117.01 112.773 115.71 113.163 114.4C113.543 113.09 112.463 111.48 110.573 110.93C108.683 110.38 106.853 110.94 106.463 112.25C106.073 113.56 106.753 115.9 108.643 116.46Z" fill="#C3B9B9"/>
<path d="M109.583 117.09C109.213 117.09 108.843 117.04 108.503 116.94C107.513 116.65 106.703 115.9 106.243 114.84C105.853 113.94 105.753 112.9 105.983 112.11C106.323 110.96 107.563 110.22 109.143 110.22C109.663 110.22 110.183 110.3 110.713 110.45C112.813 111.07 114.123 112.9 113.643 114.54C113.233 115.92 111.383 117.09 109.583 117.09ZM109.133 111.22C108.003 111.22 107.143 111.68 106.933 112.4C106.763 112.96 106.853 113.77 107.153 114.45C107.353 114.9 107.833 115.71 108.783 115.99C109.033 116.06 109.303 116.1 109.583 116.1C111.023 116.1 112.433 115.12 112.683 114.27C112.973 113.3 112.133 111.92 110.433 111.42C110.003 111.29 109.573 111.23 109.143 111.23L109.133 111.22Z" fill="#181B1A"/>
<path d="M109.414 115C111.304 115.56 113.144 114.94 113.524 113.64C113.904 112.33 112.694 110.82 110.804 110.27C108.914 109.72 107.074 110.33 106.694 111.64C106.304 112.95 107.524 114.46 109.414 115.01V115Z" fill="#FCA311"/>
<path d="M110.804 115.71C110.294 115.71 109.784 115.63 109.274 115.48C108.264 115.18 107.394 114.63 106.814 113.91C106.194 113.14 105.984 112.28 106.214 111.49C106.554 110.32 107.814 109.56 109.424 109.56C109.934 109.56 110.444 109.64 110.954 109.79C113.144 110.43 114.484 112.19 114.014 113.78C113.674 114.95 112.414 115.71 110.804 115.71ZM109.414 110.56C108.264 110.56 107.384 111.04 107.164 111.77C107.024 112.24 107.164 112.78 107.584 113.28C108.034 113.84 108.734 114.28 109.554 114.52C109.974 114.64 110.394 114.7 110.804 114.7C111.954 114.7 112.834 114.23 113.054 113.49C113.354 112.47 112.264 111.2 110.674 110.74C110.254 110.62 109.834 110.56 109.424 110.56H109.414Z" fill="#181B1A"/>
<path d="M132.383 104.74C134.263 104.15 135.393 101.81 134.983 100.51C134.573 99.21 132.773 98.48 130.893 99.08C129.013 99.67 127.813 101.17 128.223 102.47C128.633 103.77 130.503 105.34 132.383 104.74Z" fill="#C3B9B9"/>
<path d="M131.544 105.37C129.794 105.37 128.164 103.95 127.744 102.62C127.494 101.83 127.694 100.97 128.304 100.2C128.864 99.49 129.734 98.92 130.734 98.6C131.224 98.45 131.714 98.37 132.214 98.37C133.774 98.37 135.074 99.17 135.454 100.36C135.954 101.93 134.674 104.54 132.534 105.21C132.214 105.31 131.884 105.36 131.544 105.36V105.37ZM132.224 99.37C131.834 99.37 131.444 99.43 131.054 99.56C130.234 99.82 129.544 100.27 129.104 100.82C128.704 101.32 128.564 101.86 128.714 102.32C129.024 103.29 130.264 104.37 131.554 104.37C131.784 104.37 132.024 104.33 132.244 104.26C133.894 103.74 134.824 101.65 134.514 100.66C134.264 99.89 133.354 99.37 132.224 99.37Z" fill="#181B1A"/>
<path d="M132.215 103.1C134.095 102.51 135.275 100.97 134.865 99.67C134.455 98.37 132.595 97.8 130.725 98.39C128.845 98.98 127.665 100.52 128.075 101.82C128.485 103.12 130.345 103.69 132.215 103.1Z" fill="#FCA311"/>
<path d="M130.735 103.83C129.185 103.83 127.945 103.1 127.595 101.97C127.095 100.38 128.405 98.6 130.575 97.91C131.115 97.74 131.665 97.65 132.205 97.65C133.755 97.65 134.985 98.38 135.345 99.51C135.835 101.07 134.505 102.89 132.365 103.57C131.825 103.74 131.275 103.83 130.735 103.83ZM132.195 98.66C131.755 98.66 131.315 98.73 130.865 98.87C129.285 99.37 128.215 100.65 128.535 101.67C128.755 102.38 129.615 102.83 130.725 102.83C131.165 102.83 131.605 102.76 132.055 102.62C133.635 102.12 134.705 100.84 134.385 99.82C134.165 99.11 133.305 98.66 132.195 98.66Z" fill="#181B1A"/>
<path d="M161.404 88.87C163.284 88.28 164.414 85.94 164.004 84.64C163.594 83.34 161.794 82.61 159.914 83.2C158.034 83.79 156.834 85.29 157.244 86.59C157.654 87.89 159.524 89.46 161.404 88.86V88.87Z" fill="#C3B9B9"/>
<path d="M160.564 89.5C158.814 89.5 157.184 88.08 156.764 86.75C156.264 85.18 157.584 83.42 159.764 82.73C160.254 82.58 160.744 82.5 161.244 82.5C162.804 82.5 164.104 83.3 164.484 84.49C164.984 86.06 163.704 88.67 161.564 89.34C161.244 89.44 160.914 89.49 160.574 89.49L160.564 89.5ZM161.234 83.5C160.844 83.5 160.454 83.56 160.064 83.69C158.454 84.2 157.404 85.44 157.724 86.45C158.034 87.42 159.274 88.5 160.564 88.5C160.794 88.5 161.034 88.46 161.254 88.39C162.904 87.87 163.834 85.78 163.524 84.79C163.274 84.02 162.364 83.5 161.234 83.5Z" fill="#181B1A"/>
<path d="M161.235 87.23C163.115 86.64 164.295 85.1 163.885 83.8C163.475 82.5 161.615 81.93 159.745 82.52C157.865 83.11 156.685 84.65 157.095 85.95C157.505 87.25 159.365 87.82 161.235 87.23Z" fill="#FCA311"/>
<path d="M159.754 87.97C158.204 87.97 156.974 87.24 156.614 86.11C156.114 84.52 157.424 82.74 159.594 82.05C160.134 81.88 160.684 81.79 161.224 81.79C162.774 81.79 164.004 82.52 164.364 83.65C164.864 85.24 163.554 87.02 161.384 87.71C160.844 87.88 160.294 87.97 159.754 87.97ZM161.214 82.79C160.774 82.79 160.334 82.86 159.884 83C158.304 83.5 157.234 84.78 157.554 85.8C157.774 86.51 158.634 86.96 159.744 86.96C160.184 86.96 160.624 86.89 161.074 86.75C162.654 86.25 163.724 84.97 163.404 83.95C163.184 83.24 162.324 82.79 161.214 82.79Z" fill="#181B1A"/>
<path d="M183.723 75.07C184.993 73.56 184.703 70.99 183.653 70.11C182.613 69.23 180.693 69.58 179.433 71.09C178.163 72.6 177.953 74.51 178.993 75.38C180.033 76.26 182.453 76.58 183.723 75.07Z" fill="#C3B9B9"/>
<path d="M181.284 76.61C180.304 76.61 179.304 76.28 178.674 75.75C178.044 75.22 177.744 74.38 177.854 73.4C177.954 72.5 178.374 71.56 179.054 70.75C179.914 69.73 181.114 69.12 182.254 69.12C182.924 69.12 183.514 69.33 183.974 69.71C184.594 70.23 185.004 71.21 185.054 72.31C185.114 73.47 184.764 74.59 184.104 75.37C183.444 76.16 182.434 76.6 181.284 76.6V76.61ZM182.254 70.13C181.394 70.13 180.484 70.61 179.814 71.4C179.264 72.06 178.914 72.81 178.844 73.51C178.774 74.15 178.944 74.67 179.314 74.99C179.764 75.37 180.534 75.61 181.284 75.61C181.784 75.61 182.704 75.5 183.344 74.74C183.844 74.15 184.104 73.28 184.064 72.37C184.024 71.56 183.744 70.82 183.344 70.48C183.064 70.25 182.694 70.12 182.264 70.12L182.254 70.13Z" fill="#181B1A"/>
<path d="M182.703 73.77C183.973 72.26 184.153 70.33 183.113 69.45C182.073 68.57 180.193 69.08 178.933 70.59C177.663 72.1 177.483 74.03 178.523 74.91C179.563 75.79 181.443 75.28 182.703 73.77Z" fill="#FCA311"/>
<path d="M179.774 75.84C179.164 75.84 178.614 75.65 178.194 75.29C177.564 74.76 177.264 73.92 177.354 72.94C177.444 72.02 177.864 71.08 178.544 70.27C179.464 69.18 180.694 68.53 181.844 68.53C182.454 68.53 183.004 68.72 183.424 69.08C184.054 69.61 184.354 70.45 184.264 71.43C184.174 72.35 183.754 73.29 183.084 74.1C182.164 75.19 180.934 75.84 179.784 75.84H179.774ZM181.844 69.53C180.994 69.53 180.024 70.06 179.304 70.92C178.754 71.57 178.414 72.32 178.354 73.04C178.294 73.69 178.464 74.22 178.844 74.53C179.094 74.74 179.404 74.84 179.784 74.84C180.634 74.84 181.604 74.31 182.324 73.45C182.874 72.8 183.214 72.05 183.274 71.33C183.334 70.68 183.164 70.15 182.784 69.84C182.534 69.63 182.224 69.53 181.844 69.53Z" fill="#181B1A"/>
<g style="mix-blend-mode:multiply">
<path d="M182.714 5.69998V50.84C180.014 43.06 175.264 36.58 168.594 32.42C149.574 20.54 122.094 31.95 107.214 57.89C96.7439 76.15 95.3039 96.74 101.994 111.47H101.974C99.0939 113.13 95.5039 111.06 95.5039 107.74V50.32C95.5039 47.31 97.1139 44.53 99.7239 43.03L176.254 1.96998C179.124 0.309981 182.714 2.38998 182.714 5.70998V5.69998Z" fill="#C3B9B9"/>
</g>
<path d="M106.854 81.9201V60.4501L119.714 53.7401V58.6401L111.824 62.7601V66.7401L118.424 63.2901V68.1901L111.824 71.6401V79.3201L106.854 81.9201Z" fill="#181B1A"/>
<path d="M132.443 64.58L125.813 68.04L124.633 72.63L119.613 75.25L126.613 50.13L132.053 47.29L138.973 65.15L133.613 67.95L132.453 64.58H132.443ZM127.153 62.88L131.153 60.79L129.183 55L127.163 62.88H127.153Z" fill="#181B1A"/>
<path d="M138.803 54.47C138.803 47.95 143.093 41.08 148.533 38.24C153.973 35.4 158.293 37.78 158.293 44.3C158.293 48.43 156.583 52.73 153.923 56.03L157.083 61.14L152.113 63.74L149.693 59.95C149.303 60.19 148.933 60.41 148.533 60.61C143.093 63.45 138.803 61 138.803 54.48V54.47ZM153.163 46.97C153.163 43.59 151.503 41.74 148.533 43.29C145.563 44.84 143.903 48.43 143.903 51.81C143.903 55.19 145.563 57.1 148.533 55.55C151.503 54 153.163 50.35 153.163 46.97Z" fill="#181B1A"/>
<path d="M166.473 51.0801C162.213 53.3001 159.903 52.2401 159.613 48.6801L163.923 46.4301C163.923 47.7801 165.003 48.0801 166.553 47.2701C167.583 46.7301 168.503 45.9801 168.503 45.1501C168.503 44.4301 168.033 44.3801 167.053 44.6801L164.263 45.5701C161.793 46.3501 160.213 45.5701 160.213 42.9601C160.213 39.8501 162.523 36.4601 166.233 34.5201C169.943 32.5801 172.523 33.4801 172.783 36.9301L168.473 39.1801C168.363 37.9501 167.503 37.6201 166.263 38.2701C165.213 38.8201 164.523 39.5101 164.523 40.2201C164.523 40.9301 164.973 40.8801 165.863 40.6001L168.863 39.6601C171.593 38.8001 173.043 39.5701 173.043 41.8701C173.043 45.4301 170.733 48.8501 166.473 51.0701V51.0801Z" fill="#181B1A"/>
</g>
<defs>
<clipPath id="clip0_64_3439">
<rect width="230.17" height="166.13" fill="white" transform="translate(0.914062)"/>
</clipPath>
</defs>
</svg>
