<svg width="33" height="33" viewBox="0 0 33 33" fill="none" xmlns="http://www.w3.org/2000/svg">
<g clip-path="url(#clip0_2040_137190)">
<path fill-rule="evenodd" clip-rule="evenodd" d="M5.00391 27.7754C8.03418 30.8057 12.0476 32.4746 16.3047 32.4746C20.5618 32.4746 24.5752 30.8057 27.6055 27.7754C30.6357 24.7451 32.3047 20.7317 32.3047 16.4746C32.3047 12.2175 30.6357 8.2041 27.6055 5.17383C24.5752 2.14355 20.5618 0.474609 16.3047 0.474609C12.0476 0.474609 8.03418 2.14355 5.00391 5.17383C1.97363 8.2041 0.304688 12.2175 0.304688 16.4746C0.304688 20.7317 1.97363 24.7451 5.00391 27.7754ZM13.3596 26.4218L21.6499 16.9671C21.7282 16.8778 21.784 16.7693 21.8122 16.6515C21.8404 16.5337 21.8402 16.4103 21.8115 16.2927C21.7827 16.175 21.7265 16.0668 21.6478 15.9779C21.5691 15.889 21.4706 15.8223 21.3611 15.7838L17.8896 14.5656L20.4084 7.26874C20.4637 7.1092 20.4641 6.93433 20.4098 6.77445C20.3554 6.61457 20.2496 6.47976 20.1107 6.3934C19.9718 6.30703 19.8086 6.27456 19.6493 6.3016C19.4901 6.32864 19.3448 6.4135 19.2388 6.54145L10.9486 16.5685C10.8692 16.6645 10.8151 16.7807 10.7917 16.9056C10.7683 17.0305 10.7765 17.1596 10.8153 17.2801C10.8542 17.4006 10.9225 17.5083 11.0132 17.5923C11.104 17.6764 11.2142 17.7339 11.3327 17.7591L14.6909 18.474L12.2038 25.6799C12.1659 25.7898 12.1536 25.9076 12.1681 26.0235C12.1825 26.1394 12.2233 26.2499 12.287 26.3456C12.3506 26.4414 12.4353 26.5196 12.5337 26.5736C12.6322 26.6276 12.7415 26.6559 12.8525 26.656C12.9479 26.6562 13.0422 26.6354 13.1295 26.5951C13.2168 26.5548 13.2952 26.4958 13.3596 26.4218Z" fill="#697D67"/>
</g>
<defs>
<clipPath id="clip0_2040_137190">
<rect width="32" height="32" fill="white" transform="translate(0.5 0.5)"/>
</clipPath>
</defs>
</svg>
