<svg width="56" height="56" viewBox="0 0 56 56" fill="none" xmlns="http://www.w3.org/2000/svg">
<g clip-path="url(#clip0_1288_7721)">
<path fill-rule="evenodd" clip-rule="evenodd" d="M8.07678 47.5414C13.2851 52.7497 20.1831 55.6182 27.5 55.6182C34.8169 55.6182 41.7149 52.7497 46.9232 47.5414C52.1315 42.3331 55 35.435 55 28.1182C55 20.8013 52.1315 13.9032 46.9232 8.69495C41.7149 3.48666 34.8169 0.618164 27.5 0.618164C20.1831 0.618164 13.2851 3.48666 8.07678 8.69495C2.8685 13.9032 0 20.8013 0 28.1182C0 35.435 2.8685 42.3331 8.07678 47.5414ZM22.4361 45.2157L36.6849 28.9654C36.8195 28.812 36.9154 28.6255 36.9639 28.4231C37.0125 28.2206 37.012 28.0085 36.9627 27.8063C36.9133 27.604 36.8166 27.418 36.6814 27.2652C36.5462 27.1124 36.3767 26.9977 36.1886 26.9316L30.2219 24.8378L34.5511 12.2964C34.6461 12.0222 34.6469 11.7216 34.5535 11.4468C34.46 11.172 34.2782 10.9403 34.0395 10.7919C33.8008 10.6435 33.5202 10.5876 33.2465 10.6341C32.9728 10.6806 32.7232 10.8264 32.5409 11.0464L18.292 28.2804C18.1556 28.4453 18.0626 28.6451 18.0224 28.8597C17.9822 29.0743 17.9963 29.2963 18.0631 29.5034C18.1299 29.7105 18.2472 29.8956 18.4032 30.0401C18.5592 30.1845 18.7486 30.2833 18.9522 30.3267L24.7242 31.5554L20.4495 43.9406C20.3843 44.1294 20.3632 44.3319 20.3881 44.5311C20.413 44.7303 20.4831 44.9202 20.5925 45.0848C20.7018 45.2494 20.8473 45.3838 21.0165 45.4766C21.1857 45.5695 21.3737 45.618 21.5645 45.6182C21.7284 45.6185 21.8905 45.5829 22.0406 45.5136C22.1906 45.4443 22.3253 45.3428 22.4361 45.2157Z" fill="#7B7E78"/>
</g>
<defs>
<clipPath id="clip0_1288_7721">
<rect width="55" height="55" fill="white" transform="translate(0.333496 0.659668)"/>
</clipPath>
</defs>
</svg>
