<svg width="21" height="20" viewBox="0 0 21 20" fill="none" xmlns="http://www.w3.org/2000/svg">
<g clip-path="url(#clip0_966_72898)">
<path d="M14.9928 8.99083C14.7029 9.28069 14.7029 9.78795 14.9928 10.0778C15.2826 10.3677 15.7174 10.3677 16.0073 10.0778C16.2972 9.78795 16.2972 9.28069 16.0073 8.99083C15.7174 8.70097 15.2826 8.70097 14.9928 8.99083Z" fill="#6B6D68"/>
<path d="M15.9351 5.36768H5.06532C-1.02177 5.58507 -1.02177 14.3534 5.06532 14.5708H15.9351C22.0222 14.3534 22.0222 5.58507 15.9351 5.36768ZM17.5294 12.2519C17.0946 12.2519 16.7322 11.6722 16.4424 11.4548C15.8627 11.7446 15.138 11.7446 14.5583 11.4548C13.4713 10.9475 13.0365 9.64313 13.5438 8.55615C14.051 7.46917 15.3554 7.03438 16.4424 7.54164C17.5294 8.04889 17.9641 9.35327 17.4569 10.4403L18.0366 11.02C18.1815 11.1649 18.254 11.3098 18.254 11.5272C18.254 11.962 17.9641 12.2519 17.5294 12.2519Z" fill="#7B7E78"/>
</g>
<defs>
<clipPath id="clip0_966_72898">
<rect width="20" height="20" fill="white" transform="translate(0.5)"/>
</clipPath>
</defs>
</svg>
