<svg width="21" height="20" viewBox="0 0 21 20" fill="none" xmlns="http://www.w3.org/2000/svg">
<g clip-path="url(#clip0_966_72886)">
<path d="M20.5006 4.48766V3.83252H17.6836V4.48766H18.7645V15.5122H17.6836V16.1673H20.5006V15.5122H19.4197V4.48766H20.5006Z" fill="#6B6D68"/>
<path d="M0.621549 13.5008L3.91859 6.05528C4.14846 5.54186 4.5672 5.23096 5.1349 5.23096H5.25651C5.82385 5.23096 6.22936 5.5418 6.459 6.05528L9.75616 13.5008C9.82372 13.6494 9.86436 13.7845 9.86436 13.9197C9.86436 14.4737 9.43191 14.9196 8.87785 14.9196C8.39142 14.9196 8.06706 14.6359 7.87794 14.2034L7.24292 12.7171H3.08098L2.41884 14.2711C2.24314 14.6764 1.8919 14.9196 1.45945 14.9196C0.918746 14.9196 0.5 14.4872 0.5 13.9467C0.5 13.798 0.553982 13.6494 0.621549 13.5008ZM6.47264 10.8793L5.16183 7.7579L3.85114 10.8793H6.47264Z" fill="#6B6D68"/>
<path d="M10.8496 12.7576V12.7305C10.8496 11.1496 12.0523 10.4199 13.7684 10.4199C14.4981 10.4199 15.0252 10.5415 15.5387 10.7172V10.5956C15.5387 9.74422 15.0116 9.27137 13.9846 9.27137C13.4171 9.27137 12.9577 9.3524 12.5658 9.47407C12.4443 9.51458 12.3631 9.52805 12.2684 9.52805C11.7956 9.52805 11.4172 9.16323 11.4172 8.69032C11.4172 8.32544 11.6469 8.01466 11.9711 7.893C12.6197 7.64978 13.3225 7.51465 14.2819 7.51465C15.4034 7.51465 16.2142 7.8119 16.7277 8.32538C17.2682 8.86585 17.5114 9.66318 17.5114 10.6361V13.9331C17.5114 14.4873 17.0655 14.9196 16.5115 14.9196C15.9169 14.9196 15.5251 14.5007 15.5251 14.0683V14.0547C15.0251 14.6087 14.3358 14.9736 13.336 14.9736C11.9711 14.9737 10.8496 14.1901 10.8496 12.7576ZM15.5655 12.2846V11.9198C15.2142 11.7577 14.7548 11.6495 14.2549 11.6495C13.3764 11.6495 12.836 12.0009 12.836 12.6494V12.6765C12.836 13.2305 13.2955 13.5548 13.9575 13.5548C14.9169 13.5549 15.5655 13.0279 15.5655 12.2846Z" fill="#6B6D68"/>
</g>
<defs>
<clipPath id="clip0_966_72886">
<rect width="20" height="20" fill="white" transform="translate(0.5)"/>
</clipPath>
</defs>
</svg>
