<svg width="21" height="20" viewBox="0 0 21 20" fill="none" xmlns="http://www.w3.org/2000/svg">
<g clip-path="url(#clip0_966_72895)">
<path d="M7.79102 14.6768V18.5418C7.79102 18.8118 7.96435 19.0509 8.22102 19.1359C8.28518 19.1568 8.35102 19.1668 8.41602 19.1668C8.61102 19.1668 8.79935 19.0751 8.91935 18.9118L11.1802 15.8351L7.79102 14.6768Z" fill="#6B6D68"/>
<path d="M20.2375 0.115907C20.0459 -0.0199262 19.7942 -0.0382595 19.5859 0.0709072L0.83587 9.86257C0.614204 9.97841 0.48337 10.2151 0.501704 10.4642C0.52087 10.7142 0.686704 10.9276 0.922537 11.0084L6.13504 12.7901L17.2359 3.29841L8.64587 13.6476L17.3817 16.6334C17.4467 16.6551 17.515 16.6667 17.5834 16.6667C17.6967 16.6667 17.8092 16.6359 17.9084 16.5759C18.0667 16.4792 18.1742 16.3167 18.2017 16.1342L20.4934 0.717574C20.5275 0.484241 20.4292 0.252574 20.2375 0.115907Z" fill="#7B7E78"/>
</g>
<defs>
<clipPath id="clip0_966_72895">
<rect width="20" height="20" fill="white" transform="translate(0.5)"/>
</clipPath>
</defs>
</svg>
