<svg width="21" height="20" viewBox="0 0 21 20" fill="none" xmlns="http://www.w3.org/2000/svg">
<path d="M13.813 0H7.15844C5.98406 0.00133168 5.03242 0.952981 5.03125 2.12735V17.8728C5.03242 19.0471 5.98406 19.9988 7.15844 19.9999H13.813C14.9874 19.9988 15.939 19.0471 15.9403 17.8728V2.12735C15.939 0.952981 14.9874 0.00133168 13.813 0ZM10.4858 18.1819C9.98359 18.1819 9.57659 17.7749 9.57659 17.2727C9.57659 16.7706 9.98359 16.3636 10.4858 16.3636C10.9878 16.3636 11.3948 16.7706 11.3948 17.2727C11.3948 17.7749 10.9878 18.1819 10.4858 18.1819ZM11.8494 2.72727H9.12216C8.87114 2.72727 8.66756 2.52369 8.66756 2.27267C8.66756 2.02165 8.87114 1.81824 9.12216 1.81824H11.8494C12.1005 1.81824 12.3039 2.02165 12.3039 2.27267C12.3039 2.52369 12.1005 2.72727 11.8494 2.72727Z" fill="#6B6D68"/>
</svg>
