<svg width="20" height="20" viewBox="0 0 20 20" fill="none" xmlns="http://www.w3.org/2000/svg">
<g clip-path="url(#clip0_966_72883)">
<path fill-rule="evenodd" clip-rule="evenodd" d="M11.1786 15.0057L11.5079 15.5766C11.7562 16.0071 11.8233 16.5193 11.694 16.9993C11.5655 17.4796 11.251 17.8894 10.8204 18.1378L10.1772 18.5088C9.74649 18.7572 9.23425 18.8242 8.75416 18.6949C8.27398 18.5665 7.86422 18.2519 7.6159 17.8214L7.06689 16.8695C7.23985 16.7951 7.40966 16.7099 7.57631 16.6138L9.56397 15.4674L11.1786 15.0057ZM8.46072 14.66L6.95149 15.5305C5.21709 16.5308 3.00043 15.9357 1.99983 14.2009L1.87567 13.9857C0.875078 12.2508 1.46961 10.0335 3.20402 9.03315L4.48481 8.29443L8.46072 14.66ZM5.53138 7.6104L11.5312 1.81428C11.9467 1.413 12.5237 1.22577 13.0951 1.30577C13.6669 1.3864 14.1697 1.726 14.4583 2.22638L18.4794 9.19805C18.768 9.69843 18.8101 10.3037 18.5936 10.839C18.3767 11.3737 17.9257 11.7794 17.3703 11.9381L9.6175 14.1519L5.53138 7.6104Z" fill="#6B6D68"/>
</g>
<defs>
<clipPath id="clip0_966_72883">
<rect width="20" height="20" fill="white"/>
</clipPath>
</defs>
</svg>
