<svg width="21" height="20" viewBox="0 0 21 20" fill="none" xmlns="http://www.w3.org/2000/svg">
<g clip-path="url(#clip0_966_72889)">
<path d="M14.1419 8.46779C14.1833 8.50721 14.2249 8.54654 14.2669 8.58576C15.7193 7.23037 16.819 5.726 16.819 4.74869C16.819 4.16111 16.341 3.68311 15.7534 3.68311C15.348 3.68311 14.9714 3.91916 14.7939 4.28455C14.5848 4.72178 13.9489 4.72162 13.7399 4.28459C13.2543 3.304 11.7873 3.59783 11.7168 4.68631C13.1283 5.18775 14.1419 6.53662 14.1419 8.11799V8.46779Z" fill="#6B6D68"/>
<path d="M18.0312 0.000488281H10.5C9.13449 0.000488281 8.03125 1.10553 8.03125 2.46924V4.47705H10.5C10.5196 4.47705 10.5391 4.47748 10.5586 4.47779C10.7614 2.7083 12.9338 1.87588 14.2656 3.07877C14.6696 2.7208 15.198 2.51088 15.7521 2.51088C16.9859 2.51088 17.9896 3.51459 17.9896 4.74834C17.9896 6.76057 15.4025 9.18182 14.643 9.82104C14.5 9.94076 14.3164 9.98357 14.1406 9.94479V14.3381C14.3328 14.382 14.5413 14.3204 14.6799 14.1804L16.3911 12.4692H18.0312C19.3966 12.4692 20.5 11.3644 20.5 10.0005V2.4692C20.5 1.10369 19.3949 0.000488281 18.0312 0.000488281Z" fill="#7B7E78"/>
<path d="M6.73422 12.4692C5.52859 12.4692 4.51551 13.3097 4.25 14.4354H9.21844C8.95293 13.3097 7.93984 12.4692 6.73422 12.4692Z" fill="#7B7E78"/>
<path d="M6.73305 11.2971C7.27512 11.2971 7.71613 10.8561 7.71613 10.314C7.66672 9.0117 5.79922 9.01201 5.75 10.314C5.75 10.8561 6.19098 11.2971 6.73305 11.2971Z" fill="#7B7E78"/>
<path d="M10.5 5.64893H2.96875C1.60324 5.64893 0.5 6.75396 0.5 8.11768V15.6489C0.5 17.0145 1.60504 18.1177 2.96875 18.1177H4.60887L6.32004 19.8289C6.5382 20.0558 6.93051 20.0558 7.14867 19.8289L8.85988 18.1177H10.5C11.8654 18.1177 12.9688 17.0128 12.9688 15.6489V8.11768C12.9688 6.75213 11.8637 5.64893 10.5 5.64893ZM9.87242 15.6072H3.59637C3.27277 15.6072 3.01043 15.3449 3.01043 15.0213C3.01043 13.5637 3.85238 12.2992 5.07539 11.688C3.915 10.3222 4.92531 8.14361 6.73441 8.15936C8.54328 8.14361 9.55402 10.3225 8.3934 11.688C9.61641 12.2992 10.4584 13.5637 10.4584 15.0213C10.4584 15.3449 10.196 15.6072 9.87242 15.6072Z" fill="#7B7E78"/>
</g>
<defs>
<clipPath id="clip0_966_72889">
<rect width="20" height="20" fill="white" transform="translate(0.5)"/>
</clipPath>
</defs>
</svg>
