<svg width="21" height="20" viewBox="0 0 21 20" fill="none" xmlns="http://www.w3.org/2000/svg">
<path d="M9.02907 9.11719H1.97024C1.48201 9.11719 1.08789 9.51131 1.08789 9.99954V18.529C1.08789 19.0113 1.48201 19.4113 1.97024 19.4113H9.02907C9.5173 19.4113 9.91142 19.0113 9.91142 18.529V9.99954C9.91142 9.51131 9.5173 9.11719 9.02907 9.11719Z" fill="#7B7E78"/>
<path d="M19.0291 0.587891H11.9702C11.482 0.587891 11.0879 0.982008 11.0879 1.47024V9.99966C11.0879 10.482 11.482 10.882 11.9702 10.882H19.0291C19.5173 10.882 19.9114 10.482 19.9114 9.99966V1.47024C19.9114 0.982008 19.5173 0.587891 19.0291 0.587891Z" fill="#7B7E78"/>
<path d="M19.0291 12.0586H11.9702C11.482 12.0586 11.0879 12.4527 11.0879 12.9409V18.5292C11.0879 19.0115 11.482 19.4115 11.9702 19.4115H19.0291C19.5173 19.4115 19.9114 19.0115 19.9114 18.5292V12.9409C19.9114 12.4527 19.5173 12.0586 19.0291 12.0586Z" fill="#7B7E78"/>
<path d="M9.02907 0.587891H1.97024C1.48201 0.587891 1.08789 0.982008 1.08789 1.47024V7.05848C1.08789 7.54083 1.48201 7.94083 1.97024 7.94083H9.02907C9.5173 7.94083 9.91142 7.54083 9.91142 7.05848V1.47024C9.91142 0.982008 9.5173 0.587891 9.02907 0.587891Z" fill="#7B7E78"/>
</svg>
