<svg width="20" height="20" viewBox="0 0 20 20" fill="none" xmlns="http://www.w3.org/2000/svg">
<g clip-path="url(#clip0_966_72877)">
<path d="M19.8649 12.6525C19.8649 12.7814 19.8219 12.9064 19.7438 13.008C19.236 13.6603 18.7243 14.3126 18.2204 14.965C17.361 16.0783 15.8336 18.0548 15.0407 19.0783C14.861 19.3087 14.529 19.3517 14.2985 19.172C14.236 19.1251 14.1891 19.0626 14.154 18.9962C12.7165 16.1916 11.2829 13.3947 9.83365 10.5705C9.70084 10.3087 9.8024 9.99234 10.0641 9.85952C10.1774 9.80093 10.3102 9.7853 10.4313 9.81655L19.4274 12.09C19.6852 12.1564 19.8649 12.3869 19.8649 12.6525Z" fill="#6B6D68"/>
<path d="M18.1822 1.33994V1.36337C18.1822 1.99228 17.6705 2.50009 17.0416 2.50009C16.9752 2.50009 16.9049 2.49228 16.8385 2.48056C13.7291 1.92978 10.7799 2.5079 7.99865 4.26572C7.86975 4.34775 7.8385 4.42197 7.86194 4.57431C8.151 6.46884 6.60022 8.02353 4.70569 7.73447C4.56115 7.71103 4.47522 7.73447 4.39319 7.86728C2.28381 11.3087 1.8424 14.8438 3.06897 18.4767C3.276 19.0782 2.95178 19.7345 2.35022 19.9376C2.22912 19.9767 2.10412 20.0001 1.97912 20.0001C1.48303 20.0001 1.04553 19.6837 0.889279 19.2149C0.506467 18.086 0.264279 16.9102 0.174436 15.7228C-0.0365018 12.8946 0.518186 10.2267 1.8424 7.71884C2.07287 7.28134 2.34631 6.86728 2.60803 6.44931C2.67444 6.33994 2.69397 6.26181 2.64319 6.13681C2.19006 5.07431 2.40881 3.89853 3.19787 3.10556C4.00647 2.29306 5.17053 2.0665 6.24084 2.51962C6.36975 2.57431 6.45959 2.5665 6.57287 2.48837C9.70569 0.382904 13.5299 -0.429596 17.2447 0.222748C17.7877 0.316498 18.1822 0.789154 18.1822 1.33994Z" fill="#6B6D68"/>
</g>
<defs>
<clipPath id="clip0_966_72877">
<rect width="20" height="20" fill="white"/>
</clipPath>
</defs>
</svg>
