<svg width="24" height="18" viewBox="0 0 24 18" fill="none" xmlns="http://www.w3.org/2000/svg">
<path d="M23.25 4.125C23.25 3.42881 22.9734 2.76113 22.4812 2.26885C21.9889 1.77657 21.3212 1.50001 20.625 1.50001H10.3177C10.0957 1.50072 9.87854 1.43545 9.69375 1.31251L8.39062 0.441099C7.95911 0.152543 7.45145 -0.00101089 6.93234 5.00834e-06H3.375C2.67881 5.00834e-06 2.01113 0.276567 1.51884 0.76885C1.02656 1.26113 0.75 1.92881 0.75 2.62501V4.875C0.75 4.97446 0.789509 5.06984 0.859835 5.14017C0.930161 5.2105 1.02554 5.25 1.125 5.25H22.875C22.9745 5.25 23.0698 5.2105 23.1402 5.14017C23.2105 5.06984 23.25 4.97446 23.25 4.875V4.125ZM0.75 15.375C0.75 16.0712 1.02656 16.7389 1.51884 17.2312C2.01113 17.7234 2.67881 18 3.375 18H20.625C21.3212 18 21.9889 17.7234 22.4812 17.2312C22.9734 16.7389 23.25 16.0712 23.25 15.375V7.125C23.25 7.02555 23.2105 6.93017 23.1402 6.85984C23.0698 6.78951 22.9745 6.75 22.875 6.75H1.125C1.02554 6.75 0.930161 6.78951 0.859835 6.85984C0.789509 6.93017 0.75 7.02555 0.75 7.125V15.375Z" fill="#697D67"/>
</svg>
