<svg width="32" height="33" viewBox="0 0 32 33" fill="none" xmlns="http://www.w3.org/2000/svg">
<path d="M12.75 15.8149H4.25C3.65326 15.8149 3.08097 15.5779 2.65901 15.1559C2.23705 14.734 2 14.1617 2 13.5649V5.06494C2 4.4682 2.23705 3.89591 2.65901 3.47395C3.08097 3.05199 3.65326 2.81494 4.25 2.81494H12.75C13.3467 2.81494 13.919 3.05199 14.341 3.47395C14.7629 3.89591 15 4.4682 15 5.06494V13.5649C15 14.1617 14.7629 14.734 14.341 15.1559C13.919 15.5779 13.3467 15.8149 12.75 15.8149ZM27.75 15.8149H19.25C18.6533 15.8149 18.081 15.5779 17.659 15.1559C17.2371 14.734 17 14.1617 17 13.5649V5.06494C17 4.4682 17.2371 3.89591 17.659 3.47395C18.081 3.05199 18.6533 2.81494 19.25 2.81494H27.75C28.3467 2.81494 28.919 3.05199 29.341 3.47395C29.7629 3.89591 30 4.4682 30 5.06494V13.5649C30 14.1617 29.7629 14.734 29.341 15.1559C28.919 15.5779 28.3467 15.8149 27.75 15.8149ZM12.75 30.8149H4.25C3.65326 30.8149 3.08097 30.5779 2.65901 30.1559C2.23705 29.734 2 29.1617 2 28.5649V20.0649C2 19.4682 2.23705 18.8959 2.65901 18.474C3.08097 18.052 3.65326 17.8149 4.25 17.8149H12.75C13.3467 17.8149 13.919 18.052 14.341 18.474C14.7629 18.8959 15 19.4682 15 20.0649V28.5649C15 29.1617 14.7629 29.734 14.341 30.1559C13.919 30.5779 13.3467 30.8149 12.75 30.8149ZM27.75 30.8149H19.25C18.6533 30.8149 18.081 30.5779 17.659 30.1559C17.2371 29.734 17 29.1617 17 28.5649V20.0649C17 19.4682 17.2371 18.8959 17.659 18.474C18.081 18.052 18.6533 17.8149 19.25 17.8149H27.75C28.3467 17.8149 28.919 18.052 29.341 18.474C29.7629 18.8959 30 19.4682 30 20.0649V28.5649C30 29.1617 29.7629 29.734 29.341 30.1559C28.919 30.5779 28.3467 30.8149 27.75 30.8149Z" fill="#7B7E78"/>
</svg>
