<svg width="75" height="76" viewBox="0 0 75 76" fill="none" xmlns="http://www.w3.org/2000/svg">
<g clip-path="url(#clip0_208_34194)">
<path d="M60.969 55.4174C61.4391 56.6931 61.5968 58.0628 61.429 59.4119C61.2612 60.761 60.7727 62.0503 60.0045 63.172C59.3285 64.2136 58.4111 65.0766 57.3303 65.6879C56.2494 66.2991 55.037 66.6405 53.796 66.683L23.4643 67.7422C22.2234 67.7864 20.9901 67.5304 19.8692 66.9961C18.7484 66.4617 17.773 65.6647 17.026 64.6728C16.1871 63.6045 15.6134 62.3524 15.3521 61.0194C15.0908 59.6864 15.1493 58.3104 15.5229 57.0044C16.8065 52.0242 19.6416 47.5816 23.6178 44.3197C27.594 41.0577 32.505 39.1456 37.6401 38.8602C42.7835 38.7827 47.8178 40.346 52.0126 43.3232C56.2074 46.3004 59.3446 50.5367 60.969 55.4174ZM13.5302 48.5811C10.9896 49.5651 8.70017 51.1028 6.82831 53.0824C4.95646 55.062 3.54921 57.4339 2.70886 60.0255C2.40441 60.9736 2.33584 61.9817 2.50911 62.9623C2.68238 63.9429 3.09226 64.8664 3.70319 65.6528C4.35808 66.4992 5.20514 67.1774 6.17426 67.6314C7.14337 68.0854 8.20668 68.302 9.27616 68.2634L13.209 68.1261L12.9137 67.7761C11.587 66.0786 10.6799 64.0919 10.2662 61.9776C9.85244 59.8632 9.94381 57.6811 10.5328 55.6088C11.237 53.1511 12.2439 50.7905 13.5302 48.5811ZM73.9626 57.5373C72.9467 55.0087 71.3785 52.739 69.3726 50.8944C67.3668 49.0497 64.974 47.6767 62.3693 46.8756C63.7977 48.9915 64.9581 51.2764 65.8239 53.678C66.5514 55.7035 66.7947 57.8712 66.5341 60.0075C66.2735 62.1439 65.5164 64.1896 64.3233 65.9808L64.1009 66.2459L68.0338 66.1086C69.1034 66.0725 70.149 65.7822 71.084 65.2618C72.0191 64.7413 72.8168 64.0056 73.4111 63.1156C73.9367 62.2953 74.2607 61.3622 74.3565 60.3926C74.4524 59.4231 74.3174 58.4447 73.9626 57.5373ZM58.3386 41.9978C59.8637 41.9445 61.3389 41.4402 62.5774 40.5486C63.816 39.657 64.7623 38.4181 65.2968 36.9886C65.8312 35.5591 65.9298 34.0033 65.58 32.5178C65.2302 31.0323 64.4478 29.6839 63.3317 28.6431C62.2156 27.6023 60.8159 26.9159 59.3096 26.6706C57.8033 26.4252 56.2581 26.6321 54.8694 27.265C53.4807 27.8978 52.3109 28.9283 51.5078 30.226C50.7048 31.5237 50.3046 33.0305 50.3578 34.5556C50.4293 36.6008 51.3102 38.5339 52.8069 39.9296C54.3036 41.3253 56.2934 42.0692 58.3386 41.9978ZM17.2109 43.434C18.736 43.3808 20.2112 42.8764 21.4497 41.9848C22.6883 41.0932 23.6346 39.8543 24.1691 38.4248C24.7035 36.9954 24.8021 35.4395 24.4523 33.954C24.1025 32.4685 23.3201 31.1201 22.204 30.0793C21.0878 29.0385 19.6882 28.3521 18.1819 28.1068C16.6756 27.8615 15.1304 28.0683 13.7417 28.7012C12.353 29.334 11.1832 30.3645 10.3801 31.6622C9.57708 32.96 9.17687 34.4667 9.23013 35.9919C9.30155 38.0371 10.1825 39.9701 11.6792 41.3658C13.1759 42.7615 15.1657 43.5054 17.2109 43.434ZM37.5054 35.0045C40.0474 34.9157 42.506 34.0751 44.5702 32.5891C46.6345 31.103 48.2117 29.0382 49.1024 26.6558C49.9932 24.2734 50.1575 21.6803 49.5745 19.2045C48.9915 16.7287 47.6875 14.4813 45.8273 12.7467C43.9671 11.012 41.6342 9.8679 39.1238 9.45905C36.6134 9.0502 34.0381 9.39496 31.7236 10.4497C29.4091 11.5045 27.4593 13.2219 26.1209 15.3848C24.7824 17.5477 24.1154 20.0589 24.2042 22.6009C24.3232 26.0095 25.7915 29.2313 28.2859 31.5574C30.7804 33.8836 34.0968 35.1235 37.5054 35.0045Z" fill="#6E8B90"/>
</g>
<defs>
<clipPath id="clip0_208_34194">
<rect width="72" height="72" fill="white" transform="translate(0.380859 3.50244) rotate(-2)"/>
</clipPath>
</defs>
</svg>
