<svg width="72" height="72" viewBox="0 0 72 72" fill="none" xmlns="http://www.w3.org/2000/svg">
<path d="M51.5398 47.0525C51.0877 48.0907 50.4012 48.8525 49.4803 49.3381C48.124 50.0497 46.2989 50.0831 44.5994 49.4469C43.8041 49.1455 42.9083 49.4888 42.5232 50.2506C40.4804 54.2273 36.6628 55.5752 32.7866 53.6831C32.0247 53.3148 31.1038 53.5659 30.6434 54.2775C29.5801 55.9352 28.1653 56.7807 24.4146 55.8933C22.8825 55.5249 21.4761 54.7129 20.3375 53.5408L12.6185 45.5874C12.3757 45.3446 12.066 45.1772 11.7311 45.1102L1.16477 43.0814C0.489848 42.9519 0.00195312 42.3614 0.00195312 41.6741V24.1539C0.00195312 23.269 0.796081 22.5956 1.66912 22.7401L13.1962 24.6492C13.6901 24.7412 14.2008 24.5906 14.5776 24.2557C20.9654 18.6464 27.3532 16.2604 34.0089 17.0306L21.0826 29.3961C20.2789 30.1663 19.8351 31.2462 19.8687 32.3513C19.8937 33.4648 20.4044 34.5197 21.25 35.2397L22.4723 36.2862C26.382 39.6182 32.1419 39.4675 35.8758 35.9513L41.9958 30.1914C43.1594 36.102 46.1064 42.8163 51.5398 47.0525Z" fill="#7B7E78"/>
<path d="M72.0008 24.2332V41.1659C72.0008 41.8887 71.4624 42.4984 70.7452 42.5879L53.9508 44.6833C48.1099 40.3483 45.4112 32.3913 44.8687 26.7215C44.8064 26.0708 44.4358 25.4618 43.8293 25.218C43.613 25.1312 43.4077 25.0929 43.1929 25.0929C42.7743 25.0929 42.3557 25.2519 42.0459 25.5533L33.5818 33.5151C31.087 35.8592 27.2443 35.9513 24.6489 33.7411L23.4183 32.6946C23.2425 32.5439 23.2174 32.3597 23.209 32.2593C23.209 32.1588 23.2257 31.9747 23.3931 31.8156L37.4832 18.3451C37.8181 18.0269 38.1697 17.7339 38.5297 17.4744C38.605 17.4325 38.6804 17.3823 38.7473 17.332C41.9035 15.214 46.1314 15.1972 49.3295 17.4242L59.3256 24.3729C59.694 24.6324 60.1461 24.7329 60.5898 24.6492L70.3032 22.8248C71.1852 22.6591 72.0008 23.3357 72.0008 24.2332Z" fill="#7B7E78"/>
</svg>
