<svg width="48" height="48" viewBox="0 0 48 48" fill="none" xmlns="http://www.w3.org/2000/svg">
<path d="M34.498 0C26.767 0 20.4976 6.2694 20.4976 14.0004H33.6694L30.4978 10.8282L33.328 8.0004L39.9118 14.5866C40.693 15.366 40.693 16.6326 39.9118 17.4144L33.328 24L30.4996 21.1722L33.6694 18H19.6522L16.654 25.2366L16.6504 25.2348C16.5526 25.4712 16.498 25.7286 16.498 25.9998C16.498 27.1014 17.392 28.0002 18.4978 28.0002H20.4976V31.9998C20.4976 35.3124 23.185 37.9998 26.4976 37.9998H28.498V48H48.4978V14.0004C48.4978 6.2694 42.2326 0 34.498 0Z" fill="#CEFFA3"/>
<path d="M16.5002 31.9998V31.6584C14.1716 30.8322 12.5 28.6074 12.5 25.9998C12.5 25.209 12.6542 24.4374 12.9572 23.7072L14.594 19.743L14.6024 19.7466L15.3242 18H8.4998V14.0004H16.5002C16.5002 8.6718 18.8396 3.8928 22.5314 0.5952C21.254 0.2112 19.9022 0 18.5 0C10.7696 0 4.5002 6.2694 4.5002 14.0004V15.9552L0.656 25.2366L0.6524 25.2348C0.5552 25.4706 0.5 25.7286 0.5 25.9998C0.5 27.1014 1.394 28.0002 2.4998 28.0002H4.5002V31.9998C4.5002 35.3124 7.1876 37.9998 10.5002 37.9998H12.5V48H24.5V41.799C19.9412 40.869 16.5002 36.8304 16.5002 31.9998Z" fill="#CEFFA3"/>
</svg>
