<svg width="72" height="73" viewBox="0 0 72 73" fill="none" xmlns="http://www.w3.org/2000/svg">
<path fill-rule="evenodd" clip-rule="evenodd" d="M32.8836 31.9591C26.6432 26.3683 18.7501 27.3832 14.2283 31.0061C8.38685 35.6878 7.83828 45.0416 13.6743 54.4042C16.8121 59.7637 24.0109 65.2094 30.9848 69.319C30.9863 69.3205 30.9887 69.3213 30.9903 69.3221C34.0419 71.1097 37.8207 71.1089 40.8708 69.3205C40.8723 69.3198 40.8739 69.319 40.8747 69.3182C47.8501 65.2102 55.0489 59.7637 58.1969 54.3893C64.0228 45.0315 63.4718 35.6854 57.6327 31.0061C53.1164 27.3871 45.2366 26.3707 38.9986 31.9387C37.2322 33.4034 34.6665 33.412 32.8844 31.9575L32.8836 31.9591ZM35.9305 3.16229C29.0044 3.16229 23.3808 8.78591 23.3808 15.712C23.3808 22.6389 29.0044 28.2625 35.9305 28.2625C42.8574 28.2625 48.481 22.6389 48.481 15.712C48.481 8.78591 42.8574 3.16229 35.9305 3.16229Z" fill="#7B7E78"/>
</svg>
