<svg width="48" height="48" viewBox="0 0 48 48" fill="none" xmlns="http://www.w3.org/2000/svg">
<path fill-rule="evenodd" clip-rule="evenodd" d="M22.0839 20.4777C17.6463 16.5021 12.0334 17.2238 8.81792 19.8C4.66398 23.1292 4.27389 29.7809 8.42393 36.4387C10.6553 40.2499 15.7744 44.1224 20.7336 47.0448C20.7347 47.0459 20.7364 47.0464 20.7375 47.047C22.9076 48.3181 25.5947 48.3176 27.7637 47.0459C27.7648 47.0453 27.7659 47.0448 27.7665 47.0442C32.7268 44.123 37.8459 40.2499 40.0845 36.4281C44.2273 29.7736 43.8355 23.1275 39.6833 19.8C36.4717 17.2265 30.8683 16.5038 26.4323 20.4632C25.1762 21.5048 23.3517 21.5109 22.0845 20.4766L22.0839 20.4777ZM24.2506 0C19.3254 0 15.3264 3.99902 15.3264 8.92423C15.3264 13.85 19.3254 17.849 24.2506 17.849C29.1764 17.849 33.1754 13.85 33.1754 8.92423C33.1754 3.99902 29.1764 0 24.2506 0Z" fill="#CEFFA3"/>
</svg>
