<svg width="48" height="48" viewBox="0 0 48 48" fill="none" xmlns="http://www.w3.org/2000/svg">
<path d="M39.9548 10.8085C40.2558 8.79625 39.6591 6.75205 38.3194 5.20023C36.9567 3.62175 34.9811 2.71875 32.8968 2.71875H15.1005C13.0162 2.71875 11.0407 3.62531 9.67966 5.20379C8.33826 6.75738 7.74326 8.80158 8.0461 10.8156C8.76936 15.6132 11.4041 20.0553 15.8861 24.0478C11.4023 28.0402 8.76758 32.4823 8.0461 37.28C7.74326 39.2939 8.34004 41.3381 9.67966 42.8917C11.0407 44.472 13.018 45.375 15.1005 45.375H32.8968C34.9811 45.375 36.9567 44.472 38.3194 42.8935C39.6591 41.3417 40.2558 39.2975 39.9548 37.2871C39.2369 32.5054 36.5986 28.0597 32.1059 24.046C36.5986 20.0322 39.2369 15.5883 39.9548 10.8085ZM34.5553 10.4938C32.8024 14.8169 29.1202 18.3542 26.3448 20.5584L25.1156 21.5378C24.4654 22.0533 23.548 22.0533 22.8978 21.5414L21.6436 20.5477C18.87 18.3596 15.1967 14.8382 13.4402 10.4938C13.2175 9.94456 13.2852 9.32418 13.6148 8.83358C13.9461 8.34475 14.5002 8.05145 15.0916 8.05145H32.9057C33.4989 8.05145 34.053 8.34297 34.3825 8.83358C34.7139 9.32241 34.778 9.94633 34.5553 10.4938ZM24.1251 17.7783L24.0004 17.8778L23.8544 17.7623C21.9892 16.2905 19.668 14.1556 18.0274 11.6084H29.9664C28.3204 14.1485 25.9956 16.294 24.1269 17.7801L24.1251 17.7783Z" fill="#7B7E78"/>
</svg>
