<svg width="20" height="22" viewBox="0 0 20 22" fill="none" xmlns="http://www.w3.org/2000/svg">
<path d="M18.6672 5.38897C18.6955 5.37246 18.719 5.34882 18.7353 5.3204C18.7516 5.29199 18.7602 5.25979 18.7602 5.22702C18.7602 5.19425 18.7516 5.16205 18.7353 5.13364C18.719 5.10522 18.6955 5.08158 18.6672 5.06507L11.5075 0.905379C11.0494 0.639842 10.5293 0.5 9.99977 0.5C9.47026 0.5 8.95015 0.639842 8.49204 0.905379L1.33375 5.06507C1.30545 5.08158 1.28197 5.10522 1.26565 5.13364C1.24933 5.16205 1.24074 5.19425 1.24074 5.22702C1.24074 5.25979 1.24933 5.29199 1.26565 5.3204C1.28197 5.34882 1.30545 5.37246 1.33375 5.38897L9.90625 10.4318C9.93509 10.4488 9.96795 10.4577 10.0014 10.4577C10.0349 10.4577 10.0677 10.4488 10.0966 10.4318L18.6672 5.38897ZM0.531254 6.66444C0.502661 6.64793 0.470216 6.63927 0.437199 6.63932C0.404183 6.63937 0.371765 6.64814 0.343226 6.66474C0.314686 6.68134 0.291036 6.70519 0.274667 6.73386C0.258297 6.76253 0.24979 6.79502 0.250004 6.82804V14.9791C0.250712 15.3719 0.354239 15.7577 0.550291 16.0981C0.746343 16.4385 1.02809 16.7216 1.3675 16.9193L8.96875 21.4769C8.99724 21.4934 9.02956 21.5021 9.06246 21.5021C9.09535 21.5021 9.12767 21.4934 9.15617 21.477C9.18467 21.4606 9.20834 21.4369 9.22481 21.4084C9.24128 21.38 9.24997 21.3476 9.25 21.3148V11.8577C9.24997 11.8248 9.24129 11.7925 9.22484 11.7641C9.20838 11.7356 9.18473 11.712 9.15625 11.6955L0.531254 6.66444ZM10.75 11.8905V21.3124C10.75 21.3453 10.7587 21.3776 10.7752 21.4061C10.7917 21.4346 10.8153 21.4582 10.8438 21.4746C10.8723 21.4911 10.9047 21.4997 10.9376 21.4997C10.9704 21.4997 11.0028 21.491 11.0313 21.4746L18.632 16.9169C18.9712 16.7195 19.2528 16.4368 19.4489 16.0968C19.645 15.7569 19.7488 15.3716 19.75 14.9791V6.82804C19.7499 6.79518 19.7411 6.76293 19.7246 6.73452C19.7081 6.70611 19.6845 6.68253 19.656 6.66615C19.6275 6.64977 19.5952 6.64117 19.5623 6.6412C19.5295 6.64122 19.4972 6.64989 19.4688 6.66632L10.8438 11.7288C10.8153 11.7452 10.7917 11.7688 10.7753 11.7972C10.7588 11.8255 10.7501 11.8577 10.75 11.8905Z" fill="#181B1A"/>
</svg>
