<svg width="15" height="14" viewBox="0 0 15 14" fill="none" xmlns="http://www.w3.org/2000/svg">
<g clip-path="url(#clip0_713_25741)">
    <path d="M13.2116 1.75781H1.78836C1.07796 1.75781 0.5 2.33575 0.5 3.04704C0.5 3.75743 1.07796 4.3354 1.78836 4.3354H13.2116C13.922 4.3354 14.5 3.75743 14.5 3.04704C14.5 2.33575 13.922 1.75781 13.2116 1.75781Z" fill="currentColor"/>
    <path d="M13.2116 5.71191H1.78836C1.07796 5.71191 0.5 6.28985 0.5 7.00114C0.5 7.71153 1.07796 8.2895 1.78836 8.2895H13.2116C13.922 8.2895 14.5 7.71153 14.5 7.00114C14.5 6.28985 13.922 5.71191 13.2116 5.71191Z" fill="currentColor"/>
    <path d="M13.2116 9.66504H1.78836C1.07796 9.66504 0.5 10.243 0.5 10.9543C0.5 11.6647 1.07796 12.2426 1.78836 12.2426H13.2116C13.922 12.2426 14.5 11.6647 14.5 10.9543C14.5 10.243 13.922 9.66504 13.2116 9.66504Z" fill="currentColor"/>
</g>
<defs>
<clipPath id="clip0_713_25741">
<rect width="14" height="14" fill="white" transform="translate(0.5)"/>
</clipPath>
</defs>
</svg>
