<svg width="14" height="14" viewBox="0 0 14 14" fill="none" xmlns="http://www.w3.org/2000/svg">
<path d="M1.75 4.55C1.75 3.56991 1.75 3.07986 1.94074 2.70552C2.10852 2.37623 2.37623 2.10852 2.70552 1.94074C3.07986 1.75 3.56991 1.75 4.55 1.75H9.45C10.4301 1.75 10.9201 1.75 11.2945 1.94074C11.6238 2.10852 11.8915 2.37623 12.0593 2.70552C12.25 3.07986 12.25 3.56991 12.25 4.55V7.875C12.25 8.6904 12.25 9.0981 12.1168 9.4197C11.9392 9.8485 11.5985 10.1892 11.1697 10.3668C10.8481 10.5 10.4404 10.5 9.625 10.5C9.34 10.5 9.19749 10.5 9.06529 10.5312C8.88901 10.5728 8.72485 10.6549 8.58579 10.771C8.4815 10.858 8.396 10.972 8.225 11.2L7.37333 12.3356C7.24668 12.5044 7.18335 12.5889 7.10572 12.6191C7.03772 12.6455 6.96228 12.6455 6.89428 12.6191C6.81665 12.5889 6.75332 12.5044 6.62667 12.3356L5.775 11.2C5.604 10.972 5.5185 10.858 5.41421 10.771C5.27515 10.6549 5.11099 10.5728 4.93471 10.5312C4.80251 10.5 4.66 10.5 4.375 10.5C3.5596 10.5 3.1519 10.5 2.8303 10.3668C2.4015 10.1892 2.06083 9.8485 1.88321 9.4197C1.75 9.0981 1.75 8.6904 1.75 7.875V4.55Z" stroke="#181B1A" stroke-width="1.02083" stroke-linecap="round" stroke-linejoin="round"/>
<path d="M7 6.12533V8.16699M7 4.08366H7.00583" stroke="#181B1A" stroke-width="1.02083" stroke-linecap="round" stroke-linejoin="round"/>
</svg>
