<svg width="24" height="20" viewBox="0 0 24 20" fill="none" xmlns="http://www.w3.org/2000/svg">
    <path
        d="M23.25 6.25C23.2491 5.45462 22.9328 4.69206 22.3704 4.12964C21.8079 3.56722 21.0454 3.25087 20.25 3.25H18V2.5C17.9994 1.90345 17.7621 1.33152 17.3403 0.909695C16.9185 0.487873 16.3465 0.25062 15.75 0.25H8.25C7.65345 0.25062 7.08152 0.487873 6.65969 0.909695C6.23787 1.33152 6.00062 1.90345 6 2.5V3.25H3.75C2.95462 3.25087 2.19206 3.56722 1.62964 4.12964C1.06722 4.69206 0.750869 5.45462 0.75 6.25V8.5H23.25V6.25ZM16.5 3.25H7.5V2.5C7.5 2.30109 7.57902 2.11032 7.71967 1.96967C7.86032 1.82902 8.05109 1.75 8.25 1.75H15.75C15.9489 1.75 16.1397 1.82902 16.2803 1.96967C16.421 2.11032 16.5 2.30109 16.5 2.5V3.25ZM15.75 10.375C15.75 10.6734 15.6315 10.9595 15.4205 11.1705C15.2095 11.3815 14.9234 11.5 14.625 11.5H9.375C9.07663 11.5 8.79048 11.3815 8.5795 11.1705C8.36853 10.9595 8.25 10.6734 8.25 10.375V10.1875C8.25 10.1378 8.23025 10.0901 8.19508 10.0549C8.15992 10.0198 8.11223 10 8.0625 10H0.75V16.75C0.75 17.5456 1.06607 18.3087 1.62868 18.8713C2.19129 19.4339 2.95435 19.75 3.75 19.75H20.25C21.0456 19.75 21.8087 19.4339 22.3713 18.8713C22.9339 18.3087 23.25 17.5456 23.25 16.75V10H15.9375C15.8878 10 15.8401 10.0198 15.8049 10.0549C15.7698 10.0901 15.75 10.1378 15.75 10.1875V10.375Z"
        fill="#9FAAA5" />
</svg>