<svg width="24" height="24" viewBox="0 0 24 24" fill="none" xmlns="http://www.w3.org/2000/svg">
<path d="M4.87524 3.02344H8.43188C8.88208 3.02256 9.32426 3.13863 9.71411 3.35938L9.8772 3.46094L11.1809 4.33203C11.3223 4.42605 11.4821 4.48737 11.6487 4.51172L11.8176 4.52344H19.1252C19.8448 4.52349 20.4959 4.72312 20.9661 5.10059C21.4304 5.47353 21.7195 6.02134 21.7258 6.72656H2.27368V5.625L2.28638 5.36816C2.34601 4.77277 2.60957 4.21294 3.03638 3.78613C3.46324 3.35934 4.02296 3.0957 4.61841 3.03613L4.87524 3.02344ZM0.781494 10.6777C0.756977 10.3715 0.796392 10.0629 0.896729 9.77246C0.997048 9.48228 1.15632 9.21592 1.3645 8.99023C1.57286 8.76441 1.82625 8.58429 2.10767 8.46094C2.31878 8.36842 2.54241 8.30892 2.77075 8.28516L3.00024 8.27344H21.0042L21.2336 8.28516C21.462 8.30899 21.6857 8.36837 21.8967 8.46094C22.1779 8.58429 22.4307 8.76456 22.6389 8.99023C22.8472 9.21605 23.0064 9.48308 23.1067 9.77344C23.1819 9.99124 23.2234 10.2188 23.2288 10.4482L23.2219 10.6777V10.6924L22.4612 18.4121V18.4141C22.4508 19.0966 22.1728 19.7483 21.6868 20.2275C21.2008 20.7067 20.546 20.9757 19.8635 20.9766H4.13696L3.88208 20.9639C3.29284 20.9053 2.738 20.6469 2.31274 20.2275C1.88756 19.8082 1.62181 19.2572 1.55493 18.6689L1.53833 18.4141V18.4121L0.781494 10.6904V10.6777Z" fill="#9FAAA5" stroke="#9FAAA5" stroke-width="0.046875"/>
</svg>
