<svg width="16" height="15" viewBox="0 0 16 15" fill="none" xmlns="http://www.w3.org/2000/svg">
<path d="M0.832031 1.16634C0.832031 0.706104 1.20513 0.333008 1.66536 0.333008H14.9987C15.4589 0.333008 15.832 0.706104 15.832 1.16634C15.832 1.62658 15.4589 1.99967 14.9987 1.99967H1.66536C1.20513 1.99967 0.832031 1.62658 0.832031 1.16634ZM0.832031 13.6663C0.832031 13.2061 1.20513 12.833 1.66536 12.833H14.9987C15.4589 12.833 15.832 13.2061 15.832 13.6663C15.832 14.1266 15.4589 14.4997 14.9987 14.4997H1.66536C1.20513 14.4997 0.832031 14.1266 0.832031 13.6663ZM7.4987 9.49967C7.4987 9.03944 7.87179 8.66634 8.33203 8.66634H14.9987C15.4589 8.66634 15.832 9.03944 15.832 9.49967C15.832 9.95991 15.4589 10.333 14.9987 10.333H8.33203C7.87179 10.333 7.4987 9.95991 7.4987 9.49967ZM7.4987 5.33301C7.4987 4.87277 7.87179 4.49967 8.33203 4.49967H14.9987C15.4589 4.49967 15.832 4.87277 15.832 5.33301C15.832 5.79325 15.4589 6.16634 14.9987 6.16634H8.33203C7.87179 6.16634 7.4987 5.79325 7.4987 5.33301ZM3.69948 7.0087C3.94612 7.2245 3.94612 7.60818 3.69948 7.82399L1.73039 9.54695C1.38015 9.8534 0.832031 9.60468 0.832031 9.1393V5.69338C0.832031 5.22801 1.38016 4.97928 1.73039 5.28574L3.69948 7.0087Z" fill="#5E6B66"/>
</svg>
