<svg width="298" height="26" viewBox="0 0 298 26" fill="none" xmlns="http://www.w3.org/2000/svg">
<g clip-path="url(#clip0_159_4903)">
<path d="M-2.85596 13.382C-2.21118 15.6251 -1.54424 17.9465 0.0372038 19.816C1.90132 22.0189 4.62266 23.0903 8.35827 23.0903C15.9884 23.0903 22.1571 18.6516 28.1227 14.3587C33.8609 10.2279 39.2833 6.3267 45.7089 6.3267C51.34 6.3267 52.1917 9.28584 53.3685 13.3838C54.0133 15.6269 54.6802 17.9483 56.2617 19.8178C58.1258 22.0207 60.8471 23.0922 64.5828 23.0922C72.2129 23.0922 78.3816 18.6534 84.3471 14.3605C90.0854 10.2297 95.5078 6.32852 101.933 6.32852C107.564 6.32852 108.416 9.28766 109.593 13.3856C110.238 15.6287 110.905 17.9501 112.486 19.8196C114.35 22.0226 117.072 23.094 120.807 23.094C128.437 23.094 134.606 18.6553 140.572 14.3623C146.31 10.2315 151.732 6.33034 158.158 6.33034C163.789 6.33034 164.641 9.28949 165.818 13.3875C166.462 15.6305 167.129 17.9519 168.711 19.8214C170.575 22.0244 173.296 23.0958 177.032 23.0958C184.662 23.0958 190.831 18.6571 196.796 14.3641C202.536 10.2334 207.957 6.33216 214.382 6.33216C220.013 6.33216 220.865 9.29131 222.042 13.3893C222.687 15.6323 223.354 17.9537 224.937 19.8233C226.801 22.0262 229.524 23.0976 233.258 23.0976C240.888 23.0976 247.057 18.6589 253.022 14.366C258.763 10.2352 264.183 6.33398 270.609 6.33398C276.24 6.33398 277.091 9.29313 278.268 13.3911C278.913 15.6342 279.58 17.9556 281.163 19.8251C283.027 22.028 285.751 23.0994 289.484 23.0994V19.4552C283.853 19.4552 283.002 16.496 281.825 12.3981C281.18 10.155 280.513 7.8336 278.93 5.96409C277.066 3.76113 274.342 2.68971 270.609 2.68971C262.979 2.68971 256.81 7.12844 250.844 11.4214C245.104 15.5522 239.684 19.4534 233.258 19.4534C227.627 19.4534 226.775 16.4942 225.598 12.3962C224.954 10.1532 224.287 7.83178 222.703 5.96227C220.839 3.75931 218.116 2.68789 214.382 2.68789C206.752 2.68789 200.583 7.12661 194.618 11.4196C188.88 15.5503 183.457 19.4515 177.032 19.4515C171.401 19.4515 170.549 16.4924 169.372 12.3944C168.727 10.1514 168.06 7.82996 166.477 5.96045C164.613 3.75748 161.892 2.68607 158.156 2.68607C150.526 2.68607 144.357 7.12479 138.392 11.4177C132.653 15.5485 127.231 19.4497 120.805 19.4497C115.174 19.4497 114.323 16.4906 113.146 12.3926C112.501 10.1495 111.834 7.82814 110.253 5.95862C108.388 3.75566 105.667 2.68425 101.932 2.68425C94.3014 2.68425 88.1326 7.12297 82.1671 11.4159C76.4288 15.5467 71.0065 19.4479 64.5809 19.4479C58.9498 19.4479 58.0981 16.4887 56.9212 12.3908C56.2765 10.1477 55.6095 7.82631 54.0262 5.9568C52.1621 3.75384 49.4408 2.68243 45.7052 2.68243C38.0751 2.68243 31.9063 7.12115 25.9408 11.4141C20.2025 15.5449 14.7801 19.4461 8.35458 19.4461C2.72345 19.4461 1.87176 16.4869 0.694909 12.3889C0.0501366 10.1459 -0.616805 7.82449 -2.19825 5.95498C-4.06052 3.75202 -6.78186 2.6806 -10.5156 2.6806V6.32487C-4.88449 6.32487 -4.0328 9.28402 -2.85596 13.382Z" fill="#004049"/>
</g>
<defs>
<clipPath id="clip0_159_4903">
<rect width="296.875" height="25.8503" fill="white" transform="translate(0.984375)"/>
</clipPath>
</defs>
</svg>
