<svg width="14" height="14" viewBox="0 0 14 14" fill="none" xmlns="http://www.w3.org/2000/svg">
<path fill-rule="evenodd" clip-rule="evenodd" d="M4.50065 1.16634C4.50065 0.706104 4.87375 0.333008 5.33398 0.333008H12.834C13.2942 0.333008 13.6673 0.706104 13.6673 1.16634C13.6673 1.62658 13.2942 1.99967 12.834 1.99967H9.69664L6.05081 11.9997H8.66732C9.12755 11.9997 9.50065 12.3728 9.50065 12.833C9.50065 13.2932 9.12755 13.6663 8.66732 13.6663H1.16732C0.70708 13.6663 0.333984 13.2932 0.333984 12.833C0.333984 12.3728 0.70708 11.9997 1.16732 11.9997H4.30466L7.95049 1.99967H5.33398C4.87375 1.99967 4.50065 1.62658 4.50065 1.16634Z" fill="#5E6B66"/>
</svg>
