<svg width="49" height="48" viewBox="0 0 49 48" fill="none" xmlns="http://www.w3.org/2000/svg">
<g clip-path="url(#clip0_157_4277)">
<path d="M44.1172 36.6562C43.3405 36.6562 42.7109 36.0267 42.7109 35.25V8.53125H5.96094V35.25C5.96094 36.0267 5.33142 36.6562 4.55469 36.6562C3.77795 36.6562 3.14844 36.0267 3.14844 35.25V7.125C3.14844 6.34827 3.77795 5.71875 4.55469 5.71875H44.1172C44.8939 5.71875 45.5234 6.34827 45.5234 7.125V35.25C45.5234 36.0267 44.8939 36.6562 44.1172 36.6562Z" fill="#6E8B90"/>
<path d="M15.8984 25.4062C12.0214 25.4062 8.86719 22.2521 8.86719 18.375C8.86719 14.4979 12.0214 11.3438 15.8984 11.3438C19.7755 11.3438 22.9297 14.4979 22.9297 18.375C22.9297 22.2521 19.7755 25.4062 15.8984 25.4062ZM15.8984 14.1562C13.5723 14.1562 11.6797 16.0488 11.6797 18.375C11.6797 20.7012 13.5723 22.5938 15.8984 22.5938C18.2246 22.5938 20.1172 20.7012 20.1172 18.375C20.1172 16.0488 18.2246 14.1562 15.8984 14.1562Z" fill="#C4C7BD"/>
<path d="M27.1484 31.0312H15.8984C15.1217 31.0312 14.4922 30.4017 14.4922 29.625V18.375C14.4922 17.5983 15.1217 16.9688 15.8984 16.9688H27.1484C27.9252 16.9688 28.5547 17.5983 28.5547 18.375V29.625C28.5547 30.4017 27.9252 31.0312 27.1484 31.0312ZM17.3047 28.2188H25.7422V19.7812H17.3047V28.2188Z" fill="#CEFFA3"/>
<path d="M38.3984 14.1562H32.7734C31.9967 14.1562 31.3672 13.5267 31.3672 12.75C31.3672 11.9733 31.9967 11.3438 32.7734 11.3438H38.3984C39.1752 11.3438 39.8047 11.9733 39.8047 12.75C39.8047 13.5267 39.1752 14.1562 38.3984 14.1562Z" fill="#C4C7BD"/>
<path d="M38.3984 19.7812H32.7734C31.9967 19.7812 31.3672 19.1517 31.3672 18.375C31.3672 17.5983 31.9967 16.9688 32.7734 16.9688H38.3984C39.1752 16.9688 39.8047 17.5983 39.8047 18.375C39.8047 19.1517 39.1752 19.7812 38.3984 19.7812Z" fill="#C4C7BD"/>
<path d="M38.3984 25.4062H32.7734C31.9967 25.4062 31.3672 24.7767 31.3672 24C31.3672 23.2233 31.9967 22.5938 32.7734 22.5938H38.3984C39.1752 22.5938 39.8047 23.2233 39.8047 24C39.8047 24.7767 39.1752 25.4062 38.3984 25.4062Z" fill="#C4C7BD"/>
<path d="M38.3984 31.0312H32.7734C31.9967 31.0312 31.3672 30.4017 31.3672 29.625C31.3672 28.8483 31.9967 28.2188 32.7734 28.2188H38.3984C39.1752 28.2188 39.8047 28.8483 39.8047 29.625C39.8047 30.4017 39.1752 31.0312 38.3984 31.0312Z" fill="#C4C7BD"/>
<path d="M46.9297 42.2812H1.74219C0.965454 42.2812 0.335938 41.6517 0.335938 40.875V35.25C0.335938 34.4733 0.965454 33.8438 1.74219 33.8438H46.9297C47.7064 33.8438 48.3359 34.4733 48.3359 35.25V40.875C48.3359 41.6517 47.7064 42.2812 46.9297 42.2812ZM3.14844 39.4688H45.5234V36.6562H3.14844V39.4688Z" fill="#6E8B90"/>
</g>
<defs>
<clipPath id="clip0_157_4277">
<rect width="48" height="48" fill="white" transform="translate(0.335938)"/>
</clipPath>
</defs>
</svg>
