<svg width="48" height="48" viewBox="0 0 48 48" fill="none" xmlns="http://www.w3.org/2000/svg">
<g clip-path="url(#clip0_157_4259)">
<path d="M24 48C23.7407 48 23.4818 47.9282 23.2533 47.7854L0.659546 33.6291C0.249024 33.3717 -0.000365808 32.9212 4.0276e-07 32.4367C0.000366614 31.9519 0.250122 31.5018 0.661011 31.2447L7.41101 27.026C8.06946 26.6144 8.93701 26.8147 9.34863 27.4735C9.76025 28.1319 9.5603 28.9995 8.90149 29.4111L4.05725 32.4389L24 44.934L43.9427 32.4389L39.0985 29.4111C38.4401 28.9995 38.2397 28.1319 38.6514 27.4735C39.0626 26.8147 39.9302 26.6144 40.589 27.026L47.339 31.2447C47.7499 31.5018 47.9996 31.9519 48 32.4367C48.0004 32.9212 47.751 33.3717 47.3405 33.6291L24.7467 47.7854C24.5182 47.9282 24.2593 48 24 48Z" fill="#C4C7BD"/>
<path d="M24 39.4687C23.7422 39.4687 23.4844 39.3977 23.257 39.2563L0.663208 25.1938C0.251221 24.9375 0.000366613 24.4867 4.0217e-07 24.0011C-0.000365809 23.5158 0.24939 23.0647 0.661011 22.8072L7.41101 18.5885C8.06946 18.1769 8.93701 18.3772 9.34863 19.036C9.76025 19.6944 9.5603 20.562 8.90149 20.9736L4.06348 23.9974L24 36.4061L43.9365 23.9974L39.0985 20.9736C38.4401 20.562 38.2397 19.6944 38.6514 19.036C39.0626 18.3772 39.9302 18.1769 40.589 18.5885L47.339 22.8072C47.7506 23.0647 48.0004 23.5158 48 24.0011C47.9996 24.4867 47.7488 24.9371 47.3368 25.1938L24.743 39.2563C24.5156 39.3977 24.2578 39.4687 24 39.4687Z" fill="#FCFBFA"/>
<path d="M24 31.0313C23.7422 31.0313 23.4844 30.9602 23.257 30.8189L0.66321 16.7564C0.251222 16.5 0.000734031 16.0496 1.60882e-06 15.5647C-0.000730813 15.0795 0.248659 14.6283 0.659547 14.3709L23.2533 0.21463C23.71 -0.0713806 24.29 -0.0713806 24.7467 0.21463L47.3405 14.3709C47.7513 14.6283 48.0007 15.0795 48 15.5647C47.9993 16.0496 47.7484 16.5 47.3368 16.7564L24.743 30.8189C24.5156 30.9602 24.2578 31.0313 24 31.0313ZM4.06128 15.5585L24 27.9687L43.9387 15.5585L24 3.06558L4.06128 15.5585Z" fill="#CEFFA3"/>
</g>
<defs>
<clipPath id="clip0_157_4259">
<rect width="48" height="48" fill="white"/>
</clipPath>
</defs>
</svg>
