<svg width="72" height="73" viewBox="0 0 72 73" fill="none" xmlns="http://www.w3.org/2000/svg">
<path d="M10.6875 26.3654C14.5766 26.3654 18.1363 24.2375 19.9777 20.8119C20.9233 19.0588 23.006 17.9279 25.2842 17.9279H29.8408C32.119 17.9279 34.2017 19.0588 35.1451 20.8097C36.9887 24.2375 40.5484 26.3654 44.4375 26.3654C50.2528 26.3654 54.9844 21.6338 54.9844 15.8185C54.9844 10.0033 50.2528 5.27167 44.4375 5.27167C40.5484 5.27167 36.9887 7.3996 35.1473 10.8252C34.2017 12.5783 32.119 13.7092 29.8408 13.7092H25.2842C23.006 13.7092 20.9233 12.5783 19.9799 10.8273C18.1363 7.39961 14.5766 5.27167 10.6875 5.27167C4.87223 5.27167 0 10.0033 0 15.8185C0 21.6338 4.87223 26.3654 10.6875 26.3654ZM42.3281 13.7092H46.5469V17.9279H42.3281V13.7092Z" fill="#7B7E78"/>
<path d="M10.6875 68.5529C14.5766 68.5529 18.1363 66.425 19.9777 62.9994C20.9233 61.2463 23.006 60.1154 25.2842 60.1154H29.8408C32.119 60.1154 34.2017 61.2463 35.1451 62.9972C36.9887 66.425 40.5484 68.5529 44.4375 68.5529C50.2528 68.5529 54.9844 63.8213 54.9844 58.006C54.9844 52.1908 50.2528 47.4592 44.4375 47.4592C40.5484 47.4592 36.9887 49.5871 35.1473 53.0127C34.2017 54.7658 32.119 55.8967 29.8408 55.8967H25.2842C23.006 55.8967 20.9233 54.7658 19.9799 53.0148C18.1363 49.5871 14.5766 47.4592 10.6875 47.4592C4.87223 47.4592 0 52.1908 0 58.006C0 63.8213 4.87223 68.5529 10.6875 68.5529ZM42.3281 55.8967H46.5469V60.1154H42.3281V55.8967Z" fill="#7B7E78"/>
<path d="M52.0223 31.919C51.0767 33.672 48.994 34.8029 46.7158 34.8029H42.1592C39.881 34.8029 37.7983 33.672 36.8549 31.9211C35.0113 28.4934 31.4516 26.3654 27.5625 26.3654C21.7472 26.3654 17.0156 31.097 17.0156 36.9123C17.0156 42.7276 21.7472 47.4592 27.5625 47.4592C31.4516 47.4592 35.0113 45.3312 36.8527 41.9056C37.7983 40.1526 39.881 39.0217 42.1592 39.0217H46.7158C48.994 39.0217 51.0767 40.1526 52.0201 41.9035C53.8637 45.3312 57.4234 47.4592 61.3125 47.4592C67.1278 47.4592 72 42.7276 72 36.9123C72 31.097 67.1278 26.3654 61.3125 26.3654C57.4234 26.3654 53.8637 28.4934 52.0223 31.919ZM29.6719 39.0217H25.4531V34.8029H29.6719V39.0217Z" fill="#7B7E78"/>
</svg>
