<svg width="24" height="25" viewBox="0 0 24 25" fill="none" xmlns="http://www.w3.org/2000/svg">
<path d="M22.2234 0.0400391H1.77187C0.792187 0.0400391 0 0.813477 0 1.76973V22.3057C0 23.2619 0.792187 24.04 1.77187 24.04H22.2234C23.2031 24.04 24 23.2619 24 22.3104V1.76973C24 0.813477 23.2031 0.0400391 22.2234 0.0400391ZM7.12031 20.4916H3.55781V9.03535H7.12031V20.4916ZM5.33906 7.47441C4.19531 7.47441 3.27188 6.55098 3.27188 5.41191C3.27188 4.27285 4.19531 3.34941 5.33906 3.34941C6.47813 3.34941 7.40156 4.27285 7.40156 5.41191C7.40156 6.54629 6.47813 7.47441 5.33906 7.47441ZM20.4516 20.4916H16.8937V14.9229C16.8937 13.5963 16.8703 11.8854 15.0422 11.8854C13.1906 11.8854 12.9094 13.3338 12.9094 14.8291V20.4916H9.35625V9.03535H12.7687V10.601H12.8156C13.2891 9.70098 14.4516 8.74941 16.1813 8.74941C19.7859 8.74941 20.4516 11.1213 20.4516 14.2057V20.4916Z" fill="#004049"/>
</svg>
