<svg width="12" height="13" viewBox="0 0 12 13" fill="none" xmlns="http://www.w3.org/2000/svg">
<path d="M11.0559 3.2269C11.0724 3.21727 11.0861 3.20348 11.0956 3.1869C11.1051 3.17033 11.1101 3.15154 11.1101 3.13243C11.1101 3.11331 11.1051 3.09453 11.0956 3.07796C11.0861 3.06138 11.0724 3.04759 11.0559 3.03796L6.87938 0.611471C6.61215 0.456574 6.30874 0.375 5.99987 0.375C5.69099 0.375 5.38759 0.456574 5.12035 0.611471L0.94469 3.03796C0.928179 3.04759 0.914481 3.06138 0.904961 3.07796C0.895441 3.09453 0.890431 3.11331 0.890431 3.13243C0.890431 3.15154 0.895441 3.17033 0.904961 3.1869C0.914481 3.20348 0.928179 3.21727 0.94469 3.2269L5.94532 6.16854C5.96214 6.17845 5.9813 6.18367 6.00082 6.18367C6.02034 6.18367 6.03951 6.17845 6.05633 6.16854L11.0559 3.2269ZM0.476565 3.97092C0.459886 3.96129 0.440959 3.95624 0.4217 3.95627C0.40244 3.9563 0.38353 3.96142 0.366882 3.9711C0.350233 3.98078 0.336438 3.99469 0.326889 4.01142C0.31734 4.02814 0.312377 4.0471 0.312502 4.06635V8.82116C0.312915 9.05029 0.373306 9.27533 0.48767 9.47388C0.602033 9.67243 0.766384 9.83759 0.964377 9.95292L5.39844 12.6116C5.41506 12.6211 5.43391 12.6262 5.4531 12.6262C5.47229 12.6262 5.49114 12.6212 5.50777 12.6116C5.52439 12.602 5.5382 12.5882 5.54781 12.5716C5.55741 12.555 5.56248 12.5361 5.5625 12.5169V7.00034C5.56248 6.98116 5.55742 6.96232 5.54782 6.94572C5.53822 6.92911 5.52443 6.91532 5.50782 6.90573L0.476565 3.97092ZM6.4375 7.01948V12.5156C6.43752 12.5348 6.44259 12.5536 6.4522 12.5702C6.46181 12.5868 6.47561 12.6006 6.49224 12.6102C6.50886 12.6198 6.52772 12.6248 6.54691 12.6248C6.5661 12.6248 6.58495 12.6198 6.60157 12.6102L11.0354 9.95155C11.2332 9.83637 11.3975 9.67145 11.5119 9.47315C11.6263 9.27486 11.6868 9.05009 11.6875 8.82116V4.06635C11.6874 4.04719 11.6823 4.02838 11.6727 4.0118C11.6631 3.99523 11.6493 3.98148 11.6326 3.97192C11.616 3.96237 11.5972 3.95735 11.578 3.95736C11.5589 3.95738 11.54 3.96244 11.5234 3.97202L6.49219 6.92514C6.47562 6.93471 6.46185 6.94846 6.45225 6.96501C6.44266 6.98156 6.43757 7.00035 6.4375 7.01948Z" fill="#7B7E78"/>
</svg>
