<svg width="14" height="15" viewBox="0 0 14 15" fill="none" xmlns="http://www.w3.org/2000/svg">
<path d="M6.41732 4.00016C6.41732 4.57702 6.24628 5.14093 5.92574 5.6206C5.60526 6.10022 5.14973 6.47408 4.6168 6.69481C4.08387 6.91554 3.49742 6.97335 2.93164 6.86077C2.36586 6.74824 1.84616 6.47046 1.43826 6.06254C1.03036 5.65467 0.752566 5.13498 0.64003 4.5692C0.527487 4.00337 0.585249 3.41696 0.806 2.88401C1.02676 2.35105 1.4006 1.89553 1.88024 1.57504C2.35988 1.25456 2.92379 1.0835 3.50065 1.0835C4.27421 1.0835 5.01609 1.39079 5.56302 1.93777C6.11002 2.48475 6.41732 3.22662 6.41732 4.00016ZM10.5006 6.91683C11.0775 6.91683 11.6414 6.74579 12.1211 6.42525C12.6007 6.10477 12.9746 5.64924 13.1953 5.11631C13.416 4.58338 13.4738 3.99693 13.3613 3.43115C13.2487 2.86538 12.9709 2.34567 12.563 1.93777C12.1552 1.52987 11.6355 1.25208 11.0697 1.13954C10.5039 1.027 9.91743 1.08476 9.3845 1.30551C8.85156 1.52627 8.39604 1.90011 8.07556 2.37975C7.75501 2.8594 7.58398 3.4233 7.58398 4.00016C7.58398 4.77372 7.89128 5.5156 8.43827 6.06254C8.98526 6.60953 9.72709 6.91683 10.5006 6.91683ZM3.50065 8.08349C2.92379 8.08349 2.35988 8.25453 1.88024 8.57507C1.4006 8.89555 1.02676 9.35108 0.806 9.88401C0.585249 10.4169 0.527487 11.0034 0.64003 11.5692C0.752566 12.135 1.03036 12.6547 1.43826 13.0625C1.84616 13.4705 2.36586 13.7482 2.93164 13.8608C3.49742 13.9734 4.08387 13.9155 4.6168 13.6948C5.14973 13.4741 5.60526 13.1002 5.92574 12.6206C6.24628 12.1409 6.41732 11.577 6.41732 11.0002C6.41732 10.2266 6.11002 9.48478 5.56302 8.93779C5.01609 8.39079 4.27421 8.08349 3.50065 8.08349ZM10.5006 8.08349C9.92379 8.08349 9.35988 8.25453 8.88026 8.57507C8.40059 8.89555 8.02673 9.35108 7.806 9.88401C7.58526 10.4169 7.52746 11.0034 7.64004 11.5692C7.75256 12.135 8.03035 12.6547 8.43827 13.0625C8.84614 13.4705 9.36583 13.7482 9.93161 13.8608C10.4974 13.9734 11.0839 13.9155 11.6168 13.6948C12.1498 13.4741 12.6053 13.1002 12.9258 12.6206C13.2463 12.1409 13.4173 11.577 13.4173 11.0002C13.4173 10.2266 13.11 9.48478 12.563 8.93779C12.0161 8.39079 11.2742 8.08349 10.5006 8.08349Z" fill="#7B7E78"/>
</svg>
