<svg width="14" height="15" viewBox="0 0 14 15" fill="none" xmlns="http://www.w3.org/2000/svg">
<path d="M8.75 1.375H5.25C5.01794 1.375 4.79538 1.46719 4.63128 1.63128C4.46719 1.79538 4.375 2.01794 4.375 2.25V13.5156C4.375 13.5446 4.38652 13.5725 4.40704 13.593C4.42755 13.6135 4.45537 13.625 4.48438 13.625H9.51563C9.54463 13.625 9.57245 13.6135 9.59297 13.593C9.61348 13.5725 9.625 13.5446 9.625 13.5156V2.25C9.625 2.01794 9.53281 1.79538 9.36872 1.63128C9.20462 1.46719 8.98207 1.375 8.75 1.375ZM12.6875 4.00348H10.7188C10.6607 4.00348 10.6051 4.02653 10.5641 4.06755C10.523 4.10858 10.5 4.16422 10.5 4.22223V13.4063C10.5 13.4643 10.523 13.5199 10.5641 13.5609C10.6051 13.602 10.6607 13.625 10.7188 13.625H12.9063C13.0803 13.625 13.2472 13.5559 13.3703 13.4328C13.4934 13.3097 13.5625 13.1428 13.5625 12.9688V4.87848C13.5625 4.64642 13.4703 4.42386 13.3062 4.25977C13.1421 4.09567 12.9196 4.00348 12.6875 4.00348ZM1.3125 4C1.08044 4 0.857876 4.09219 0.693782 4.25628C0.529687 4.42038 0.4375 4.64294 0.4375 4.875V12.9688C0.4375 13.1428 0.50664 13.3097 0.629711 13.4328C0.752782 13.5559 0.919702 13.625 1.09375 13.625H3.28125C3.33927 13.625 3.39491 13.602 3.43593 13.5609C3.47695 13.5199 3.5 13.4643 3.5 13.4063V4.21875C3.5 4.16073 3.47695 4.10509 3.43593 4.06407C3.39491 4.02305 3.33927 4 3.28125 4H1.3125Z" fill="#7B7E78"/>
</svg>
