<svg width="14" height="15" viewBox="0 0 14 15" fill="none" xmlns="http://www.w3.org/2000/svg">
<g clip-path="url(#clip0_939_68831)">
<path d="M11.9605 8.74578V6.2539C12.5651 6.08231 13.0095 5.5256 13.0095 4.86671C13.0095 4.07154 12.3626 3.42466 11.5674 3.42466C11.1773 3.42466 10.8232 3.5806 10.5633 3.8331L8.40485 2.58695C8.43344 2.47383 8.44879 2.35549 8.44879 2.23361C8.44879 1.43844 7.80189 0.791504 7.00671 0.791504C6.21154 0.791504 5.56463 1.43844 5.56463 2.23359C5.56463 2.35546 5.57999 2.4738 5.60858 2.58693L3.45014 3.83308C3.19027 3.58057 2.83609 3.42463 2.44599 3.42463C1.65082 3.42463 1.00391 4.07154 1.00391 4.86669C1.00391 5.5256 1.44825 6.08228 2.05292 6.25387V8.74575C1.44825 8.91734 1.00391 9.47405 1.00391 10.1329C1.00391 10.9281 1.65082 11.575 2.44599 11.575C2.83609 11.575 3.19027 11.4191 3.45012 11.1665L5.60855 12.4127C5.57996 12.5258 5.5646 12.6442 5.5646 12.766C5.56463 13.5613 6.21154 14.2082 7.00671 14.2082C7.80189 14.2082 8.44879 13.5612 8.44879 12.7661C8.44879 12.6442 8.43344 12.5259 8.40485 12.4127L10.5633 11.1666C10.8232 11.4191 11.1773 11.575 11.5674 11.575C12.3626 11.575 13.0095 10.9281 13.0095 10.133C13.0095 9.47408 12.5651 8.91737 11.9605 8.74578ZM7.39978 11.3789V10.3574C7.27056 10.3749 7.13933 10.384 7.00671 10.384C6.87409 10.384 6.74286 10.3749 6.61365 10.3574V11.3789C6.38071 11.445 6.17166 11.5682 6.00256 11.7325L3.84413 10.4863C3.87272 10.3732 3.88807 10.2549 3.88807 10.133C3.88807 10.0111 3.87272 9.89275 3.84413 9.77962L4.72842 9.26908C4.56525 9.05984 4.43323 8.83113 4.33449 8.58879L3.45014 9.09936C3.28105 8.93505 3.07201 8.81189 2.83908 8.74578V6.2539C3.07201 6.18778 3.28107 6.06465 3.45014 5.90032L4.33449 6.41089C4.43323 6.16852 4.56525 5.93984 4.72842 5.73059L3.84415 5.22005C3.87277 5.10693 3.8881 4.98859 3.8881 4.86669C3.8881 4.74481 3.87274 4.62647 3.84415 4.51335L6.00258 3.26719C6.17168 3.4315 6.38071 3.55466 6.61367 3.62077V4.64227C6.74289 4.62477 6.87412 4.61567 7.00674 4.61567C7.13936 4.61567 7.27059 4.62477 7.39981 4.64227V3.62077C7.63274 3.55466 7.8418 3.4315 8.01089 3.26719L10.1693 4.51335C10.1407 4.62647 10.1254 4.74481 10.1254 4.86669C10.1254 4.98856 10.1407 5.10693 10.1693 5.22005L9.28503 5.73059C9.4482 5.93984 9.58022 6.16855 9.67896 6.41089L10.5633 5.90032C10.7324 6.06462 10.9414 6.18778 11.1744 6.2539V8.74578C10.9414 8.81189 10.7324 8.93503 10.5633 9.09936L9.67896 8.58879C9.58022 8.83115 9.4482 9.05984 9.28503 9.26908L10.1693 9.77962C10.1407 9.89275 10.1254 10.0111 10.1254 10.133C10.1254 10.2549 10.1407 10.3732 10.1693 10.4863L8.01087 11.7325C7.84177 11.5682 7.63271 11.445 7.39978 11.3789Z" fill="#7B7E78"/>
<path d="M7.00623 9.59792C8.16495 9.59792 9.10427 8.6586 9.10427 7.49989C9.10427 6.34118 8.16495 5.40186 7.00623 5.40186C5.84752 5.40186 4.9082 6.34118 4.9082 7.49989C4.9082 8.6586 5.84752 9.59792 7.00623 9.59792Z" fill="#7B7E78"/>
</g>
<defs>
<clipPath id="clip0_939_68831">
<rect width="14" height="14" fill="white" transform="translate(0 0.5)"/>
</clipPath>
</defs>
</svg>
