<svg width="48" height="48" viewBox="0 0 48 48" fill="none" xmlns="http://www.w3.org/2000/svg">
<path d="M23.9971 10.416C26.4591 10.416 28.4551 8.42009 28.4551 5.958C28.4551 3.49591 26.4591 1.5 23.9971 1.5C21.535 1.5 19.5391 3.49591 19.5391 5.958C19.5391 8.42009 21.535 10.416 23.9971 10.416Z" fill="#7B7E78"/>
<path d="M23.9971 46.5C26.4591 46.5 28.4551 44.5041 28.4551 42.042C28.4551 39.5799 26.4591 37.584 23.9971 37.584C21.535 37.584 19.5391 39.5799 19.5391 42.042C19.5391 44.5041 21.535 46.5 23.9971 46.5Z" fill="#7B7E78"/>
<path d="M42.0439 28.458C44.506 28.458 46.5019 26.4621 46.5019 24C46.5019 21.5379 44.506 19.542 42.0439 19.542C39.5819 19.542 37.5859 21.5379 37.5859 24C37.5859 26.4621 39.5819 28.458 42.0439 28.458Z" fill="#7B7E78"/>
<path d="M5.958 28.458C8.42009 28.458 10.416 26.4621 10.416 24C10.416 21.5379 8.42009 19.542 5.958 19.542C3.49591 19.542 1.5 21.5379 1.5 24C1.5 26.4621 3.49591 28.458 5.958 28.458Z" fill="#7B7E78"/>
<path d="M41.2168 11.2424C41.2168 10.0514 40.7533 8.93167 39.911 8.09017C39.0695 7.24792 37.9498 6.78442 36.7588 6.78442C35.5678 6.78442 34.448 7.24792 33.6065 8.09017C32.7643 8.93242 32.3008 10.0514 32.3008 11.2424C32.3008 12.4334 32.7643 13.5532 33.6065 14.3947C34.448 15.2369 35.5678 15.7004 36.7588 15.7004C37.9498 15.7004 39.0695 15.2369 39.911 14.3947C40.7533 13.5524 41.2168 12.4334 41.2168 11.2424Z" fill="#7B7E78"/>
<path d="M6.78516 36.7573C6.78516 37.9483 7.24866 39.0681 8.09091 39.9096C8.93241 40.7518 10.0522 41.2153 11.2432 41.2153C12.4342 41.2153 13.5539 40.7518 14.3954 39.9096C15.2377 39.0673 15.7012 37.9483 15.7012 36.7573C15.7012 35.5663 15.2377 34.4466 14.3954 33.6051C13.5539 32.7628 12.4342 32.2993 11.2432 32.2993C10.0522 32.2993 8.93241 32.7628 8.09091 33.6051C7.24866 34.4473 6.78516 35.5671 6.78516 36.7581V36.7573Z" fill="#7B7E78"/>
<path d="M36.7588 32.2988C35.5678 32.2988 34.448 32.7623 33.6065 33.6046C32.7643 34.4468 32.3008 35.5658 32.3008 36.7568C32.3008 37.9478 32.7643 39.0676 33.6065 39.9091C34.448 40.7513 35.5678 41.2148 36.7588 41.2148C37.9498 41.2148 39.0695 40.7513 39.911 39.9091C40.7533 39.0668 41.2168 37.9478 41.2168 36.7568C41.2168 35.5658 40.7533 34.4461 39.911 33.6046C39.0695 32.7623 37.9498 32.2988 36.7588 32.2988Z" fill="#7B7E78"/>
<path d="M11.2432 15.7014C12.4342 15.7014 13.5539 15.2379 14.3954 14.3957C15.2377 13.5534 15.7012 12.4344 15.7012 11.2434C15.7012 10.0524 15.2377 8.93265 14.3954 8.09115C13.5539 7.2489 12.4342 6.7854 11.2432 6.7854C10.0522 6.7854 8.93241 7.2489 8.09091 8.09115C7.24866 8.9334 6.78516 10.0532 6.78516 11.2442C6.78516 12.4352 7.24866 13.5549 8.09091 14.3964C8.93316 15.2387 10.0522 15.7022 11.2432 15.7022V15.7014Z" fill="#7B7E78"/>
</svg>
