<svg width="40" height="48" viewBox="0 0 40 48" fill="none" xmlns="http://www.w3.org/2000/svg">
<path fill-rule="evenodd" clip-rule="evenodd" d="M20.1641 0C30.9269 0 39.6641 8.70514 39.6641 19.4286C39.6641 25.544 36.6404 31.3577 32.9664 36.1154C27.5683 43.1029 20.8213 47.7943 20.8213 47.7943H20.8202C20.4267 48.0686 19.9014 48.0686 19.508 47.7943H19.5068C19.5068 47.7943 12.7598 43.1029 7.36173 36.1154C3.6877 31.3577 0.664062 25.544 0.664062 19.4286C0.664062 8.70514 9.40121 0 20.1641 0ZM20.1641 11.4286C15.733 11.4286 12.1347 15.0137 12.1347 19.4286C12.1347 23.8434 15.733 27.4286 20.1641 27.4286C24.5952 27.4286 28.1935 23.8434 28.1935 19.4286C28.1935 15.0137 24.5952 11.4286 20.1641 11.4286Z" fill="#CEFFA3"/>
</svg>
