<svg width="120" height="30" viewBox="0 0 120 30" fill="none" xmlns="http://www.w3.org/2000/svg">
<path d="M43.274 22.0577C41.9667 22.0577 40.8669 21.47 40.091 20.4086V21.8682H37.666V8.26318H40.2997V13.0568C41.0385 12.071 42.0615 11.5601 43.2752 11.5601C46.0037 11.5601 47.7654 13.8148 47.7654 16.8083C47.7654 19.8017 46.0037 22.0577 43.2752 22.0577H43.274ZM42.6863 13.8916C41.4162 13.8916 40.3176 14.8583 40.3176 16.7724C40.3176 18.6865 41.379 19.7095 42.6863 19.7095C43.9935 19.7095 45.0549 18.7057 45.0549 16.8108C45.0549 14.9159 43.9743 13.8929 42.6863 13.8929V13.8916Z" fill="#004049"/>
<path d="M53.2794 25.5248H50.4178L51.8582 21.7542L47.8789 11.7495H50.7213L53.2602 18.6852L55.5726 11.7495H58.2062L53.2794 25.5248Z" fill="#004049"/>
<path d="M59.5898 21.8682V8.26318H64.4219C68.7418 8.26318 71.3576 11.03 71.3576 14.9902C71.3576 18.9503 68.6483 21.8682 64.4219 21.8682H59.5898ZM62.4694 19.3856H64.2695C66.9788 19.3856 68.4 17.8133 68.4 14.9902C68.4 12.167 66.9788 10.7458 64.2695 10.7458H62.4694V19.3869V19.3856Z" fill="#004049"/>
<path d="M72.4746 16.7711C72.4746 13.7584 74.5782 11.5601 77.4961 11.5601C80.6983 11.5601 82.8211 14.1566 82.3474 17.4535H75.1659C75.3362 19.1026 76.1326 20.0117 77.4782 20.0117C78.6344 20.0117 79.4116 19.4432 79.7137 18.4394H82.3282C81.7597 20.7325 79.998 22.0397 77.5346 22.0397C74.5027 22.0397 72.4759 19.9361 72.4759 16.7724L72.4746 16.7711ZM75.203 15.7852H79.5614C79.4858 14.3832 78.6894 13.4921 77.4385 13.4921C76.1876 13.4921 75.4297 14.2872 75.203 15.7852Z" fill="#004049"/>
<path d="M88.1637 22.0576C85.2829 22.0576 83.6723 20.6748 83.4648 18.4189H85.9846C86.0038 19.4611 86.8936 20.1243 88.2021 20.1243C89.2252 20.1243 90.0023 19.8016 90.0023 19.0821C90.0023 18.4381 89.5849 18.173 88.6195 17.9835L86.8002 17.643C84.9808 17.3203 83.8822 16.3165 83.8822 14.7442C83.8822 12.8685 85.4929 11.5613 88.0127 11.5613C90.5324 11.5613 92.2954 12.9069 92.4849 15.0861H89.9652C89.8704 14.1002 89.1317 13.4946 88.0139 13.4946C87.0473 13.4946 86.4032 13.8544 86.4032 14.4984C86.4032 15.1053 86.8206 15.3511 87.7297 15.5214L89.681 15.8812C91.6514 16.2602 92.6565 17.1692 92.6565 18.6288C92.6565 20.7517 91.0458 22.0589 88.165 22.0589L88.1637 22.0576Z" fill="#004049"/>
<path d="M95.7438 10.9544C94.7208 10.9544 94 10.2912 94 9.40007C94 8.50895 94.7196 7.80859 95.7438 7.80859C96.7681 7.80859 97.5056 8.47182 97.5056 9.40007C97.5056 10.3283 96.786 10.9544 95.7438 10.9544ZM94.4545 21.8681V11.7495H97.0882V21.8681H94.4545Z" fill="#004049"/>
<path d="M99.0788 21.9065H101.618C101.732 23.0626 102.47 23.6682 103.721 23.6682C105.181 23.6682 105.938 22.8911 105.938 21.4327V19.9552C105.388 20.9219 104.346 21.4904 103.115 21.4904C100.632 21.4904 98.7754 19.3867 98.7754 16.5264C98.7754 13.6661 100.519 11.5625 103.02 11.5625C104.385 11.5625 105.408 12.0926 106.146 13.1348V11.752H108.552V21.3969C108.552 24.0869 106.733 25.7168 103.739 25.7168C101.011 25.7168 99.1915 24.2393 99.0776 21.9078L99.0788 21.9065ZM103.627 19.2152C105.009 19.2152 105.92 18.1346 105.92 16.5431C105.92 14.9516 105.011 13.8338 103.627 13.8338C102.243 13.8338 101.409 14.8761 101.409 16.5251C101.409 18.1742 102.262 19.2164 103.627 19.2164V19.2152Z" fill="#004049"/>
<path d="M113.556 21.8682H110.922V11.7496H113.347V13.1899C114.086 12.1862 115.128 11.5601 116.454 11.5601C118.481 11.5601 119.884 12.8865 119.884 15.3307V21.8682H117.27V16.2218C117.27 14.7251 116.682 13.8916 115.489 13.8916C114.447 13.8916 113.556 14.7251 113.556 16.355V21.8695V21.8682Z" fill="#004049"/>
<path d="M0.117188 11.2C0.117188 7.27963 0.117188 5.31945 0.880142 3.82207C1.55126 2.50493 2.62212 1.43407 3.93925 0.762954C5.43664 0 7.39682 0 11.3172 0H18.9172C22.8376 0 24.7977 0 26.2951 0.762954C27.6123 1.43407 28.6831 2.50493 29.3542 3.82207C30.1172 5.31945 30.1172 7.27963 30.1172 11.2V18.8C30.1172 22.7204 30.1172 24.6806 29.3542 26.1779C28.6831 27.4951 27.6123 28.5659 26.2951 29.237C24.7977 30 22.8376 30 18.9172 30H11.3172C7.39682 30 5.43664 30 3.93925 29.237C2.62212 28.5659 1.55126 27.4951 0.880142 26.1779C0.117188 24.6806 0.117188 22.7204 0.117188 18.8V11.2Z" fill="url(#paint0_radial_922_72750)"/>
<path d="M10.4444 20.2452C10.4444 22.176 8.87966 23.7428 6.94679 23.7428C5.01392 23.7428 3.44922 22.1781 3.44922 20.2452C3.44922 18.3124 5.01392 16.7477 6.94679 16.7477C8.87966 16.7477 10.4444 18.3124 10.4444 20.2452ZM22.3841 10.1014C22.3841 7.97804 20.6631 6.25708 18.5397 6.25708H13.4988C12.7989 6.25708 12.2317 6.82431 12.2317 7.52425V10.1014C12.2317 10.7136 12.7283 11.2123 13.3426 11.2123H21.2731C21.8853 11.2123 22.3841 10.7157 22.3841 10.1014ZM26.6137 18.1561C26.6137 15.0716 24.1136 12.5715 21.0291 12.5715H14.0746C13.0579 12.5715 12.2338 13.3956 12.2338 14.4124V21.8998C12.2338 22.9166 13.0579 23.7407 14.0746 23.7407H21.0291C24.1136 23.7407 26.6137 21.2406 26.6137 18.1561Z" fill="#004049"/>
<defs>
<radialGradient id="paint0_radial_922_72750" cx="0" cy="0" r="1" gradientUnits="userSpaceOnUse" gradientTransform="translate(15.1172 -9.71987) rotate(90) scale(45.3429 104.995)">
<stop stop-color="#E3E9DE"/>
<stop offset="1" stop-color="#CEFFA3"/>
</radialGradient>
</defs>
</svg>
