<svg width="85" height="86" viewBox="0 0 85 86" fill="none" xmlns="http://www.w3.org/2000/svg">
<g clip-path="url(#clip0_1496_139606)">
<path d="M42.5078 17.5C47.2022 17.5 51.0078 13.6944 51.0078 9C51.0078 4.30558 47.2022 0.5 42.5078 0.5C37.8134 0.5 34.0078 4.30558 34.0078 9C34.0078 13.6944 37.8134 17.5 42.5078 17.5Z" fill="#7B7E78"/>
<path d="M24.4707 12.9512C27.791 16.2715 27.791 21.6504 24.4707 24.9707C21.1504 28.291 15.7715 28.291 12.4512 24.9707C9.13086 21.6504 9.13086 16.2715 12.4512 12.9512C15.7715 9.63086 21.1504 9.63086 24.4707 12.9512Z" fill="#7B7E78"/>
<path d="M8.5 34.4999C13.1982 34.4999 17 38.3017 17 42.9999C17 47.6982 13.1982 51.4999 8.5 51.4999C3.80176 51.4999 0 47.6982 0 42.9999C0 38.3017 3.80176 34.4999 8.5 34.4999Z" fill="#7B7E78"/>
<path d="M12.4512 61.0294C15.7715 57.709 21.1504 57.709 24.4707 61.0294C27.791 64.3497 27.791 69.7286 24.4707 73.0489C21.1504 76.3692 15.7715 76.3692 12.4512 73.0489C9.13086 69.7286 9.13086 64.3497 12.4512 61.0294Z" fill="#7B7E78"/>
<path d="M34.0078 77.0001C34.0078 72.3018 37.8096 68.5001 42.5078 68.5001C47.2061 68.5001 51.0078 72.3018 51.0078 77.0001C51.0078 81.6983 47.2061 85.5001 42.5078 85.5001C37.8096 85.5001 34.0078 81.6983 34.0078 77.0001Z" fill="#7B7E78"/>
<path d="M60.5371 73.0489C57.2168 69.7286 57.2168 64.3497 60.5371 61.0294C63.8574 57.709 69.2363 57.709 72.5566 61.0294C75.877 64.3497 75.877 69.7286 72.5566 73.0489C69.2363 76.3692 63.8574 76.3692 60.5371 73.0489Z" fill="#7B7E78"/>
<path d="M76.5078 51.4999C71.8096 51.4999 68.0078 47.6982 68.0078 42.9999C68.0078 38.3017 71.8096 34.4999 76.5078 34.4999C81.2061 34.4999 85.0078 38.3017 85.0078 42.9999C85.0078 47.6982 81.2061 51.4999 76.5078 51.4999Z" fill="#7B7E78"/>
<path d="M72.5566 24.9707C69.2363 28.291 63.8574 28.291 60.5371 24.9707C57.2168 21.6504 57.2168 16.2715 60.5371 12.9512C63.8574 9.63086 69.2363 9.63086 72.5566 12.9512C75.877 16.2715 75.877 21.6504 72.5566 24.9707Z" fill="#7B7E78"/>
</g>
<defs>
<clipPath id="clip0_1496_139606">
<rect width="85" height="85" fill="white" transform="translate(0 0.5)"/>
</clipPath>
</defs>
</svg>
