<svg width="48" height="49" viewBox="0 0 48 49" fill="none" xmlns="http://www.w3.org/2000/svg">
<g clip-path="url(#clip0_1294_141371)">
<path d="M37.7986 10.5913L40.8111 7.5788C41.3603 7.02961 41.3603 6.13927 40.8111 5.59008C40.262 5.04089 39.3716 5.04098 38.8224 5.59008L35.8098 8.60255C35.2607 9.15164 35.2607 10.0421 35.8098 10.5913C36.3588 11.1404 37.2493 11.1405 37.7986 10.5913Z" fill="#CEFFA3"/>
<path d="M44.3358 17.2285H41.3232C40.5466 17.2285 39.917 17.8581 39.917 18.6348C39.917 19.4114 40.5466 20.041 41.3232 20.041H44.3358C45.1124 20.041 45.7421 19.4114 45.7421 18.6348C45.7421 17.8581 45.1124 17.2285 44.3358 17.2285Z" fill="#CEFFA3"/>
<path d="M27.7671 6.48464C28.5437 6.48464 29.1733 5.85501 29.1733 5.07839V2.06592C29.1733 1.28929 28.5437 0.659668 27.7671 0.659668C26.9905 0.659668 26.3608 1.28929 26.3608 2.06592V5.07839C26.3608 5.85501 26.9905 6.48464 27.7671 6.48464Z" fill="#CEFFA3"/>
<path d="M2.67246 35.7154C2.12374 36.2641 2.12327 37.1551 2.67246 37.7042L8.69749 43.7292C9.24649 44.2783 10.1369 44.2785 10.6862 43.7292L13.0427 41.3728L5.02905 33.3591L2.67246 35.7154Z" fill="#CEFFA3"/>
<path d="M27.0199 36.8508L17.1455 41.4976L23.8958 48.2479C24.4448 48.797 25.3353 48.7972 25.8845 48.2479L31.1564 42.9761C31.7055 42.4269 31.7055 41.5366 31.1564 40.9874L27.0199 36.8508Z" fill="#CEFFA3"/>
<path d="M21.2299 5.59009C20.9061 5.26628 20.4448 5.1205 19.9937 5.19915C19.5426 5.2779 19.1581 5.57134 18.9631 5.98572L7.01758 31.3698L15.0312 39.3836L40.4155 27.4381C40.8298 27.2431 41.1233 26.8585 41.202 26.4074C41.2808 25.9562 41.1349 25.4951 40.8111 25.1713L21.2299 5.59009Z" fill="#CEFFA3"/>
</g>
<defs>
<clipPath id="clip0_1294_141371">
<rect width="48" height="48" fill="white" transform="translate(0 0.659668)"/>
</clipPath>
</defs>
</svg>
