<svg width="48" height="48" viewBox="0 0 48 48" fill="none" xmlns="http://www.w3.org/2000/svg">
<g clip-path="url(#clip0_1493_139160)">
<path d="M37.8069 9.9316L40.8194 6.91913C41.3686 6.36994 41.3686 5.4796 40.8194 4.93041C40.2703 4.38122 39.3799 4.38132 38.8307 4.93041L35.8181 7.94288C35.269 8.49197 35.269 9.38241 35.8181 9.9316C36.3671 10.4807 37.2576 10.4809 37.8069 9.9316Z" fill="#7B7E78"/>
<path d="M44.3407 16.5688H41.3281C40.5515 16.5688 39.9219 17.1985 39.9219 17.9751C39.9219 18.7517 40.5515 19.3813 41.3281 19.3813H44.3407C45.1173 19.3813 45.7469 18.7517 45.7469 17.9751C45.7469 17.1985 45.1173 16.5688 44.3407 16.5688Z" fill="#7B7E78"/>
<path d="M27.7656 5.82497C28.5423 5.82497 29.1719 5.19534 29.1719 4.41872V1.40625C29.1719 0.629625 28.5423 0 27.7656 0C26.989 0 26.3594 0.629625 26.3594 1.40625V4.41872C26.3594 5.19534 26.989 5.82497 27.7656 5.82497Z" fill="#7B7E78"/>
<path d="M2.67734 35.0555C2.12862 35.6042 2.12815 36.4952 2.67734 37.0443L8.70237 43.0693C9.25137 43.6184 10.1418 43.6186 10.6911 43.0693L13.0476 40.7129L5.03393 32.6992L2.67734 35.0555Z" fill="#7B7E78"/>
<path d="M27.0307 36.1914L17.1562 40.8382L23.9065 47.5885C24.4555 48.1376 25.3461 48.1378 25.8953 47.5885L31.1671 42.3167C31.7163 41.7675 31.7163 40.8771 31.1671 40.3279L27.0307 36.1914Z" fill="#7B7E78"/>
<path d="M21.2279 4.93042C20.9041 4.60661 20.4429 4.46083 19.9918 4.53949C19.5406 4.61824 19.1562 4.91167 18.9612 5.32605L7.01562 30.7102L15.0293 38.7239L40.4135 26.7784C40.8279 26.5834 41.1213 26.1988 41.2001 25.7477C41.2788 25.2966 41.1329 24.8354 40.8091 24.5116L21.2279 4.93042Z" fill="#7B7E78"/>
</g>
<defs>
<clipPath id="clip0_1493_139160">
<rect width="48" height="48" fill="white"/>
</clipPath>
</defs>
</svg>
