<svg width="17" height="16" viewBox="0 0 17 16" fill="none" xmlns="http://www.w3.org/2000/svg">
<g clip-path="url(#clip0_506_8139)">
<path d="M14.7318 6.47983L13.6351 6.34042C13.5447 6.06217 13.4333 5.79383 13.3032 5.53892L13.9804 4.66683C14.2546 4.31392 14.2225 3.81575 13.9093 3.51242L12.9905 2.59367C12.6843 2.2775 12.1861 2.246 11.8326 2.51958L10.9617 3.19683C10.7068 3.06675 10.4384 2.95533 10.1596 2.86492L10.0202 1.77C9.96767 1.33075 9.59492 1 9.15333 1H7.84667C7.40508 1 7.03233 1.33075 6.97983 1.76825L6.84042 2.86492C6.56158 2.95533 6.29325 3.06617 6.03833 3.19683L5.16683 2.51958C4.8145 2.246 4.31633 2.2775 4.01242 2.59075L3.09367 3.50892C2.7775 3.81575 2.74542 4.31392 3.01958 4.66742L3.69683 5.53892C3.56617 5.79383 3.45533 6.06217 3.36492 6.34042L2.27 6.47983C1.83075 6.53233 1.5 6.90508 1.5 7.34667V8.65333C1.5 9.09492 1.83075 9.46767 2.26825 9.52017L3.36492 9.65958C3.45533 9.93783 3.56675 10.2062 3.69683 10.4611L3.01958 11.3332C2.74542 11.6861 2.7775 12.1843 3.09075 12.4876L4.0095 13.4063C4.31633 13.7219 4.81392 13.7534 5.16742 13.4798L6.03892 12.8026C6.29383 12.9332 6.56217 13.0447 6.84042 13.1345L6.97983 14.2288C7.03233 14.6692 7.40508 15 7.84667 15H9.15333C9.59492 15 9.96767 14.6692 10.0202 14.2317L10.1596 13.1351C10.4378 13.0447 10.7062 12.9332 10.9611 12.8032L11.8332 13.4804C12.1861 13.7546 12.6843 13.7225 12.9876 13.4092L13.9063 12.4905C14.2225 12.1837 14.2546 11.6861 13.9804 11.3326L13.3032 10.4611C13.4338 10.2062 13.5453 9.93783 13.6351 9.65958L14.7294 9.52017C15.1687 9.46767 15.4994 9.09492 15.4994 8.65333V7.34667C15.5 6.90508 15.1693 6.53233 14.7318 6.47983ZM8.5 10.9167C6.89175 10.9167 5.58333 9.60825 5.58333 8C5.58333 6.39175 6.89175 5.08333 8.5 5.08333C10.1083 5.08333 11.4167 6.39175 11.4167 8C11.4167 9.60825 10.1083 10.9167 8.5 10.9167Z" stroke="#353B38" stroke-width="1.16667" stroke-linecap="round" stroke-linejoin="round"/>
</g>
<defs>
<clipPath id="clip0_506_8139">
<rect width="16" height="16" fill="white" transform="translate(0.5)"/>
</clipPath>
</defs>
</svg>
