<svg width="50" height="50" viewBox="0 0 50 50" fill="none" xmlns="http://www.w3.org/2000/svg">
<path d="M1.28647 42.9933V30.4953C1.28647 28.1124 3.2317 26.2158 5.56597 26.2158H18.064C20.447 26.2158 22.3435 28.161 22.3435 30.4953V42.9933C22.3435 45.3762 20.3983 47.2728 18.064 47.2728H5.56597C3.18307 47.2728 1.28647 45.3276 1.28647 42.9933ZM42.6712 30.009C41.8444 29.1822 40.4342 29.2795 39.7533 30.3007C39.267 31.0788 39.4129 32.1001 40.0451 32.7323L42.1362 34.8234H28.471C27.4011 34.8234 26.5744 35.6987 26.5744 36.72C26.5744 37.7412 27.4498 38.6166 28.471 38.6166H42.1362L40.0451 40.7077C39.4129 41.3399 39.2184 42.3611 39.7533 43.1392C40.4342 44.1605 41.8444 44.2577 42.6712 43.431L48.2637 37.8385C48.8959 37.2063 48.8959 36.1851 48.2637 35.6015L42.6712 30.009ZM31.9724 2.72716C29.5895 2.72716 27.6929 4.67238 27.6929 7.00666V19.5047C27.6929 21.8876 29.6381 23.7842 31.9724 23.7842H44.4705C46.8534 23.7842 48.75 21.839 48.75 19.5047V7.00666C48.75 4.62375 46.8048 2.72716 44.4705 2.72716L31.9724 2.72716ZM7.36531 19.991C8.19203 20.8178 9.60231 20.7205 10.2831 19.6993C10.7695 18.9212 10.6236 17.8999 9.99136 17.2677L7.90024 15.1766H21.5655C22.6353 15.1766 23.4621 14.3013 23.4621 13.28C23.4621 12.2588 22.5867 11.3834 21.5655 11.3834H7.90024L9.99136 9.2923C10.6236 8.6601 10.8181 7.63885 10.2831 6.86076C9.60232 5.83952 8.19203 5.74226 7.36531 6.56898L1.72415 12.1615C1.09195 12.7937 1.09195 13.8149 1.72415 14.3985L7.36531 19.991Z" fill="#7B7E78"/>
</svg>
