<svg width="56" height="56" viewBox="0 0 56 56" fill="none" xmlns="http://www.w3.org/2000/svg">
<g clip-path="url(#clip0_1288_7688)">
<path fill-rule="evenodd" clip-rule="evenodd" d="M55.6298 5.89681C55.814 4.6843 55.2972 3.46922 54.297 2.75552C53.2968 2.04438 51.9794 1.95485 50.8923 2.5253C42.1923 7.09398 11.7591 23.0716 2.41198 27.978C1.2583 28.5817 0.577854 29.8146 0.677618 31.1116C0.777382 32.4085 1.63689 33.5238 2.86987 33.9459C6.50999 35.1917 10.9584 36.7188 17.9343 39.1106L46.0729 12.8112L23.3011 40.9499C30.7399 43.5002 42.3714 47.4882 45.2901 48.4884C46.2033 48.8031 47.2112 48.6931 48.0375 48.1943C48.8637 47.6929 49.4239 46.8513 49.5697 45.8946L55.6298 5.89681Z" fill="#7B7E78"/>
<path fill-rule="evenodd" clip-rule="evenodd" d="M20.0625 42.5435V50.9083C20.0625 52.1924 20.8171 53.3564 21.9862 53.8808C23.1577 54.4077 24.5263 54.198 25.4856 53.3436L32.7453 46.8922L20.0625 42.5435Z" fill="#7B7E78"/>
</g>
<defs>
<clipPath id="clip0_1288_7688">
<rect width="55" height="55" fill="white" transform="translate(0.666504 0.659668)"/>
</clipPath>
</defs>
</svg>
