<svg width="73" height="72" viewBox="0 0 73 72" fill="none" xmlns="http://www.w3.org/2000/svg">
<path fill-rule="evenodd" clip-rule="evenodd" d="M66.8074 5.5261C70.3415 9.06024 72.3335 13.8474 72.3335 18.8594V53.1406C72.3335 58.1526 70.3415 62.9398 66.8074 66.4739C63.2733 70.008 58.4861 72 53.4741 72H19.1929C14.1809 72 9.39374 70.008 5.8596 66.4739C2.32546 62.9398 0.333496 58.1526 0.333496 53.1406V18.8594C0.333496 13.8474 2.32546 9.06024 5.8596 5.5261C9.39374 1.99197 14.1809 0 19.1929 0H53.4741C58.4861 0 63.2733 1.99197 66.8074 5.5261ZM54.2104 32.6425L54.1948 32.6581L54.2113 32.6747L52.637 34.249C52.0908 34.7952 51.4482 35.245 50.7414 35.5984C48.878 36.5301 46.629 36.1767 45.1511 34.6988L37.6651 27.2128C36.1872 25.7349 35.8338 23.4859 36.7655 21.6225C37.1189 20.9156 37.5687 20.2731 38.1149 19.7269L38.1305 19.7113L38.114 19.6947L39.6883 18.1204C40.2345 17.5742 40.877 17.1244 41.5838 16.771C43.4473 15.8393 45.6963 16.1927 47.1742 17.6706L54.6602 25.1566C56.1381 26.6345 56.4915 28.8835 55.5597 30.7469C55.2063 31.4538 54.7565 32.0963 54.2104 32.6425ZM24.6211 30.3614C25.9383 30.2971 27.866 29.9758 30.0187 28.9156L30.0829 28.9798C31.0789 28.4979 32.2676 28.6907 33.0387 29.4618L42.9986 39.4216C43.7697 40.1927 43.9624 41.3815 43.4805 42.3774C42.4203 44.53 42.099 46.4578 42.0347 47.775C41.9705 48.8995 41.2315 49.8955 40.1391 50.1847L19.866 55.7108C17.9383 56.257 16.1713 54.4578 16.6853 52.53L22.2114 32.257C22.5006 31.1646 23.4966 30.4256 24.6211 30.3614ZM25.1673 43.5662C25.1673 45.5582 26.8058 47.1967 28.7978 47.1967C30.7897 47.1967 32.4283 45.5582 32.4283 43.5662C32.4283 41.5742 30.7897 39.9357 28.7978 39.9357C26.8058 39.9357 25.1673 41.5742 25.1673 43.5662Z" fill="#7B7E78"/>
</svg>
