<svg width="49" height="48" viewBox="0 0 49 48" fill="none" xmlns="http://www.w3.org/2000/svg">
<path d="M32.0805 42.4089H25.5781C24.8018 42.4089 24.1719 41.7794 24.1719 41.0026V34.5003C24.1719 34.1275 24.3202 33.7697 24.5839 33.506L39.7613 18.3285C40.3106 17.7796 41.2009 17.7792 41.7502 18.3285L48.2526 24.8305C48.5162 25.0946 48.6646 25.452 48.6646 25.8252C48.6646 26.198 48.5162 26.5557 48.2526 26.8194L33.0747 41.9969C32.8111 42.2609 32.4533 42.4089 32.0805 42.4089ZM26.9843 39.5964H31.4979L45.2691 25.8252L40.7556 21.3117L26.9843 35.0829V39.5964Z" fill="#C4C7BD"/>
<path d="M34.865 12.5209C33.3427 10.4218 31.3252 8.67935 29.0309 7.48259C26.659 6.24554 23.982 5.59149 21.29 5.59113C12.0492 5.59149 4.53093 13.1094 4.53129 22.3499C4.53129 24.679 5.02164 26.997 5.95474 29.1156L1.07613 33.9942C0.709186 34.3607 0.574055 34.8994 0.724566 35.396C0.874712 35.8922 1.28596 36.2658 1.79462 36.3676L15.3644 39.0812C15.4564 39.0995 15.5486 39.1086 15.6402 39.1086C16.0093 39.1086 16.3682 38.9629 16.6344 38.6966C16.967 38.3641 17.1113 37.8877 17.019 37.4266L14.3054 23.8568C14.2036 23.3482 13.8304 22.9369 13.3338 22.7868C12.8376 22.6363 12.2986 22.7714 11.932 23.1383L8.11939 26.9509C7.60487 25.4828 7.34377 23.9425 7.34377 22.3499C7.34377 18.6248 8.79431 15.1224 11.4284 12.4886C14.0626 9.85451 17.565 8.4036 21.29 8.4036C25.7453 8.40396 29.9688 10.5602 32.5883 14.1721C33.0442 14.8009 33.9235 14.9411 34.5522 14.4848C35.181 14.0289 35.3209 13.1496 34.865 12.5209ZM12.0627 26.985L13.8476 35.9098L4.92277 34.1249L12.0627 26.985Z" fill="#6E8B90"/>
</svg>
