<svg width="48" height="49" viewBox="0 0 48 49" fill="none" xmlns="http://www.w3.org/2000/svg">
<g clip-path="url(#clip0_1923_145079)">
<path d="M42.6501 2.36131C42.3242 1.70689 41.5491 1.42252 40.8745 1.71485C39.6246 2.25666 33.3308 5.12794 32.152 8.36945C30.8514 11.9376 32.6904 15.8723 36.2557 17.1698C39.8003 18.4619 43.7577 16.6328 45.056 13.0659C46.2349 9.8245 43.2589 3.57896 42.6501 2.36131Z" fill="#CEFFA3"/>
<path d="M40.3611 28.3716L40.0166 31.1269C40.5098 31.3352 40.8564 31.8238 40.8564 32.3924V37.8856C40.8564 38.6432 40.2408 39.2589 39.4831 39.2589H38.9998L38.6562 42.097H39.4831C41.7549 42.097 43.6029 40.1573 43.6029 37.8856V32.3924C43.6029 30.4225 42.2115 28.7758 40.3611 28.3716Z" fill="#CEFFA3"/>
<path d="M8.09375 25.5264L10.3896 44.0732C10.6458 46.1305 12.404 47.6821 14.4773 47.6821H31.6005C33.6738 47.6821 35.432 46.1305 35.6881 44.0732L37.984 25.5264H8.09375Z" fill="#CEFFA3"/>
<path d="M25.6365 1.50908C25.1698 0.578354 23.6462 0.578354 23.1796 1.50908L20.8125 9.04689H28.0035L25.6365 1.50908Z" fill="#CEFFA3"/>
<path d="M28.5054 11.7935H20.2656V22.7798H28.5054V11.7935Z" fill="#CEFFA3"/>
<path d="M35.3189 19.7502C33.9531 19.2527 32.7684 18.4455 31.7784 17.438L31.25 18.8894V22.7797H38.6021L39.5196 20.2588C38.1312 20.3938 36.8666 20.3138 35.3189 19.7502Z" fill="#CEFFA3"/>
<path d="M13.3296 1.82556C13.1352 1.09204 12.3828 0.65744 11.6479 0.854644L3.68975 3.04413C2.95751 3.23996 2.523 3.99362 2.71884 4.72586L3.8334 8.88629L7.76403 7.6387C8.49764 7.44562 9.25131 7.87738 9.44576 8.60962C9.6416 9.34186 9.20709 10.0955 8.47485 10.2914L4.54421 11.5389L5.25521 14.193L9.18566 12.9454C9.92193 12.7455 10.6716 13.1828 10.8674 13.9163C11.0632 14.6485 10.6287 15.4022 9.89648 15.598L5.96603 16.8456L6.67666 19.4984L10.6073 18.2508C11.3462 18.0537 12.0932 18.4882 12.289 19.2217C12.4849 19.9539 12.0503 20.7076 11.3181 20.9034L7.38748 22.151L7.55593 22.7796H17.5233V17.5317L13.3296 1.82556Z" fill="#CEFFA3"/>
</g>
<defs>
<clipPath id="clip0_1923_145079">
<rect width="48" height="48" fill="white" transform="translate(0 0.244629)"/>
</clipPath>
</defs>
</svg>
