<svg width="51" height="50" viewBox="0 0 51 50" fill="none" xmlns="http://www.w3.org/2000/svg">
<path d="M47.5938 35.3125C47.4656 35.2109 38.1641 28.5063 35.6109 28.9875C34.3922 29.2031 33.6953 30.0344 32.2969 31.6984C32.0719 31.9672 31.5312 32.6109 31.1109 33.0687C30.2272 32.7805 29.3651 32.4296 28.5312 32.0188C24.2274 29.9235 20.75 26.4461 18.6547 22.1422C18.2435 21.3085 17.8926 20.4464 17.6047 19.5625C18.0641 19.1406 18.7078 18.6 18.9828 18.3687C20.6391 16.9781 21.4719 16.2812 21.6875 15.0594C22.1297 12.5281 15.4297 3.1625 15.3594 3.07812C15.0554 2.64386 14.6587 2.2826 14.1979 2.02047C13.7372 1.75835 13.2239 1.60192 12.6953 1.5625C9.97969 1.5625 2.22656 11.6203 2.22656 13.3141C2.22656 13.4125 2.36875 23.4188 14.7078 35.9703C27.2469 48.2953 37.2516 48.4375 37.35 48.4375C39.0453 48.4375 49.1016 40.6844 49.1016 37.9688C49.0626 37.442 48.9071 36.9304 48.6463 36.4711C48.3856 36.0117 48.0261 35.616 47.5938 35.3125Z" fill="#CEFFA3"/>
</svg>
