<svg width="73" height="72" viewBox="0 0 73 72" fill="none" xmlns="http://www.w3.org/2000/svg">
<g clip-path="url(#clip0_204_30718)">
<path fill-rule="evenodd" clip-rule="evenodd" d="M38.8413 65.6683C38.8413 65.6683 40.3514 55.5829 45.1014 45.7436C48.145 39.4336 52.5058 33.1702 58.8158 30.0135C60.0499 29.3981 60.5488 27.898 59.9335 26.6672C59.3181 25.4365 57.8179 24.9375 56.5872 25.5529C49.3026 29.1952 44.1202 36.2936 40.6076 43.5749C35.5183 54.1226 33.9084 64.9298 33.9084 64.9298C33.7055 66.2936 34.6468 67.5643 36.0073 67.7672C37.3677 67.9701 38.6384 67.0287 38.8413 65.6683Z" fill="#7B7E78"/>
<path fill-rule="evenodd" clip-rule="evenodd" d="M40.4739 36.879L43.2381 43.0061C49.0425 35.5551 55.6818 29.7773 62.9099 25.1804C64.3469 28.0543 63.1827 31.5536 60.3087 32.9905C55.4556 35.4154 51.963 39.9492 49.3452 44.7591C53.4698 45.8734 56.856 45.8933 59.6169 45.1881C66.3028 43.4917 69.7688 37.5875 71.2723 30.9149C73.308 21.8873 71.7945 11.6356 71.7945 11.6356C71.5949 10.3051 70.3742 9.37037 69.0337 9.52671C52.4686 11.4793 44.9977 17.0608 41.8244 22.6989C38.9505 27.8015 39.4793 33.1801 40.4739 36.879Z" fill="#7B7E78"/>
<path fill-rule="evenodd" clip-rule="evenodd" d="M38.8485 65.6283C38.8485 65.6283 39.9927 57.1529 38.0169 47.1207C35.9978 36.8823 30.7323 25.1038 18.0324 18.7539C16.7983 18.1385 15.3015 18.6375 14.6828 19.8715C14.0674 21.1023 14.5697 22.6024 15.8004 23.2178C26.8937 28.7628 31.3576 39.1442 33.1206 48.0854C34.9234 57.236 33.9023 64.9697 33.9023 64.9697C33.7193 66.3335 34.6806 67.5909 36.0444 67.7705C37.4115 67.9534 38.6655 66.9955 38.8485 65.6283Z" fill="#7B7E78"/>
<path fill-rule="evenodd" clip-rule="evenodd" d="M26.1123 37.8337C23.6641 33.2367 19.9519 29.0123 14.3138 26.1915C11.4399 24.7546 10.2723 21.2553 11.7093 18.3814C12.2049 17.3934 29.9309 33.0271 33.2572 36.3534L34.8738 29.7507C35.5956 25.972 35.8783 19.8183 31.9566 14.5461C28.0981 9.35373 19.9819 4.76009 3.30037 4.91975C1.94989 4.93306 0.858858 6.01411 0.828921 7.36127C0.828921 7.36127 0.622689 17.7194 3.78269 26.4177C6.11776 32.8475 10.3023 38.2661 17.1478 39.1043C19.6925 39.417 22.6662 39.0877 26.1123 37.8337Z" fill="#7B7E78"/>
</g>
<defs>
<clipPath id="clip0_204_30718">
<rect width="72" height="72" fill="white" transform="translate(0.333984)"/>
</clipPath>
</defs>
</svg>
