<svg width="66" height="57" viewBox="0 0 66 57" fill="none" xmlns="http://www.w3.org/2000/svg">
<path d="M5.62116 2.81001C5.62116 4.3672 4.361 5.62006 2.81058 5.62006C1.26016 5.62006 0 4.36013 0 2.81001C0 1.25989 1.26016 0 2.81058 0C4.361 0 5.62116 1.25989 5.62116 2.81001Z" fill="white"/>
<path d="M25.5665 2.81001C25.5665 4.3672 24.3063 5.62006 22.7559 5.62006C21.2055 5.62006 19.9453 4.36013 19.9453 2.81001C19.9453 1.25989 21.2055 0 22.7559 0C24.3063 0 25.5665 1.25989 25.5665 2.81001Z" fill="white"/>
<path d="M45.5196 2.81001C45.5196 4.3672 44.2594 5.62006 42.709 5.62006C41.1586 5.62006 39.8984 4.36013 39.8984 2.81001C39.8984 1.25989 41.1586 0 42.709 0C44.2594 0 45.5196 1.25989 45.5196 2.81001Z" fill="white"/>
<path d="M65.4649 2.81001C65.4649 4.3672 64.2048 5.62006 62.6543 5.62006C61.1039 5.62006 59.8438 4.36013 59.8438 2.81001C59.8438 1.25989 61.1039 0 62.6543 0C64.2048 0 65.4649 1.25989 65.4649 2.81001Z" fill="white"/>
<path d="M5.62116 19.939C5.62116 21.4962 4.361 22.7491 2.81058 22.7491C1.26016 22.7491 0 21.4892 0 19.939C0 18.3889 1.26016 17.129 2.81058 17.129C4.361 17.129 5.62116 18.3889 5.62116 19.939Z" fill="white"/>
<path d="M25.5665 19.939C25.5665 21.4962 24.3063 22.7491 22.7559 22.7491C21.2055 22.7491 19.9453 21.4892 19.9453 19.939C19.9453 18.3889 21.2055 17.129 22.7559 17.129C24.3063 17.129 25.5665 18.3889 25.5665 19.939Z" fill="white"/>
<path d="M45.5196 19.939C45.5196 21.4962 44.2594 22.7491 42.709 22.7491C41.1586 22.7491 39.8984 21.4892 39.8984 19.939C39.8984 18.3889 41.1586 17.129 42.709 17.129C44.2594 17.129 45.5196 18.3889 45.5196 19.939Z" fill="white"/>
<path d="M65.4649 19.939C65.4649 21.4962 64.2048 22.7491 62.6543 22.7491C61.1039 22.7491 59.8438 21.4892 59.8438 19.939C59.8438 18.3889 61.1039 17.129 62.6543 17.129C64.2048 17.129 65.4649 18.3889 65.4649 19.939Z" fill="white"/>
<path d="M5.62116 37.0611C5.62116 38.6183 4.361 39.8711 2.81058 39.8711C1.26016 39.8711 0 38.6112 0 37.0611C0 35.511 1.26016 34.2511 2.81058 34.2511C4.361 34.2511 5.62116 35.511 5.62116 37.0611Z" fill="white"/>
<path d="M25.5665 37.0611C25.5665 38.6183 24.3063 39.8711 22.7559 39.8711C21.2055 39.8711 19.9453 38.6112 19.9453 37.0611C19.9453 35.511 21.2055 34.2511 22.7559 34.2511C24.3063 34.2511 25.5665 35.511 25.5665 37.0611Z" fill="white"/>
<path d="M45.5196 37.0611C45.5196 38.6183 44.2594 39.8711 42.709 39.8711C41.1586 39.8711 39.8984 38.6112 39.8984 37.0611C39.8984 35.511 41.1586 34.2511 42.709 34.2511C44.2594 34.2511 45.5196 35.511 45.5196 37.0611Z" fill="white"/>
<path d="M65.4649 37.0611C65.4649 38.6183 64.2048 39.8711 62.6543 39.8711C61.1039 39.8711 59.8438 38.6112 59.8438 37.0611C59.8438 35.511 61.1039 34.2511 62.6543 34.2511C64.2048 34.2511 65.4649 35.511 65.4649 37.0611Z" fill="white"/>
<path d="M5.62116 54.1899C5.62116 55.7471 4.361 56.9999 2.81058 56.9999C1.26016 56.9999 0 55.7401 0 54.1899C0 52.6398 1.26016 51.3799 2.81058 51.3799C4.361 51.3799 5.62116 52.6398 5.62116 54.1899Z" fill="white"/>
<path d="M25.5665 54.1899C25.5665 55.7471 24.3063 56.9999 22.7559 56.9999C21.2055 56.9999 19.9453 55.7401 19.9453 54.1899C19.9453 52.6398 21.2055 51.3799 22.7559 51.3799C24.3063 51.3799 25.5665 52.6398 25.5665 54.1899Z" fill="white"/>
<path d="M45.5196 54.1899C45.5196 55.7471 44.2594 56.9999 42.709 56.9999C41.1586 56.9999 39.8984 55.7401 39.8984 54.1899C39.8984 52.6398 41.1586 51.3799 42.709 51.3799C44.2594 51.3799 45.5196 52.6398 45.5196 54.1899Z" fill="white"/>
<path d="M65.4649 54.1899C65.4649 55.7471 64.2048 56.9999 62.6543 56.9999C61.1039 56.9999 59.8438 55.7401 59.8438 54.1899C59.8438 52.6398 61.1039 51.3799 62.6543 51.3799C64.2048 51.3799 65.4649 52.6398 65.4649 54.1899Z" fill="white"/>
</svg>
