<svg width="48" height="49" viewBox="0 0 48 49" fill="none" xmlns="http://www.w3.org/2000/svg">
<g clip-path="url(#clip0_1923_145098)">
<path d="M4.74726 10.6622C6.59342 8.81604 8.43958 6.96989 9.23079 7.49736C10.5495 8.02483 9.23079 10.1347 8.43958 11.4534C7.64837 12.5084 0.791211 21.7391 0.791211 28.0688C0.791211 31.4974 2.10989 34.1348 4.21979 35.9809C6.32968 37.5634 8.70332 37.8271 11.0769 37.2996C13.9781 36.5084 16.0879 33.6073 19.2528 29.915C22.4176 25.9589 26.6375 20.9479 30.0659 20.9479C34.2858 20.9479 34.2858 23.5853 34.8132 25.6952C24.7912 27.2776 20.5714 35.4536 20.5714 39.937C20.5714 44.4204 24.2637 48.1128 29.0109 48.1128C33.2308 48.1128 40.3516 44.6844 41.4066 32.0249H48V25.4315H41.4066C40.8791 21.2117 38.5056 14.3545 30.8571 14.3545C25.0549 14.3545 19.7802 19.3655 17.934 21.7391C16.3516 23.5853 12.3955 28.3326 11.8681 28.8601C11.0768 29.6513 10.0219 30.9699 8.96695 30.9699C7.912 30.9699 7.12079 28.8601 7.912 25.9589C8.96695 23.0578 11.6043 18.3106 12.923 16.7281C14.7692 13.5633 16.0878 11.4534 16.0878 8.02483C16.0878 2.22262 11.8681 0.376465 9.49442 0.376465C6.06584 0.376465 3.16474 3.01383 2.37353 3.80504C1.58232 4.59625 0.791211 5.38746 0 6.17868L4.74726 10.6622ZM29.2749 41.5194C28.4837 41.5194 27.4285 40.7283 27.4285 39.6733C27.4285 38.0908 29.2749 33.8709 35.077 32.2886C34.0219 39.4095 31.1209 41.5194 29.2749 41.5194Z" fill="#CEFFA3"/>
</g>
<defs>
<clipPath id="clip0_1923_145098">
<rect width="48.0001" height="48" fill="white" transform="translate(0 0.244629)"/>
</clipPath>
</defs>
</svg>
