<svg width="48" height="49" viewBox="0 0 48 49" fill="none" xmlns="http://www.w3.org/2000/svg">
<path d="M24 9.61133C20.4399 9.61133 16.9598 10.667 13.9997 12.6449C11.0397 14.6227 8.73255 17.434 7.37018 20.723C6.0078 24.0121 5.65134 27.6313 6.34587 31.123C7.04041 34.6146 8.75474 37.8219 11.2721 40.3392C13.7894 42.8566 16.9967 44.5709 20.4884 45.2655C23.98 45.96 27.5992 45.6035 30.8883 44.2412C34.1774 42.8788 36.9886 40.5717 38.9665 37.6116C40.9443 34.6515 42 31.1714 42 27.6113C42 22.8374 40.1036 18.2591 36.7279 14.8834C33.3523 11.5078 28.7739 9.61133 24 9.61133ZM29.42 33.0313C29.2341 33.2188 29.0129 33.3676 28.7692 33.4691C28.5254 33.5706 28.264 33.6229 28 33.6229C27.736 33.6229 27.4746 33.5706 27.2309 33.4691C26.9871 33.3676 26.7659 33.2188 26.58 33.0313L22.58 29.0313C22.3946 28.8444 22.248 28.6228 22.1485 28.3791C22.0489 28.1355 21.9985 27.8745 22 27.6113V19.6113C22 19.0809 22.2107 18.5722 22.5858 18.1971C22.9609 17.822 23.4696 17.6113 24 17.6113C24.5304 17.6113 25.0391 17.822 25.4142 18.1971C25.7893 18.5722 26 19.0809 26 19.6113V26.7913L29.42 30.1913C29.6075 30.3773 29.7563 30.5985 29.8578 30.8422C29.9593 31.0859 30.0116 31.3473 30.0116 31.6113C30.0116 31.8754 29.9593 32.1368 29.8578 32.3805C29.7563 32.6242 29.6075 32.8454 29.42 33.0313Z" fill="#E0E5DA"/>
<path d="M38.4671 12.6742C38.0739 12.6787 37.6892 12.5598 37.3671 12.3342L31.3671 8.33423C31.1219 8.20269 30.9068 8.02142 30.7356 7.80201C30.5645 7.5826 30.4409 7.32989 30.373 7.06002C30.3051 6.79016 30.2942 6.50909 30.3411 6.23479C30.388 5.96049 30.4916 5.69899 30.6453 5.46702C30.799 5.23504 30.9995 5.0377 31.2338 4.88761C31.4681 4.73752 31.7312 4.63799 32.0062 4.59537C32.2812 4.55275 32.5621 4.56799 32.8309 4.64012C33.0996 4.71224 33.3504 4.83966 33.5671 5.01423L39.5671 9.01423C39.9218 9.25255 40.1908 9.5982 40.3348 10.0005C40.4787 10.4029 40.49 10.8407 40.367 11.2499C40.244 11.6592 39.9932 12.0182 39.6513 12.2746C39.3094 12.5309 38.8944 12.6709 38.4671 12.6742Z" fill="#E0E5DA"/>
<path d="M9.53144 12.6742C9.10414 12.6709 8.68913 12.5309 8.34723 12.2746C8.00533 12.0182 7.7545 11.6592 7.63151 11.2499C7.50852 10.8407 7.51983 10.4029 7.66378 10.0005C7.80773 9.5982 8.07676 9.25255 8.43144 9.01423L14.4314 5.01423C14.6482 4.83966 14.8989 4.71224 15.1677 4.64012C15.4365 4.56799 15.7173 4.55275 15.9923 4.59537C16.2673 4.63799 16.5304 4.73752 16.7647 4.88761C16.9991 5.0377 17.1995 5.23504 17.3532 5.46702C17.5069 5.69899 17.6106 5.96049 17.6575 6.23479C17.7043 6.50909 17.6935 6.79016 17.6255 7.06002C17.5576 7.32989 17.4341 7.5826 17.2629 7.80201C17.0917 8.02142 16.8767 8.20269 16.6314 8.33423L10.6314 12.3342C10.3094 12.5598 9.92464 12.6787 9.53144 12.6742Z" fill="#E0E5DA"/>
</svg>
