<svg width="48" height="48" viewBox="0 0 48 48" fill="none" xmlns="http://www.w3.org/2000/svg">
<path d="M23.9976 44.3061C30.0866 44.3061 35.0226 39.37 35.0226 33.2811C35.0226 27.1922 30.0866 22.2561 23.9976 22.2561C17.9087 22.2561 12.9727 27.1922 12.9727 33.2811C12.9727 39.37 17.9087 44.3061 23.9976 44.3061Z" fill="#7B7E78"/>
<path d="M22.8654 18.6254L16.109 6.91867C15.9477 6.63935 15.7157 6.40741 15.4364 6.24615C15.1571 6.0849 14.8402 6 14.5177 6C14.1952 6 13.8783 6.0849 13.599 6.24615C13.3197 6.40741 13.0877 6.63935 12.9264 6.91867L1.94922 25.9312H11.2727C12.4674 23.8644 14.1471 22.1193 16.1667 20.8465C18.1864 19.5737 20.4854 18.8114 22.8654 18.6254Z" fill="#7B7E78"/>
<path d="M25.8359 9.3938V18.6952C28.7556 19.0682 31.4967 20.3068 33.7063 22.2514C35.9158 24.1961 37.4926 26.7576 38.2335 29.6063H46.0484V9.3938H25.8359Z" fill="#7B7E78"/>
</svg>
