<svg width="24" height="23" viewBox="0 0 24 23" fill="none" xmlns="http://www.w3.org/2000/svg">
<path d="M17.2764 22.7C16.7764 22.7 16.3764 22.6 15.9764 22.4L11.7764 20.2L7.57641 22.4C6.6764 22.9 5.47641 22.8 4.57641 22.2C3.77641 21.5 3.2764 20.5 3.4764 19.4L4.2764 14.7L0.876405 11.4C0.0764047 10.7 -0.223595 9.6 0.176405 8.5C0.476405 7.5 1.3764 6.7 2.4764 6.6L7.1764 5.9L9.2764 1.6C9.7764 0.6 10.7764 0 11.7764 0C12.7764 0 13.7764 0.6 14.2764 1.6L16.3764 5.9L21.0764 6.6C22.1764 6.8 22.9764 7.5 23.3764 8.5C23.6764 9.5 23.4764 10.6 22.6764 11.4L19.2764 14.7L20.0764 19.4C20.2764 20.5 19.8764 21.5 18.9764 22.2C18.4764 22.5 17.8764 22.7 17.2764 22.7Z" fill="#004049"/>
</svg>
