<svg width="210" height="30" viewBox="0 0 210 30" fill="none" xmlns="http://www.w3.org/2000/svg">
<path d="M14.0487 3.5922C14.3543 2.97297 14.5072 2.66335 14.7146 2.56443C14.8951 2.47836 15.1049 2.47836 15.2854 2.56443C15.4928 2.66335 15.6457 2.97297 15.9513 3.5922L18.8512 9.46699C18.9414 9.6498 18.9865 9.7412 19.0525 9.81217C19.1109 9.87501 19.1809 9.92592 19.2587 9.96209C19.3465 10.0029 19.4474 10.0177 19.6491 10.0472L26.1356 10.9953C26.8187 11.0951 27.1602 11.145 27.3183 11.3119C27.4558 11.457 27.5205 11.6565 27.4943 11.8547C27.4642 12.0825 27.2169 12.3234 26.7224 12.805L22.0305 17.375C21.8842 17.5174 21.8111 17.5887 21.7639 17.6734C21.7221 17.7485 21.6953 17.8309 21.685 17.9162C21.6733 18.0125 21.6906 18.1131 21.7251 18.3143L22.8322 24.7692C22.9489 25.45 23.0073 25.7904 22.8976 25.9924C22.8021 26.1682 22.6324 26.2914 22.4358 26.3279C22.2097 26.3698 21.9041 26.209 21.2927 25.8875L15.4938 22.8379C15.3131 22.7429 15.2228 22.6954 15.1276 22.6767C15.0433 22.6602 14.9567 22.6602 14.8724 22.6767C14.7772 22.6954 14.6869 22.7429 14.5062 22.8379L8.70731 25.8875C8.09594 26.209 7.79026 26.3698 7.56423 26.3279C7.36758 26.2914 7.19788 26.1682 7.10242 25.9924C6.9927 25.7904 7.05108 25.45 7.16785 24.7692L8.27493 18.3143C8.30945 18.1131 8.3267 18.0125 8.31503 17.9162C8.30469 17.8309 8.27788 17.7485 8.2361 17.6734C8.18891 17.5887 8.11578 17.5174 7.96952 17.375L3.27757 12.805C2.78306 12.3234 2.5358 12.0825 2.50571 11.8547C2.47953 11.6565 2.54421 11.457 2.68172 11.3119C2.83978 11.145 3.18131 11.0951 3.86437 10.9953L10.3509 10.0472C10.5526 10.0177 10.6535 10.0029 10.7413 9.96209C10.8191 9.92592 10.8891 9.87501 10.9475 9.81217C11.0135 9.7412 11.0586 9.6498 11.1488 9.46699L14.0487 3.5922Z" fill="#0D132D"/>
<path d="M59.0487 3.5922C59.3543 2.97297 59.5072 2.66335 59.7146 2.56443C59.8951 2.47836 60.1049 2.47836 60.2854 2.56443C60.4928 2.66335 60.6457 2.97297 60.9513 3.5922L63.8512 9.46699C63.9414 9.6498 63.9865 9.7412 64.0525 9.81217C64.1109 9.87501 64.1809 9.92592 64.2587 9.96209C64.3465 10.0029 64.4474 10.0177 64.6491 10.0472L71.1356 10.9953C71.8187 11.0951 72.1602 11.145 72.3183 11.3119C72.4558 11.457 72.5205 11.6565 72.4943 11.8547C72.4642 12.0825 72.2169 12.3234 71.7224 12.805L67.0305 17.375C66.8842 17.5174 66.8111 17.5887 66.7639 17.6734C66.7221 17.7485 66.6953 17.8309 66.685 17.9162C66.6733 18.0125 66.6906 18.1131 66.7251 18.3143L67.8322 24.7692C67.9489 25.45 68.0073 25.7904 67.8976 25.9924C67.8021 26.1682 67.6324 26.2914 67.4358 26.3279C67.2097 26.3698 66.9041 26.209 66.2927 25.8875L60.4938 22.8379C60.3131 22.7429 60.2228 22.6954 60.1276 22.6767C60.0433 22.6602 59.9567 22.6602 59.8724 22.6767C59.7772 22.6954 59.6869 22.7429 59.5062 22.8379L53.7073 25.8875C53.0959 26.209 52.7903 26.3698 52.5642 26.3279C52.3676 26.2914 52.1979 26.1682 52.1024 25.9924C51.9927 25.7904 52.0511 25.45 52.1678 24.7692L53.2749 18.3143C53.3094 18.1131 53.3267 18.0125 53.315 17.9162C53.3047 17.8309 53.2779 17.7485 53.2361 17.6734C53.1889 17.5887 53.1158 17.5174 52.9695 17.375L48.2776 12.805C47.7831 12.3234 47.5358 12.0825 47.5057 11.8547C47.4795 11.6565 47.5442 11.457 47.6817 11.3119C47.8398 11.145 48.1813 11.0951 48.8644 10.9953L55.3509 10.0472C55.5526 10.0177 55.6535 10.0029 55.7413 9.96209C55.8191 9.92592 55.8891 9.87501 55.9475 9.81217C56.0135 9.7412 56.0586 9.6498 56.1488 9.46699L59.0487 3.5922Z" fill="#0D132D"/>
<path d="M104.049 3.5922C104.354 2.97297 104.507 2.66335 104.715 2.56443C104.895 2.47836 105.105 2.47836 105.285 2.56443C105.493 2.66335 105.646 2.97297 105.951 3.5922L108.851 9.46699C108.941 9.6498 108.987 9.7412 109.052 9.81217C109.111 9.87501 109.181 9.92592 109.259 9.96209C109.346 10.0029 109.447 10.0177 109.649 10.0472L116.136 10.9953C116.819 11.0951 117.16 11.145 117.318 11.3119C117.456 11.457 117.52 11.6565 117.494 11.8547C117.464 12.0825 117.217 12.3234 116.722 12.805L112.03 17.375C111.884 17.5174 111.811 17.5887 111.764 17.6734C111.722 17.7485 111.695 17.8309 111.685 17.9162C111.673 18.0125 111.691 18.1131 111.725 18.3143L112.832 24.7692C112.949 25.45 113.007 25.7904 112.898 25.9924C112.802 26.1682 112.632 26.2914 112.436 26.3279C112.21 26.3698 111.904 26.209 111.293 25.8875L105.494 22.8379C105.313 22.7429 105.223 22.6954 105.128 22.6767C105.043 22.6602 104.957 22.6602 104.872 22.6767C104.777 22.6954 104.687 22.7429 104.506 22.8379L98.7073 25.8875C98.0959 26.209 97.7903 26.3698 97.5642 26.3279C97.3676 26.2914 97.1979 26.1682 97.1024 25.9924C96.9927 25.7904 97.0511 25.45 97.1678 24.7692L98.2749 18.3143C98.3094 18.1131 98.3267 18.0125 98.315 17.9162C98.3047 17.8309 98.2779 17.7485 98.2361 17.6734C98.1889 17.5887 98.1158 17.5174 97.9695 17.375L93.2776 12.805C92.7831 12.3234 92.5358 12.0825 92.5057 11.8547C92.4795 11.6565 92.5442 11.457 92.6817 11.3119C92.8398 11.145 93.1813 11.0951 93.8644 10.9953L100.351 10.0472C100.553 10.0177 100.654 10.0029 100.741 9.96209C100.819 9.92592 100.889 9.87501 100.948 9.81217C101.013 9.7412 101.059 9.6498 101.149 9.46699L104.049 3.5922Z" fill="#0D132D"/>
<path d="M149.049 3.5922C149.354 2.97297 149.507 2.66335 149.715 2.56443C149.895 2.47836 150.105 2.47836 150.285 2.56443C150.493 2.66335 150.646 2.97297 150.951 3.5922L153.851 9.46699C153.941 9.6498 153.987 9.7412 154.052 9.81217C154.111 9.87501 154.181 9.92592 154.259 9.96209C154.346 10.0029 154.447 10.0177 154.649 10.0472L161.136 10.9953C161.819 11.0951 162.16 11.145 162.318 11.3119C162.456 11.457 162.52 11.6565 162.494 11.8547C162.464 12.0825 162.217 12.3234 161.722 12.805L157.03 17.375C156.884 17.5174 156.811 17.5887 156.764 17.6734C156.722 17.7485 156.695 17.8309 156.685 17.9162C156.673 18.0125 156.691 18.1131 156.725 18.3143L157.832 24.7692C157.949 25.45 158.007 25.7904 157.898 25.9924C157.802 26.1682 157.632 26.2914 157.436 26.3279C157.21 26.3698 156.904 26.209 156.293 25.8875L150.494 22.8379C150.313 22.7429 150.223 22.6954 150.128 22.6767C150.043 22.6602 149.957 22.6602 149.872 22.6767C149.777 22.6954 149.687 22.7429 149.506 22.8379L143.707 25.8875C143.096 26.209 142.79 26.3698 142.564 26.3279C142.368 26.2914 142.198 26.1682 142.102 25.9924C141.993 25.7904 142.051 25.45 142.168 24.7692L143.275 18.3143C143.309 18.1131 143.327 18.0125 143.315 17.9162C143.305 17.8309 143.278 17.7485 143.236 17.6734C143.189 17.5887 143.116 17.5174 142.97 17.375L138.278 12.805C137.783 12.3234 137.536 12.0825 137.506 11.8547C137.48 11.6565 137.544 11.457 137.682 11.3119C137.84 11.145 138.181 11.0951 138.864 10.9953L145.351 10.0472C145.553 10.0177 145.654 10.0029 145.741 9.96209C145.819 9.92592 145.889 9.87501 145.948 9.81217C146.013 9.7412 146.059 9.6498 146.149 9.46699L149.049 3.5922Z" fill="#0D132D"/>
<path d="M194.049 3.5922C194.354 2.97297 194.507 2.66335 194.715 2.56443C194.895 2.47836 195.105 2.47836 195.285 2.56443C195.493 2.66335 195.646 2.97297 195.951 3.5922L198.851 9.46699C198.941 9.6498 198.987 9.7412 199.052 9.81217C199.111 9.87501 199.181 9.92592 199.259 9.96209C199.346 10.0029 199.447 10.0177 199.649 10.0472L206.136 10.9953C206.819 11.0951 207.16 11.145 207.318 11.3119C207.456 11.457 207.52 11.6565 207.494 11.8547C207.464 12.0825 207.217 12.3234 206.722 12.805L202.03 17.375C201.884 17.5174 201.811 17.5887 201.764 17.6734C201.722 17.7485 201.695 17.8309 201.685 17.9162C201.673 18.0125 201.691 18.1131 201.725 18.3143L202.832 24.7692C202.949 25.45 203.007 25.7904 202.898 25.9924C202.802 26.1682 202.632 26.2914 202.436 26.3279C202.21 26.3698 201.904 26.209 201.293 25.8875L195.494 22.8379C195.313 22.7429 195.223 22.6954 195.128 22.6767C195.043 22.6602 194.957 22.6602 194.872 22.6767C194.777 22.6954 194.687 22.7429 194.506 22.8379L188.707 25.8875C188.096 26.209 187.79 26.3698 187.564 26.3279C187.368 26.2914 187.198 26.1682 187.102 25.9924C186.993 25.7904 187.051 25.45 187.168 24.7692L188.275 18.3143C188.309 18.1131 188.327 18.0125 188.315 17.9162C188.305 17.8309 188.278 17.7485 188.236 17.6734C188.189 17.5887 188.116 17.5174 187.97 17.375L183.278 12.805C182.783 12.3234 182.536 12.0825 182.506 11.8547C182.48 11.6565 182.544 11.457 182.682 11.3119C182.84 11.145 183.181 11.0951 183.864 10.9953L190.351 10.0472C190.553 10.0177 190.654 10.0029 190.741 9.96209C190.819 9.92592 190.889 9.87501 190.948 9.81217C191.013 9.7412 191.059 9.6498 191.149 9.46699L194.049 3.5922Z" fill="#0D132D"/>
</svg>
