<svg width="48" height="48" viewBox="0 0 48 48" fill="none" xmlns="http://www.w3.org/2000/svg">
<path d="M7.83252 29.247H3.02468V27.4994C2.99822 25.0489 3.64718 22.6385 4.90038 20.5326C6.15358 18.4267 7.96259 16.7066 10.129 15.561C12.2631 14.5088 14.5744 13.8628 16.9449 13.6561C15.9091 14.9377 14.8704 16.2997 13.8288 17.7421C11.4827 21.3858 9.47558 25.2369 7.83252 29.247ZM30.2586 34.1632C26.6152 36.5123 22.7641 38.5224 18.7537 40.1682V44.9761H20.5014C22.9518 45.0025 25.3622 44.3535 27.4682 43.1004C29.5741 41.8472 31.2942 40.0381 32.4397 37.8718C33.492 35.7376 34.1379 33.4263 34.3447 31.0559C33.0689 32.087 31.7069 33.1228 30.2586 34.1632ZM44.9688 8.25926C44.7363 15.8669 39.2591 23.4116 28.2226 31.3285C25.2192 33.2755 22.0508 34.955 18.7537 36.3478V35.3639C18.7459 33.744 18.0989 32.1927 16.9535 31.0472C15.808 29.9018 14.2567 29.2548 12.6369 29.247H11.6529C13.0474 25.95 14.7293 22.7821 16.6792 19.7799C24.5769 8.76084 32.1094 3.28365 39.7048 3.03198C43.4902 3.03198 44.9688 4.57867 44.9688 8.25926ZM34.4827 17.8872C34.4827 16.7284 34.0224 15.6171 33.203 14.7977C32.3836 13.9783 31.2723 13.518 30.1136 13.518C28.9548 13.518 27.8435 13.9783 27.0241 14.7977C26.2047 15.6171 25.7444 16.7284 25.7444 17.8872C25.7444 19.046 26.2047 20.1573 27.0241 20.9766C27.8435 21.796 28.9548 22.2563 30.1136 22.2563C31.2723 22.2563 32.3836 21.796 33.203 20.9766C34.0224 20.1573 34.4827 19.046 34.4827 17.8872ZM5.42597 44.6003C7.39385 44.2508 12.1388 43.2756 13.7239 41.6922C14.2108 41.2053 14.597 40.6273 14.8605 39.9911C15.1241 39.3549 15.2597 38.6731 15.2597 37.9845C15.2597 37.2959 15.1241 36.6141 14.8605 35.9779C14.597 35.3418 14.2108 34.7637 13.7239 34.2768C13.237 33.7899 12.659 33.4037 12.0228 33.1402C11.3866 32.8767 10.7048 32.7411 10.0162 32.7411C8.62558 32.7411 7.29188 33.2935 6.30855 34.2768C4.72516 35.862 3.74821 40.6069 3.40042 42.5748L2.96875 45.032L5.42597 44.6003Z" fill="#7B7E78"/>
</svg>
