<svg width="48" height="49" viewBox="0 0 48 49" fill="none" xmlns="http://www.w3.org/2000/svg">
<path d="M7.83252 29.8188H3.02468V28.0711C2.99822 25.6207 3.64718 23.2103 4.90038 21.1044C6.15358 18.9984 7.96259 17.2783 10.129 16.1328C12.2631 15.0805 14.5744 14.4346 16.9449 14.2278C15.9091 15.5095 14.8704 16.8715 13.8288 18.3139C11.4827 21.9576 9.47558 25.8087 7.83252 29.8188ZM30.2586 34.735C26.6152 37.0841 22.7641 39.0941 18.7537 40.74V45.5478H20.5014C22.9518 45.5743 25.3622 44.9253 27.4682 43.6721C29.5741 42.4189 31.2942 40.6099 32.4397 38.4436C33.492 36.3094 34.1379 33.9981 34.3447 31.6276C33.0689 32.6588 31.7069 33.6946 30.2586 34.735ZM44.9688 8.83104C44.7363 16.4386 39.2591 23.9833 28.2226 31.9003C25.2192 33.8472 22.0508 35.5268 18.7537 36.9196V35.9356C18.7459 34.3158 18.0989 32.7645 16.9535 31.619C15.808 30.4736 14.2567 29.8266 12.6369 29.8188H11.6529C13.0474 26.5218 14.7293 23.3538 16.6792 20.3517C24.5769 9.33262 32.1094 3.85542 39.7048 3.60376C43.4902 3.60376 44.9688 5.15045 44.9688 8.83104ZM34.4827 18.459C34.4827 17.3002 34.0224 16.1889 33.203 15.3695C32.3836 14.5501 31.2723 14.0898 30.1136 14.0898C28.9548 14.0898 27.8435 14.5501 27.0241 15.3695C26.2047 16.1889 25.7444 17.3002 25.7444 18.459C25.7444 19.6177 26.2047 20.729 27.0241 21.5484C27.8435 22.3678 28.9548 22.8281 30.1136 22.8281C31.2723 22.8281 32.3836 22.3678 33.203 21.5484C34.0224 20.729 34.4827 19.6177 34.4827 18.459ZM5.42597 45.1721C7.39385 44.8226 12.1388 43.8474 13.7239 42.264C14.2108 41.7771 14.597 41.199 14.8605 40.5629C15.1241 39.9267 15.2597 39.2449 15.2597 38.5563C15.2597 37.8677 15.1241 37.1859 14.8605 36.5497C14.597 35.9135 14.2108 35.3355 13.7239 34.8486C13.237 34.3617 12.659 33.9755 12.0228 33.712C11.3866 33.4485 10.7048 33.3128 10.0162 33.3128C8.62558 33.3128 7.29188 33.8653 6.30855 34.8486C4.72516 36.4337 3.74821 41.1787 3.40042 43.1465L2.96875 45.6038L5.42597 45.1721Z" fill="#E0E5DA"/>
</svg>
