<svg width="73" height="72" viewBox="0 0 73 72" fill="none" xmlns="http://www.w3.org/2000/svg">
<path d="M47.9166 47.2498H5.16663C4.77386 47.2506 4.38769 47.1487 4.04654 46.954C3.70539 46.7594 3.42114 46.4788 3.22206 46.1402C3.02298 45.8016 2.91599 45.4168 2.91175 45.0241C2.90751 44.6313 3.00616 44.2443 3.19788 43.9015L24.5729 5.65148C24.7681 5.30185 25.0531 5.01064 25.3984 4.80793C25.7438 4.60522 26.137 4.49835 26.5374 4.49835C26.9379 4.49835 27.3311 4.60522 27.6764 4.80793C28.0217 5.01064 28.3067 5.30185 28.5019 5.65148L49.877 43.9015C50.0683 44.2437 50.167 44.6299 50.1631 45.022C50.1592 45.414 50.053 45.7982 49.8549 46.1366C49.6568 46.4749 49.3738 46.7556 49.0338 46.9509C48.6938 47.1461 48.3087 47.2492 47.9166 47.2498Z" fill="#6E8B90"/>
<path d="M47.9165 22.5C46.3779 22.4997 44.8432 22.6561 43.3363 22.9669L53.8087 41.708C54.3826 42.7353 54.6779 43.8947 54.6655 45.0714C54.653 46.2481 54.3332 47.401 53.7377 48.416C53.1422 49.4309 52.2917 50.2725 51.2706 50.8573C50.2495 51.4422 49.0932 51.7499 47.9165 51.75H26.4473C27.6948 55.7168 30.0171 59.2603 33.1566 61.9871C36.296 64.7139 40.1297 66.5173 44.232 67.1972C48.3344 67.8771 52.5449 67.4069 56.3962 65.8387C60.2475 64.2705 63.5888 61.6657 66.0493 58.3134C68.5098 54.9612 69.9932 50.9927 70.3348 46.8484C70.6764 42.7042 69.8629 38.5463 67.9846 34.8364C66.1062 31.1265 63.2365 28.0098 59.694 25.8321C56.1515 23.6544 52.0748 22.501 47.9165 22.5Z" fill="#6E8B90"/>
</svg>
