<svg width="55" height="56" viewBox="0 0 55 56" fill="none" xmlns="http://www.w3.org/2000/svg">
<g clip-path="url(#clip0_1288_7655)">
<path d="M19.0385 0.741699H6.34615C2.84127 0.741699 0 3.58297 0 7.08785V19.7802C0 23.285 2.84127 26.1263 6.34615 26.1263H19.0385C22.5433 26.1263 25.3846 23.285 25.3846 19.7802V7.08785C25.3846 3.58297 22.5433 0.741699 19.0385 0.741699Z" fill="#7B7E78"/>
<path d="M15.6538 30.4332C15.453 30.1312 15.1807 29.8836 14.8611 29.7123C14.5415 29.541 14.1845 29.4514 13.8219 29.4514C13.4593 29.4514 13.1023 29.541 12.7827 29.7123C12.4631 29.8836 12.1908 30.1312 11.99 30.4332L0.435752 50.4532C0.25009 50.7748 0.152346 51.1396 0.152344 51.5109C0.152341 51.8822 0.250081 52.247 0.435738 52.5686C0.621396 52.8901 0.88843 53.1572 1.21 53.3428C1.53157 53.5285 1.89635 53.6263 2.26767 53.6263H25.3846C25.7559 53.6263 26.1207 53.5285 26.4423 53.3428C26.7638 53.1572 27.0309 52.8901 27.2165 52.5686C27.4022 52.247 27.4999 51.8822 27.4999 51.5109C27.4999 51.1396 27.4022 50.7748 27.2165 50.4532L15.6538 30.4332Z" fill="#7B7E78"/>
<path d="M42.3075 26.1263C49.3173 26.1263 54.9999 20.4438 54.9999 13.434C54.9999 6.42424 49.3173 0.741699 42.3075 0.741699C35.2978 0.741699 29.6152 6.42424 29.6152 13.434C29.6152 20.4438 35.2978 26.1263 42.3075 26.1263Z" fill="#7B7E78"/>
<path d="M51.366 32.5253C49.7982 31.5015 47.9297 31.0395 46.0655 31.2147C44.2014 31.3899 42.4516 32.1919 41.1021 33.4899C40.0001 32.4081 38.6142 31.6607 37.1049 31.3343C35.5955 31.0079 34.0246 31.1158 32.5741 31.6456C31.1236 32.1754 29.8529 33.1053 28.9092 34.3276C27.9655 35.5499 27.3875 37.0146 27.2421 38.552C27.1275 39.7513 27.2796 40.9612 27.6873 42.0949C28.0951 43.2286 28.7485 44.2581 29.6008 45.1097L38.111 53.6262C38.5039 54.0193 38.9703 54.3311 39.4837 54.5438C39.9971 54.7565 40.5474 54.866 41.1032 54.866C41.6589 54.866 42.2092 54.7565 42.7226 54.5438C43.236 54.3311 43.7025 54.0193 44.0954 53.6262L52.6035 45.116C53.4583 44.2601 54.1129 43.2255 54.5202 42.0864C54.9276 40.9474 55.0774 39.7322 54.9591 38.5283C54.8408 37.3244 54.4572 36.1617 53.8359 35.1237C53.2146 34.0858 52.3711 33.1984 51.366 32.5253Z" fill="#7B7E78"/>
</g>
<defs>
<clipPath id="clip0_1288_7655">
<rect width="55" height="55" fill="white" transform="translate(0 0.659668)"/>
</clipPath>
</defs>
</svg>
