<svg width="48" height="48" viewBox="0 0 48 48" fill="none" xmlns="http://www.w3.org/2000/svg">
<path d="M36.6328 2.34375H11.3672C6.39166 2.34375 2.34375 6.39166 2.34375 11.3672V36.6328C2.34375 41.6083 6.39166 45.6562 11.3672 45.6562H36.6328C41.6083 45.6562 45.6562 41.6083 45.6562 36.6328V11.3672C45.6562 6.39166 41.6083 2.34375 36.6328 2.34375ZM15.5053 25.2723L20.1668 29.9338C20.8725 30.6394 20.8725 31.78 20.1668 32.4856C19.8149 32.8376 19.3529 33.0144 18.8909 33.0144C18.4289 33.0144 17.9669 32.8376 17.615 32.4856L12.9535 27.8241C11.9303 26.8027 11.3672 25.4419 11.3672 23.9946C11.3672 22.5472 11.9303 21.1883 12.9535 20.165L17.615 15.5035C18.3206 14.7979 19.4612 14.7979 20.1668 15.5035C20.8725 16.2092 20.8725 17.3497 20.1668 18.0554L15.5053 22.7169C15.1643 23.058 14.9766 23.5109 14.9766 23.9928C14.9766 24.4746 15.1643 24.9312 15.5053 25.2723ZM35.0465 27.8332L30.385 32.4947C30.0331 32.8466 29.5711 33.0234 29.1091 33.0234C28.6471 33.0234 28.1851 32.8466 27.8332 32.4947C27.1275 31.789 27.1275 30.6485 27.8332 29.9428L32.4947 25.2813C32.8339 24.9402 33.0234 24.4873 33.0234 24.0036C33.0234 23.52 32.8358 23.0688 32.4947 22.7277L27.8332 18.0644C27.1275 17.3588 27.1275 16.2164 27.8332 15.5126C28.5388 14.8069 29.6794 14.8069 30.385 15.5126L35.0465 20.1741C36.0679 21.1955 36.6328 22.5563 36.6328 24.0018C36.6328 25.4474 36.0698 26.8099 35.0465 27.8332Z" fill="#7B7E78"/>
</svg>
