<svg width="72" height="72" viewBox="0 0 72 72" fill="none" xmlns="http://www.w3.org/2000/svg">
<path d="M36 0C28.8799 0 21.9197 2.11136 15.9995 6.06709C10.0793 10.0228 5.46511 15.6453 2.74035 22.2234C0.0155981 28.8015 -0.697322 36.0399 0.691746 43.0232C2.08081 50.0066 5.50948 56.4211 10.5442 61.4558C15.5789 66.4905 21.9934 69.9192 28.9768 71.3083C35.9601 72.6973 43.1985 71.9844 49.7766 69.2596C56.3547 66.5349 61.9772 61.9207 65.9329 56.0005C69.8886 50.0803 72 43.1201 72 36C72 31.2724 71.0688 26.5911 69.2597 22.2234C67.4505 17.8557 64.7988 13.8871 61.4558 10.5442C58.1129 7.20125 54.1443 4.54951 49.7766 2.74034C45.4089 0.931167 40.7276 0 36 0ZM56.448 34.344L48.78 42.192L50.58 53.352C50.7047 54.0304 50.6319 54.7303 50.3702 55.3686C50.1086 56.0068 49.6691 56.5564 49.104 56.952C48.5489 57.337 47.8967 57.5581 47.2218 57.5899C46.547 57.6217 45.8769 57.4631 45.288 57.132L36 51.912L26.64 57.06C26.1165 57.3683 25.5196 57.5299 24.912 57.528C24.1657 57.5336 23.436 57.3072 22.824 56.88C22.2589 56.4844 21.8194 55.9348 21.5578 55.2966C21.2961 54.6583 21.2233 53.9584 21.348 53.28L23.184 42.12L15.48 34.344C15.0143 33.8694 14.6891 33.275 14.5406 32.6269C14.392 31.9788 14.4258 31.3021 14.6384 30.6721C14.8509 30.042 15.2337 29.4831 15.7445 29.0573C16.2553 28.6316 16.874 28.3556 17.532 28.26L28.008 26.64L32.724 16.632C32.9917 15.9802 33.4448 15.4212 34.0271 15.0245C34.6095 14.6277 35.2954 14.4106 36 14.4C36.6847 14.3951 37.3565 14.5855 37.9368 14.949C38.517 15.3124 38.9816 15.8338 39.276 16.452L43.956 26.64L54.432 28.26C55.0876 28.3579 55.7034 28.635 56.2116 29.0605C56.7197 29.4861 57.1005 30.0438 57.312 30.672C57.5217 31.3041 57.552 31.982 57.3995 32.6302C57.2469 33.2785 56.9176 33.8717 56.448 34.344Z" fill="#7B7E78"/>
</svg>
