<svg width="48" height="49" viewBox="0 0 48 49" fill="none" xmlns="http://www.w3.org/2000/svg">
<path d="M25.5 30.6148V19.5373L41.1206 12.4376C41.383 12.3185 41.6056 12.1263 41.7617 11.8841C41.9178 11.6419 42.0008 11.3598 42.0008 11.0716C42.0008 10.7835 41.9178 10.5014 41.7617 10.2592C41.6056 10.0169 41.383 9.82478 41.1206 9.7057L24.6206 2.2057C24.3921 2.10185 24.1412 2.057 23.8909 2.07527C23.6405 2.09353 23.3988 2.17432 23.1877 2.31025C22.9767 2.44617 22.8032 2.63287 22.683 2.85325C22.5629 3.07363 22.4999 3.32064 22.5 3.57164V30.6148C23 30.5866 23.5 30.5723 24 30.5716C24.5 30.571 25 30.5854 25.5 30.6148Z" fill="#E0E5DA"/>
<path d="M43.4408 43.4624C42.6383 39.4452 40.1492 36.0805 36.2427 33.7312C33.1958 31.8983 29.4299 30.7968 25.5036 30.5718V38.0483C25.5036 38.4462 25.3456 38.8277 25.0643 39.109C24.783 39.3903 24.4014 39.5483 24.0036 39.5483C23.6058 39.5483 23.2242 39.3903 22.9429 39.109C22.6616 38.8277 22.5036 38.4462 22.5036 38.0483V30.5718C18.5774 30.7968 14.8114 31.8983 11.7645 33.7312C7.85798 36.0805 5.36891 39.4452 4.56641 43.4624C4.47268 43.9039 4.47823 44.3606 4.58264 44.7997C4.68706 45.2388 4.88774 45.6491 5.17016 46.0012C5.73454 46.6968 6.5661 47.0718 7.5036 47.0718H40.5036C41.4411 47.0718 42.2736 46.6921 42.838 46.0012C43.1202 45.6491 43.3208 45.2387 43.425 44.7996C43.5293 44.3605 43.5346 43.9038 43.4408 43.4624Z" fill="#E0E5DA"/>
</svg>
