<svg width="72" height="73" viewBox="0 0 72 73" fill="none" xmlns="http://www.w3.org/2000/svg">
<path fill-rule="evenodd" clip-rule="evenodd" d="M24.5584 52.343C24.5584 53.2488 24.2898 54.1343 23.7866 54.8875C23.2833 55.6407 22.568 56.2277 21.7311 56.5743C20.8942 56.921 19.9734 57.0117 19.0849 56.835C18.1965 56.6582 17.3804 56.222 16.7399 55.5815C16.0994 54.941 15.6632 54.1249 15.4864 53.2365C15.3097 52.3481 15.4004 51.4272 15.7471 50.5903C16.0937 49.7534 16.6808 49.0381 17.4339 48.5348C18.1871 48.0316 19.0726 47.763 19.9784 47.763C21.1931 47.763 22.3581 48.2455 23.217 49.1044C24.0759 49.9633 24.5584 51.1283 24.5584 52.343Z" fill="#7B7E78"/>
<path fill-rule="evenodd" clip-rule="evenodd" d="M56.5741 20.343C56.5741 21.2488 56.3055 22.1343 55.8022 22.8875C55.2989 23.6407 54.5836 24.2277 53.7468 24.5744C52.9099 24.921 51.989 25.0117 51.1006 24.835C50.2121 24.6583 49.396 24.2221 48.7555 23.5815C48.115 22.941 47.6788 22.1249 47.5021 21.2365C47.3253 20.3481 47.416 19.4272 47.7627 18.5903C48.1093 17.7534 48.6964 17.0381 49.4496 16.5349C50.2027 16.0316 51.0882 15.763 51.9941 15.763C53.2088 15.763 54.3737 16.2455 55.2326 17.1045C56.0915 17.9634 56.5741 19.1283 56.5741 20.343Z" fill="#7B7E78"/>
<path fill-rule="evenodd" clip-rule="evenodd" d="M65.3044 7.02299C63.5903 5.3104 61.2674 4.34674 58.8444 4.34299H13.1244C11.9241 4.34299 10.7356 4.5794 9.62665 5.03873C8.51773 5.49806 7.51015 6.1713 6.66142 7.02003C4.94734 8.73411 3.98438 11.0589 3.98438 13.483V59.203C3.98438 61.6271 4.94734 63.9519 6.66142 65.6659C7.51015 66.5147 8.51773 67.1879 9.62665 67.6472C10.7356 68.1066 11.9241 68.343 13.1244 68.343H58.8444C60.0447 68.343 61.2332 68.1066 62.3421 67.6472C63.451 67.1879 64.4586 66.5147 65.3073 65.6659C66.1561 64.8172 66.8293 63.8096 67.2886 62.7007C67.748 61.5918 67.9844 60.4033 67.9844 59.203V13.483C67.9806 11.0599 67.017 8.7371 65.3044 7.02299ZM14.9644 18.563L18.2044 15.343L22.2044 19.343L26.2044 15.343L29.5844 18.563L25.5844 22.563L29.5844 26.563L26.3444 29.943L22.3444 25.943L18.3444 29.943L14.9644 26.703L18.9644 22.703L14.9644 18.563ZM54.2844 29.223V38.643C54.2844 42.8865 52.5987 46.9561 49.5981 49.9567C46.5975 52.9573 42.5278 54.643 38.2844 54.643H28.8244C28.2671 56.7962 26.9438 58.6724 25.1025 59.9199C23.2611 61.1674 21.028 61.7007 18.8217 61.4198C16.6153 61.1389 14.5871 60.0632 13.117 58.3941C11.6469 56.725 10.8359 54.5772 10.8359 52.353C10.8359 50.1288 11.6469 47.981 13.117 46.3119C14.5871 44.6428 16.6153 43.567 18.8217 43.2862C21.028 43.0053 23.2611 43.5386 25.1025 44.7861C26.9438 46.0336 28.2671 47.9098 28.8244 50.063H38.2644C39.7648 50.0656 41.251 49.772 42.6377 49.1991C44.0245 48.6261 45.2844 47.785 46.3454 46.724C47.4064 45.6631 48.2475 44.4031 48.8204 43.0163C49.3934 41.6296 49.687 40.1434 49.6844 38.643V29.203C47.5311 28.6457 45.655 27.3224 44.4075 25.4811C43.16 23.6397 42.6267 21.4066 42.9076 19.2003C43.1884 16.9939 44.2642 14.9657 45.9333 13.4956C47.6024 12.0255 49.7502 11.2145 51.9744 11.2145C54.1985 11.2145 56.3464 12.0255 58.0155 13.4956C59.6846 14.9657 60.7603 16.9939 61.0412 19.2003C61.3221 21.4066 60.7888 23.6397 59.5413 25.4811C58.2938 27.3224 56.4176 28.6457 54.2644 29.203L54.2844 29.223Z" fill="#7B7E78"/>
</svg>
