<svg width="16" height="14" viewBox="0 0 16 14" fill="none" xmlns="http://www.w3.org/2000/svg">
<path d="M12.297 8.66634C12.4886 9.09634 12.5853 9.57467 12.5853 10.0997C12.5853 11.218 12.1486 12.093 11.2761 12.7222C10.402 13.3513 9.19612 13.6663 7.65695 13.6663C6.44627 13.6663 5.2467 13.4172 4.05768 12.9183C3.77449 12.7995 3.59862 12.5173 3.59862 12.2102C3.59862 11.598 4.26757 11.2087 4.83898 11.4284C5.7081 11.7625 6.59067 11.9297 7.48695 11.9297C9.61279 11.9297 10.6786 11.3197 10.6861 10.0988C10.6905 9.85132 10.645 9.60544 10.5522 9.37592C10.4594 9.1464 10.3213 8.93794 10.1461 8.76301L10.0461 8.66551H1.33529C0.875049 8.66551 0.501953 8.29241 0.501953 7.83217C0.501953 7.37194 0.875049 6.99884 1.33529 6.99884H14.6686C15.1289 6.99884 15.502 7.37194 15.502 7.83217C15.502 8.29241 15.1289 8.66551 14.6686 8.66551H12.297V8.66634ZM8.85154 6.15013C8.86043 6.15319 8.85823 6.16634 8.84882 6.16634H4.36268C4.3606 6.16634 4.3586 6.16557 4.35707 6.16416C4.21202 6.03166 4.0787 5.88684 3.95862 5.73134C3.59862 5.26634 3.41862 4.70467 3.41862 4.04301C3.41862 3.01301 3.80695 2.13717 4.58279 1.41551C5.36029 0.693841 6.56112 0.333008 8.18695 0.333008C9.25532 0.333008 10.2838 0.540629 11.2713 0.95587C11.5402 1.06894 11.7053 1.33801 11.7053 1.6297C11.7053 2.2161 11.062 2.59387 10.5046 2.41155C9.84507 2.19579 9.14923 2.08801 8.41695 2.08801C6.35029 2.08801 5.31779 2.73967 5.31779 4.04301C5.31779 4.39301 5.49945 4.69801 5.86279 4.95884C6.22612 5.21967 7.20695 5.58384 7.20695 5.58384L8.85154 6.15013Z" fill="#5E6B66"/>
</svg>
