<svg width="48" height="48" viewBox="0 0 48 48" fill="none" xmlns="http://www.w3.org/2000/svg">
<path d="M24 24.1962C24 22.3702 22.7515 20.6762 20.9493 20.3828C18.6522 20.0088 16.6667 21.7725 16.6667 24V40.1645C14.694 38.5402 12.7965 36.9525 12.7342 36.8938C11.0438 35.3153 8.38367 35.4033 6.80333 37.0937C5.22117 38.7858 5.30183 41.4423 6.983 43.0153L10.3215 46H40.5018V44.9128C40.5018 41.1453 38.1955 37.761 34.6883 36.3823L24.0018 32.1803V24.1962H24ZM46 10.25V13.9167C46 18.4652 42.2985 22.1667 37.75 22.1667H27.3917C26.6308 19.4057 24.3648 17.224 21.5378 16.7638C19.3965 16.421 17.224 17.0168 15.5832 18.412C14.419 19.4038 13.6068 20.7165 13.2328 22.1648H10.25C5.7015 22.1648 2 18.4633 2 13.9148V10.2482C2 5.7015 5.7015 2 10.25 2H37.75C42.2985 2 46 5.7015 46 10.25Z" fill="#7B7E78"/>
</svg>
