<svg width="71" height="72" viewBox="0 0 71 72" fill="none" xmlns="http://www.w3.org/2000/svg">
<path d="M48.161 33.9882H2.56775C1.42915 33.9882 0.507812 34.9096 0.507812 36.0482V64.8873C0.507812 68.295 3.27994 71.0671 6.68762 71.0671H44.0411C47.4488 71.0671 50.2209 68.295 50.2209 64.8873V36.0482C50.2209 34.9096 49.2996 33.9882 48.161 33.9882ZM37.5867 46.3478C37.5867 53.1633 32.0426 58.7075 25.2271 58.7075C18.4115 58.7075 12.8674 53.1633 12.8674 46.3478V44.2879C12.8674 43.1493 13.7888 42.228 14.9274 42.228C16.066 42.228 16.9873 43.1493 16.9873 44.2879V46.3478C16.9873 50.8922 20.6827 54.5876 25.2271 54.5876C29.7714 54.5876 33.4668 50.8922 33.4668 46.3478V44.2879C33.4668 43.1493 34.3881 42.228 35.5267 42.228C36.6653 42.228 37.5867 43.1493 37.5867 44.2879V46.3478Z" fill="#7B7E78"/>
<path d="M68.7794 17.5102H58.2051V13.1157C58.2051 6.30016 52.661 0.756042 45.8455 0.756042C39.03 0.756042 33.4858 6.30016 33.4858 13.1157V17.5102H22.9115C21.7729 17.5102 20.8516 18.4315 20.8516 19.5701V29.8698H48.1801C51.5877 29.8698 54.3599 32.6419 54.3599 36.0496V64.8887C54.3599 67.2162 53.5544 69.3418 52.2473 71.0685H64.6595C68.0672 71.0685 70.8394 68.2964 70.8394 64.8887V19.5701C70.8394 18.4315 69.918 17.5102 68.7794 17.5102ZM54.0852 17.5102H37.6057V13.1157C37.6057 8.5713 41.3011 4.87592 45.8455 4.87592C50.3898 4.87592 54.0852 8.5713 54.0852 13.1157V17.5102Z" fill="#7B7E78"/>
</svg>
