<svg width="48" height="49" viewBox="0 0 48 49" fill="none" xmlns="http://www.w3.org/2000/svg">
<path d="M39.8381 18.9482H18.9446C16.6361 18.9482 14.7656 20.8187 14.7656 23.1272V36.2357C14.7656 38.5442 16.6361 40.4147 18.9446 40.4147H23.0081V44.1977C23.0081 45.0692 24.0131 45.5582 24.6986 45.0182L30.5501 40.4132H39.8366C42.1451 40.4132 44.0156 38.5427 44.0156 36.2342V23.1257C44.0156 20.8187 42.1451 18.9482 39.8381 18.9482ZM23.7986 31.0307C23.0531 31.0307 22.4246 30.4262 22.4246 29.6807C22.4246 28.9352 23.0066 28.3307 23.7521 28.3307H23.7986C24.5441 28.3307 25.1486 28.9352 25.1486 29.6807C25.1486 30.4262 24.5441 31.0307 23.7986 31.0307ZM29.4101 31.0307C28.6646 31.0307 28.0376 30.4262 28.0376 29.6807C28.0376 28.9352 28.6196 28.3307 29.3651 28.3307H29.4101C30.1556 28.3307 30.7601 28.9352 30.7601 29.6807C30.7601 30.4262 30.1571 31.0307 29.4101 31.0307ZM35.0246 31.0307C34.2791 31.0307 33.6521 30.4262 33.6521 29.6807C33.6521 28.9352 34.2341 28.3307 34.9796 28.3307H35.0246C35.7701 28.3307 36.3746 28.9352 36.3746 29.6807C36.3746 30.4262 35.7701 31.0307 35.0246 31.0307Z" fill="#CEFFA3"/>
<path d="M12.0649 23.1271C12.0649 19.3351 15.1504 16.2481 18.9424 16.2481H33.2359V12.2536C33.2359 9.94507 31.3654 8.07457 29.0569 8.07457H24.9934V4.29157C24.9934 3.42007 23.9884 2.93107 23.3029 3.47107L17.4514 8.07607H8.16338C5.85487 8.07607 3.98438 9.94657 3.98438 12.2551V25.3636C3.98438 27.6721 5.85487 29.5426 8.16338 29.5426H12.0649V23.1271Z" fill="#CEFFA3"/>
</svg>
