<svg width="73" height="73" viewBox="0 0 73 73" fill="none" xmlns="http://www.w3.org/2000/svg">
<g clip-path="url(#clip0_1921_146549)">
<path d="M72.6641 54.057C72.6641 45.107 65.3829 37.8264 56.4334 37.8264C54.2312 37.8264 52.1306 38.268 50.2141 39.0662L46.5331 32.6902C46.5968 32.6419 46.6594 32.593 46.7226 32.5436C46.8105 32.4843 46.8923 32.4161 46.9709 32.3431C50.5859 29.3641 52.8942 24.8542 52.8942 19.8148C52.8942 10.8648 45.6135 3.58417 36.6641 3.58417C27.7146 3.58417 20.4334 10.8648 20.4334 19.8148C20.4334 24.8531 22.7411 29.3625 26.355 32.3414C26.4347 32.415 26.5176 32.4848 26.6072 32.5447C26.6693 32.5936 26.7319 32.6419 26.7945 32.6902L23.1135 39.0656C21.197 38.268 19.0964 37.8264 16.8942 37.8264C7.9447 37.8264 0.664062 45.107 0.664062 54.057C0.664062 59.0953 2.97229 63.6052 6.58624 66.5847C6.66534 66.6578 6.74774 66.7264 6.83673 66.7863C9.60364 68.977 13.0989 70.2871 16.8942 70.2871C20.6905 70.2871 24.1863 68.9764 26.9538 66.7847C27.0411 66.7259 27.1224 66.6583 27.1999 66.5864C30.303 64.0298 32.4431 60.345 32.9875 56.1664H40.3395C40.8845 60.3445 43.024 64.0282 46.1255 66.5847C46.2046 66.6578 46.287 66.7264 46.3749 66.7858C49.1423 68.977 52.6376 70.2871 56.4334 70.2871C60.2297 70.2871 63.7256 68.9764 66.493 66.7847C66.5798 66.7259 66.6606 66.6583 66.738 66.5869C70.3547 63.608 72.6641 59.097 72.6641 54.057ZM24.6522 19.8148C24.6522 13.1917 30.041 7.80292 36.6641 7.80292C43.2872 7.80292 48.6754 13.1917 48.6754 19.8148C48.6754 22.6323 47.6982 25.2245 46.0678 27.2751C45.0455 25.8359 43.709 24.6565 42.1748 23.8199C42.9949 22.6943 43.4805 21.3106 43.4805 19.8148C43.4805 16.0564 40.4225 12.9984 36.6641 12.9984C32.9051 12.9984 29.8476 16.0564 29.8476 19.8148C29.8476 21.3106 30.3332 22.6943 31.1528 23.8193C29.6185 24.6559 28.282 25.8353 27.2603 27.2751C25.6299 25.2245 24.6522 22.6323 24.6522 19.8148ZM30.4447 34.8057C32.3613 35.6038 34.4619 36.0455 36.6641 36.0455C38.8663 36.0455 40.9669 35.6038 42.8834 34.8057L46.5638 41.181C43.2267 43.7458 40.9097 47.5756 40.3401 51.9476H32.988C32.4178 47.5756 30.1014 43.7458 26.7637 41.181L30.4447 34.8057ZM26.2979 61.5173C25.2762 60.0775 23.9397 58.8981 22.4055 58.0615C23.225 56.9365 23.7106 55.5528 23.7106 54.057C23.7106 50.2986 20.6531 47.2405 16.8942 47.2405C13.1357 47.2405 10.0777 50.2986 10.0777 54.057C10.0777 55.5528 10.5633 56.9365 11.3834 58.0615C9.84918 58.8981 8.5127 60.0775 7.49042 61.5173C5.8606 59.4661 4.88281 56.8745 4.88281 54.057C4.88281 47.4333 10.2711 42.0451 16.8942 42.0451C23.5178 42.0451 28.9061 47.4333 28.9061 54.057C28.9061 56.8745 27.9288 59.4661 26.2979 61.5173ZM44.4215 54.057C44.4215 47.4333 49.8103 42.0451 56.4334 42.0451C63.0571 42.0451 68.4453 47.4333 68.4453 54.057C68.4453 56.8745 67.4675 59.4661 65.8372 61.5173C64.8149 60.0775 63.4789 58.8981 61.9447 58.0615C62.7643 56.9365 63.2499 55.5528 63.2499 54.057C63.2499 50.2986 60.1918 47.2405 56.4334 47.2405C52.675 47.2405 49.6169 50.2986 49.6169 54.057C49.6169 55.5528 50.1025 56.9365 50.9221 58.0615C49.3879 58.8981 48.0519 60.0775 47.0297 61.5173C45.3993 59.4661 44.4215 56.8745 44.4215 54.057Z" fill="#7B7E78"/>
</g>
<defs>
<clipPath id="clip0_1921_146549">
<rect width="72" height="72" fill="white" transform="translate(0.664062 0.912292)"/>
</clipPath>
</defs>
</svg>
