<svg width="48" height="48" viewBox="0 0 48 48" fill="none" xmlns="http://www.w3.org/2000/svg">
<path d="M43.7427 18.3709C42.8832 17.3804 41.8209 16.5861 40.6277 16.0418C39.4345 15.4976 38.1383 15.2161 36.8269 15.2163H29.5151L30.131 11.4752C30.3489 10.1578 30.086 8.80592 29.3902 7.66618C28.6944 6.52644 27.6121 5.67478 26.3407 5.26654C25.0693 4.85829 23.6935 4.92067 22.4643 5.44229C21.2351 5.96391 20.2343 6.91001 19.6445 8.10804L16.6641 14.1477V42.7111H35.5438C37.7497 42.702 39.8791 41.9015 41.5446 40.455C43.2101 39.0085 44.301 37.0122 44.6189 34.8293L45.9111 25.6643C46.0938 24.3643 45.9948 23.0401 45.6206 21.7816C45.2465 20.5232 44.606 19.36 43.7427 18.3709Z" fill="#7B7E78"/>
<path d="M2 24.3812V33.5461C2.00291 35.9759 2.96943 38.3054 4.68755 40.0235C6.40568 41.7416 8.73512 42.7081 11.1649 42.711H12.9979V15.2163H11.1649C8.73512 15.2192 6.40568 16.1857 4.68755 17.9039C2.96943 19.622 2.00291 21.9514 2 24.3812Z" fill="#7B7E78"/>
</svg>
