<svg width="15" height="16" viewBox="0 0 15 16" fill="none" xmlns="http://www.w3.org/2000/svg">
<path d="M3.28125 3.78125L3.86719 13.1562C3.89502 13.6979 4.28906 14.0938 4.80469 14.0938H10.1953C10.713 14.0938 11.0997 13.6979 11.1328 13.1562L11.7188 3.78125" stroke="#F01616" stroke-width="1.09" stroke-linecap="round" stroke-linejoin="round"/>
<path d="M2.34375 3.78125H12.6562" stroke="#F01616" stroke-width="1.09" stroke-linecap="round" stroke-linejoin="round"/>
<path d="M5.625 3.78125V2.60938C5.62473 2.51697 5.64273 2.42541 5.67797 2.33998C5.71321 2.25455 5.76499 2.17693 5.83034 2.11159C5.89569 2.04624 5.9733 1.99446 6.05873 1.95922C6.14416 1.92398 6.23572 1.90598 6.32813 1.90625H8.67188C8.76429 1.90598 8.85584 1.92398 8.94127 1.95922C9.0267 1.99446 9.10432 2.04624 9.16967 2.11159C9.23501 2.17693 9.28679 2.25455 9.32203 2.33998C9.35727 2.42541 9.37527 2.51697 9.375 2.60938V3.78125M6.01563 6.28125L6.25 11.5938M8.98438 6.28125L8.75 11.5938" stroke="#F01616" stroke-width="1.09" stroke-linecap="round" stroke-linejoin="round"/>
</svg>
