<svg width="48" height="48" viewBox="0 0 48 48" fill="none" xmlns="http://www.w3.org/2000/svg">
<path d="M24.0719 36.7996C28.3388 35.1564 31.8771 31.4613 32.8225 29.363C33.7002 27.4156 33.7302 25.4158 32.9022 23.8781C31.9919 22.1827 29.8671 21.137 28.0602 21.503C26.9176 21.7344 25.8745 22.4913 25.2693 23.5301C25.1159 23.7941 24.9873 24.0821 24.8862 24.3855C24.7696 24.7361 24.4413 24.9735 24.0728 24.9735C23.7042 24.9735 23.3759 24.737 23.2593 24.3855C23.1582 24.0821 23.0288 23.7941 22.8762 23.5301C22.2711 22.4913 21.2279 21.7335 20.0853 21.503C19.8436 21.4533 19.5959 21.4301 19.3465 21.4301C17.7333 21.4301 16.0328 22.4098 15.2433 23.8773C14.4153 25.415 14.4445 27.4147 15.3231 29.3621C16.2685 31.4604 19.8068 35.1556 24.0736 36.7987L24.0719 36.7996Z" fill="#CEFFA3"/>
<path d="M9.5 13.7144V42.8573C9.5 43.8027 10.2689 44.5716 11.2143 44.5716H36.9286C37.874 44.5716 38.6429 43.8027 38.6429 42.8573V13.7144C38.6429 12.769 37.874 12.0001 36.9286 12.0001H11.2143C10.2689 12.0001 9.5 12.769 9.5 13.7144ZM13.7317 23.0658C15.0029 20.7036 17.8777 19.3124 20.4243 19.8224C21.8712 20.1156 23.2014 20.9993 24.0723 22.2267C24.9432 20.9993 26.2734 20.1156 27.7203 19.8224C30.2652 19.3124 33.1409 20.7036 34.4129 23.0658C35.4955 25.0767 35.486 27.6284 34.3872 30.0679C33.1349 32.8467 28.9469 36.8701 24.3637 38.5202C24.2703 38.5544 24.1709 38.5716 24.0732 38.5716C23.9754 38.5716 23.8769 38.5544 23.7826 38.5202C19.1986 36.8693 15.0114 32.8467 13.7591 30.067C12.6603 27.6284 12.6509 25.0767 13.7334 23.0658H13.7317Z" fill="#CEFFA3"/>
<path d="M12.9277 47.1429C12.9277 47.6161 13.3117 48.0001 13.7849 48.0001H17.2135C17.6866 48.0001 18.0706 47.6161 18.0706 47.1429V46.2858H12.9277V47.1429Z" fill="#CEFFA3"/>
<path d="M30.0703 47.1429C30.0703 47.6161 30.4543 48.0001 30.9275 48.0001H34.356C34.8292 48.0001 35.2132 47.6161 35.2132 47.1429V46.2858H30.0703V47.1429Z" fill="#CEFFA3"/>
<path d="M29.2148 3.42847H30.9291V10.2856H29.2148V3.42847Z" fill="#CEFFA3"/>
<path d="M17.2129 3.42847H18.9272V10.2856H17.2129V3.42847Z" fill="#CEFFA3"/>
<path d="M31.786 0.857144C31.786 0.384 31.402 0 30.9289 0H17.2146C16.7414 0 16.3574 0.384 16.3574 0.857144V1.71429H31.786V0.857144Z" fill="#CEFFA3"/>
</svg>
