<svg width="12" height="12" viewBox="0 0 12 12" fill="none" xmlns="http://www.w3.org/2000/svg">
<path d="M2.0229 2.91069C1.77882 2.66661 1.77882 2.27089 2.0229 2.02681C2.26698 1.78273 2.66271 1.78273 2.90679 2.02681L2.46484 2.46875L2.0229 2.91069ZM10.1609 9.53982C10.1609 9.885 9.88109 10.1648 9.53591 10.1648H3.91091C3.56573 10.1648 3.28591 9.885 3.28591 9.53982C3.28591 9.19464 3.56573 8.91482 3.91091 8.91482H8.91091V3.91482C8.91091 3.56964 9.19073 3.28982 9.53591 3.28982C9.88109 3.28982 10.1609 3.56964 10.1609 3.91482V9.53982ZM2.46484 2.46875L2.90679 2.02681L9.97785 9.09788L9.53591 9.53982L9.09397 9.98176L2.0229 2.91069L2.46484 2.46875Z" fill="#F01616"/>
</svg>
