<svg width="41" height="40" viewBox="0 0 41 40" fill="none" xmlns="http://www.w3.org/2000/svg">
<rect x="0.5" width="40" height="40" rx="20" fill="#DEFCBD"/>
<path d="M11.9854 11.8989C12.1335 11.8845 12.2826 11.9079 12.4199 11.9653L29.1025 18.8833V18.8843L29.1094 18.8872C29.3301 18.9821 29.5181 19.1397 29.6504 19.3403C29.7827 19.5411 29.8534 19.7767 29.8535 20.0171C29.8535 20.2577 29.7827 20.4939 29.6504 20.6948C29.5181 20.8954 29.3301 21.053 29.1094 21.1479H29.1084L29.1006 21.1519L12.4199 28.0317H12.4189C12.3038 28.0803 12.1797 28.1049 12.0547 28.105C11.875 28.1047 11.6995 28.052 11.5498 27.9526C11.4254 27.8705 11.3226 27.7587 11.252 27.6274C11.1813 27.4961 11.1444 27.3489 11.1445 27.1997V22.7729C11.1449 22.5597 11.2194 22.3532 11.3555 22.189C11.4918 22.0245 11.6817 21.9123 11.8916 21.8726L20.9902 20.1899C21.0303 20.1823 21.0667 20.1608 21.0928 20.1294C21.1188 20.0979 21.1328 20.0579 21.1328 20.0171C21.1327 19.9764 21.1186 19.9371 21.0928 19.9058C21.0667 19.8743 21.0303 19.8529 20.9902 19.8452L11.8916 18.1626C11.6817 18.1227 11.4918 18.0107 11.3555 17.8462C11.2192 17.6817 11.1447 17.4748 11.1445 17.2612V12.8354C11.1447 12.6793 11.1836 12.5256 11.2578 12.3882C11.3322 12.2506 11.4405 12.1331 11.5713 12.0474C11.6949 11.9646 11.8373 11.9133 11.9854 11.8989Z" fill="#62864D" stroke="#62864D" stroke-width="0.0390625"/>
</svg>
