<svg width="12" height="16" viewBox="0 0 12 16" fill="none" xmlns="http://www.w3.org/2000/svg">
<path d="M2.66797 1.33333C2.66797 0.873096 2.29487 0.5 1.83464 0.5C1.3744 0.5 1.0013 0.873096 1.0013 1.33333V7.16667C1.0013 10.3883 1.83463 13 6.0013 13C10.168 13 11.0013 10.3883 11.0013 7.16667V1.33333C11.0013 0.873096 10.6282 0.5 10.168 0.5C9.70773 0.5 9.33464 0.873096 9.33464 1.33333V7.16667C9.33464 9.46785 9.33464 11.3333 6.0013 11.3333C2.66797 11.3333 2.66797 9.46785 2.66797 7.16667V1.33333Z" fill="#5E6B66"/>
<path d="M1.0013 13.8333C0.541065 13.8333 0.167969 14.2064 0.167969 14.6667C0.167969 15.1269 0.541065 15.5 1.0013 15.5H11.0013C11.4615 15.5 11.8346 15.1269 11.8346 14.6667C11.8346 14.2064 11.4615 13.8333 11.0013 13.8333H1.0013Z" fill="#5E6B66"/>
</svg>
