<svg width="17" height="16" viewBox="0 0 17 16" fill="none" xmlns="http://www.w3.org/2000/svg">
<path d="M8.74935 1.75033C8.74935 1.29009 9.12245 0.916992 9.58268 0.916992H15.416C15.8763 0.916992 16.2493 1.29009 16.2493 1.75033C16.2493 2.21056 15.8763 2.58366 15.416 2.58366H9.58268C9.12245 2.58366 8.74935 2.21056 8.74935 1.75033Z" fill="#5E6B66"/>
<path d="M2.91601 13.417C2.91601 13.8772 3.2891 14.2503 3.74935 14.2503C4.2096 14.2503 4.58268 13.8772 4.58268 13.417V3.76216L5.6601 4.83958C5.98551 5.16499 6.51318 5.16499 6.8386 4.83958C7.16401 4.51416 7.16401 3.98649 6.8386 3.66108L4.3386 1.16107C4.18235 1.00479 3.97035 0.916992 3.74935 0.916992C3.52835 0.916992 3.31635 1.00479 3.1601 1.16107L0.660097 3.66108C0.334655 3.98649 0.334655 4.51416 0.660097 4.83958C0.985514 5.16499 1.51318 5.16499 1.8386 4.83958L2.91601 3.76216V13.417Z" fill="#5E6B66"/>
<path d="M2.91601 4.25033C2.91601 3.79008 3.2891 3.41699 3.74935 3.41699C4.2096 3.41699 4.58268 3.79008 4.58268 4.25033V12.2385L5.6601 11.1611C5.98551 10.8357 6.51318 10.8357 6.8386 11.1611C7.16401 11.4865 7.16401 12.0142 6.8386 12.3396L4.3386 14.8396C4.18235 14.9959 3.97035 15.0837 3.74935 15.0837C3.52835 15.0837 3.31635 14.9959 3.1601 14.8396L0.660097 12.3396C0.334655 12.0142 0.334655 11.4865 0.660097 11.1611C0.985514 10.8357 1.51318 10.8357 1.8386 11.1611L2.91601 12.2385V4.25033Z" fill="#5E6B66"/>
<path d="M8.74935 5.91699C8.74935 5.45676 9.12245 5.08366 9.58268 5.08366H15.416C15.8763 5.08366 16.2493 5.45676 16.2493 5.91699C16.2493 6.37723 15.8763 6.75033 15.416 6.75033H9.58268C9.12245 6.75033 8.74935 6.37723 8.74935 5.91699Z" fill="#5E6B66"/>
<path d="M8.74935 10.0837C8.74935 9.62342 9.12245 9.25033 9.58268 9.25033H15.416C15.8763 9.25033 16.2493 9.62342 16.2493 10.0837C16.2493 10.5439 15.8763 10.917 15.416 10.917H9.58268C9.12245 10.917 8.74935 10.5439 8.74935 10.0837Z" fill="#5E6B66"/>
<path d="M8.74935 14.2503C8.74935 13.7901 9.12245 13.417 9.58268 13.417H15.416C15.8763 13.417 16.2493 13.7901 16.2493 14.2503C16.2493 14.7106 15.8763 15.0837 15.416 15.0837H9.58268C9.12245 15.0837 8.74935 14.7106 8.74935 14.2503Z" fill="#5E6B66"/>
</svg>
