<svg width="48" height="49" viewBox="0 0 48 49" fill="none" xmlns="http://www.w3.org/2000/svg">
<g clip-path="url(#clip0_1923_145073)">
<path d="M24 12.2446C27.3137 12.2446 30 9.55834 30 6.24463C30 2.93092 27.3137 0.244629 24 0.244629C20.6863 0.244629 18 2.93092 18 6.24463C18 9.55834 20.6863 12.2446 24 12.2446Z" fill="#CEFFA3"/>
<path d="M35.295 18.4728C28.332 14.1408 19.677 14.1378 12.708 18.4728C12.267 18.7458 12 19.2258 12 19.7448V22.7448C12 23.5728 12.672 24.2448 13.5 24.2448H34.5C35.328 24.2448 36 23.5728 36 22.7448V19.7448C36 19.2258 35.733 18.7458 35.295 18.4728Z" fill="#CEFFA3"/>
<path d="M37.5 27.2446H10.5C9.672 27.2446 9 27.9166 9 28.7446V34.7446C9 35.5726 9.672 36.2446 10.5 36.2446H13.83L16.545 47.1076C16.713 47.7766 17.313 48.2446 18 48.2446H30C30.687 48.2446 31.29 47.7766 31.455 47.1076L34.173 36.2446H37.5C38.328 36.2446 39 35.5726 39 34.7446V28.7446C39 27.9166 38.328 27.2446 37.5 27.2446Z" fill="#CEFFA3"/>
</g>
<defs>
<clipPath id="clip0_1923_145073">
<rect width="48" height="48" fill="white" transform="translate(0 0.244629)"/>
</clipPath>
</defs>
</svg>
