<svg width="73" height="73" viewBox="0 0 73 73" fill="none" xmlns="http://www.w3.org/2000/svg">
<path d="M30.0611 6.34277C22.6146 6.34277 16.5781 12.3793 16.5781 19.8257C16.5781 27.2721 22.6146 33.3086 30.0611 33.3086C37.5076 33.3086 43.5439 27.2721 43.5439 19.8257C43.5439 12.3793 37.5076 6.34277 30.0611 6.34277Z" fill="#7B7E78"/>
<path d="M36.7699 58.4158C35.5378 57.0808 33.7936 54.9667 32.6752 52.3105C31.5196 49.5661 30.4592 44.629 33.64 39.8578C36.6745 35.3062 42.8242 35.0626 47.3758 38.0971C47.7955 38.3767 48.3487 38.3767 48.7684 38.0971C53.32 35.0626 59.4697 35.3062 62.5042 39.8578C65.6848 44.629 64.6243 49.5661 63.4687 52.3105C62.3503 54.9667 60.6064 57.0808 59.374 58.4158C56.8477 61.153 53.878 63.3304 50.8597 65.4613C49.1923 66.6385 46.9519 66.6385 45.2842 65.4613C42.2662 63.3304 39.2968 61.1533 36.7699 58.4158Z" fill="#7B7E78"/>
<path d="M33.4752 61.4681C32.1021 59.9807 29.9544 57.4166 28.5398 54.0569C27.1517 50.7602 25.6827 44.4926 29.3614 38.2334C29.6453 37.7504 29.3084 37.1144 28.7482 37.1144H26.4944C15.4129 37.1144 6.42969 46.0976 6.42969 57.179C6.42969 61.7012 10.0957 65.3672 14.6179 65.3672H33.456C34.8657 65.3672 35.5311 63.5567 34.5312 62.5631C34.1736 62.2076 33.8211 61.8431 33.4752 61.4681Z" fill="#7B7E78"/>
</svg>
