<svg width="418" height="28" viewBox="0 0 418 28" fill="none" xmlns="http://www.w3.org/2000/svg">
<path d="M10.6725 14.6746C11.5709 17.7505 12.5001 20.9338 14.7036 23.4974C17.3009 26.5183 21.0927 27.9875 26.2976 27.9875C36.9289 27.9875 45.524 21.9008 53.836 16.0139C61.8314 10.3495 69.3865 4.99982 78.3394 4.99982C86.1855 4.99982 87.3722 9.05765 89.0119 14.6771C89.9103 17.753 90.8396 20.9363 93.0431 23.4999C95.6404 26.5208 99.4321 27.99 104.637 27.99C115.268 27.99 123.863 21.9033 132.175 16.0164C140.171 10.352 147.726 5.00232 156.679 5.00232C164.525 5.00232 165.712 9.06015 167.351 14.6796C168.25 17.7555 169.179 20.9388 171.383 23.5024C173.98 26.5233 177.772 27.9925 182.977 27.9925C193.608 27.9925 202.203 21.9058 210.515 16.0189C218.51 10.3545 226.065 5.00482 235.018 5.00482C242.864 5.00482 244.051 9.06264 245.691 14.6821C246.589 17.758 247.518 20.9413 249.722 23.5049C252.319 26.5258 256.111 27.995 261.316 27.995C271.947 27.995 280.542 21.9083 288.854 16.0214C296.852 10.357 304.405 5.00732 313.358 5.00732C321.204 5.00732 322.391 9.06514 324.03 14.6846C324.929 17.7605 325.858 20.9438 328.064 23.5074C330.661 26.5283 334.456 27.9975 339.658 27.9975C350.289 27.9975 358.884 21.9108 367.196 16.0239C375.194 10.3594 382.747 5.00982 391.7 5.00982C399.546 5.00982 400.733 9.06764 402.372 14.6871C403.271 17.763 404.2 20.9463 406.406 23.5099C409.003 26.5308 412.798 28 418 28V23.0027C410.154 23.0027 408.967 18.9449 407.328 13.3254C406.429 10.2495 405.5 7.06621 403.294 4.50259C400.697 1.48171 396.902 0.0124933 391.7 0.0124933C381.069 0.0124933 372.473 6.09923 364.161 11.9861C356.164 17.6505 348.611 23.0002 339.658 23.0002C331.812 23.0002 330.625 18.9424 328.986 13.3229C328.087 10.247 327.158 7.06372 324.952 4.50009C322.354 1.47921 318.56 0.00999465 313.358 0.00999465C302.727 0.00999465 294.131 6.09673 285.819 11.9836C277.824 17.648 270.269 22.9977 261.316 22.9977C253.47 22.9977 252.283 18.9399 250.644 13.3204C249.745 10.2445 248.816 7.06122 246.61 4.49759C244.012 1.47671 240.221 0.00749598 235.016 0.00749598C224.384 0.00749598 215.789 6.09424 207.477 11.9811C199.482 17.6455 191.927 22.9952 182.974 22.9952C175.128 22.9952 173.941 18.9374 172.301 13.3179C171.403 10.242 170.474 7.05872 168.27 4.49509C165.673 1.47421 161.881 0.00499732 156.676 0.00499732C146.045 0.00499732 137.45 6.09174 129.138 11.9786C121.143 17.643 113.587 22.9927 104.635 22.9927C96.7885 22.9927 95.6018 18.9349 93.962 13.3154C93.0637 10.2395 92.1344 7.05622 89.9283 4.49259C87.331 1.47171 83.5393 0.00249866 78.3343 0.00249866C67.703 0.00249866 59.1079 6.08924 50.7959 11.9761C42.8006 17.6406 35.2454 22.9902 26.2925 22.9902C18.4464 22.9902 17.2598 18.9324 15.62 13.3129C14.7216 10.237 13.7924 7.05372 11.5889 4.49009C8.99412 1.46921 5.20238 0 0 0V4.99732C7.84604 4.99732 9.03273 9.05515 10.6725 14.6746Z" fill="#CEFFA3"/>
</svg>
