<svg width="80" height="80" viewBox="0 0 80 80" fill="none" xmlns="http://www.w3.org/2000/svg">
<g clip-path="url(#clip0_2044_131079)">
<path d="M78.2908 59.6854L76.8713 57.7761C76.2344 56.9196 76.0043 55.8244 76.2552 54.7869C76.8338 52.3951 77.5485 47.6822 75.396 43.4475C74.9241 42.5191 74.5761 41.5291 74.4041 40.5019C73.2057 33.3469 76.8157 23.7051 76.8849 23.4861C78.1496 19.4885 78.6518 17.8933 75.5958 16.4233C72.2699 14.8233 69.3147 16.6715 67.5894 19.8072C67.3551 20.2329 63.8829 26.6747 63.0872 35.0457C57.9454 28.1301 45.7174 11.6838 41.653 6.21755C40.1355 4.17646 37.2972 3.54771 35.1277 4.87552C32.6397 6.39849 32.043 9.68474 33.744 11.9726C33.7316 11.956 31.1712 8.51224 31.2444 8.61083C29.6518 6.46865 26.6235 5.90318 24.441 7.44005C22.1838 9.02974 21.6926 12.1563 23.3297 14.3582C26.2479 18.283 25.5771 17.3807 25.8951 17.8083C24.2122 15.5451 20.9457 15.1538 18.7701 17.0283C16.8165 18.7116 16.5674 21.6555 18.1062 23.7251L22.8446 30.0982C21.1438 27.8105 17.8249 27.4355 15.6499 29.3793C13.7535 31.074 13.5383 33.9732 15.0558 36.0143C15.8354 37.0625 37.1788 65.769 38.3649 67.3643C40.806 70.6474 44.1413 72.8732 47.783 73.9549C51.2096 74.9729 52.6076 77.6774 53.0079 78.1008L53.1726 78.3224C54.5435 80.1663 57.1497 80.5497 58.9938 79.1788L77.441 65.4632C79.271 64.1022 79.6515 61.5155 78.2908 59.6854Z" fill="#FFDF39"/>
<path d="M61.6067 13.2992C59.5918 9.0548 56.7448 5.22511 53.2587 2.07136C52.7715 1.63073 52.7339 0.878547 53.1746 0.391515C53.6153 -0.0956722 54.3675 -0.133328 54.8546 0.307453C58.5696 3.66792 61.6057 7.75058 63.7557 12.279C64.0375 12.8725 63.7846 13.5818 63.1914 13.8637C62.6006 14.144 61.8896 13.8951 61.6067 13.2992Z" fill="#D3D9D6"/>
<path d="M54.9329 15.1587C53.5284 12.487 51.7089 10.0387 49.5515 7.92105C49.0828 7.46073 49.0757 6.70792 49.5359 6.23902C49.9962 5.77011 50.749 5.76339 51.2178 6.22339C53.5475 8.51042 55.5171 11.1576 57.0384 14.052C57.344 14.6332 57.1204 15.3525 56.539 15.6581C55.9562 15.9643 55.2379 15.739 54.9329 15.1587Z" fill="#D3D9D6"/>
<path d="M9.90701 52.3121C6.19154 48.9508 3.15623 44.8696 1.00591 40.3405C0.724038 39.7471 0.976851 39.0377 1.57013 38.7558C2.16341 38.4741 2.87294 38.7269 3.15466 39.3202C5.16998 43.5649 8.01607 47.3938 11.5026 50.5478C11.9898 50.9885 12.0275 51.7407 11.5867 52.2277C11.1476 52.7136 10.3954 52.7541 9.90701 52.3121Z" fill="#D3D9D6"/>
<path d="M13.5357 46.3978C11.2051 44.11 9.23651 41.4631 7.71495 38.5692C7.40932 37.9878 7.63291 37.2687 8.21432 36.9629C8.79573 36.6575 9.51479 36.8809 9.82057 37.4621C11.2256 40.135 13.0448 42.5826 15.202 44.7C15.6707 45.1601 15.6778 45.9131 15.2176 46.382C14.7582 46.8503 14.0048 46.8582 13.5357 46.3978Z" fill="#D3D9D6"/>
<path d="M23.5436 14.6449C25.3446 17.0669 39.6121 36.2563 39.1296 35.6072C39.916 36.6649 41.4342 36.8336 42.4336 35.9747C43.3424 35.1936 43.4925 33.8429 42.7775 32.8811L30.0674 15.7868C30.0619 15.7796 30.0569 15.7727 30.0524 15.7665L30.035 15.743C30.0281 15.7338 30.0221 15.7255 30.0167 15.7183L30.0036 15.7008L30.0033 15.7005L27.5428 12.3915C26.231 10.6269 26.2869 8.26896 27.5222 6.58365C23.6227 6.33037 20.6466 10.7469 23.5436 14.6449Z" fill="#FACB40"/>
<path d="M32.0847 42.5243C32.9285 43.659 34.5744 43.8004 35.5994 42.8264C36.3969 42.0682 36.5028 40.8343 35.8464 39.9515C34.183 37.7143 23.5874 23.4635 22.3194 21.7582C20.9985 19.9818 20.9963 17.5617 22.2575 15.847C18.1007 15.6026 15.5903 20.3403 18.1086 23.7273C24.428 32.2259 25.5089 33.6803 32.0847 42.5243Z" fill="#FACB40"/>
<path d="M57.3853 76.3561L57.2205 76.1345C56.8201 75.7111 55.4222 73.0067 51.9956 71.9886C48.354 70.9067 45.0187 68.6811 42.5775 65.398C41.3914 63.8026 20.0478 35.0962 19.2684 34.048C17.9498 32.2744 17.9403 29.8533 19.2045 28.1369C15.06 27.895 12.527 32.6133 15.0576 36.017C15.8372 37.0653 37.1808 65.7717 38.3667 67.367C40.8079 70.6502 44.1431 72.8758 47.7848 73.9576C51.2114 74.9756 52.6094 77.6801 53.0097 78.1036L53.1745 78.3251C54.5454 80.1691 57.1517 80.5525 58.9958 79.1816L60.5447 78.03C59.3372 77.977 58.1626 77.4017 57.3853 76.3561Z" fill="#FACB40"/>
<path d="M37.9579 10.0058C36.644 8.2386 36.7023 5.8761 37.9431 4.19031C37.0851 4.1336 36.2107 4.30297 35.4114 4.72125L35.411 4.72063C34.9962 4.93766 34.6204 5.20985 34.2989 5.51578C34.2984 5.51625 34.2978 5.51672 34.2971 5.51735H34.2973C32.5953 7.13578 32.2782 9.76891 33.5914 11.7528L33.7471 11.975L47.8231 30.9066C48.6449 32.012 50.2493 32.1484 51.246 31.1973C52.1656 30.3198 52.2801 28.8919 51.512 27.8792L37.9579 10.0058ZM36.6078 8.18985L36.5335 8.09016C36.5582 8.12313 36.5829 8.15656 36.6078 8.18985Z" fill="#FACB40"/>
<path d="M67.5959 19.8106C67.4497 20.0762 66.0431 22.6874 64.8123 26.6467L64.8111 26.6456C64.07 29.0298 63.3927 31.9031 63.0938 35.049C64.3983 36.7829 67.1569 35.9395 67.2688 33.7724L67.3044 33.08C68.1002 24.7089 71.5723 18.2671 71.8066 17.8415C72.2197 17.0907 72.7039 16.4148 73.2464 15.8414C70.9078 15.8068 68.9003 17.4403 67.5959 19.8106Z" fill="#FACB40"/>
</g>
<defs>
<clipPath id="clip0_2044_131079">
<rect width="80" height="80" fill="white"/>
</clipPath>
</defs>
</svg>
