<svg width="48" height="48" viewBox="0 0 48 48" fill="none" xmlns="http://www.w3.org/2000/svg">
<path d="M10.3349 12.717C11.5037 12.717 12.4511 11.7695 12.4511 10.6007C12.4511 9.43189 11.5037 8.48438 10.3349 8.48438C9.1662 8.48438 8.21875 9.43189 8.21875 10.6007C8.21875 11.7695 9.1662 12.717 10.3349 12.717Z" fill="#7B7E78"/>
<path d="M17.7881 12.717C18.9568 12.717 19.9042 11.7695 19.9042 10.6007C19.9042 9.43189 18.9568 8.48438 17.7881 8.48438C16.6193 8.48438 15.6719 9.43189 15.6719 10.6007C15.6719 11.7695 16.6193 12.717 17.7881 12.717Z" fill="#7B7E78"/>
<path d="M25.2412 12.717C26.4099 12.717 27.3574 11.7695 27.3574 10.6007C27.3574 9.43189 26.4099 8.48438 25.2412 8.48438C24.0724 8.48438 23.125 9.43189 23.125 10.6007C23.125 11.7695 24.0724 12.717 25.2412 12.717Z" fill="#7B7E78"/>
<path d="M30.2012 30.3845L34.1948 43.5119C34.5816 44.7832 36.3721 44.8106 36.7968 43.5499L38.6665 38.0018C38.8036 37.5968 39.1202 37.2801 39.5252 37.1431L45.0734 35.2734C46.3325 34.8486 46.3066 33.0581 45.0353 32.6714L31.908 28.6778C30.862 28.3611 29.8845 29.3386 30.2012 30.3845Z" fill="#7B7E78"/>
<path d="M28.0156 31.0448C27.6746 29.9273 27.8786 28.7473 28.5729 27.811C29.261 26.8837 30.3542 26.3295 31.5007 26.3295C31.8615 26.3295 32.2209 26.3828 32.571 26.4894L44.3738 30.078V9.18728C44.3738 6.06608 41.8311 3.52344 38.7099 3.52344H7.66384C4.54264 3.52344 2 6.06608 2 9.18728V34.5375C2 37.674 4.54264 40.2166 7.67907 40.2166H30.8034L28.0156 31.0448ZM4.74057 14.6989V9.1888C4.74057 7.57643 6.05147 6.26553 7.66384 6.26553H38.7084C40.3208 6.26553 41.6317 7.57643 41.6317 9.1888V14.6989H4.74057Z" fill="#7B7E78"/>
</svg>
