<svg width="48" height="49" viewBox="0 0 48 49" fill="none" xmlns="http://www.w3.org/2000/svg">
<path d="M10.3388 13.3767C11.5076 13.3767 12.455 12.4292 12.455 11.2604C12.455 10.0916 11.5076 9.14404 10.3388 9.14404C9.1701 9.14404 8.22266 10.0916 8.22266 11.2604C8.22266 12.4292 9.1701 13.3767 10.3388 13.3767Z" fill="#E0E5DA"/>
<path d="M17.7881 13.3767C18.9568 13.3767 19.9042 12.4292 19.9042 11.2604C19.9042 10.0916 18.9568 9.14404 17.7881 9.14404C16.6193 9.14404 15.6719 10.0916 15.6719 11.2604C15.6719 12.4292 16.6193 13.3767 17.7881 13.3767Z" fill="#E0E5DA"/>
<path d="M25.249 13.3767C26.4177 13.3767 27.3652 12.4292 27.3652 11.2604C27.3652 10.0916 26.4177 9.14404 25.249 9.14404C24.0803 9.14404 23.1328 10.0916 23.1328 11.2604C23.1328 12.4292 24.0803 13.3767 25.249 13.3767Z" fill="#E0E5DA"/>
<path d="M30.1973 31.0442L34.1909 44.1715C34.5777 45.4429 36.3682 45.4703 36.7929 44.2096L38.6626 38.6615C38.7996 38.2565 39.1163 37.9398 39.5213 37.8028L45.0695 35.9331C46.3286 35.5083 46.3027 33.7178 45.0314 33.3311L31.9041 29.3374C30.8581 29.0208 29.8806 29.9982 30.1973 31.0442Z" fill="#E0E5DA"/>
<path d="M28.0156 31.7045C27.6746 30.587 27.8786 29.407 28.5729 28.4706C29.261 27.5434 30.3542 26.9892 31.5007 26.9892C31.8615 26.9892 32.2209 27.0425 32.571 27.1491L44.3738 30.7377V9.84695C44.3738 6.72574 41.8311 4.18311 38.7099 4.18311H7.66384C4.54264 4.18311 2 6.72574 2 9.84695V35.1972C2 38.3336 4.54264 40.8763 7.67907 40.8763H30.8034L28.0156 31.7045ZM4.74057 15.3585V9.84847C4.74057 8.2361 6.05147 6.9252 7.66384 6.9252H38.7084C40.3208 6.9252 41.6317 8.2361 41.6317 9.84847V15.3585H4.74057Z" fill="#E0E5DA"/>
</svg>
