<svg width="70" height="80" viewBox="0 0 70 80" fill="none" xmlns="http://www.w3.org/2000/svg">
<g clip-path="url(#clip0_569_7664)">
<path d="M18 1.5H44.3789L68.5 25.6211V72C68.5 75.5899 65.5899 78.5 62 78.5H18C14.4101 78.5 11.5 75.5899 11.5 72V8C11.5 4.41015 14.4102 1.5 18 1.5Z" fill="white" stroke="#C4CCC8" stroke-width="3"/>
<path d="M44 2V20C44 23.3137 46.6863 26 50 26H68" stroke="#C4CCC8" stroke-width="3" stroke-linecap="round"/>
</g>
<rect y="39" width="49" height="31" rx="4" fill="#62864D"/>
<path d="M12.4925 61.27C8.85652 61.27 6.01252 58.318 6.01252 54.52C6.01252 50.74 8.85652 47.806 12.4925 47.806C15.8945 47.806 18.5585 50.074 19.0085 53.386H16.1105C15.8045 51.532 14.3645 50.254 12.5285 50.254C10.3145 50.254 8.82052 52 8.82052 54.52C8.82052 57.058 10.3145 58.822 12.5285 58.822C14.3645 58.822 15.7865 57.526 16.1105 55.672H19.0085C18.5585 59.02 15.8945 61.27 12.4925 61.27ZM30.8369 56.986C30.8369 59.452 28.8569 61.18 25.6169 61.18C22.3589 61.18 20.3249 59.434 20.1269 56.698H22.8989C22.9709 58.12 23.8889 59.038 25.5629 59.038C26.9489 59.038 27.9389 58.426 27.9389 57.382C27.9389 56.572 27.3089 56.086 26.2109 55.87L24.0869 55.456C22.1249 55.078 20.6129 54.016 20.6129 51.874C20.6129 49.57 22.6469 47.914 25.4369 47.914C28.3349 47.914 30.4589 49.606 30.6389 52.306H27.8669C27.7769 50.956 26.8409 50.038 25.4729 50.038C24.1409 50.038 23.3849 50.794 23.3849 51.694C23.3849 52.576 24.1949 52.954 25.1309 53.134L27.3449 53.584C29.6129 54.034 30.8369 55.078 30.8369 56.986ZM43.416 48.076L38.736 61H35.748L31.104 48.076H34.056L37.332 57.814L40.68 48.076H43.416Z" fill="white"/>
<defs>
<clipPath id="clip0_569_7664">
<rect width="60" height="80" fill="white" transform="translate(10)"/>
</clipPath>
</defs>
</svg>
