<svg width="70" height="80" viewBox="0 0 70 80" fill="none" xmlns="http://www.w3.org/2000/svg">
<g clip-path="url(#clip0_591_10910)">
<path d="M18 1.5H44.3789L68.5 25.6211V72C68.5 75.5899 65.5899 78.5 62 78.5H18C14.4101 78.5 11.5 75.5899 11.5 72V8C11.5 4.41015 14.4102 1.5 18 1.5Z" fill="white" stroke="#C4CCC8" stroke-width="3"/>
<path d="M44 2V20C44 23.3137 46.6863 26 50 26H68" stroke="#C4CCC8" stroke-width="3" stroke-linecap="round"/>
</g>
<rect y="39" width="52" height="31" rx="4" fill="#CEFFA3"/>
<path d="M11.1183 61H6.52829V48.076H11.1183C15.2223 48.076 17.7063 50.704 17.7063 54.466C17.7063 58.228 15.1323 61 11.1183 61ZM9.26429 50.434V58.642H10.9743C13.5483 58.642 14.8983 57.148 14.8983 54.466C14.8983 51.892 13.5483 50.434 10.9743 50.434H9.26429ZM25.4564 61.27C21.7304 61.27 18.8504 58.39 18.8504 54.52C18.8504 50.65 21.7304 47.806 25.4564 47.806C29.2004 47.806 32.0984 50.65 32.0984 54.52C32.0984 58.39 29.2004 61.27 25.4564 61.27ZM25.4564 58.822C27.8324 58.822 29.2724 56.896 29.2724 54.52C29.2724 52.144 27.8324 50.254 25.4564 50.254C23.0984 50.254 21.6584 52.144 21.6584 54.52C21.6584 56.896 23.0984 58.822 25.4564 58.822ZM39.7093 61.27C36.0733 61.27 33.2293 58.318 33.2293 54.52C33.2293 50.74 36.0733 47.806 39.7093 47.806C43.1113 47.806 45.7753 50.074 46.2253 53.386H43.3273C43.0213 51.532 41.5813 50.254 39.7453 50.254C37.5313 50.254 36.0373 52 36.0373 54.52C36.0373 57.058 37.5313 58.822 39.7453 58.822C41.5813 58.822 43.0033 57.526 43.3273 55.672H46.2253C45.7753 59.02 43.1113 61.27 39.7093 61.27Z" fill="#181B1A"/>
<defs>
<clipPath id="clip0_591_10910">
<rect width="60" height="80" fill="white" transform="translate(10)"/>
</clipPath>
</defs>
</svg>
