<svg width="70" height="80" viewBox="0 0 70 80" fill="none" xmlns="http://www.w3.org/2000/svg">
<g clip-path="url(#clip0_569_7763)">
<path d="M18 1.5H44.3789L68.5 25.6211V72C68.5 75.5899 65.5899 78.5 62 78.5H18C14.4101 78.5 11.5 75.5899 11.5 72V8C11.5 4.41015 14.4102 1.5 18 1.5Z" fill="white" stroke="#C4CCC8" stroke-width="3"/>
<path d="M44 2V20C44 23.3137 46.6863 26 50 26H68" stroke="#C4CCC8" stroke-width="3" stroke-linecap="round"/>
</g>
<rect y="39" width="64" height="31" rx="4" fill="#093EB6"/>
<path d="M11.0363 61H6.44626V48.076H11.0363C15.1403 48.076 17.6243 50.704 17.6243 54.466C17.6243 58.228 15.0503 61 11.0363 61ZM9.18226 50.434V58.642H10.8923C13.4663 58.642 14.8163 57.148 14.8163 54.466C14.8163 51.892 13.4663 50.434 10.8923 50.434H9.18226ZM25.3744 61.27C21.6484 61.27 18.7684 58.39 18.7684 54.52C18.7684 50.65 21.6484 47.806 25.3744 47.806C29.1184 47.806 32.0164 50.65 32.0164 54.52C32.0164 58.39 29.1184 61.27 25.3744 61.27ZM25.3744 58.822C27.7504 58.822 29.1904 56.896 29.1904 54.52C29.1904 52.144 27.7504 50.254 25.3744 50.254C23.0164 50.254 21.5764 52.144 21.5764 54.52C21.5764 56.896 23.0164 58.822 25.3744 58.822ZM39.6273 61.27C35.9913 61.27 33.1473 58.318 33.1473 54.52C33.1473 50.74 35.9913 47.806 39.6273 47.806C43.0293 47.806 45.6933 50.074 46.1433 53.386H43.2453C42.9393 51.532 41.4993 50.254 39.6633 50.254C37.4493 50.254 35.9553 52 35.9553 54.52C35.9553 57.058 37.4493 58.822 39.6633 58.822C41.4993 58.822 42.9213 57.526 43.2453 55.672H46.1433C45.6933 59.02 43.0293 61.27 39.6273 61.27ZM49.601 61H46.397L50.447 54.394L46.811 48.076H49.997L52.517 52.702L55.199 48.076H58.259L54.497 54.502L58.493 61H55.271L52.445 56.14L49.601 61Z" fill="white"/>
<defs>
<clipPath id="clip0_569_7763">
<rect width="60" height="80" fill="white" transform="translate(10)"/>
</clipPath>
</defs>
</svg>
