<svg width="60" height="80" viewBox="0 0 60 80" fill="none" xmlns="http://www.w3.org/2000/svg">
<g clip-path="url(#clip0_712_19313)">
<path d="M0 8C0 3.58172 3.58172 0 8 0H34L60 26V72C60 76.4183 56.4183 80 52 80H8C3.58172 80 0 76.4183 0 72V8Z" fill="#6E45F0"/>
<path d="M40 26H60L34 0V20C34 23.3137 36.6863 26 40 26Z" fill="white" fill-opacity="0.5"/>
</g>
<path d="M19.1002 65H16.3642V52.076H24.7162V54.452H19.1002V57.71H23.8342V60.068H19.1002V65ZM29.3307 65H26.5947V52.076H29.3307V65ZM37.8776 65.27C34.1336 65.27 31.2176 62.48 31.2176 58.484C31.2176 54.668 33.9896 51.806 37.7696 51.806C41.0456 51.806 43.3856 53.75 44.2316 56.558H41.0096C40.6136 55.244 39.4256 54.254 37.6976 54.254C35.6096 54.254 34.0256 55.784 34.0256 58.556C34.0256 61.04 35.4116 62.948 38.0036 62.948C39.9116 62.948 41.1176 61.814 41.4776 60.212H37.7336V58.034H44.3936C44.5556 62.246 41.9996 65.27 37.8776 65.27Z" fill="white"/>
<defs>
<clipPath id="clip0_712_19313">
<rect width="60" height="80" fill="white"/>
</clipPath>
</defs>
</svg>
