<svg width="24" height="24" viewBox="0 0 24 24" fill="none" xmlns="http://www.w3.org/2000/svg">
<path d="M12.8945 6.5527L10.8945 2.5527C10.8114 2.3866 10.6837 2.24691 10.5258 2.14929C10.3678 2.05167 10.1857 1.99998 10 2H2C1.73478 2 1.48043 2.10536 1.29289 2.29289C1.10536 2.48043 1 2.73478 1 3V7C1 7.26522 1.10536 7.51957 1.29289 7.70711C1.48043 7.89464 1.73478 8 2 8H12C12.1705 8.00002 12.3381 7.95646 12.487 7.87345C12.6359 7.79045 12.7611 7.67075 12.8508 7.52574C12.9404 7.38073 12.9915 7.21521 12.9991 7.0449C13.0068 6.8746 12.9708 6.70517 12.8945 6.5527Z" fill="#CA820E"/>
<path d="M22 6H1V21C1 21.2652 1.10536 21.5196 1.29289 21.7071C1.48043 21.8946 1.73478 22 2 22H22C22.2652 22 22.5196 21.8946 22.7071 21.7071C22.8946 21.5196 23 21.2652 23 21V7C23 6.73478 22.8946 6.48043 22.7071 6.29289C22.5196 6.10536 22.2652 6 22 6Z" fill="#FCA311"/>
</svg>
