<svg width="70" height="80" viewBox="0 0 70 80" fill="none" xmlns="http://www.w3.org/2000/svg">
<g clip-path="url(#clip0_569_7670)">
<path d="M18 1.5H44.3789L68.5 25.6211V72C68.5 75.5899 65.5899 78.5 62 78.5H18C14.4101 78.5 11.5 75.5899 11.5 72V8C11.5 4.41015 14.4102 1.5 18 1.5Z" fill="white" stroke="#C4CCC8" stroke-width="3"/>
<path d="M44 2V20C44 23.3137 46.6863 26 50 26H68" stroke="#C4CCC8" stroke-width="3" stroke-linecap="round"/>
</g>
<rect y="39" width="59" height="31" rx="4" fill="#093EB6"/>
<path d="M15.4523 48.076V56.356C15.4523 59.254 13.7243 61.27 10.5203 61.27C7.37034 61.27 5.66034 59.254 5.62434 56.5H8.36034C8.39634 57.868 8.95434 58.822 10.5203 58.822C12.1223 58.822 12.6983 57.886 12.6983 56.428V48.076H15.4523ZM22.7788 56.788H20.7448V61H18.0088V48.076H22.7788C25.9288 48.076 27.8908 49.57 27.8908 52.378C27.8908 55.186 25.9288 56.788 22.7788 56.788ZM22.7608 50.38H20.7448V54.484H22.7608C24.3088 54.484 25.1728 53.674 25.1728 52.396C25.1728 51.118 24.3088 50.38 22.7608 50.38ZM38.4449 58.624V61H29.7509V48.076H38.3189V50.452H32.4869V53.17H37.7789V55.528H32.4869V58.624H38.4449ZM46.4655 61.27C42.7215 61.27 39.8055 58.48 39.8055 54.484C39.8055 50.668 42.5775 47.806 46.3575 47.806C49.6335 47.806 51.9735 49.75 52.8195 52.558H49.5975C49.2015 51.244 48.0135 50.254 46.2855 50.254C44.1975 50.254 42.6135 51.784 42.6135 54.556C42.6135 57.04 43.9995 58.948 46.5915 58.948C48.4995 58.948 49.7055 57.814 50.0655 56.212H46.3215V54.034H52.9815C53.1435 58.246 50.5875 61.27 46.4655 61.27Z" fill="white"/>
<defs>
<clipPath id="clip0_569_7670">
<rect width="60" height="80" fill="white" transform="translate(10)"/>
</clipPath>
</defs>
</svg>
