<svg width="70" height="80" viewBox="0 0 70 80" fill="none" xmlns="http://www.w3.org/2000/svg">
<g clip-path="url(#clip0_569_7673)">
<path d="M18 1.5H44.3789L68.5 25.6211V72C68.5 75.5899 65.5899 78.5 62 78.5H18C14.4101 78.5 11.5 75.5899 11.5 72V8C11.5 4.41015 14.4102 1.5 18 1.5Z" fill="white" stroke="#C4CCC8" stroke-width="3"/>
<path d="M44 2V20C44 23.3137 46.6863 26 50 26H68" stroke="#C4CCC8" stroke-width="3" stroke-linecap="round"/>
</g>
<rect y="39" width="48" height="31" rx="4" fill="#093EB6"/>
<path d="M15.3576 48.076V56.356C15.3576 59.254 13.6296 61.27 10.4256 61.27C7.27561 61.27 5.56561 59.254 5.52961 56.5H8.26561C8.30161 57.868 8.85961 58.822 10.4256 58.822C12.0276 58.822 12.6036 57.886 12.6036 56.428V48.076H15.3576ZM22.684 56.788H20.65V61H17.914V48.076H22.684C25.834 48.076 27.796 49.57 27.796 52.378C27.796 55.186 25.834 56.788 22.684 56.788ZM22.666 50.38H20.65V54.484H22.666C24.214 54.484 25.078 53.674 25.078 52.396C25.078 51.118 24.214 50.38 22.666 50.38ZM35.5602 61.27C31.8162 61.27 28.9002 58.48 28.9002 54.484C28.9002 50.668 31.6722 47.806 35.4522 47.806C38.7282 47.806 41.0682 49.75 41.9142 52.558H38.6922C38.2962 51.244 37.1082 50.254 35.3802 50.254C33.2922 50.254 31.7082 51.784 31.7082 54.556C31.7082 57.04 33.0942 58.948 35.6862 58.948C37.5942 58.948 38.8002 57.814 39.1602 56.212H35.4162V54.034H42.0762C42.2382 58.246 39.6822 61.27 35.5602 61.27Z" fill="white"/>
<defs>
<clipPath id="clip0_569_7673">
<rect width="60" height="80" fill="white" transform="translate(10)"/>
</clipPath>
</defs>
</svg>
