<svg width="70" height="80" viewBox="0 0 70 80" fill="none" xmlns="http://www.w3.org/2000/svg">
<g clip-path="url(#clip0_569_7676)">
<path d="M18 1.5H44.3789L68.5 25.6211V72C68.5 75.5899 65.5899 78.5 62 78.5H18C14.4101 78.5 11.5 75.5899 11.5 72V8C11.5 4.41015 14.4102 1.5 18 1.5Z" fill="white" stroke="#C4CCC8" stroke-width="3"/>
<path d="M44 2V20C44 23.3137 46.6863 26 50 26H68" stroke="#C4CCC8" stroke-width="3" stroke-linecap="round"/>
</g>
<rect y="39" width="46" height="31" rx="4" fill="#C70000"/>
<path d="M11.5766 56.788H9.54261V61H6.80661V48.076H11.5766C14.7266 48.076 16.6886 49.57 16.6886 52.378C16.6886 55.186 14.7266 56.788 11.5766 56.788ZM11.5586 50.38H9.54261V54.484H11.5586C13.1066 54.484 13.9706 53.674 13.9706 52.396C13.9706 51.118 13.1066 50.38 11.5586 50.38ZM23.1388 61H18.5488V48.076H23.1388C27.2428 48.076 29.7268 50.704 29.7268 54.466C29.7268 58.228 27.1528 61 23.1388 61ZM21.2848 50.434V58.642H22.9948C25.5688 58.642 26.9188 57.148 26.9188 54.466C26.9188 51.892 25.5688 50.434 22.9948 50.434H21.2848ZM34.3629 61H31.6269V48.076H39.9789V50.452H34.3629V53.71H39.0969V56.068H34.3629V61Z" fill="white"/>
<defs>
<clipPath id="clip0_569_7676">
<rect width="60" height="80" fill="white" transform="translate(10)"/>
</clipPath>
</defs>
</svg>
