<svg width="70" height="80" viewBox="0 0 70 80" fill="none" xmlns="http://www.w3.org/2000/svg">
<g clip-path="url(#clip0_569_7667)">
<path d="M18 1.5H44.3789L68.5 25.6211V72C68.5 75.5899 65.5899 78.5 62 78.5H18C14.4101 78.5 11.5 75.5899 11.5 72V8C11.5 4.41015 14.4102 1.5 18 1.5Z" fill="white" stroke="#C4CCC8" stroke-width="3"/>
<path d="M44 2V20C44 23.3137 46.6863 26 50 26H68" stroke="#C4CCC8" stroke-width="3" stroke-linecap="round"/>
</g>
<rect y="39" width="50" height="31" rx="4" fill="#093EB6"/>
<path d="M11.186 56.788H9.15198V61H6.41598V48.076H11.186C14.336 48.076 16.298 49.57 16.298 52.378C16.298 55.186 14.336 56.788 11.186 56.788ZM11.168 50.38H9.15198V54.484H11.168C12.716 54.484 13.58 53.674 13.58 52.396C13.58 51.118 12.716 50.38 11.168 50.38ZM26.5822 61L20.6602 51.982V61H18.1582V48.076H21.1102L26.7442 56.644V48.076H29.2642V61H26.5822ZM37.8258 61.27C34.0818 61.27 31.1658 58.48 31.1658 54.484C31.1658 50.668 33.9378 47.806 37.7178 47.806C40.9938 47.806 43.3338 49.75 44.1798 52.558H40.9578C40.5618 51.244 39.3738 50.254 37.6458 50.254C35.5578 50.254 33.9738 51.784 33.9738 54.556C33.9738 57.04 35.3598 58.948 37.9518 58.948C39.8598 58.948 41.0658 57.814 41.4258 56.212H37.6818V54.034H44.3418C44.5038 58.246 41.9478 61.27 37.8258 61.27Z" fill="white"/>
<defs>
<clipPath id="clip0_569_7667">
<rect width="60" height="80" fill="white" transform="translate(10)"/>
</clipPath>
</defs>
</svg>
