<svg width="70" height="80" viewBox="0 0 70 80" fill="none" xmlns="http://www.w3.org/2000/svg">
<g clip-path="url(#clip0_569_7776)">
<path d="M18 1.5H44.3789L68.5 25.6211V72C68.5 75.5899 65.5899 78.5 62 78.5H18C14.4101 78.5 11.5 75.5899 11.5 72V8C11.5 4.41015 14.4102 1.5 18 1.5Z" fill="white" stroke="#C4CCC8" stroke-width="3"/>
<path d="M44 2V20C44 23.3137 46.6863 26 50 26H68" stroke="#C4CCC8" stroke-width="3" stroke-linecap="round"/>
</g>
<rect y="39" width="58" height="31" rx="4" fill="#FCA311"/>
<path d="M11.187 56.788H9.15296V61H6.41696V48.076H11.187C14.337 48.076 16.299 49.57 16.299 52.378C16.299 55.186 14.337 56.788 11.187 56.788ZM11.169 50.38H9.15296V54.484H11.169C12.717 54.484 13.581 53.674 13.581 52.396C13.581 51.118 12.717 50.38 11.169 50.38ZM22.9291 56.788H20.8951V61H18.1591V48.076H22.9291C26.0791 48.076 28.0411 49.57 28.0411 52.378C28.0411 55.186 26.0791 56.788 22.9291 56.788ZM22.9111 50.38H20.8951V54.484H22.9111C24.4591 54.484 25.3231 53.674 25.3231 52.396C25.3231 51.118 24.4591 50.38 22.9111 50.38ZM35.6442 61H32.9082V50.542H28.8402V48.076H39.7302V50.542H35.6442V61ZM43.6303 61H40.4263L44.4763 54.394L40.8403 48.076H44.0263L46.5463 52.702L49.2283 48.076H52.2883L48.5263 54.502L52.5223 61H49.3003L46.4743 56.14L43.6303 61Z" fill="white"/>
<defs>
<clipPath id="clip0_569_7776">
<rect width="60" height="80" fill="white" transform="translate(10)"/>
</clipPath>
</defs>
</svg>
