<svg width="60" height="80" viewBox="0 0 60 80" fill="none" xmlns="http://www.w3.org/2000/svg">
<g clip-path="url(#clip0_712_19314)">
<path d="M0 8C0 3.58172 3.58172 0 8 0H34L60 26V72C60 76.4183 56.4183 80 52 80H8C3.58172 80 0 76.4183 0 72V8Z" fill="#3873FF"/>
<path d="M40 26H60L34 0V20C34 23.3137 36.6863 26 40 26Z" fill="white" fill-opacity="0.5"/>
</g>
<path d="M18.2241 60.788H16.1901V65H13.4541V52.076H18.2241C21.3741 52.076 23.3361 53.57 23.3361 56.378C23.3361 59.186 21.3741 60.788 18.2241 60.788ZM18.2061 54.38H16.1901V58.484H18.2061C19.7541 58.484 20.6181 57.674 20.6181 56.396C20.6181 55.118 19.7541 54.38 18.2061 54.38ZM35.1143 60.986C35.1143 63.452 33.1343 65.18 29.8943 65.18C26.6363 65.18 24.6023 63.434 24.4043 60.698H27.1763C27.2483 62.12 28.1663 63.038 29.8403 63.038C31.2263 63.038 32.2163 62.426 32.2163 61.382C32.2163 60.572 31.5863 60.086 30.4883 59.87L28.3643 59.456C26.4023 59.078 24.8903 58.016 24.8903 55.874C24.8903 53.57 26.9243 51.914 29.7143 51.914C32.6123 51.914 34.7363 53.606 34.9163 56.306H32.1443C32.0543 54.956 31.1183 54.038 29.7503 54.038C28.4183 54.038 27.6623 54.794 27.6623 55.694C27.6623 56.576 28.4723 56.954 29.4083 57.134L31.6223 57.584C33.8903 58.034 35.1143 59.078 35.1143 60.986ZM41.7218 65H37.1318V52.076H41.7218C45.8258 52.076 48.3098 54.704 48.3098 58.466C48.3098 62.228 45.7358 65 41.7218 65ZM39.8678 54.434V62.642H41.5778C44.1518 62.642 45.5018 61.148 45.5018 58.466C45.5018 55.892 44.1518 54.434 41.5778 54.434H39.8678Z" fill="white"/>
<defs>
<clipPath id="clip0_712_19314">
<rect width="60" height="80" fill="white"/>
</clipPath>
</defs>
</svg>
