<svg width="70" height="80" viewBox="0 0 70 80" fill="none" xmlns="http://www.w3.org/2000/svg">
<g clip-path="url(#clip0_569_7661)">
<path d="M18 1.5H44.3789L68.5 25.6211V72C68.5 75.5899 65.5899 78.5 62 78.5H18C14.4101 78.5 11.5 75.5899 11.5 72V8C11.5 4.41015 14.4102 1.5 18 1.5Z" fill="white" stroke="#C4CCC8" stroke-width="3"/>
<path d="M44 2V20C44 23.3137 46.6863 26 50 26H68" stroke="#C4CCC8" stroke-width="3" stroke-linecap="round"/>
</g>
<rect y="39" width="46" height="31" rx="4" fill="#62864D"/>
<path d="M9.07461 61H5.87061L9.92061 54.394L6.28461 48.076H9.47061L11.9906 52.702L14.6726 48.076H17.7326L13.9706 54.502L17.9666 61H14.7446L11.9186 56.14L9.07461 61ZM28.0434 61H19.6914V48.076H22.4274V58.534H28.0434V61ZM39.8398 56.986C39.8398 59.452 37.8598 61.18 34.6198 61.18C31.3618 61.18 29.3278 59.434 29.1298 56.698H31.9018C31.9738 58.12 32.8918 59.038 34.5658 59.038C35.9518 59.038 36.9418 58.426 36.9418 57.382C36.9418 56.572 36.3118 56.086 35.2138 55.87L33.0898 55.456C31.1278 55.078 29.6158 54.016 29.6158 51.874C29.6158 49.57 31.6498 47.914 34.4398 47.914C37.3378 47.914 39.4618 49.606 39.6418 52.306H36.8698C36.7798 50.956 35.8438 50.038 34.4758 50.038C33.1438 50.038 32.3878 50.794 32.3878 51.694C32.3878 52.576 33.1978 52.954 34.1338 53.134L36.3478 53.584C38.6158 54.034 39.8398 55.078 39.8398 56.986Z" fill="white"/>
<defs>
<clipPath id="clip0_569_7661">
<rect width="60" height="80" fill="white" transform="translate(10)"/>
</clipPath>
</defs>
</svg>
