<svg width="60" height="80" viewBox="0 0 60 80" fill="none" xmlns="http://www.w3.org/2000/svg">
<g clip-path="url(#clip0_712_19316)">
<path d="M0 8C0 3.58172 3.58172 0 8 0H34L60 26V72C60 76.4183 56.4183 80 52 80H8C3.58172 80 0 76.4183 0 72V8Z" fill="#FFB11F"/>
<path d="M40 26H60L34 0V20C34 23.3137 36.6863 26 40 26Z" fill="#FFC963"/>
</g>
<path d="M20.7104 42.5307V36.6638C20.7104 36.0296 20.2104 35.5274 19.5788 35.5274H16.4209C15.7894 35.5274 15.2894 36.0296 15.2894 36.6638V42.5307L13.5262 47.7104C13.0262 49.1638 13.2631 50.776 14.1578 52.018C15.0262 53.2601 16.4735 54 17.9999 54C19.5263 54 20.9473 53.2601 21.842 52.018C22.7367 50.776 22.9736 49.1639 22.4736 47.7104L20.7104 42.5307ZM19.9736 50.6702C19.0789 51.9651 16.921 51.9651 16 50.6702C15.5526 50.0359 15.421 49.1902 15.6842 48.4503L16.2631 46.7061H19.7105L20.3157 48.4503C20.5526 49.1902 20.4473 50.0359 19.9736 50.6702ZM11 4.02639V7.25054C11 7.88477 11.5 8.38692 12.1316 8.38692H16.4211V13.1967H12.1316C11.5 13.1967 11 13.6988 11 14.3331V16.8172C11 17.4514 11.5 17.98 12.1316 17.98H16.4211V22.7632H12.1316C11.5 22.7632 11 23.2654 11 23.8996V26.4101C11 27.0444 11.5 27.5465 12.1316 27.5465H16.4211V31.1934C16.4211 31.8276 16.9474 32.3298 17.5789 32.3298H23.8684C24.4737 32.3298 25 31.8276 25 31.1934V28.6829C25 28.0751 24.4737 27.5465 23.8684 27.5465H19.5527V22.7632H23.8684C24.4737 22.7632 25 22.2611 25 21.6269V19.1163C25 18.4821 24.4737 17.98 23.8684 17.98H19.5527V13.1967H23.8684C24.4737 13.1967 25 12.6682 25 12.0339V9.5498C25 8.91557 24.4737 8.38703 23.8684 8.38703H19.5527V4C19.5526 4 11 4.02639 11 4.02639Z" fill="white"/>
<path d="M36.0735 72H25.8855V69.84L32.4915 61.434H25.9035V59.076H35.8575V61.272L29.2155 69.642H36.0735V72ZM40.7994 72H38.0634V59.076H40.7994V72ZM48.2124 67.788H46.1784V72H43.4424V59.076H48.2124C51.3624 59.076 53.3244 60.57 53.3244 63.378C53.3244 66.186 51.3624 67.788 48.2124 67.788ZM48.1944 61.38H46.1784V65.484H48.1944C49.7424 65.484 50.6064 64.674 50.6064 63.396C50.6064 62.118 49.7424 61.38 48.1944 61.38Z" fill="white"/>
<defs>
<clipPath id="clip0_712_19316">
<rect width="60" height="80" fill="white"/>
</clipPath>
</defs>
</svg>
