<svg width="14" height="14" viewBox="0 0 14 14" fill="none" xmlns="http://www.w3.org/2000/svg">
<g clip-path="url(#clip0_840_52075)">
<path d="M1.41167 3.78583C1.14917 3.59917 1.085 3.2375 1.27167 2.975C1.73833 2.31583 2.31 1.74417 2.96917 1.2775C3.23167 1.09083 3.59917 1.155 3.78 1.4175C3.96667 1.68 3.9025 2.0475 3.64 2.22833C3.09167 2.61917 2.61333 3.09167 2.2225 3.64583C2.11167 3.80917 1.93083 3.89083 1.74417 3.89083C1.6275 3.89083 1.51083 3.85583 1.40583 3.78583H1.41167ZM2.22833 10.3542C2.04167 10.0917 1.68 10.0275 1.4175 10.2142C1.155 10.4008 1.09083 10.7625 1.2775 11.025C1.74417 11.6842 2.31583 12.2558 2.975 12.7225C3.07417 12.7925 3.19667 12.8275 3.31333 12.8275C3.49417 12.8275 3.675 12.74 3.79167 12.5825C3.97833 12.32 3.91417 11.9525 3.65167 11.7717C3.0975 11.3808 2.625 10.9083 2.23417 10.3542H2.22833ZM1.16667 7C1.16667 6.64417 1.19583 6.28833 1.26 5.94417C1.31833 5.62917 1.10833 5.32583 0.793333 5.2675C0.478333 5.20917 0.175 5.41917 0.116667 5.73417C0.0408333 6.14833 0 6.57417 0 7C0 7.42583 0.0408333 7.85167 0.116667 8.26583C0.169167 8.54583 0.414167 8.74417 0.688333 8.74417C0.723333 8.74417 0.758333 8.74417 0.793333 8.7325C1.10833 8.67417 1.31833 8.37083 1.26 8.05583C1.19583 7.71167 1.16667 7.35583 1.16667 7ZM11.7717 10.3542C11.3808 10.9083 10.9083 11.3808 10.3542 11.7717C10.0917 11.9583 10.0275 12.32 10.2142 12.5825C10.325 12.7458 10.5058 12.8275 10.6925 12.8275C10.8092 12.8275 10.9258 12.7925 11.0308 12.7225C11.69 12.2558 12.2617 11.6842 12.7283 11.025C12.915 10.7625 12.8508 10.395 12.5883 10.2142C12.3258 10.0275 11.9583 10.0917 11.7775 10.3542H11.7717ZM8.05583 12.74C7.71167 12.8042 7.35583 12.8333 7 12.8333C6.64417 12.8333 6.28833 12.8042 5.94417 12.74C5.62917 12.6817 5.32583 12.8917 5.2675 13.2067C5.20917 13.5217 5.41917 13.825 5.73417 13.8833C6.14833 13.9592 6.57417 14 7 14C7.42583 14 7.85167 13.9592 8.26583 13.8833C8.58083 13.825 8.79083 13.5217 8.7325 13.2067C8.67417 12.8917 8.37083 12.6758 8.05583 12.74ZM8.26583 0.116667C7.85167 0.0408333 7.42583 0 7 0C6.57417 0 6.14833 0.0408333 5.73417 0.116667C5.41917 0.175 5.20917 0.478333 5.2675 0.793333C5.32 1.07333 5.565 1.27167 5.83917 1.27167C5.87417 1.27167 5.90917 1.27167 5.94417 1.26C6.28833 1.19583 6.64417 1.16667 7 1.16667C7.35583 1.16667 7.71167 1.19583 8.05583 1.26C8.09083 1.26583 8.12583 1.27167 8.16083 1.27167C8.435 1.27167 8.68 1.07333 8.7325 0.793333C8.79083 0.478333 8.58083 0.175 8.26583 0.116667ZM11.7717 3.64583C11.8825 3.80917 12.0633 3.89083 12.25 3.89083C12.3667 3.89083 12.4833 3.85583 12.5883 3.78583C12.8508 3.59917 12.915 3.2375 12.7283 2.975C12.2617 2.31583 11.69 1.74417 11.0308 1.2775C10.7683 1.09083 10.4008 1.155 10.22 1.4175C10.0333 1.68 10.0975 2.0475 10.36 2.22833C10.9142 2.61917 11.3867 3.09167 11.7775 3.64583H11.7717ZM13.8833 5.73417C13.825 5.41917 13.5217 5.20333 13.2067 5.2675C12.8917 5.32583 12.6817 5.62917 12.74 5.94417C12.8042 6.28833 12.8333 6.64417 12.8333 7C12.8333 7.35583 12.8042 7.71167 12.74 8.05583C12.6817 8.37083 12.8917 8.67417 13.2067 8.7325C13.2417 8.73833 13.2767 8.74417 13.3117 8.74417C13.5858 8.74417 13.8308 8.54583 13.8833 8.26583C13.9592 7.85167 14 7.42583 14 7C14 6.57417 13.9592 6.14833 13.8833 5.73417Z" fill="#353B38"/>
<circle cx="7.07161" cy="7.07284" r="2.98958" stroke="#353B38" stroke-width="1.16667" stroke-linecap="round" stroke-dasharray="2.33 2.33"/>
</g>
<defs>
<clipPath id="clip0_840_52075">
<rect width="14" height="14" fill="white"/>
</clipPath>
</defs>
</svg>
