<svg width="14" height="14" viewBox="0 0 14 14" fill="currentColor" xmlns="http://www.w3.org/2000/svg">
    <g clip-path="url(#clip0_679_20249)">
        <path
            d="M7.00156 2.8C7.77476 2.8 8.40156 2.1732 8.40156 1.4C8.40156 0.626801 7.77476 0 7.00156 0C6.22836 0 5.60156 0.626801 5.60156 1.4C5.60156 2.1732 6.22836 2.8 7.00156 2.8Z"
            fill="currentColor" />
        <path
            d="M4.03047 2.05078C4.57734 2.59766 4.57734 3.48359 4.03047 4.03047C3.48359 4.57734 2.59766 4.57734 2.05078 4.03047C1.50391 3.48359 1.50391 2.59766 2.05078 2.05078C2.59766 1.50391 3.48359 1.50391 4.03047 2.05078Z"
            fill="currentColor" />
        <path
            d="M1.4 5.59998C2.17383 5.59998 2.8 6.22615 2.8 6.99998C2.8 7.7738 2.17383 8.39998 1.4 8.39998C0.626172 8.39998 0 7.7738 0 6.99998C0 6.22615 0.626172 5.59998 1.4 5.59998Z"
            fill="currentColor" />
        <path
            d="M2.05078 9.96948C2.59766 9.42261 3.48359 9.42261 4.03047 9.96948C4.57734 10.5164 4.57734 11.4023 4.03047 11.9492C3.48359 12.496 2.59766 12.496 2.05078 11.9492C1.50391 11.4023 1.50391 10.5164 2.05078 9.96948Z"
            fill="currentColor" />
        <path
            d="M5.60156 12.6C5.60156 11.8261 6.22773 11.2 7.00156 11.2C7.77539 11.2 8.40156 11.8261 8.40156 12.6C8.40156 13.3738 7.77539 14 7.00156 14C6.22773 14 5.60156 13.3738 5.60156 12.6Z"
            fill="currentColor" />
        <path
            d="M9.96875 11.9492C9.42187 11.4023 9.42187 10.5164 9.96875 9.96948C10.5156 9.42261 11.4016 9.42261 11.9484 9.96948C12.4953 10.5164 12.4953 11.4023 11.9484 11.9492C11.4016 12.496 10.5156 12.496 9.96875 11.9492Z"
            fill="currentColor" />
        <path
            d="M12.5992 8.39998C11.8254 8.39998 11.1992 7.7738 11.1992 6.99998C11.1992 6.22615 11.8254 5.59998 12.5992 5.59998C13.373 5.59998 13.9992 6.22615 13.9992 6.99998C13.9992 7.7738 13.373 8.39998 12.5992 8.39998Z"
            fill="currentColor" />
        <path
            d="M11.9484 4.03047C11.4016 4.57734 10.5156 4.57734 9.96875 4.03047C9.42187 3.48359 9.42187 2.59766 9.96875 2.05078C10.5156 1.50391 11.4016 1.50391 11.9484 2.05078C12.4953 2.59766 12.4953 3.48359 11.9484 4.03047Z"
            fill="currentColor" />
    </g>
    <defs>
        <clipPath id="clip0_679_20249">
            <rect width="14" height="14" fill="currentColor" />
        </clipPath>
    </defs>
</svg>