<svg width="14" height="14" viewBox="0 0 14 14" fill="currentColor" xmlns="http://www.w3.org/2000/svg">
    <path
        d="M6.41536 3.50004C6.41536 4.0769 6.24433 4.64081 5.92379 5.12048C5.6033 5.6001 5.14778 5.97396 4.61485 6.19469C4.08191 6.41542 3.49546 6.47323 2.92968 6.36065C2.36391 6.24812 1.84421 5.97034 1.4363 5.56241C1.0284 5.15455 0.750613 4.63486 0.638077 4.06908C0.525534 3.50325 0.583296 2.91684 0.804047 2.38388C1.0248 1.85093 1.39864 1.39541 1.87828 1.07492C2.35793 0.754436 2.92184 0.583374 3.4987 0.583374C4.27225 0.583374 5.01414 0.890668 5.56107 1.43765C6.10806 1.98463 6.41536 2.72649 6.41536 3.50004ZM10.4987 6.41671C11.0756 6.41671 11.6395 6.24567 12.1191 5.92513C12.5988 5.60465 12.9726 5.14912 13.1933 4.61619C13.4141 4.08326 13.4719 3.49681 13.3593 2.93103C13.2468 2.36525 12.969 1.84555 12.5611 1.43765C12.1532 1.02975 11.6335 0.751957 11.0677 0.639421C10.5019 0.526878 9.91548 0.58464 9.38254 0.805391C8.84961 1.02615 8.39409 1.39999 8.0736 1.87963C7.75306 2.35927 7.58203 2.92318 7.58203 3.50004C7.58203 4.2736 7.88933 5.01548 8.43632 5.56241C8.98331 6.10941 9.72514 6.41671 10.4987 6.41671ZM3.4987 7.58337C2.92184 7.58337 2.35793 7.75441 1.87828 8.07495C1.39864 8.39543 1.0248 8.85096 0.804047 9.38389C0.583296 9.91682 0.525534 10.5032 0.638077 11.0691C0.750613 11.6349 1.0284 12.1545 1.4363 12.5624C1.84421 12.9703 2.36391 13.2481 2.92968 13.3606C3.49546 13.4732 4.08191 13.4154 4.61485 13.1947C5.14778 12.974 5.6033 12.6001 5.92379 12.1205C6.24433 11.6408 6.41536 11.0769 6.41536 10.5C6.41536 9.72648 6.10806 8.98466 5.56107 8.43766C5.01414 7.89067 4.27225 7.58337 3.4987 7.58337ZM10.4987 7.58337C9.92184 7.58337 9.35793 7.75441 8.87831 8.07495C8.39864 8.39543 8.02478 8.85096 7.80405 9.38389C7.58331 9.91682 7.5255 10.5032 7.63809 11.0691C7.75061 11.6349 8.0284 12.1545 8.43632 12.5624C8.84419 12.9703 9.36388 13.2481 9.92965 13.3606C10.4955 13.4732 11.0819 13.4154 11.6148 13.1947C12.1478 12.974 12.6033 12.6001 12.9238 12.1205C13.2443 11.6408 13.4154 11.0769 13.4154 10.5C13.4154 9.72648 13.1081 8.98466 12.5611 8.43766C12.0141 7.89067 11.2723 7.58337 10.4987 7.58337Z"
        fill="currentColor" />
</svg>