<svg width="14" height="14" viewBox="0 0 14 14" fill="none" xmlns="http://www.w3.org/2000/svg">
    <path
        d="M5.67687 12.7304C3.08814 12.1092 1.16406 9.77915 1.16406 7.00005C1.16406 4.22094 3.08814 1.89093 5.67687 1.26965"
        stroke="#353B38" stroke-width="1.16667" stroke-miterlimit="10" stroke-linecap="round" />
    <path
        d="M8.4375 1.26965C11.0262 1.89093 12.9503 4.22094 12.9503 7.00005C12.9503 9.77915 11.0262 12.1092 8.4375 12.7304"
        stroke="#353B38" stroke-width="1.16667" stroke-miterlimit="10" stroke-linecap="round" />
    <path
        d="M7.05622 9.70851C8.55212 9.70851 9.76478 8.49584 9.76478 6.99994C9.76478 5.50405 8.55212 4.29138 7.05622 4.29138C5.56032 4.29138 4.34766 5.50405 4.34766 6.99994C4.34766 8.49584 5.56032 9.70851 7.05622 9.70851Z"
        stroke="#353B38" stroke-width="1.16667" stroke-miterlimit="10" />
    <path
        d="M8.43888 1.81013C8.73736 1.81013 8.97932 1.56817 8.97932 1.26969C8.97932 0.971212 8.73736 0.729248 8.43888 0.729248C8.1404 0.729248 7.89844 0.971212 7.89844 1.26969C7.89844 1.56817 8.1404 1.81013 8.43888 1.81013Z"
        stroke="#353B38" stroke-width="1.16667" stroke-miterlimit="10" />
    <path
        d="M5.67716 13.2708C5.97564 13.2708 6.2176 13.0289 6.2176 12.7304C6.2176 12.4319 5.97564 12.1899 5.67716 12.1899C5.37868 12.1899 5.13672 12.4319 5.13672 12.7304C5.13672 13.0289 5.37868 13.2708 5.67716 13.2708Z"
        stroke="#353B38" stroke-width="1.16667" stroke-miterlimit="10" />
</svg>