<svg width="18" height="19" viewBox="0 0 18 19" fill="none" xmlns="http://www.w3.org/2000/svg">
    <path
        d="M15.7266 1.625H2.27344C1.64016 1.625 1.125 2.14016 1.125 2.77344V4.41406C1.125 5.04734 1.64016 5.5625 2.27344 5.5625H15.7266C16.3598 5.5625 16.875 5.04734 16.875 4.41406V2.77344C16.875 2.14016 16.3598 1.625 15.7266 1.625Z"
        fill="currentColor" />
    <path
        d="M2.27344 17.375H7.19531C7.82859 17.375 8.34375 16.8598 8.34375 16.2266V8.02344C8.34375 7.39016 7.82859 6.875 7.19531 6.875H2.27344C1.64016 6.875 1.125 7.39016 1.125 8.02344V16.2266C1.125 16.8598 1.64016 17.375 2.27344 17.375Z"
        fill="currentColor" />
    <path
        d="M15.7266 6.875H10.8047C10.1714 6.875 9.65625 7.39016 9.65625 8.02344V10.3203C9.65625 10.9536 10.1714 11.4688 10.8047 11.4688H15.7266C16.3598 11.4688 16.875 10.9536 16.875 10.3203V8.02344C16.875 7.39016 16.3598 6.875 15.7266 6.875Z"
        fill="currentColor" />
    <path
        d="M15.7266 12.7812H10.8047C10.1714 12.7812 9.65625 13.2964 9.65625 13.9297V16.2266C9.65625 16.8598 10.1714 17.375 10.8047 17.375H15.7266C16.3598 17.375 16.875 16.8598 16.875 16.2266V13.9297C16.875 13.2964 16.3598 12.7812 15.7266 12.7812Z"
        fill="currentColor" />
</svg>