<svg width="18" height="19" viewBox="0 0 18 19" fill="none" xmlns="http://www.w3.org/2000/svg">
    <path
        d="M16.875 4.99995C16.875 4.40321 16.6379 3.83091 16.216 3.40896C15.794 2.987 15.2217 2.74995 14.625 2.74995H14.0625V2.20327C14.0625 1.90057 13.8298 1.64077 13.5271 1.62565C13.451 1.62199 13.375 1.6338 13.3037 1.66038C13.2323 1.68696 13.1671 1.72775 13.112 1.78028C13.0568 1.8328 13.0129 1.89598 12.983 1.96597C12.953 2.03596 12.9375 2.11131 12.9375 2.18745V2.74995H5.0625V2.20327C5.0625 1.90057 4.82977 1.64077 4.52707 1.62565C4.45101 1.62199 4.37501 1.6338 4.30365 1.66038C4.2323 1.68696 4.16708 1.72775 4.11196 1.78028C4.05684 1.8328 4.01295 1.89598 3.98296 1.96597C3.95297 2.03596 3.93751 2.11131 3.9375 2.18745V2.74995H3.375C2.77826 2.74995 2.20597 2.987 1.78401 3.40896C1.36205 3.83091 1.125 4.40321 1.125 4.99995V5.42182C1.125 5.45912 1.13982 5.49489 1.16619 5.52126C1.19256 5.54763 1.22833 5.56245 1.26562 5.56245H16.7344C16.7717 5.56245 16.8074 5.54763 16.8338 5.52126C16.8602 5.49489 16.875 5.45912 16.875 5.42182V4.99995ZM1.125 15.1249C1.125 15.7217 1.36205 16.294 1.78401 16.7159C2.20597 17.1379 2.77826 17.3749 3.375 17.3749H14.625C15.2217 17.3749 15.794 17.1379 16.216 16.7159C16.6379 16.294 16.875 15.7217 16.875 15.1249V6.79292C16.875 6.76494 16.8639 6.73812 16.8441 6.71834C16.8243 6.69856 16.7975 6.68745 16.7695 6.68745H1.23047C1.2025 6.68745 1.17567 6.69856 1.15589 6.71834C1.13611 6.73812 1.125 6.76494 1.125 6.79292V15.1249ZM13.2187 7.81245C13.3856 7.81245 13.5488 7.86193 13.6875 7.95465C13.8263 8.04736 13.9344 8.17913 13.9983 8.33331C14.0621 8.48748 14.0788 8.65713 14.0463 8.82081C14.0137 8.98448 13.9334 9.13482 13.8154 9.25282C13.6974 9.37082 13.547 9.45118 13.3834 9.48374C13.2197 9.51629 13.05 9.49958 12.8959 9.43572C12.7417 9.37186 12.6099 9.26371 12.5172 9.12496C12.4245 8.98621 12.375 8.82308 12.375 8.6562C12.375 8.43242 12.4639 8.21781 12.6221 8.05958C12.7804 7.90134 12.995 7.81245 13.2187 7.81245ZM13.2187 10.6249C13.3856 10.6249 13.5488 10.6744 13.6875 10.7671C13.8263 10.8599 13.9344 10.9916 13.9983 11.1458C14.0621 11.3 14.0788 11.4696 14.0463 11.6333C14.0137 11.797 13.9334 11.9473 13.8154 12.0653C13.6974 12.1833 13.547 12.2637 13.3834 12.2962C13.2197 12.3288 13.05 12.3121 12.8959 12.2482C12.7417 12.1844 12.6099 12.0762 12.5172 11.9375C12.4245 11.7987 12.375 11.6356 12.375 11.4687C12.375 11.2449 12.4639 11.0303 12.6221 10.8721C12.7804 10.7138 12.995 10.6249 13.2187 10.6249ZM10.4062 7.81245C10.5731 7.81245 10.7363 7.86193 10.875 7.95465C11.0138 8.04736 11.1219 8.17913 11.1858 8.33331C11.2496 8.48748 11.2663 8.65713 11.2338 8.82081C11.2012 8.98448 11.1209 9.13482 11.0029 9.25282C10.8849 9.37082 10.7345 9.45118 10.5709 9.48374C10.4072 9.51629 10.2375 9.49958 10.0834 9.43572C9.92918 9.37186 9.79741 9.26371 9.7047 9.12496C9.61198 8.98621 9.5625 8.82308 9.5625 8.6562C9.5625 8.43242 9.65139 8.21781 9.80963 8.05958C9.96786 7.90134 10.1825 7.81245 10.4062 7.81245ZM10.4062 10.6249C10.5731 10.6249 10.7363 10.6744 10.875 10.7671C11.0138 10.8599 11.1219 10.9916 11.1858 11.1458C11.2496 11.3 11.2663 11.4696 11.2338 11.6333C11.2012 11.797 11.1209 11.9473 11.0029 12.0653C10.8849 12.1833 10.7345 12.2637 10.5709 12.2962C10.4072 12.3288 10.2375 12.3121 10.0834 12.2482C9.92918 12.1844 9.79741 12.0762 9.7047 11.9375C9.61198 11.7987 9.5625 11.6356 9.5625 11.4687C9.5625 11.2449 9.65139 11.0303 9.80963 10.8721C9.96786 10.7138 10.1825 10.6249 10.4062 10.6249ZM10.4062 13.4374C10.5731 13.4374 10.7363 13.4869 10.875 13.5796C11.0138 13.6724 11.1219 13.8041 11.1858 13.9583C11.2496 14.1125 11.2663 14.2821 11.2338 14.4458C11.2012 14.6095 11.1209 14.7598 11.0029 14.8778C10.8849 14.9958 10.7345 15.0762 10.5709 15.1087C10.4072 15.1413 10.2375 15.1246 10.0834 15.0607C9.92918 14.9969 9.79741 14.8887 9.7047 14.75C9.61198 14.6112 9.5625 14.4481 9.5625 14.2812C9.5625 14.0574 9.65139 13.8428 9.80963 13.6846C9.96786 13.5263 10.1825 13.4374 10.4062 13.4374ZM7.59375 10.6249C7.76063 10.6249 7.92376 10.6744 8.06251 10.7671C8.20127 10.8599 8.30941 10.9916 8.37327 11.1458C8.43713 11.3 8.45384 11.4696 8.42129 11.6333C8.38873 11.797 8.30837 11.9473 8.19037 12.0653C8.07237 12.1833 7.92203 12.2637 7.75836 12.2962C7.59469 12.3288 7.42504 12.3121 7.27086 12.2482C7.11668 12.1844 6.98491 12.0762 6.8922 11.9375C6.79948 11.7987 6.75 11.6356 6.75 11.4687C6.75 11.2449 6.83889 11.0303 6.99713 10.8721C7.15536 10.7138 7.36997 10.6249 7.59375 10.6249ZM7.59375 13.4374C7.76063 13.4374 7.92376 13.4869 8.06251 13.5796C8.20127 13.6724 8.30941 13.8041 8.37327 13.9583C8.43713 14.1125 8.45384 14.2821 8.42129 14.4458C8.38873 14.6095 8.30837 14.7598 8.19037 14.8778C8.07237 14.9958 7.92203 15.0762 7.75836 15.1087C7.59469 15.1413 7.42504 15.1246 7.27086 15.0607C7.11668 14.9969 6.98491 14.8887 6.8922 14.75C6.79948 14.6112 6.75 14.4481 6.75 14.2812C6.75 14.0574 6.83889 13.8428 6.99713 13.6846C7.15536 13.5263 7.36997 13.4374 7.59375 13.4374ZM4.78125 10.6249C4.94813 10.6249 5.11126 10.6744 5.25001 10.7671C5.38877 10.8599 5.49691 10.9916 5.56077 11.1458C5.62463 11.3 5.64134 11.4696 5.60879 11.6333C5.57623 11.797 5.49587 11.9473 5.37787 12.0653C5.25987 12.1833 5.10953 12.2637 4.94586 12.2962C4.78219 12.3288 4.61254 12.3121 4.45836 12.2482C4.30419 12.1844 4.17241 12.0762 4.0797 11.9375C3.98698 11.7987 3.9375 11.6356 3.9375 11.4687C3.9375 11.2449 4.02639 11.0303 4.18463 10.8721C4.34286 10.7138 4.55747 10.6249 4.78125 10.6249ZM4.78125 13.4374C4.94813 13.4374 5.11126 13.4869 5.25001 13.5796C5.38877 13.6724 5.49691 13.8041 5.56077 13.9583C5.62463 14.1125 5.64134 14.2821 5.60879 14.4458C5.57623 14.6095 5.49587 14.7598 5.37787 14.8778C5.25987 14.9958 5.10953 15.0762 4.94586 15.1087C4.78219 15.1413 4.61254 15.1246 4.45836 15.0607C4.30419 14.9969 4.17241 14.8887 4.0797 14.75C3.98698 14.6112 3.9375 14.4481 3.9375 14.2812C3.9375 14.0574 4.02639 13.8428 4.18463 13.6846C4.34286 13.5263 4.55747 13.4374 4.78125 13.4374Z"
        fill="currentColor" />
</svg>