<svg width="18" height="19" viewBox="0 0 18 19" fill="none" xmlns="http://www.w3.org/2000/svg">
    <g clip-path="url(#clip0_4061_189113)">
        <path
            d="M11.8125 9.5C11.0896 9.5 10.3907 9.17727 9.84371 8.59156C9.3118 8.02027 8.98695 7.25844 8.92965 6.44703C8.86847 5.58148 9.1325 4.78555 9.67285 4.20547C10.2132 3.62539 10.9687 3.3125 11.8125 3.3125C12.6502 3.3125 13.4079 3.63102 13.9464 4.20969C14.4903 4.79398 14.755 5.58852 14.6939 6.44668C14.6352 7.25914 14.3107 8.02062 13.7798 8.59121C13.2342 9.17727 12.5356 9.5 11.8125 9.5ZM16.4471 15.6875H7.17816C7.02914 15.6883 6.88192 15.6549 6.74783 15.5899C6.61374 15.5248 6.49636 15.4299 6.40473 15.3124C6.30752 15.185 6.24039 15.0372 6.20837 14.8802C6.17634 14.7232 6.18025 14.561 6.2198 14.4057C6.51582 13.2171 7.24918 12.2313 8.34043 11.5552C9.30898 10.9555 10.5419 10.625 11.8125 10.625C13.108 10.625 14.3086 10.9414 15.2827 11.5408C16.3764 12.2134 17.1109 13.2048 17.4055 14.4078C17.4445 14.5632 17.448 14.7254 17.4156 14.8824C17.3832 15.0393 17.3158 15.1869 17.2184 15.3141C17.1269 15.4311 17.0098 15.5256 16.8761 15.5903C16.7424 15.655 16.5956 15.6883 16.4471 15.6875ZM5.16793 9.64062C3.93078 9.64062 2.84305 8.49031 2.74215 7.07668C2.69223 6.35246 2.91793 5.68273 3.37496 5.1916C3.82707 4.70539 4.4648 4.4375 5.16793 4.4375C5.87105 4.4375 6.50387 4.7068 6.95844 5.19582C7.41898 5.69082 7.64398 6.35914 7.59125 7.07738C7.49035 8.49066 6.40297 9.64062 5.16793 9.64062ZM7.47629 10.7463C6.85789 10.4439 6.05527 10.2928 5.16828 10.2928C4.13258 10.2928 3.12676 10.5628 2.33574 11.0529C1.43891 11.6094 0.835624 12.4197 0.591991 13.3981C0.556338 13.5389 0.552965 13.6858 0.582127 13.828C0.611288 13.9703 0.672229 14.104 0.76039 14.2194C0.844043 14.3268 0.951212 14.4135 1.07366 14.473C1.1961 14.5325 1.33055 14.5631 1.46668 14.5625H5.36902C5.43489 14.5625 5.49866 14.5394 5.54922 14.4972C5.59978 14.4549 5.63393 14.3963 5.6457 14.3315C5.64957 14.3094 5.65449 14.2872 5.66012 14.2654C5.95824 13.068 6.6568 12.0562 7.68898 11.3186C7.72695 11.2913 7.75748 11.2549 7.77782 11.2127C7.79816 11.1706 7.80766 11.124 7.80546 11.0773C7.80326 11.0305 7.78943 10.9851 7.76523 10.945C7.74102 10.9049 7.7072 10.8716 7.66683 10.8479C7.61164 10.8155 7.54836 10.7814 7.47629 10.7463Z"
            fill="currentColor" />
    </g>
    <defs>
        <clipPath id="clip0_4061_189113">
            <rect width="18" height="18" fill="white" transform="translate(0 0.5)" />
        </clipPath>
    </defs>
</svg>