<svg width="18" height="19" viewBox="0 0 18 19" fill="none" xmlns="http://www.w3.org/2000/svg">
    <path fill-rule="evenodd" clip-rule="evenodd"
        d="M7.21027 1.72128C8.27135 1.09291 9.57864 1.09291 10.6398 1.72128L14.6352 4.08744C15.6963 4.71582 16.35 5.8771 16.35 7.13383V11.8662C16.35 13.1229 15.6963 14.2842 14.6352 14.9126L10.6398 17.2788C9.57864 17.9071 8.27135 17.9071 7.21027 17.2788L3.21473 14.9126C2.15365 14.2842 1.5 13.1229 1.5 11.8662V7.13383C1.5 5.8771 2.15365 4.71582 3.21473 4.08744L7.21027 1.72128ZM9.75 5.375C9.75 5.83063 9.38065 6.2 8.925 6.2C8.46935 6.2 8.1 5.83063 8.1 5.375C8.1 4.91937 8.46935 4.55 8.925 4.55C9.38065 4.55 9.75 4.91937 9.75 5.375ZM8.1 7.23125C7.75828 7.23125 7.48125 7.50828 7.48125 7.85C7.48125 8.19172 7.75828 8.46875 8.1 8.46875H8.30625V13.625C8.30625 13.9667 8.58328 14.2437 8.925 14.2437C9.26671 14.2437 9.54375 13.9667 9.54375 13.625V7.85C9.54375 7.50828 9.26671 7.23125 8.925 7.23125H8.1Z"
        fill="currentColor" />
</svg>