<svg width="18" height="19" viewBox="0 0 18 19" fill="none" xmlns="http://www.w3.org/2000/svg">
    <path
        d="M5.0625 1.64258H8.29688C8.32951 1.64258 8.36071 1.65564 8.38379 1.67871C8.40686 1.70179 8.41992 1.73299 8.41992 1.76562V6.6875C8.41992 7.13971 8.59918 7.57379 8.91895 7.89355C9.23871 8.21332 9.67279 8.39258 10.125 8.39258H15.0469C15.0795 8.39258 15.1107 8.40564 15.1338 8.42871C15.1569 8.45179 15.1699 8.48299 15.1699 8.51562V15.125C15.1699 15.7171 14.9343 16.2845 14.5156 16.7031C14.097 17.1218 13.5296 17.3574 12.9375 17.3574H5.0625C4.47043 17.3574 3.90304 17.1218 3.48438 16.7031C3.06572 16.2845 2.83008 15.7171 2.83008 15.125V3.875C2.83008 3.28292 3.06571 2.71554 3.48438 2.29688C3.90304 1.87821 4.47043 1.64258 5.0625 1.64258ZM6.1875 12.8574C6.03365 12.8574 5.88613 12.9186 5.77734 13.0273C5.66856 13.1361 5.60742 13.2837 5.60742 13.4375C5.60742 13.5913 5.66856 13.7389 5.77734 13.8477C5.88613 13.9564 6.03365 14.0176 6.1875 14.0176H11.8125C11.9663 14.0176 12.1139 13.9564 12.2227 13.8477C12.3314 13.7389 12.3926 13.5913 12.3926 13.4375C12.3926 13.2837 12.3314 13.1361 12.2227 13.0273C12.1139 12.9186 11.9663 12.8574 11.8125 12.8574H6.1875ZM6.1875 10.0449C6.03365 10.0449 5.88613 10.1061 5.77734 10.2148C5.66856 10.3236 5.60742 10.4712 5.60742 10.625C5.60742 10.7788 5.66856 10.9264 5.77734 11.0352C5.88613 11.1439 6.03365 11.2051 6.1875 11.2051H11.8125C11.9663 11.2051 12.1139 11.1439 12.2227 11.0352C12.3314 10.9264 12.3926 10.7788 12.3926 10.625C12.3926 10.4712 12.3314 10.3236 12.2227 10.2148C12.1139 10.1061 11.9663 10.0449 11.8125 10.0449H6.1875Z"
        fill="currentColor" stroke="currentColor" stroke-width="0.0351562" />
    <path
        d="M9.64258 2.07324C9.65278 2.07526 9.66255 2.08056 9.66992 2.08789L14.7256 7.14355C14.7328 7.15084 14.7382 7.15986 14.7402 7.16992C14.7422 7.17995 14.7411 7.19072 14.7373 7.2002C14.7333 7.2098 14.7264 7.21881 14.7178 7.22461C14.7092 7.23036 14.6988 7.23336 14.6885 7.2334H10.125C9.98048 7.2334 9.84145 7.17543 9.73926 7.07324C9.63736 6.97112 9.58011 6.83275 9.58008 6.68848V2.125C9.58012 2.11466 9.58313 2.1043 9.58887 2.0957C9.59461 2.08715 9.60281 2.08016 9.6123 2.07617C9.62177 2.07226 9.63252 2.07134 9.64258 2.07324Z"
        fill="currentColor" stroke="currentColor" stroke-width="0.0351562" />
</svg>