<svg width="18" height="19" viewBox="0 0 18 19" fill="none" xmlns="http://www.w3.org/2000/svg">
    <g clip-path="url(#clip0_4061_189127)">
        <path
            d="M1.33691 2.20898C1.47021 2.19606 1.60497 2.21587 1.72852 2.26758L16.7422 8.49512L16.748 8.49805C16.9469 8.58352 17.1162 8.72548 17.2354 8.90625C17.3545 9.08709 17.418 9.29909 17.418 9.51562C17.4179 9.73207 17.3544 9.94424 17.2354 10.125C17.1461 10.2603 17.0285 10.3737 16.8916 10.458L16.748 10.5332L16.7412 10.5361L1.72754 16.7275C1.62377 16.7713 1.51204 16.7948 1.39941 16.7949C1.23759 16.7947 1.07914 16.7468 0.944336 16.6572C0.832328 16.5833 0.740356 16.4824 0.676758 16.3643C0.613202 16.2461 0.580035 16.1137 0.580078 15.9795V11.9961C0.580319 11.8039 0.647872 11.6177 0.770508 11.4697C0.893151 11.3218 1.06321 11.2204 1.25195 11.1846L9.44043 9.6709H9.44141C9.47743 9.66397 9.50979 9.64446 9.5332 9.61621C9.55665 9.5879 9.56927 9.55238 9.56934 9.51562C9.56934 9.47878 9.5567 9.44244 9.5332 9.41406C9.50983 9.38598 9.47728 9.36727 9.44141 9.36035H9.44043L1.25195 7.8457C1.06309 7.8098 0.89217 7.70958 0.769531 7.56152C0.64687 7.41341 0.580144 7.22649 0.580078 7.03418V3.05176C0.580238 2.91101 0.61564 2.77223 0.682617 2.64844C0.749568 2.52475 0.846243 2.41988 0.963867 2.34277V2.3418C1.07515 2.26728 1.20362 2.22195 1.33691 2.20898Z"
            fill="currentColor" stroke="currentColor" stroke-width="0.0351562" />
    </g>
    <defs>
        <clipPath id="clip0_4061_189127">
            <rect width="18" height="18" fill="white" transform="translate(0 0.5)" />
        </clipPath>
    </defs>
</svg>