<svg width="18" height="19" viewBox="0 0 18 19" fill="none" xmlns="http://www.w3.org/2000/svg">
    <g clip-path="url(#clip0_4061_214461)">
        <path
            d="M17.3557 6.96794C16.9906 8.08264 15.7996 8.68598 14.6918 8.34573L13.0478 10.5618C13.4011 11.0915 13.5268 11.7648 13.3131 12.4173C12.9458 13.5388 11.7277 14.1559 10.6062 13.7886C9.48468 13.4213 8.86762 12.2031 9.23494 11.0816C9.26165 11.0001 9.30196 10.923 9.34226 10.8459L7.66207 9.17418C7.1883 9.40283 6.63448 9.46228 6.10209 9.29544L4.4581 11.5115C4.81144 12.0412 4.9371 12.7145 4.72339 13.367C4.35608 14.4885 3.13796 15.1056 2.01647 14.7383C0.894977 14.371 0.277921 13.1528 0.645236 12.0313C1.01255 10.9099 2.20137 10.3133 3.30915 10.6536L4.95315 8.43746C4.5998 7.9078 4.47414 7.23446 4.68785 6.58195C5.05516 5.46046 6.27328 4.8434 7.39477 5.21072C8.51627 5.57803 9.13332 6.79615 8.76601 7.91764C8.73929 7.9992 8.69899 8.07632 8.65868 8.15343L10.3389 9.82511C10.8126 9.59645 11.3665 9.53701 11.8989 9.70385L13.5428 7.48776C13.1895 6.9581 13.0638 6.28476 13.2775 5.63225C13.6449 4.51076 14.863 3.8937 15.9845 4.26101C17.106 4.62833 17.723 5.84644 17.3557 6.96794Z"
            fill="currentColor" />
    </g>
    <defs>
        <clipPath id="clip0_4061_214461">
            <rect width="18" height="18" fill="white" transform="translate(0 0.5)" />
        </clipPath>
    </defs>
</svg>