<svg width="18" height="19" viewBox="0 0 18 19" fill="none" xmlns="http://www.w3.org/2000/svg">
    <g clip-path="url(#clip0_4061_214490)">
        <path
            d="M11.25 1.625H6.75C6.45163 1.625 6.16548 1.74353 5.9545 1.9545C5.74353 2.16548 5.625 2.45163 5.625 2.75V17.2344C5.625 17.2717 5.63982 17.3074 5.66619 17.3338C5.69256 17.3602 5.72833 17.375 5.76562 17.375H12.2344C12.2717 17.375 12.3074 17.3602 12.3338 17.3338C12.3602 17.3074 12.375 17.2717 12.375 17.2344V2.75C12.375 2.45163 12.2565 2.16548 12.0455 1.9545C11.8345 1.74353 11.5484 1.625 11.25 1.625ZM16.3125 5.00448H13.7812C13.7067 5.00448 13.6351 5.03411 13.5824 5.08685C13.5296 5.1396 13.5 5.21114 13.5 5.28573V17.0937C13.5 17.1683 13.5296 17.2399 13.5824 17.2926C13.6351 17.3454 13.7067 17.375 13.7812 17.375H16.5937C16.8175 17.375 17.0321 17.2861 17.1904 17.1279C17.3486 16.9696 17.4375 16.755 17.4375 16.5312V6.12948C17.4375 5.83111 17.319 5.54496 17.108 5.33398C16.897 5.12301 16.6109 5.00448 16.3125 5.00448ZM1.6875 5C1.38913 5 1.10298 5.11853 0.892005 5.3295C0.681026 5.54048 0.5625 5.82663 0.5625 6.125V16.5312C0.5625 16.755 0.651395 16.9696 0.809629 17.1279C0.967862 17.2861 1.18247 17.375 1.40625 17.375H4.21875C4.29334 17.375 4.36488 17.3454 4.41762 17.2926C4.47037 17.2399 4.5 17.1683 4.5 17.0937V5.28125C4.5 5.20666 4.47037 5.13512 4.41762 5.08238C4.36488 5.02963 4.29334 5 4.21875 5H1.6875Z"
            fill="currentColor" />
    </g>
    <defs>
        <clipPath id="clip0_4061_214490">
            <rect width="18" height="18" fill="white" transform="translate(0 0.5)" />
        </clipPath>
    </defs>
</svg>