<svg width="18" height="19" viewBox="0 0 18 19" fill="none" xmlns="http://www.w3.org/2000/svg">
    <path
        d="M11.9952 12.5723C12.1576 12.5721 12.3183 12.6106 12.4629 12.6846C12.6074 12.7585 12.7322 12.8655 12.8272 12.9971C12.9223 13.1288 12.9853 13.2818 13.0098 13.4424C13.0343 13.6029 13.0201 13.7669 12.9688 13.9209L12.2852 15.9717C12.2171 16.1759 12.0868 16.3537 11.9122 16.4795C11.7373 16.6054 11.527 16.6731 11.3116 16.6729H6.669C6.45356 16.6732 6.2433 16.6053 6.06841 16.4795C5.89359 16.3537 5.76252 16.176 5.69439 15.9717L5.01079 13.9209C4.95951 13.7669 4.94626 13.6029 4.97075 13.4424C4.99533 13.2818 5.05732 13.1288 5.15239 12.9971C5.24752 12.8653 5.37288 12.7575 5.51763 12.6836C5.6623 12.6098 5.82298 12.5721 5.9854 12.5723H11.9952ZM13.8555 7.44629C14.018 7.44617 14.1786 7.48464 14.3233 7.55859C14.4678 7.63248 14.5926 7.73954 14.6875 7.87109C14.7826 8.00286 14.8456 8.15579 14.8702 8.31641C14.8947 8.47688 14.8804 8.6409 14.8292 8.79492L14.1456 10.8457C14.0775 11.0499 13.9472 11.2277 13.7725 11.3535C13.5977 11.4794 13.3873 11.5471 13.1719 11.5469H4.81255C4.59713 11.5472 4.38682 11.4793 4.21196 11.3535C4.03717 11.2277 3.90603 11.05 3.83794 10.8457L3.15532 8.79492C3.10403 8.64087 3.0898 8.47691 3.11431 8.31641C3.1389 8.15575 3.2018 8.00287 3.29692 7.87109C3.39194 7.73954 3.5167 7.63247 3.66118 7.55859C3.80591 7.48469 3.96645 7.4461 4.12896 7.44629H13.8555ZM15.4747 2.32031C15.6236 2.32023 15.7711 2.35245 15.9063 2.41504C16.0414 2.47762 16.1616 2.56903 16.2579 2.68262C16.354 2.79622 16.4235 2.92977 16.4629 3.07324C16.5024 3.21666 16.5108 3.36696 16.4864 3.51367L15.8233 5.56445C15.7842 5.8039 15.6616 6.02178 15.4766 6.17871C15.2914 6.33568 15.0554 6.42163 14.8125 6.4209H3.18755C2.94474 6.42163 2.70874 6.33568 2.52349 6.17871C2.33842 6.02176 2.21493 5.80395 2.17583 5.56445L1.51372 3.51367C1.48932 3.36695 1.49766 3.21665 1.53716 3.07324C1.57671 2.92971 1.64698 2.79622 1.74321 2.68262C1.83938 2.56917 1.95888 2.4776 2.0938 2.41504C2.22891 2.35243 2.37653 2.32029 2.52544 2.32031H15.4747Z"
        fill="currentColor" />
</svg>