<svg width="18" height="19" viewBox="0 0 18 19" fill="none" xmlns="http://www.w3.org/2000/svg">
    <g clip-path="url(#clip0_4061_214474)">
        <path
            d="M4.5 10.625C5.39512 10.625 6.25385 10.9803 6.88672 11.6133C7.51967 12.2462 7.875 13.1049 7.875 14C7.875 14.6674 7.67743 15.32 7.30664 15.875C6.93586 16.4299 6.40851 16.8627 5.79199 17.1182C5.17538 17.3736 4.49636 17.4407 3.8418 17.3105C3.18712 17.1803 2.58528 16.8587 2.11328 16.3867C1.64129 15.9148 1.31967 15.3129 1.18945 14.6582C1.05931 14.0035 1.12644 13.3246 1.38184 12.708C1.6373 12.0915 2.0701 11.5641 2.625 11.1934C3.17995 10.8226 3.83257 10.625 4.5 10.625ZM13.5 10.625C14.3951 10.625 15.2539 10.9803 15.8867 11.6133C16.5197 12.2462 16.875 13.1049 16.875 14C16.875 14.6674 16.6774 15.32 16.3066 15.875C15.9358 16.4299 15.4086 16.8627 14.792 17.1182C14.1754 17.3736 13.4964 17.4407 12.8418 17.3105C12.1871 17.1803 11.5852 16.8587 11.1133 16.3867C10.6413 15.9148 10.3197 15.3129 10.1895 14.6582C10.0593 14.0036 10.1264 13.3246 10.3818 12.708C10.6054 12.1685 10.9647 11.6975 11.4229 11.3398L11.625 11.1934C12.1799 10.8226 12.8326 10.625 13.5 10.625ZM12.208 1.88184C12.8246 1.62644 13.5035 1.55931 14.1582 1.68945C14.8129 1.81967 15.4148 2.14129 15.8867 2.61328C16.3587 3.08528 16.6803 3.68712 16.8105 4.3418C16.9407 4.99637 16.8736 5.67538 16.6182 6.29199C16.3627 6.90851 15.9299 7.43586 15.375 7.80664C14.82 8.17743 14.1674 8.375 13.5 8.375C12.6049 8.375 11.7462 8.01967 11.1133 7.38672C10.4803 6.75385 10.125 5.89512 10.125 5C10.125 4.33257 10.3226 3.67995 10.6934 3.125C11.0641 2.5701 11.5915 2.1373 12.208 1.88184ZM4.5 1.625C5.39512 1.625 6.25385 1.98036 6.88672 2.61328C7.51966 3.24622 7.875 4.1049 7.875 5C7.875 5.66741 7.67743 6.32001 7.30664 6.875C6.93586 7.42989 6.40851 7.86273 5.79199 8.11816C5.17538 8.37356 4.49637 8.44074 3.8418 8.31055C3.18712 8.18034 2.58528 7.85874 2.11328 7.38672C1.64129 6.91477 1.31967 6.31288 1.18945 5.6582C1.05931 5.00354 1.12644 4.3246 1.38184 3.70801C1.6373 3.09145 2.07009 2.56414 2.625 2.19336C3.17997 1.82261 3.83259 1.625 4.5 1.625Z"
            fill="currentColor" stroke="currentColor" stroke-width="0.75" />
    </g>
    <defs>
        <clipPath id="clip0_4061_214474">
            <rect width="18" height="18" fill="white" transform="translate(0 0.5)" />
        </clipPath>
    </defs>
</svg>