<svg width="16" height="19" viewBox="0 0 16 19" fill="none" xmlns="http://www.w3.org/2000/svg">
    <path
        d="M14.3771 11.1019V7.89807C15.1545 7.67746 15.7258 6.96169 15.7258 6.11455C15.7258 5.09219 14.894 4.26048 13.8717 4.26048C13.3701 4.26048 12.9148 4.46098 12.5807 4.78563L9.80554 3.18343C9.84229 3.03799 9.86204 2.88584 9.86204 2.72914C9.86204 1.70677 9.0303 0.875 8.00793 0.875C6.98557 0.875 6.15383 1.70677 6.15383 2.72911C6.15383 2.8858 6.17357 3.03795 6.21033 3.1834L3.4352 4.78559C3.10108 4.46094 2.64571 4.26045 2.14414 4.26045C1.12178 4.26045 0.290039 5.09219 0.290039 6.11452C0.290039 6.96169 0.861344 7.67743 1.63877 7.89804V11.1019C0.861344 11.3225 0.290039 12.0383 0.290039 12.8854C0.290039 13.9078 1.12178 14.7395 2.14414 14.7395C2.64571 14.7395 3.10108 14.539 3.43517 14.2143L6.21029 15.8165C6.17354 15.962 6.15379 16.1141 6.15379 16.2708C6.15383 17.2933 6.98557 18.125 8.00793 18.125C9.0303 18.125 9.86204 17.2932 9.86204 16.2709C9.86204 16.1142 9.84229 15.962 9.80554 15.8166L12.5807 14.2144C12.9148 14.5391 13.3701 14.7396 13.8717 14.7396C14.8941 14.7396 15.7258 13.9078 15.7258 12.8855C15.7258 12.0383 15.1545 11.3225 14.3771 11.1019ZM8.5133 14.4874V13.174C8.34717 13.1965 8.17844 13.2082 8.00793 13.2082C7.83742 13.2082 7.66869 13.1965 7.50256 13.174V14.4874C7.20308 14.5724 6.93429 14.7307 6.71688 14.942L3.94175 13.3398C3.97851 13.1943 3.99825 13.0422 3.99825 12.8855C3.99825 12.7288 3.97851 12.5766 3.94175 12.4312L5.0787 11.7747C4.8689 11.5057 4.69917 11.2117 4.57222 10.9001L3.4352 11.5565C3.21779 11.3453 2.94903 11.1869 2.64955 11.1019V7.89807C2.94903 7.81307 3.21782 7.65475 3.4352 7.44348L4.57222 8.09992C4.69917 7.78831 4.8689 7.49428 5.0787 7.22526L3.94178 6.56885C3.97857 6.4234 3.99828 6.27125 3.99828 6.11452C3.99828 5.95782 3.97854 5.80567 3.94178 5.66022L6.71691 4.05803C6.93432 4.26927 7.20308 4.42762 7.50259 4.51263V5.82599C7.66873 5.80348 7.83745 5.79179 8.00797 5.79179C8.17848 5.79179 8.3472 5.80348 8.51334 5.82599V4.51263C8.81282 4.42762 9.08161 4.26927 9.29902 4.05803L12.0741 5.66022C12.0374 5.80567 12.0176 5.95782 12.0176 6.11452C12.0176 6.27122 12.0374 6.4234 12.0741 6.56885L10.9372 7.22526C11.147 7.49428 11.3167 7.78834 11.4437 8.09992L12.5807 7.44348C12.7981 7.65472 13.0669 7.81307 13.3663 7.89807V11.1019C13.0669 11.1869 12.7981 11.3452 12.5807 11.5565L11.4437 10.9001C11.3167 11.2117 11.147 11.5057 10.9372 11.7747L12.0741 12.4312C12.0373 12.5766 12.0176 12.7287 12.0176 12.8855C12.0176 13.0422 12.0373 13.1943 12.0741 13.3398L9.29899 14.942C9.08158 14.7307 8.81279 14.5723 8.5133 14.4874Z"
        fill="currentColor" />
    <path
        d="M8.00753 12.1996C9.4973 12.1996 10.705 10.9919 10.705 9.50216C10.705 8.01239 9.4973 6.80469 8.00753 6.80469C6.51776 6.80469 5.31006 8.01239 5.31006 9.50216C5.31006 10.9919 6.51776 12.1996 8.00753 12.1996Z"
        fill="currentColor" />
</svg>