<svg width="16" height="16" viewBox="0 0 16 16" fill="none" xmlns="http://www.w3.org/2000/svg">
    <path
        d="M9.33464 7.33594H5.33464M6.66797 10.0026H5.33464M10.668 4.66927H5.33464M13.3346 4.53594V11.4693C13.3346 12.5894 13.3346 13.1494 13.1166 13.5773C12.9249 13.9536 12.6189 14.2595 12.2426 14.4513C11.8148 14.6693 11.2547 14.6693 10.1346 14.6693H5.86797C4.74786 14.6693 4.18781 14.6693 3.75999 14.4513C3.38366 14.2595 3.0777 13.9536 2.88596 13.5773C2.66797 13.1494 2.66797 12.5894 2.66797 11.4693V4.53594C2.66797 3.41583 2.66797 2.85578 2.88596 2.42796C3.0777 2.05163 3.38366 1.74567 3.75999 1.55392C4.18781 1.33594 4.74786 1.33594 5.86797 1.33594H10.1346C11.2547 1.33594 11.8148 1.33594 12.2426 1.55392C12.6189 1.74567 12.9249 2.05163 13.1166 2.42796C13.3346 2.85578 13.3346 3.41583 13.3346 4.53594Z"
        stroke="currentColor" stroke-width="1.16667" stroke-linecap="round" stroke-linejoin="round" />
</svg>