<svg width="16" height="16" viewBox="0 0 16 16" fill="none" xmlns="http://www.w3.org/2000/svg">
    <path
        d="M13.3346 4.66927V4.53594C13.3346 3.41583 13.3346 2.85578 13.1166 2.42796C12.9249 2.05163 12.6189 1.74567 12.2426 1.55392C11.8148 1.33594 11.2547 1.33594 10.1346 1.33594H5.86797C4.74786 1.33594 4.18781 1.33594 3.75999 1.55392C3.38366 1.74567 3.0777 2.05163 2.88596 2.42796C2.66797 2.85578 2.66797 3.41583 2.66797 4.53594V11.4693C2.66797 12.5894 2.66797 13.1494 2.88596 13.5773C3.0777 13.9536 3.38366 14.2595 3.75999 14.4513C4.18781 14.6693 4.74786 14.6693 5.86797 14.6693H8.33464M7.66797 8.0026H5.33464M10.668 4.66927H5.33464M12.0013 12.0026V8.33594C12.0013 7.78365 12.449 7.33594 13.0013 7.33594C13.5536 7.33594 14.0013 7.78365 14.0013 8.33594V12.0026C14.0013 13.1072 13.1059 14.0026 12.0013 14.0026C10.8967 14.0026 10.0013 13.1072 10.0013 12.0026V9.33594"
        stroke="currentColor" stroke-width="1.16667" stroke-linecap="round" stroke-linejoin="round" />
</svg>