<svg  viewBox="0 0 14 14" fill="currentColor" xmlns="http://www.w3.org/2000/svg">
    <path
        d="M12.5589 3.77912C11.9851 2.79608 11.2068 2.01773 10.2237 1.44395C9.24045 0.870193 8.16709 0.583374 7.00281 0.583374C5.83865 0.583374 4.76497 0.870193 3.78189 1.44395C2.79876 2.01765 2.02042 2.79599 1.4466 3.77912C0.872757 4.76232 0.585938 5.83599 0.585938 7.00007C0.585938 8.1642 0.872845 9.23771 1.44651 10.221C2.0203 11.204 2.79864 11.9823 3.78177 12.5562C4.76497 13.1299 5.83856 13.4168 7.00269 13.4168C8.16683 13.4168 9.24053 13.1299 10.2237 12.5562C11.2067 11.9826 11.9851 11.204 12.5588 10.221C13.1325 9.23779 13.4193 8.16415 13.4193 7.00007C13.4193 5.83588 13.1325 4.76217 12.5589 3.77912ZM10.938 9.28096C10.5314 9.97719 9.97995 10.5286 9.28373 10.9354C8.5875 11.342 7.82721 11.5451 7.00272 11.5451C6.17843 11.5451 5.41809 11.342 4.72177 10.9354C4.02555 10.5286 3.47415 9.97719 3.06755 9.28096C2.66086 8.58473 2.45759 7.82442 2.45759 7.00007C2.45759 6.17567 2.66095 5.41535 3.06755 4.71912C3.47406 4.0229 4.0256 3.47138 4.72177 3.06481C5.418 2.65818 6.17832 2.45494 7.00272 2.45494C7.82718 2.45494 8.5875 2.65818 9.28373 3.06481C9.97995 3.47141 10.5314 4.0229 10.938 4.71912C11.3446 5.41535 11.5478 6.17567 11.5478 7.00007C11.5478 7.82442 11.3446 8.58473 10.938 9.28096Z"
        fill="currentColor" />
    <path
        d="M7.00218 4.86121C6.41171 4.86121 5.90767 5.07012 5.48986 5.48778C5.0722 5.90559 4.86328 6.40964 4.86328 7.0001C4.86328 7.59051 5.07208 8.09465 5.48986 8.51228C5.90767 8.93009 6.4118 9.139 7.00218 9.139C7.5927 9.139 8.09684 8.93009 8.51444 8.51228C8.93216 8.09465 9.14108 7.59051 9.14108 7.0001C9.14108 6.40964 8.93216 5.90559 8.51444 5.48778C8.09684 5.07009 7.5927 4.86121 7.00218 4.86121Z"
        fill="currentColor" />
</svg>