<svg  viewBox="0 0 38 37" fill="none" xmlns="http://www.w3.org/2000/svg">
    <path
        d="M17.625 2.61778C18.0668 1.72281 18.2876 1.27533 18.5875 1.13236C18.8484 1.00796 19.1515 1.00796 19.4124 1.13236C19.7123 1.27533 19.9331 1.72281 20.3749 2.61778L24.566 11.1085C24.6965 11.3728 24.7617 11.5049 24.857 11.6074C24.9413 11.6983 25.0425 11.7718 25.1549 11.8241C25.2819 11.8831 25.4277 11.9045 25.7192 11.9471L35.0942 13.3174C36.0814 13.4617 36.575 13.5338 36.8034 13.7749C37.0022 13.9847 37.0956 14.273 37.0578 14.5595C37.0143 14.8888 36.657 15.2368 35.9422 15.933L29.161 22.5379C28.9496 22.7438 28.8439 22.8467 28.7757 22.9692C28.7154 23.0777 28.6766 23.1968 28.6617 23.3201C28.6448 23.4592 28.6697 23.6047 28.7196 23.8955L30.3197 33.2246C30.4884 34.2086 30.5728 34.7006 30.4142 34.9925C30.2763 35.2466 30.031 35.4247 29.7468 35.4774C29.4201 35.538 28.9783 35.3056 28.0947 34.841L19.7136 30.4334C19.4525 30.2961 19.3219 30.2274 19.1844 30.2005C19.0626 30.1766 18.9373 30.1766 18.8155 30.2005C18.678 30.2274 18.5474 30.2961 18.2863 30.4334L9.90519 34.841C9.02159 35.3056 8.57979 35.538 8.25311 35.4774C7.96889 35.4247 7.72364 35.2466 7.58567 34.9925C7.42709 34.7006 7.51147 34.2086 7.68023 33.2246L9.28028 23.8955C9.33017 23.6047 9.35511 23.4592 9.33823 23.3201C9.32329 23.1968 9.28455 23.0777 9.22416 22.9692C9.15596 22.8467 9.05027 22.7438 8.83887 22.5379L2.05766 15.933C1.34294 15.2368 0.98558 14.8888 0.942094 14.5595C0.904259 14.273 0.99773 13.9847 1.19648 13.7749C1.42492 13.5338 1.91853 13.4617 2.90575 13.3174L12.2807 11.9471C12.5722 11.9045 12.718 11.8831 12.845 11.8241C12.9574 11.7718 13.0586 11.6983 13.1429 11.6074C13.2382 11.5049 13.3034 11.3728 13.4339 11.1085L17.625 2.61778Z"
        fill="currentColor" stroke="currentColor" stroke-width="1.75" stroke-linecap="round"
        stroke-linejoin="round" />
</svg>