<svg width="18" height="18" viewBox="0 0 18 18" fill="none" xmlns="http://www.w3.org/2000/svg">
    <path
        d="M12.2137 6.21863V9.6683C12.2137 10.9145 13.2475 11.9646 14.4936 11.9646C15.7398 11.9646 16.75 10.9145 16.75 9.6683L16.7496 9.07459C16.7895 4.91544 13.4437 1.52819 9.30019 1.50098H9.19967C5.05613 1.52819 1.71031 4.91544 1.75023 9.07459C1.78985 13.2028 5.12508 16.5029 9.2535 16.501C10.2815 16.5005 11.3217 16.3314 12.2137 15.9566"
        stroke="currentColor" stroke-width="1.31" stroke-linecap="round" stroke-linejoin="round" />
    <path
        d="M6.34668 9.00105C6.34668 7.39761 7.64649 6.0978 9.24993 6.0978C10.8534 6.0978 12.1532 7.39761 12.1532 9.00105C12.1532 10.6045 10.8534 11.9043 9.24993 11.9043C7.64649 11.9043 6.34668 10.6045 6.34668 9.00105Z"
        stroke="currentColor" stroke-width="1.31" stroke-linecap="round" stroke-linejoin="round" />
</svg>