<svg width="18" height="18" viewBox="0 0 18 18" fill="none" xmlns="http://www.w3.org/2000/svg">
    <path
        d="M7.42812 6.47006V12.1323C7.43467 12.5463 7.60384 12.9412 7.89913 13.2317C8.19442 13.5221 8.59215 13.685 9.0065 13.685C9.42084 13.685 9.81858 13.5221 10.1139 13.2317C10.4092 12.9412 10.5783 12.5463 10.5849 12.1323L10.59 4.71059C10.5943 4.3567 10.5283 4.00548 10.3957 3.67728C10.2632 3.34909 10.0668 3.05045 9.8179 2.79868C9.56901 2.54691 9.2726 2.34702 8.94584 2.21059C8.61907 2.07416 8.26847 2.00391 7.91434 2.00391C7.56021 2.00391 7.2096 2.07416 6.88284 2.21059C6.55607 2.34702 6.25966 2.54691 6.01078 2.79868C5.76189 3.05045 5.56549 3.34909 5.43295 3.67728C5.30041 4.00548 5.23438 4.3567 5.23868 4.71059V12.1822C5.23146 12.6805 5.32342 13.1752 5.50921 13.6375C5.69499 14.0999 5.9709 14.5208 6.32089 14.8757C6.67087 15.2305 7.08796 15.5123 7.54789 15.7047C8.00782 15.897 8.50142 15.9961 9 15.9961C9.49858 15.9961 9.99218 15.897 10.4521 15.7047C10.912 15.5123 11.3291 15.2305 11.6791 14.8757C12.0291 14.5208 12.305 14.0999 12.4908 13.6375C12.6766 13.1752 12.7685 12.6805 12.7613 12.1822V5.20025"
        stroke="currentColor" stroke-width="1.31" stroke-linecap="round" stroke-linejoin="round" />
</svg>