<svg width="32" height="32" viewBox="0 0 32 32" fill="none" xmlns="http://www.w3.org/2000/svg">
<g clip-path="url(#clip0_5069_28460)">
<rect width="32" height="32" rx="16" fill="white"/>
<rect x="-9.33337" y="-10.667" width="54.6667" height="54.6667" fill="url(#paint0_radial_5069_28460)"/>
<circle cx="15.9988" cy="16.1221" r="10.25" stroke="#004049" stroke-width="1.5"/>
<path d="M23.2459 8.87652C24.2516 9.88222 24.5632 11.5804 24.0214 13.6875C23.4844 15.7757 22.1336 18.1205 20.0639 20.1902C17.9942 22.2599 15.6494 23.6107 13.5612 24.1477C11.4541 24.6895 9.75593 24.3779 8.75023 23.3722C7.74453 22.3665 7.43296 20.6683 7.97476 18.5613C8.51172 16.4731 9.86251 14.1282 11.9322 12.0585C14.0019 9.98881 16.3468 8.63802 18.435 8.10105C20.542 7.55925 22.2402 7.87083 23.2459 8.87652Z" stroke="#004049" stroke-width="1.5"/>
<path d="M8.75079 8.87457C9.75649 7.86887 11.4547 7.5573 13.5617 8.0991C15.6499 8.63606 17.9948 9.98685 20.0645 12.0565C22.1342 14.1262 23.485 16.4711 24.022 18.5593C24.5638 20.6663 24.2522 22.3646 23.2465 23.3703C22.2408 24.376 20.5426 24.6875 18.4355 24.1457C16.3473 23.6088 14.0025 22.258 11.9328 20.1883C9.86307 18.1186 8.51228 15.7737 7.97532 13.6855C7.43352 11.5785 7.74509 9.88026 8.75079 8.87457Z" stroke="#004049" stroke-width="1.5"/>
</g>
<rect x="0.5" y="0.5" width="31" height="31" rx="15.5" stroke="#E2E6E4"/>
<defs>
<radialGradient id="paint0_radial_5069_28460" cx="0" cy="0" r="1" gradientUnits="userSpaceOnUse" gradientTransform="translate(18 43.9997) rotate(-90) scale(74.5422 74.5422)">
<stop offset="0.24355" stop-color="white"/>
<stop offset="0.53" stop-color="#F3FEE7"/>
<stop offset="1" stop-color="#CEFFA3"/>
</radialGradient>
<clipPath id="clip0_5069_28460">
<rect width="32" height="32" rx="16" fill="white"/>
</clipPath>
</defs>
</svg>
