<svg width="18" height="18" viewBox="0 0 18 18" fill="none" xmlns="http://www.w3.org/2000/svg">
<path d="M15.75 11.625C15.75 13.9032 13.9032 15.75 11.625 15.75C9.34683 15.75 7.5 13.9032 7.5 11.625C7.5 9.34683 9.34683 7.5 11.625 7.5C13.9032 7.5 15.75 9.34683 15.75 11.625Z" stroke="#181B1A" stroke-width="1.31" stroke-linecap="round" stroke-linejoin="round"/>
<path d="M11.625 10.0078L11.625 11.6247L12.75 12.7497" stroke="#181B1A" stroke-width="1.31" stroke-linecap="round" stroke-linejoin="round"/>
<path d="M12.75 2.25V3.75" stroke="#181B1A" stroke-width="1.31" stroke-linecap="round" stroke-linejoin="round"/>
<path d="M5.25 2.25V3.75" stroke="#181B1A" stroke-width="1.31" stroke-linecap="round" stroke-linejoin="round"/>
<path d="M6.02298 15.75C5.56913 15.75 4.88834 15.75 3.98062 15.75C3.37885 15.75 3.16063 15.6914 2.94063 15.5813C2.72063 15.4712 2.54797 15.3096 2.43031 15.1038C2.31266 14.8979 2.25 14.6938 2.25 14.1307V5.3693C2.25 4.80623 2.31266 4.60205 2.43031 4.3962C2.54797 4.19035 2.72063 4.0288 2.94063 3.91872C3.16063 3.80863 3.37885 3.75 3.98062 3.75H14.0194C14.6212 3.75 14.8394 3.80863 15.0594 3.91872C15.2794 4.0288 15.452 4.19035 15.5697 4.3962C15.6873 4.60205 15.75 5.43504 15.75 5.9981" stroke="#181B1A" stroke-width="1.31" stroke-linecap="round" stroke-linejoin="round"/>
</svg>
