<svg width="18" height="18" viewBox="0 0 18 18" fill="none" xmlns="http://www.w3.org/2000/svg">
<g clip-path="url(#clip0_6007_62412)">
<path d="M9 1.5C11.25 3 11.9421 6.21902 12 9C11.9421 11.781 11.25 15 9 16.5M9 1.5C6.75 3 6.05794 6.21903 6 9C6.05794 11.781 6.75 15 9 16.5M9 1.5C4.85786 1.5 1.5 4.85786 1.5 9M9 1.5C13.1421 1.5 16.5 4.85786 16.5 9M9 16.5C13.1421 16.5 16.5 13.1421 16.5 9M9 16.5C4.85787 16.5 1.5 13.1421 1.5 9M16.5 9C15 11.25 11.781 11.9421 9 12C6.21903 11.9421 3 11.25 1.5 9M16.5 9C15 6.75 11.781 6.05794 9 6C6.21903 6.05794 3 6.75 1.5 9" stroke="#181B1A" stroke-width="1.31" stroke-linecap="round" stroke-linejoin="round"/>
</g>
<defs>
<clipPath id="clip0_6007_62412">
<rect width="18" height="18" fill="white"/>
</clipPath>
</defs>
</svg>
