<svg width="15" height="14" viewBox="0 0 15 14" fill="currentColor" xmlns="http://www.w3.org/2000/svg">
    <path
        d="M9.5 0H5.5C5.23478 0 4.98043 0.105357 4.79289 0.292893C4.60536 0.48043 4.5 0.734784 4.5 1V13.875C4.5 13.9082 4.51317 13.9399 4.53661 13.9634C4.56005 13.9868 4.59185 14 4.625 14H10.375C10.4082 14 10.4399 13.9868 10.4634 13.9634C10.4868 13.9399 10.5 13.9082 10.5 13.875V1C10.5 0.734784 10.3946 0.48043 10.2071 0.292893C10.0196 0.105357 9.76522 0 9.5 0ZM14 3.00398H11.75C11.6837 3.00398 11.6201 3.03032 11.5732 3.0772C11.5263 3.12409 11.5 3.18768 11.5 3.25398V13.75C11.5 13.8163 11.5263 13.8799 11.5732 13.9268C11.6201 13.9737 11.6837 14 11.75 14H14.25C14.4489 14 14.6397 13.921 14.7803 13.7803C14.921 13.6397 15 13.4489 15 13.25V4.00398C15 3.73877 14.8946 3.48441 14.7071 3.29688C14.5196 3.10934 14.2652 3.00398 14 3.00398ZM1 3C0.734784 3 0.48043 3.10536 0.292893 3.29289C0.105357 3.48043 0 3.73478 0 4V13.25C0 13.4489 0.0790177 13.6397 0.21967 13.7803C0.360322 13.921 0.551088 14 0.75 14H3.25C3.3163 14 3.37989 13.9737 3.42678 13.9268C3.47366 13.8799 3.5 13.8163 3.5 13.75V3.25C3.5 3.1837 3.47366 3.12011 3.42678 3.07322C3.37989 3.02634 3.3163 3 3.25 3H1Z"
        fill="currentColor" />
</svg>