<svg width="14" height="12" viewBox="0 0 14 12" fill="currentColor" xmlns="http://www.w3.org/2000/svg">
    <path
        d="M1 2.50006H8.08594C8.1894 2.79241 8.38092 3.0455 8.63416 3.22451C8.88739 3.40352 9.18989 3.49963 9.5 3.49963C9.81011 3.49963 10.1126 3.40352 10.3658 3.22451C10.6191 3.0455 10.8106 2.79241 10.9141 2.50006H13C13.1326 2.50006 13.2598 2.44738 13.3536 2.35361C13.4473 2.25985 13.5 2.13267 13.5 2.00006C13.5 1.86745 13.4473 1.74028 13.3536 1.64651C13.2598 1.55274 13.1326 1.50006 13 1.50006H10.9141C10.8106 1.20771 10.6191 0.954619 10.3658 0.775613C10.1126 0.596606 9.81011 0.500488 9.5 0.500488C9.18989 0.500488 8.88739 0.596606 8.63416 0.775613C8.38092 0.954619 8.1894 1.20771 8.08594 1.50006H1C0.867392 1.50006 0.740215 1.55274 0.646447 1.64651C0.552678 1.74028 0.5 1.86745 0.5 2.00006C0.5 2.13267 0.552678 2.25985 0.646447 2.35361C0.740215 2.44738 0.867392 2.50006 1 2.50006ZM13 9.50006H10.9141C10.8106 9.20771 10.6191 8.95462 10.3658 8.77561C10.1126 8.59661 9.81011 8.50049 9.5 8.50049C9.18989 8.50049 8.88739 8.59661 8.63416 8.77561C8.38092 8.95462 8.1894 9.20771 8.08594 9.50006H1C0.867392 9.50006 0.740215 9.55274 0.646447 9.64651C0.552678 9.74028 0.5 9.86745 0.5 10.0001C0.5 10.1327 0.552678 10.2598 0.646447 10.3536C0.740215 10.4474 0.867392 10.5001 1 10.5001H8.08594C8.1894 10.7924 8.38092 11.0455 8.63416 11.2245C8.88739 11.4035 9.18989 11.4996 9.5 11.4996C9.81011 11.4996 10.1126 11.4035 10.3658 11.2245C10.6191 11.0455 10.8106 10.7924 10.9141 10.5001H13C13.1326 10.5001 13.2598 10.4474 13.3536 10.3536C13.4473 10.2598 13.5 10.1327 13.5 10.0001C13.5 9.86745 13.4473 9.74028 13.3536 9.64651C13.2598 9.55274 13.1326 9.50006 13 9.50006ZM13 5.50006H5.91406C5.8106 5.20771 5.61907 4.95462 5.36584 4.77561C5.11261 4.59661 4.81011 4.50049 4.5 4.50049C4.18989 4.50049 3.88739 4.59661 3.63416 4.77561C3.38093 4.95462 3.1894 5.20771 3.08594 5.50006H1C0.867392 5.50006 0.740215 5.55274 0.646447 5.64651C0.552678 5.74028 0.5 5.86745 0.5 6.00006C0.5 6.13267 0.552678 6.25985 0.646447 6.35361C0.740215 6.44738 0.867392 6.50006 1 6.50006H3.08594C3.1894 6.79241 3.38093 7.0455 3.63416 7.22451C3.88739 7.40352 4.18989 7.49963 4.5 7.49963C4.81011 7.49963 5.11261 7.40352 5.36584 7.22451C5.61907 7.0455 5.8106 6.79241 5.91406 6.50006H13C13.1326 6.50006 13.2598 6.44738 13.3536 6.35361C13.4473 6.25985 13.5 6.13267 13.5 6.00006C13.5 5.86745 13.4473 5.74028 13.3536 5.64651C13.2598 5.55274 13.1326 5.50006 13 5.50006Z"
        fill="currentColor" />
</svg>