<svg width="13" height="14" viewBox="0 0 13 14" fill="currentColor" xmlns="http://www.w3.org/2000/svg">
    <path
        d="M12.2781 3.25932C12.297 3.24831 12.3127 3.23255 12.3235 3.2136C12.3344 3.19466 12.3401 3.17319 12.3401 3.15135C12.3401 3.1295 12.3344 3.10804 12.3235 3.08909C12.3127 3.07015 12.297 3.05439 12.2781 3.04338L7.505 0.270253C7.19959 0.0932278 6.85285 0 6.49985 0C6.14684 0 5.8001 0.0932278 5.49469 0.270253L0.722503 3.04338C0.703633 3.05439 0.687978 3.07015 0.677098 3.08909C0.666218 3.10804 0.660493 3.1295 0.660493 3.15135C0.660493 3.17319 0.666218 3.19466 0.677098 3.2136C0.687978 3.23255 0.703633 3.24831 0.722503 3.25932L6.4375 6.62119C6.45673 6.63251 6.47863 6.63848 6.50094 6.63848C6.52325 6.63848 6.54515 6.63251 6.56438 6.62119L12.2781 3.25932ZM0.187503 4.10963C0.168441 4.09862 0.146811 4.09284 0.1248 4.09288C0.102789 4.09292 0.081177 4.09876 0.0621505 4.10983C0.043124 4.1209 0.0273572 4.13679 0.0164445 4.15591C0.00553166 4.17502 -0.00014015 4.19668 2.63059e-06 4.21869V9.65275C0.000474413 9.91462 0.069493 10.1718 0.200194 10.3987C0.330895 10.6256 0.518725 10.8144 0.745003 10.9462L5.8125 13.9846C5.8315 13.9956 5.85304 14.0014 5.87497 14.0014C5.8969 14.0014 5.91845 13.9956 5.93745 13.9847C5.95645 13.9737 5.97223 13.9579 5.98321 13.939C5.99419 13.92 5.99998 13.8984 6 13.8765V7.57182C5.99998 7.5499 5.99419 7.52837 5.98322 7.50939C5.97225 7.49041 5.95649 7.47465 5.9375 7.46369L0.187503 4.10963ZM7 7.59369V13.8749C7.00003 13.8969 7.00582 13.9184 7.0168 13.9374C7.02778 13.9564 7.04356 13.9721 7.06256 13.9831C7.08156 13.9941 7.1031 13.9998 7.12504 13.9998C7.14697 13.9998 7.16851 13.994 7.1875 13.9831L12.2547 10.9446C12.4808 10.813 12.6685 10.6245 12.7993 10.3979C12.93 10.1713 12.9992 9.91439 13 9.65275V4.21869C12.9999 4.19679 12.9941 4.17529 12.9831 4.15635C12.9721 4.1374 12.9563 4.12169 12.9373 4.11077C12.9183 4.09985 12.8968 4.09411 12.8749 4.09413C12.853 4.09415 12.8315 4.09993 12.8125 4.11088L7.0625 7.48588C7.04357 7.49681 7.02783 7.51252 7.01686 7.53144C7.00589 7.55036 7.00008 7.57182 7 7.59369Z"
        fill="currentColor" />
</svg>