<svg width="16" height="16" viewBox="0 0 16 16" fill="none" xmlns="http://www.w3.org/2000/svg">
<path d="M1.66504 13.834H9.99902C10.2289 13.8342 10.4149 14.0201 10.415 14.25C10.415 14.48 10.229 14.6668 9.99902 14.667H1.66504C1.43507 14.6668 1.24902 14.48 1.24902 14.25C1.2492 14.0201 1.43518 13.8342 1.66504 13.834ZM1.66504 9.66699H14.999C15.229 9.66717 15.415 9.85397 15.415 10.084C15.4149 10.3138 15.2289 10.4998 14.999 10.5H1.66504C1.43518 10.4998 1.2492 10.3138 1.24902 10.084C1.24902 9.85397 1.43507 9.66717 1.66504 9.66699ZM1.66504 5.5H9.99902C10.229 5.50018 10.415 5.68698 10.415 5.91699C10.415 6.147 10.229 6.33381 9.99902 6.33398H1.66504C1.43507 6.33381 1.24902 6.147 1.24902 5.91699C1.24902 5.68698 1.43507 5.50018 1.66504 5.5ZM1.66504 1.33398H14.999C15.2289 1.33416 15.4149 1.52014 15.415 1.75C15.415 1.98001 15.229 2.16682 14.999 2.16699H1.66504C1.43507 2.16682 1.24902 1.98001 1.24902 1.75C1.2492 1.52014 1.43518 1.33416 1.66504 1.33398Z" fill="#5E6B66" stroke="#5E6B66" stroke-width="0.833333"/>
</svg>
