<svg width="16" height="16" viewBox="0 0 16 16" fill="none" xmlns="http://www.w3.org/2000/svg">
<path d="M0.501953 14.6667C0.501953 14.2064 0.875049 13.8333 1.33529 13.8333H14.6686C15.1289 13.8333 15.502 14.2064 15.502 14.6667C15.502 15.1269 15.1289 15.5 14.6686 15.5H1.33529C0.87505 15.5 0.501953 15.1269 0.501953 14.6667Z" fill="#5E6B66"/>
<path d="M10.9153 9.66667H5.08862L3.96482 12.4762C3.83827 12.7925 3.53185 13 3.19111 13C2.60157 13 2.19845 12.4046 2.4174 11.8572L6.95908 1.02384C7.08564 0.707459 7.39206 0.5 7.73281 0.5H8.27109C8.61185 0.5 8.91827 0.707459 9.04482 1.02384L13.5865 11.8572C13.8055 12.4046 13.4023 13 12.8128 13C12.4721 13 12.1656 12.7925 12.0391 12.4762L10.9153 9.66667ZM10.2486 8L8.00195 2.90417L5.75529 8H10.2486Z" fill="#5E6B66"/>
</svg>
