<svg  viewBox="0 0 28 28" fill="none" xmlns="http://www.w3.org/2000/svg">
    <path
        d="M11.2778 1.75H3.11111C2.75012 1.75 2.40392 1.89341 2.14866 2.14866C1.89341 2.40392 1.75 2.75012 1.75 3.11111V11.2778C1.75 11.6387 1.89341 11.985 2.14866 12.2402C2.40392 12.4954 2.75012 12.6389 3.11111 12.6389H11.2778C11.6387 12.6389 11.985 12.4954 12.2402 12.2402C12.4954 11.985 12.6389 11.6387 12.6389 11.2778V3.11111C12.6389 2.75012 12.4954 2.40392 12.2402 2.14866C11.985 1.89341 11.6387 1.75 11.2778 1.75ZM24.8889 1.75H16.7222C16.3613 1.75 16.015 1.89341 15.7598 2.14866C15.5046 2.40392 15.3611 2.75012 15.3611 3.11111V11.2778C15.3611 11.6387 15.5046 11.985 15.7598 12.2402C16.015 12.4954 16.3613 12.6389 16.7222 12.6389H24.8889C25.2499 12.6389 25.5961 12.4954 25.8513 12.2402C26.1065 11.985 26.25 11.6387 26.25 11.2778V3.11111C26.25 2.75012 26.1065 2.40392 25.8513 2.14866C25.5961 1.89341 25.2499 1.75 24.8889 1.75ZM11.2778 15.3611H3.11111C2.75012 15.3611 2.40392 15.5046 2.14866 15.7598C1.89341 16.015 1.75 16.3613 1.75 16.7222V24.8889C1.75 25.2499 1.89341 25.5961 2.14866 25.8513C2.40392 26.1065 2.75012 26.25 3.11111 26.25H11.2778C11.6387 26.25 11.985 26.1065 12.2402 25.8513C12.4954 25.5961 12.6389 25.2499 12.6389 24.8889V16.7222C12.6389 16.3613 12.4954 16.015 12.2402 15.7598C11.985 15.5046 11.6387 15.3611 11.2778 15.3611ZM22.1667 16.7222H19.4444V19.4444H16.7222V22.1667H19.4444V24.8889H22.1667V22.1667H24.8889V19.4444H22.1667V16.7222Z"
        fill="currentColor" />
</svg>