<svg width="14" height="14" viewBox="0 0 14 14" fill="none" xmlns="http://www.w3.org/2000/svg">
<path d="M8.45842 9.43034V10.6456C8.45842 10.9679 8.33038 11.277 8.10247 11.5049C7.87456 11.7329 7.56545 11.8609 7.24314 11.8609H2.38203C2.05971 11.8609 1.7506 11.7329 1.52269 11.5049C1.29479 11.277 1.16675 10.9679 1.16675 10.6456V3.35395C1.16675 3.03164 1.29479 2.72253 1.52269 2.49462C1.7506 2.26671 2.05971 2.13867 2.38203 2.13867H7.00008C7.67122 2.13867 8.45842 2.68281 8.45842 3.35395V4.56923M10.4029 9.43034L12.8334 6.99978L10.4029 4.56923M4.56953 6.99978H12.3473" stroke="#181B1A" stroke-width="1.02083" stroke-linecap="round" stroke-linejoin="round"/>
</svg>
