<svg  viewBox="0 0 24 20" fill="none" xmlns="http://www.w3.org/2000/svg">
    <path
        d="M1.78223 0.278809C1.91547 0.26585 2.04954 0.278146 2.17773 0.313965L2.30469 0.35791L22.3232 8.66162V8.66064L22.3311 8.66455C22.5962 8.77856 22.8227 8.96744 22.9814 9.2085C23.1403 9.4496 23.2246 9.73229 23.2246 10.021C23.2246 10.3097 23.1403 10.5924 22.9814 10.8335C22.8425 11.0444 22.6518 11.2157 22.4287 11.3315L22.3311 11.3774H22.3301L22.3223 11.3813L2.30371 19.6382C2.16539 19.6965 2.01633 19.7259 1.86621 19.7261L1.70508 19.7144C1.5992 19.6985 1.49627 19.6672 1.39941 19.6216L1.25977 19.5425C1.11042 19.4439 0.987141 19.3104 0.902344 19.1528C0.817541 18.9952 0.773316 18.8182 0.773438 18.6392V13.3276L0.777344 13.2319C0.797033 13.0102 0.884267 12.799 1.02734 12.6265C1.17042 12.4539 1.36189 12.3294 1.57617 12.269L1.66992 12.2476L12.5879 10.228C12.6361 10.2189 12.6796 10.1935 12.7109 10.1558C12.7423 10.1179 12.7598 10.0701 12.7598 10.021C12.7598 9.97187 12.7423 9.92407 12.7109 9.88623C12.6954 9.86749 12.6769 9.85159 12.6562 9.83936L12.5879 9.81396L1.66895 7.79443C1.41726 7.74649 1.18981 7.61285 1.02637 7.41553C0.862902 7.21815 0.773615 6.96965 0.773438 6.71338V1.40283L0.782227 1.26221C0.799717 1.1235 0.843244 0.988419 0.910156 0.864746C0.977161 0.741037 1.06619 0.631038 1.17285 0.540527L1.28516 0.456543C1.43356 0.357134 1.60444 0.296101 1.78223 0.278809Z"
        fill="currentColor" stroke="currentColor" stroke-width="0.046875" />
</svg>