<svg width="22" height="24" viewBox="0 0 22 24" fill="currentColor" xmlns="http://www.w3.org/2000/svg">
    <path
        d="M7.29101 10.299V19.1306C7.29101 19.5233 7.04338 19.8726 6.67378 20.0019C6.15079 20.1858 5.5197 20.2828 4.84795 20.2828C2.91586 20.2828 0.837787 19.49 0.837787 17.7492V6.44868C0.794359 5.67252 1.06509 4.3013 2.36516 3.55933C2.96853 3.21467 6.13693 1.17725 7.72806 0.147915C8.01173 -0.0359613 8.37394 -0.0488973 8.67147 0.111879C8.96899 0.274503 9.1538 0.585891 9.1538 0.924076V2.26203C9.1538 2.77208 8.73984 3.18603 8.22979 3.18603C7.83247 3.18603 7.49337 2.93563 7.36308 2.58266C5.92534 3.50666 3.80753 4.86309 3.28177 5.16339C2.80868 5.43412 2.70612 5.93124 2.68579 6.20105C2.68579 6.50412 2.75139 6.74251 2.86966 6.87279C3.19768 7.23038 4.29078 7.0077 5.48366 6.2916C6.62942 5.60414 12.2806 1.84161 12.337 1.80372C12.6225 1.6143 12.9866 1.59675 13.285 1.75845C13.5862 1.91922 13.7738 2.23246 13.7738 2.57342V2.67875C13.7738 2.98737 13.6195 3.27566 13.3635 3.44752C13.3635 3.44752 9.44023 6.06614 9.09281 6.28883C7.76317 7.14445 7.29101 8.19412 7.29101 10.299ZM21.1658 5.83976V17.8351C21.1658 18.1521 21.0023 18.4478 20.7334 18.6168C20.7334 18.6168 15.3464 22.8007 14.2534 23.4651C13.6786 23.8153 12.9468 24.0001 12.1383 24.0001C10.2173 24.0001 8.22979 22.9606 8.22979 21.2225V10.0273V9.7566C8.22979 9.7529 8.23257 9.74921 8.23257 9.74459C8.25105 9.06822 8.40905 8.10264 9.66661 7.17494C10.4206 6.61869 14.9112 3.55655 15.1016 3.42719C15.3853 3.235 15.7521 3.21467 16.0533 3.3736C16.3564 3.53345 16.5458 3.84761 16.5458 4.19042V5.52837C16.5458 6.03842 16.1328 6.45237 15.6218 6.45237C15.2402 6.45237 14.9122 6.22137 14.7717 5.89058C13.3386 6.87095 11.2346 8.31516 10.7634 8.66166C10.1683 9.10148 10.0889 9.39162 10.0787 9.76399C10.0806 10.0403 10.1554 10.2509 10.3069 10.3895C10.7782 10.8211 12.0468 10.6399 13.2979 9.88966C14.2238 9.33341 18.2136 6.25279 19.6717 5.11257C19.9517 4.89636 20.3287 4.85662 20.6465 5.01093C20.9644 5.16524 21.1658 5.48587 21.1658 5.83976ZM19.3178 9.95711L14.6978 13.5413V15.3893L19.3178 11.8051V9.95711Z"
        fill="currentColor" />
</svg>