<svg width="10" height="14" viewBox="0 0 10 14" fill="none" xmlns="http://www.w3.org/2000/svg">
<path d="M0.543945 0.75H5.41895C6.07137 0.750094 6.70931 0.941508 7.25391 1.30078C7.79861 1.66013 8.22561 2.17158 8.48242 2.77148C8.7392 3.37136 8.81518 4.03364 8.69922 4.67578C8.58321 5.31783 8.28042 5.91167 7.83008 6.38379L7.46484 6.7666L7.92285 7.03223C8.42849 7.32502 8.84889 7.7457 9.14062 8.25195C9.43217 8.75805 9.58512 9.33195 9.58496 9.91602C9.58496 10.3538 9.49955 10.788 9.33203 11.1924C9.16455 11.5967 8.91878 11.964 8.60938 12.2734C8.29985 12.583 7.93176 12.8286 7.52734 12.9961C7.12299 13.1635 6.6896 13.25 6.25195 13.25H0.543945C0.475019 13.25 0.419122 13.1939 0.418945 13.125V0.875C0.418945 0.805965 0.474909 0.75 0.543945 0.75ZM1.25195 12.416H6.25195C6.91484 12.416 7.55072 12.1532 8.01953 11.6846C8.48837 11.2157 8.75195 10.5791 8.75195 9.91602C8.75187 9.25309 8.4883 8.6172 8.01953 8.14844C7.55071 7.6797 6.91492 7.41602 6.25195 7.41602H1.25195V12.416ZM1.25195 6.58301H5.41895C6.08187 6.58292 6.71776 6.31935 7.18652 5.85059C7.65526 5.38176 7.91895 4.74597 7.91895 4.08301C7.91895 3.42004 7.65526 2.78426 7.18652 2.31543C6.71776 1.84667 6.08187 1.58309 5.41895 1.58301H1.25195V6.58301Z" fill="#5E6B66" stroke="#5E6B66" stroke-width="0.833333"/>
</svg>
