<svg width="14" height="14" viewBox="0 0 14 14" fill="none" xmlns="http://www.w3.org/2000/svg">
<path d="M5.30258 5.25033C5.43973 4.86047 5.71042 4.53172 6.06672 4.32232C6.42302 4.11292 6.84194 4.03637 7.24927 4.10624C7.6566 4.17611 8.02606 4.38788 8.29221 4.70405C8.55836 5.02022 8.70403 5.42038 8.70342 5.83366C8.70342 7.00033 6.95342 7.58366 6.95342 7.58366M7.00008 9.91699H7.00592M12.8334 7.00033C12.8334 10.222 10.2217 12.8337 7.00008 12.8337C3.77842 12.8337 1.16675 10.222 1.16675 7.00033C1.16675 3.77866 3.77842 1.16699 7.00008 1.16699C10.2217 1.16699 12.8334 3.77866 12.8334 7.00033Z" stroke="#181B1A" stroke-width="1.02083" stroke-linecap="round" stroke-linejoin="round"/>
</svg>
