<svg width="15" height="14" viewBox="0 0 15 14" fill="none" xmlns="http://www.w3.org/2000/svg">
<path d="M6.07813 6.5625H2.35938C2.0983 6.5625 1.84792 6.45879 1.66332 6.27418C1.47871 6.08958 1.375 5.8392 1.375 5.57813V1.85938C1.375 1.5983 1.47871 1.34792 1.66332 1.16332C1.84792 0.978711 2.0983 0.875 2.35938 0.875H6.07813C6.3392 0.875 6.58958 0.978711 6.77418 1.16332C6.95879 1.34792 7.0625 1.5983 7.0625 1.85938V5.57813C7.0625 5.8392 6.95879 6.08958 6.77418 6.27418C6.58958 6.45879 6.3392 6.5625 6.07813 6.5625ZM12.6406 6.5625H8.92188C8.6608 6.5625 8.41042 6.45879 8.22582 6.27418C8.04121 6.08958 7.9375 5.8392 7.9375 5.57813V1.85938C7.9375 1.5983 8.04121 1.34792 8.22582 1.16332C8.41042 0.978711 8.6608 0.875 8.92188 0.875H12.6406C12.9017 0.875 13.1521 0.978711 13.3367 1.16332C13.5213 1.34792 13.625 1.5983 13.625 1.85938V5.57813C13.625 5.8392 13.5213 6.08958 13.3367 6.27418C13.1521 6.45879 12.9017 6.5625 12.6406 6.5625ZM6.07813 13.125H2.35938C2.0983 13.125 1.84792 13.0213 1.66332 12.8367C1.47871 12.6521 1.375 12.4017 1.375 12.1406V8.42188C1.375 8.1608 1.47871 7.91042 1.66332 7.72582C1.84792 7.54121 2.0983 7.4375 2.35938 7.4375H6.07813C6.3392 7.4375 6.58958 7.54121 6.77418 7.72582C6.95879 7.91042 7.0625 8.1608 7.0625 8.42188V12.1406C7.0625 12.4017 6.95879 12.6521 6.77418 12.8367C6.58958 13.0213 6.3392 13.125 6.07813 13.125ZM12.6406 13.125H8.92188C8.6608 13.125 8.41042 13.0213 8.22582 12.8367C8.04121 12.6521 7.9375 12.4017 7.9375 12.1406V8.42188C7.9375 8.1608 8.04121 7.91042 8.22582 7.72582C8.41042 7.54121 8.6608 7.4375 8.92188 7.4375H12.6406C12.9017 7.4375 13.1521 7.54121 13.3367 7.72582C13.5213 7.91042 13.625 8.1608 13.625 8.42188V12.1406C13.625 12.4017 13.5213 12.6521 13.3367 12.8367C13.1521 13.0213 12.9017 13.125 12.6406 13.125Z" fill="currentColor"/>
</svg>
