<svg width="15" height="15" viewBox="0 0 15 15" fill="none" xmlns="http://www.w3.org/2000/svg">
    <g clip-path="url(#clip0_3384_133431)">
        <path
            d="M7.2501 3.3C8.0233 3.3 8.6501 2.6732 8.6501 1.9C8.6501 1.1268 8.0233 0.5 7.2501 0.5C6.4769 0.5 5.8501 1.1268 5.8501 1.9C5.8501 2.6732 6.4769 3.3 7.2501 3.3Z"
            fill="currentColor" />
        <path
            d="M4.28047 2.55078C4.82734 3.09766 4.82734 3.98359 4.28047 4.53047C3.73359 5.07734 2.84766 5.07734 2.30078 4.53047C1.75391 3.98359 1.75391 3.09766 2.30078 2.55078C2.84766 2.00391 3.73359 2.00391 4.28047 2.55078Z"
            fill="currentColor" />
        <path
            d="M1.65 6.09961C2.42383 6.09961 3.05 6.72578 3.05 7.49961C3.05 8.27344 2.42383 8.89961 1.65 8.89961C0.876172 8.89961 0.25 8.27344 0.25 7.49961C0.25 6.72578 0.876172 6.09961 1.65 6.09961Z"
            fill="currentColor" />
        <path
            d="M2.30078 10.4697C2.84766 9.92285 3.73359 9.92285 4.28047 10.4697C4.82734 11.0166 4.82734 11.9025 4.28047 12.4494C3.73359 12.9963 2.84766 12.9963 2.30078 12.4494C1.75391 11.9025 1.75391 11.0166 2.30078 10.4697Z"
            fill="currentColor" />
        <path
            d="M5.8501 13.1002C5.8501 12.3264 6.47627 11.7002 7.2501 11.7002C8.02393 11.7002 8.6501 12.3264 8.6501 13.1002C8.6501 13.874 8.02393 14.5002 7.2501 14.5002C6.47627 14.5002 5.8501 13.874 5.8501 13.1002Z"
            fill="currentColor" />
        <path
            d="M10.2195 12.4494C9.67261 11.9025 9.67261 11.0166 10.2195 10.4697C10.7664 9.92285 11.6523 9.92285 12.1992 10.4697C12.746 11.0166 12.746 11.9025 12.1992 12.4494C11.6523 12.9963 10.7664 12.9963 10.2195 12.4494Z"
            fill="currentColor" />
        <path
            d="M12.85 8.89961C12.0761 8.89961 11.45 8.27344 11.45 7.49961C11.45 6.72578 12.0761 6.09961 12.85 6.09961C13.6238 6.09961 14.25 6.72578 14.25 7.49961C14.25 8.27344 13.6238 8.89961 12.85 8.89961Z"
            fill="currentColor" />
        <path
            d="M12.1992 4.53047C11.6523 5.07734 10.7664 5.07734 10.2195 4.53047C9.67261 3.98359 9.67261 3.09766 10.2195 2.55078C10.7664 2.00391 11.6523 2.00391 12.1992 2.55078C12.746 3.09766 12.746 3.98359 12.1992 4.53047Z"
            fill="currentColor" />
    </g>
    <defs>
        <clipPath id="clip0_3384_133431">
            <rect width="14" height="14" fill="currentColor" transform="translate(0.25 0.5)" />
        </clipPath>
    </defs>
</svg>