<svg width="16" height="16" viewBox="0 0 16 16" fill="none" xmlns="http://www.w3.org/2000/svg">
<path d="M12.4987 10.8777C13.5906 11.4262 14.5268 12.3065 15.2101 13.4072C15.3454 13.6252 15.4131 13.7342 15.4365 13.8851C15.484 14.1918 15.2743 14.5689 14.9886 14.6903C14.848 14.75 14.6899 14.75 14.3737 14.75M10.9987 7.64918C12.1099 7.09692 12.8737 5.95015 12.8737 4.625C12.8737 3.29985 12.1099 2.15308 10.9987 1.60082M9.49866 4.625C9.49866 6.48896 7.98762 8 6.12366 8C4.2597 8 2.74866 6.48896 2.74866 4.625C2.74866 2.76104 4.2597 1.25 6.12366 1.25C7.98762 1.25 9.49866 2.76104 9.49866 4.625ZM0.91808 13.2038C2.11381 11.4084 4.00069 10.25 6.12366 10.25C8.24663 10.25 10.1335 11.4084 11.3292 13.2038C11.5912 13.5971 11.7222 13.7937 11.7071 14.0449C11.6953 14.2405 11.5671 14.48 11.4108 14.5982C11.2101 14.75 10.934 14.75 10.3819 14.75H1.86542C1.31329 14.75 1.03722 14.75 0.836486 14.5982C0.680193 14.48 0.551973 14.2405 0.540232 14.0449C0.525153 13.7937 0.656129 13.5971 0.91808 13.2038Z" stroke="#5E6B66" stroke-width="1.095" stroke-linecap="round" stroke-linejoin="round"/>
</svg>
