<svg width="18" height="11" viewBox="0 0 18 11" fill="none" xmlns="http://www.w3.org/2000/svg">
<path d="M11.8447 0.443359H12.6748L12.9014 0.450195C14.0276 0.515082 15.0934 0.994146 15.8916 1.79883C16.743 2.65727 17.2207 3.81729 17.2207 5.02637C17.2207 6.23545 16.743 7.39547 15.8916 8.25391C15.0401 9.11235 13.8839 9.59953 12.6748 9.60938H11.8447C11.6149 9.6092 11.4289 9.42313 11.4287 9.19336C11.4287 8.96342 11.6148 8.77654 11.8447 8.77637H12.6787C13.171 8.77631 13.6585 8.67957 14.1133 8.49121C14.5683 8.30275 14.9818 8.02596 15.3301 7.67773C15.6781 7.32968 15.9542 6.9166 16.1426 6.46191C16.331 6.00693 16.4287 5.51884 16.4287 5.02637C16.4287 4.5339 16.331 4.0458 16.1426 3.59082C15.9542 3.13613 15.6781 2.72305 15.3301 2.375C14.9819 2.02677 14.5683 1.74998 14.1133 1.56152C13.6585 1.37316 13.171 1.27643 12.6787 1.27637H11.8447C11.6148 1.27619 11.4287 1.08932 11.4287 0.859375C11.4289 0.629603 11.6149 0.443535 11.8447 0.443359ZM6.00781 0.443359H6.84473C7.07461 0.443412 7.26054 0.629526 7.26074 0.859375C7.26074 1.08939 7.07473 1.27631 6.84473 1.27637H6.01172C5.51925 1.27637 5.03115 1.37306 4.57617 1.56152C4.12121 1.74998 3.70759 2.02679 3.35938 2.375C3.01141 2.72305 2.73527 3.13615 2.54688 3.59082C2.35842 4.0458 2.26172 4.5339 2.26172 5.02637C2.26172 5.51884 2.35842 6.00693 2.54688 6.46191C2.73527 6.91658 3.01141 7.32968 3.35938 7.67773C3.70759 8.02595 4.12121 8.30275 4.57617 8.49121C5.03115 8.67967 5.51925 8.77637 6.01172 8.77637H6.84473C7.07473 8.77642 7.26074 8.96334 7.26074 9.19336C7.26054 9.42321 7.07461 9.60932 6.84473 9.60938H6.00781C5.40287 9.61427 4.8025 9.49957 4.24219 9.27148C3.68195 9.04337 3.17263 8.70626 2.74316 8.28027C2.31367 7.85426 1.9729 7.34747 1.74023 6.78906C1.50756 6.23056 1.3877 5.6314 1.3877 5.02637C1.3877 4.42133 1.50756 3.82218 1.74023 3.26367C1.9729 2.70527 2.31367 2.19848 2.74316 1.77246C3.17263 1.34648 3.68195 1.00937 4.24219 0.78125C4.8025 0.553159 5.40287 0.438461 6.00781 0.443359ZM6.01172 4.60938H12.6777C12.9081 4.60939 13.0947 4.79602 13.0947 5.02637C13.0947 5.2567 12.9081 5.44334 12.6777 5.44336H6.01172C5.78173 5.44319 5.59487 5.25637 5.59473 5.02637C5.59465 4.79619 5.78158 4.60955 6.01172 4.60938Z" fill="#5E6B66" stroke="#5E6B66" stroke-width="0.833333"/>
</svg>
