<svg width="16" height="15" viewBox="0 0 16 15" fill="none" xmlns="http://www.w3.org/2000/svg">
<path fill-rule="evenodd" clip-rule="evenodd" d="M3.10626 1.04145C3.35194 1.19329 3.50148 1.46151 3.50148 1.75033L3.5013 5.50033C3.5013 5.96056 3.12821 6.33366 2.66797 6.33366C2.20773 6.33366 1.83464 5.96056 1.83464 5.50033L1.83482 3.09869L1.37416 3.32902C0.962514 3.53484 0.461953 3.36799 0.256129 2.95634C0.0503043 2.54469 0.217158 2.04413 0.628807 1.8383L2.29547 1.00497C2.5538 0.875809 2.86058 0.889612 3.10626 1.04145ZM7.66817 3.00033C7.20793 3.00033 6.83484 3.37342 6.83484 3.83366C6.83484 4.2939 7.20793 4.66699 7.66817 4.66699H14.3348C14.7951 4.66699 15.1682 4.2939 15.1682 3.83366C15.1682 3.37342 14.7951 3.00033 14.3348 3.00033H7.66817ZM7.66797 10.917C7.20773 10.917 6.83464 11.2901 6.83464 11.7503C6.83464 12.2106 7.20773 12.5837 7.66797 12.5837H14.3346C14.7949 12.5837 15.168 12.2106 15.168 11.7503C15.168 11.2901 14.7949 10.917 14.3346 10.917H7.66797Z" fill="#5E6B66"/>
<path d="M1.71739 10.7444L1.71645 10.7452L1.71536 10.746L1.71371 10.7472L1.71288 10.7479C1.34831 11.0242 0.828486 10.9549 0.549115 10.5918C0.268504 10.227 0.336748 9.70375 0.701543 9.42314L0.750063 9.38739C0.77483 9.36972 0.808169 9.34666 0.84907 9.32005C0.93026 9.26722 1.04453 9.19825 1.18349 9.12915C1.44836 8.99744 1.86541 8.83366 2.34382 8.83366C3.44331 8.83366 4.33464 9.72498 4.33464 10.8245C4.33464 11.4623 3.96092 11.952 3.6263 12.3157C3.37127 12.5929 3.06336 12.8187 2.79297 13.0003H3.70964C4.16987 13.0003 4.54297 13.3734 4.54297 13.8337C4.54297 14.2939 4.16987 14.667 3.70964 14.667H1.0013C0.541065 14.667 0.167969 14.2939 0.167969 13.8337C0.167969 13.2051 0.512518 12.7512 0.834635 12.444C1.10756 12.1837 1.43527 11.9592 1.70695 11.7827L1.79531 11.7252C2.11588 11.5156 2.34311 11.355 2.49741 11.1873C2.63154 11.0415 2.66797 10.9365 2.66797 10.8245C2.66797 10.6455 2.52284 10.5003 2.34382 10.5003C2.2297 10.5003 2.07966 10.5449 1.92558 10.6215C1.85505 10.6566 1.79688 10.6918 1.75799 10.7171C1.73885 10.7295 1.72456 10.7393 1.71739 10.7444Z" fill="#5E6B66"/>
</svg>
