<svg  viewBox="0 0 15 15" fill="none" xmlns="http://www.w3.org/2000/svg">
    <path
        d="M4.375 5.3125H7.5M4.375 7.5H9.375M1.875 8.75V4.875C1.875 3.8249 1.875 3.29985 2.07936 2.89877C2.25913 2.54596 2.54596 2.25913 2.89877 2.07936C3.29985 1.875 3.8249 1.875 4.875 1.875H10.125C11.1751 1.875 11.7001 1.875 12.1012 2.07936C12.454 2.25913 12.7409 2.54596 12.9206 2.89877C13.125 3.29985 13.125 3.8249 13.125 4.875V8.25C13.125 9.3001 13.125 9.82515 12.9206 10.2262C12.7409 10.579 12.454 10.8659 12.1012 11.0456C11.7001 11.25 11.1751 11.25 10.125 11.25H8.55234C8.16231 11.25 7.96729 11.25 7.78076 11.2883C7.61527 11.3222 7.45512 11.3784 7.30468 11.4553C7.13511 11.5419 6.98282 11.6637 6.67826 11.9074L5.18735 13.1001C4.92729 13.3082 4.79727 13.4122 4.68784 13.4123C4.59267 13.4124 4.50264 13.3691 4.44327 13.2948C4.375 13.2092 4.375 13.0427 4.375 12.7097V12.3649C4.375 11.7491 3.85946 11.3455 3.26471 11.1861V11.1861C2.61767 11.0127 2.11226 10.5073 1.93889 9.86029C1.875 9.62185 1.875 9.33123 1.875 8.75Z"
        stroke="currentColor" stroke-width="1.09375" stroke-linecap="round" stroke-linejoin="round" />
</svg>