<svg width="14" height="17" viewBox="0 0 14 17" fill="none" xmlns="http://www.w3.org/2000/svg">
<path d="M9.25003 13.75C9.25003 14.9926 8.24268 16 7.00003 16C5.75739 16 4.75003 14.9926 4.75003 13.75M8.34741 4.17892C8.67403 3.84148 8.87503 3.38171 8.87503 2.875C8.87503 1.83947 8.03557 1 7.00003 1C5.9645 1 5.12503 1.83947 5.12503 2.875C5.12503 3.38171 5.32604 3.84148 5.65266 4.17892M11.5 7.9C11.5 6.86566 11.0259 5.87368 10.182 5.14228C9.3381 4.41089 8.19351 4 7.00003 4C5.80656 4 4.66197 4.41089 3.81805 5.14228C2.97414 5.87368 2.50003 6.86566 2.50003 7.9C2.50003 9.61135 2.07563 10.8629 1.54608 11.7585C0.942538 12.7792 0.640766 13.2896 0.652683 13.4115C0.666317 13.551 0.691422 13.595 0.80454 13.6777C0.903413 13.75 1.40017 13.75 2.39368 13.75H11.6064C12.5999 13.75 13.0967 13.75 13.1955 13.6777C13.3086 13.595 13.3338 13.551 13.3474 13.4115C13.3593 13.2896 13.0575 12.7792 12.454 11.7585C11.9244 10.8629 11.5 9.61135 11.5 7.9Z" stroke="#5E6B66" stroke-width="1.095" stroke-linecap="round" stroke-linejoin="round"/>
</svg>
