<svg width="15" height="15" viewBox="0 0 15 15" fill="currentColor" xmlns="http://www.w3.org/2000/svg">
    <g clip-path="url(#clip0_3384_133449)">
        <path
            d="M1.91167 4.28583C1.64917 4.09917 1.585 3.7375 1.77167 3.475C2.23833 2.81583 2.81 2.24417 3.46917 1.7775C3.73167 1.59083 4.09917 1.655 4.28 1.9175C4.46667 2.18 4.4025 2.5475 4.14 2.72833C3.59167 3.11917 3.11333 3.59167 2.7225 4.14583C2.61167 4.30917 2.43083 4.39083 2.24417 4.39083C2.1275 4.39083 2.01083 4.35583 1.90583 4.28583H1.91167ZM2.72833 10.8542C2.54167 10.5917 2.18 10.5275 1.9175 10.7142C1.655 10.9008 1.59083 11.2625 1.7775 11.525C2.24417 12.1842 2.81583 12.7558 3.475 13.2225C3.57417 13.2925 3.69667 13.3275 3.81333 13.3275C3.99417 13.3275 4.175 13.24 4.29167 13.0825C4.47833 12.82 4.41417 12.4525 4.15167 12.2717C3.5975 11.8808 3.125 11.4083 2.73417 10.8542H2.72833ZM1.66667 7.5C1.66667 7.14417 1.69583 6.78833 1.76 6.44417C1.81833 6.12917 1.60833 5.82583 1.29333 5.7675C0.978333 5.70917 0.675 5.91917 0.616667 6.23417C0.540833 6.64833 0.5 7.07417 0.5 7.5C0.5 7.92583 0.540833 8.35167 0.616667 8.76583C0.669167 9.04583 0.914167 9.24417 1.18833 9.24417C1.22333 9.24417 1.25833 9.24417 1.29333 9.2325C1.60833 9.17417 1.81833 8.87083 1.76 8.55583C1.69583 8.21167 1.66667 7.85583 1.66667 7.5ZM12.2717 10.8542C11.8808 11.4083 11.4083 11.8808 10.8542 12.2717C10.5917 12.4583 10.5275 12.82 10.7142 13.0825C10.825 13.2458 11.0058 13.3275 11.1925 13.3275C11.3092 13.3275 11.4258 13.2925 11.5308 13.2225C12.19 12.7558 12.7617 12.1842 13.2283 11.525C13.415 11.2625 13.3508 10.895 13.0883 10.7142C12.8258 10.5275 12.4583 10.5917 12.2775 10.8542H12.2717ZM8.55583 13.24C8.21167 13.3042 7.85583 13.3333 7.5 13.3333C7.14417 13.3333 6.78833 13.3042 6.44417 13.24C6.12917 13.1817 5.82583 13.3917 5.7675 13.7067C5.70917 14.0217 5.91917 14.325 6.23417 14.3833C6.64833 14.4592 7.07417 14.5 7.5 14.5C7.92583 14.5 8.35167 14.4592 8.76583 14.3833C9.08083 14.325 9.29083 14.0217 9.2325 13.7067C9.17417 13.3917 8.87083 13.1758 8.55583 13.24ZM8.76583 0.616667C8.35167 0.540833 7.92583 0.5 7.5 0.5C7.07417 0.5 6.64833 0.540833 6.23417 0.616667C5.91917 0.675 5.70917 0.978333 5.7675 1.29333C5.82 1.57333 6.065 1.77167 6.33917 1.77167C6.37417 1.77167 6.40917 1.77167 6.44417 1.76C6.78833 1.69583 7.14417 1.66667 7.5 1.66667C7.85583 1.66667 8.21167 1.69583 8.55583 1.76C8.59083 1.76583 8.62583 1.77167 8.66083 1.77167C8.935 1.77167 9.18 1.57333 9.2325 1.29333C9.29083 0.978333 9.08083 0.675 8.76583 0.616667ZM12.2717 4.14583C12.3825 4.30917 12.5633 4.39083 12.75 4.39083C12.8667 4.39083 12.9833 4.35583 13.0883 4.28583C13.3508 4.09917 13.415 3.7375 13.2283 3.475C12.7617 2.81583 12.19 2.24417 11.5308 1.7775C11.2683 1.59083 10.9008 1.655 10.72 1.9175C10.5333 2.18 10.5975 2.5475 10.86 2.72833C11.4142 3.11917 11.8867 3.59167 12.2775 4.14583H12.2717ZM14.3833 6.23417C14.325 5.91917 14.0217 5.70333 13.7067 5.7675C13.3917 5.82583 13.1817 6.12917 13.24 6.44417C13.3042 6.78833 13.3333 7.14417 13.3333 7.5C13.3333 7.85583 13.3042 8.21167 13.24 8.55583C13.1817 8.87083 13.3917 9.17417 13.7067 9.2325C13.7417 9.23833 13.7767 9.24417 13.8117 9.24417C14.0858 9.24417 14.3308 9.04583 14.3833 8.76583C14.4592 8.35167 14.5 7.92583 14.5 7.5C14.5 7.07417 14.4592 6.64833 14.3833 6.23417Z"
            fill="currentColor" />
    </g>
    <defs>
        <clipPath id="clip0_3384_133449">
            <rect width="14" height="14" fill="currentColor" transform="translate(0.5 0.5)" />
        </clipPath>
    </defs>
</svg>