<svg width="16" height="17" viewBox="0 0 16 17" fill="none" xmlns="http://www.w3.org/2000/svg">
<path d="M10.751 0.823242C10.7512 0.71741 10.8747 0.659742 10.9561 0.727539L14.5684 3.7373C14.6281 3.78722 14.628 3.87969 14.5684 3.92969L10.9561 6.93945C10.8746 7.0073 10.751 6.94973 10.751 6.84375V4.25H7.00098C5.56446 4.25 4.1867 4.82119 3.1709 5.83691C2.15508 6.85274 1.58398 8.2304 1.58398 9.66699C1.58398 11.1036 2.15508 12.4812 3.1709 13.4971C4.1867 14.5128 5.56446 15.084 7.00098 15.084H9.50098C9.73084 15.0842 9.91682 15.2701 9.91699 15.5C9.91699 15.73 9.73095 15.9168 9.50098 15.917H7.00098C5.34337 15.917 3.75316 15.258 2.58105 14.0859C1.40916 12.9139 0.750977 11.3244 0.750977 9.66699C0.750977 8.00954 1.40916 6.42012 2.58105 5.24805C3.75316 4.07594 5.34337 3.41699 7.00098 3.41699H10.751V0.823242Z" fill="#5E6B66" stroke="#5E6B66" stroke-width="0.833333"/>
</svg>
