<svg width="14" height="13" viewBox="0 0 14 13" fill="none" xmlns="http://www.w3.org/2000/svg">
    <path
        d="M6.41658 2.99967C6.41658 3.57653 6.24555 4.14044 5.92501 4.62012C5.60453 5.09973 5.149 5.47359 4.61607 5.69432C4.08313 5.91506 3.49669 5.97287 2.9309 5.86028C2.36513 5.74776 1.84543 5.46997 1.43752 5.06205C1.02962 4.65418 0.751834 4.13449 0.639297 3.56872C0.526755 3.00288 0.584517 2.41647 0.805267 1.88352C1.02602 1.35056 1.39986 0.895043 1.8795 0.574554C2.35915 0.25407 2.92306 0.0830078 3.49992 0.0830078C4.27348 0.0830078 5.01536 0.390302 5.56229 0.937282C6.10928 1.48426 6.41658 2.22613 6.41658 2.99967ZM10.4999 5.91634C11.0768 5.91634 11.6407 5.74531 12.1204 5.42477C12.6 5.10428 12.9738 4.64876 13.1946 4.11582C13.4153 3.58289 13.4731 2.99644 13.3605 2.43066C13.248 1.86489 12.9702 1.34518 12.5623 0.937282C12.1544 0.52938 11.6347 0.251591 11.069 0.139054C10.5031 0.0265119 9.9167 0.0842736 9.38377 0.305024C8.85083 0.525781 8.39531 0.899622 8.07482 1.37926C7.75428 1.85891 7.58325 2.42282 7.58325 2.99967C7.58325 3.77323 7.89055 4.51512 8.43754 5.06205C8.98453 5.60904 9.72636 5.91634 10.4999 5.91634ZM3.49992 7.08301C2.92306 7.08301 2.35915 7.25404 1.8795 7.57458C1.39986 7.89506 1.02602 8.35059 0.805267 8.88352C0.584517 9.41646 0.526755 10.0029 0.639297 10.5687C0.751834 11.1345 1.02962 11.6542 1.43752 12.062C1.84543 12.47 2.36513 12.7478 2.9309 12.8603C3.49669 12.9729 4.08313 12.9151 4.61607 12.6943C5.149 12.4736 5.60453 12.0997 5.92501 11.6201C6.24555 11.1404 6.41658 10.5765 6.41658 9.99967C6.41658 9.22612 6.10928 8.48429 5.56229 7.9373C5.01536 7.39031 4.27348 7.08301 3.49992 7.08301ZM10.4999 7.08301C9.92306 7.08301 9.35915 7.25404 8.87953 7.57458C8.39986 7.89506 8.026 8.35059 7.80527 8.88352C7.58453 9.41646 7.52672 10.0029 7.63931 10.5687C7.75183 11.1345 8.02962 11.6542 8.43754 12.062C8.84541 12.47 9.3651 12.7478 9.93087 12.8603C10.4967 12.9729 11.0831 12.9151 11.6161 12.6943C12.1491 12.4736 12.6045 12.0997 12.9251 11.6201C13.2455 11.1404 13.4166 10.5765 13.4166 9.99967C13.4166 9.22612 13.1093 8.48429 12.5623 7.9373C12.0154 7.39031 11.2735 7.08301 10.4999 7.08301Z"
        fill="currentColor" />
</svg>