<svg viewBox="0 0 28 28" fill="none" xmlns="http://www.w3.org/2000/svg">
    <path
        d="M11.3596 25.4606C6.18214 24.2181 2.33398 19.558 2.33398 13.9998C2.33398 8.44164 6.18214 3.78162 11.3596 2.53906"
        stroke="currentColor" stroke-width="2.33333" stroke-miterlimit="10" stroke-linecap="round" />
    <path
        d="M16.8809 2.53906C22.0583 3.78162 25.9065 8.44164 25.9065 13.9998C25.9065 19.558 22.0583 24.2181 16.8809 25.4606"
        stroke="currentColor" stroke-width="2.33333" stroke-miterlimit="10" stroke-linecap="round" />
    <path
        d="M14.1183 19.4202C17.1101 19.4202 19.5354 16.9949 19.5354 14.0031C19.5354 11.0113 17.1101 8.58594 14.1183 8.58594C11.1265 8.58594 8.70117 11.0113 8.70117 14.0031C8.70117 16.9949 11.1265 19.4202 14.1183 19.4202Z"
        fill="currentColor" stroke="currentColor" stroke-width="2.33333" stroke-miterlimit="10" />
    <path
        d="M16.8817 3.6227C17.4786 3.6227 17.9625 3.13878 17.9625 2.54182C17.9625 1.94487 17.4786 1.46094 16.8817 1.46094C16.2847 1.46094 15.8008 1.94487 15.8008 2.54182C15.8008 3.13878 16.2847 3.6227 16.8817 3.6227Z"
        stroke="currentColor" stroke-width="2.33333" stroke-miterlimit="10" />
    <path
        d="M11.3582 26.5446C11.9552 26.5446 12.4391 26.0607 12.4391 25.4637C12.4391 24.8667 11.9552 24.3828 11.3582 24.3828C10.7613 24.3828 10.2773 24.8667 10.2773 25.4637C10.2773 26.0607 10.7613 26.5446 11.3582 26.5446Z"
        stroke="currentColor" stroke-width="2.33333" stroke-miterlimit="10" />
</svg>