<svg  viewBox="0 0 28 28" fill="none" xmlns="http://www.w3.org/2000/svg">
    <path fill-rule="evenodd" clip-rule="evenodd"
        d="M13.9993 1.16406C6.91169 1.16406 1.16602 6.90974 1.16602 13.9974C1.16602 21.085 6.91169 26.8307 13.9993 26.8307C21.0869 26.8307 26.8327 21.085 26.8327 13.9974C26.8327 6.90974 21.0869 1.16406 13.9993 1.16406ZM3.73268 13.9974C3.73268 8.32727 8.32922 3.73073 13.9993 3.73073C19.6695 3.73073 24.266 8.32727 24.266 13.9974C24.266 19.6675 19.6695 24.2641 13.9993 24.2641C8.32922 24.2641 3.73268 19.6675 3.73268 13.9974ZM12.7781 7.9773C13.1624 6.79496 14.8351 6.79494 15.2192 7.9773L16.1936 10.9763H19.347C20.5902 10.9763 21.1071 12.5671 20.1013 13.2979L17.5502 15.1514L18.5246 18.1504C18.9089 19.3327 17.5556 20.3159 16.5498 19.5852L13.9987 17.7316L11.4476 19.5852C10.4418 20.3159 9.08858 19.3327 9.47275 18.1504L10.4472 15.1514L7.89608 13.2979C6.89032 12.5671 7.40721 10.9763 8.6504 10.9763H11.8037L12.7781 7.9773Z"
        fill="currentColor" />
</svg>