<svg width="12" height="12" viewBox="0 0 12 12" fill="none" xmlns="http://www.w3.org/2000/svg">
<path d="M2.0229 9.08931C1.77882 9.33339 1.77882 9.72911 2.0229 9.97319C2.26698 10.2173 2.66271 10.2173 2.90679 9.97319L2.0229 9.08931ZM10.1609 2.46018C10.1609 2.115 9.88109 1.83518 9.53591 1.83518L3.91091 1.83518C3.56573 1.83518 3.28591 2.115 3.28591 2.46018C3.28591 2.80536 3.56573 3.08518 3.91091 3.08518H8.91091V8.08518C8.91091 8.43036 9.19073 8.71018 9.53591 8.71018C9.88109 8.71018 10.1609 8.43036 10.1609 8.08518L10.1609 2.46018ZM2.46484 9.53125L2.90679 9.97319L9.97785 2.90212L9.53591 2.46018L9.09397 2.01824L2.0229 9.08931L2.46484 9.53125Z" fill="#62864D"/>
</svg>
