<svg width="16" height="17" viewBox="0 0 16 17" fill="none" xmlns="http://www.w3.org/2000/svg">
<path d="M5.0459 0.727539C5.12725 0.659743 5.2508 0.717408 5.25098 0.823242V3.41699H9.00098C10.6586 3.41699 12.2488 4.07594 13.4209 5.24805C14.5928 6.42012 15.251 8.00954 15.251 9.66699C15.251 11.3244 14.5928 12.9139 13.4209 14.0859C12.2488 15.258 10.6586 15.917 9.00098 15.917H6.50098C6.27101 15.9168 6.08496 15.73 6.08496 15.5C6.08514 15.2701 6.27112 15.0842 6.50098 15.084H9.00098C10.4375 15.084 11.8152 14.5128 12.8311 13.4971C13.8469 12.4812 14.418 11.1036 14.418 9.66699C14.418 8.2304 13.8469 6.85274 12.8311 5.83691C11.8152 4.82119 10.4375 4.25 9.00098 4.25H5.25098V6.84375C5.25098 6.94973 5.12732 7.0073 5.0459 6.93945L1.43359 3.92969C1.37393 3.87969 1.37383 3.78723 1.43359 3.7373L5.0459 0.727539Z" fill="#5E6B66" stroke="#5E6B66" stroke-width="0.833333"/>
</svg>
