<svg width="16" height="13" viewBox="0 0 16 13" fill="none" xmlns="http://www.w3.org/2000/svg">
<path d="M0.815092 7.03488C0.712952 6.87315 0.661882 6.79229 0.633293 6.66756C0.611819 6.57387 0.611819 6.42613 0.633293 6.33244C0.661882 6.20771 0.712952 6.12685 0.815092 5.96512C1.65915 4.62863 4.17155 1.25 8.0003 1.25C11.8291 1.25 14.3415 4.62863 15.1855 5.96512C15.2877 6.12685 15.3387 6.20771 15.3673 6.33244C15.3888 6.42613 15.3888 6.57387 15.3673 6.66756C15.3387 6.79229 15.2877 6.87315 15.1855 7.03488C14.3415 8.37137 11.8291 11.75 8.0003 11.75C4.17155 11.75 1.65915 8.37137 0.815092 7.03488Z" stroke="#5E6B66" stroke-width="1.095" stroke-linecap="round" stroke-linejoin="round"/>
<path d="M8.0003 8.75C9.24294 8.75 10.2503 7.74264 10.2503 6.5C10.2503 5.25736 9.24294 4.25 8.0003 4.25C6.75766 4.25 5.7503 5.25736 5.7503 6.5C5.7503 7.74264 6.75766 8.75 8.0003 8.75Z" stroke="#5E6B66" stroke-width="1.095" stroke-linecap="round" stroke-linejoin="round"/>
</svg>
