<svg width="42" height="42" viewBox="0 0 42 42" fill="none" xmlns="http://www.w3.org/2000/svg">
<path d="M0 15.68C0 10.1915 0 7.44723 1.06814 5.35089C2.0077 3.5069 3.5069 2.0077 5.35089 1.06814C7.44723 0 10.1915 0 15.68 0H26.32C31.8085 0 34.5528 0 36.6491 1.06814C38.4931 2.0077 39.9923 3.5069 40.9319 5.35089C42 7.44723 42 10.1915 42 15.68V26.32C42 31.8085 42 34.5528 40.9319 36.6491C39.9923 38.4931 38.4931 39.9923 36.6491 40.9319C34.5528 42 31.8085 42 26.32 42H15.68C10.1915 42 7.44723 42 5.35089 40.9319C3.5069 39.9923 2.0077 38.4931 1.06814 36.6491C0 34.5528 0 31.8085 0 26.32V15.68Z" fill="url(#paint0_radial_4017_1966)"/>
<path d="M14.4172 28.3026C14.4172 31.0057 12.2266 33.1992 9.52062 33.1992C6.81461 33.1992 4.62402 31.0087 4.62402 28.3026C4.62402 25.5966 6.81461 23.406 9.52062 23.406C12.2266 23.406 14.4172 25.5966 14.4172 28.3026ZM31.1328 14.1013C31.1328 11.1286 28.7234 8.71924 25.7507 8.71924H18.6935C17.7136 8.71924 16.9195 9.51336 16.9195 10.4933V14.1013C16.9195 14.9584 17.6147 15.6566 18.4747 15.6566H29.5775C30.4346 15.6566 31.1328 14.9614 31.1328 14.1013ZM37.0543 25.3779C37.0543 21.0596 33.5541 17.5595 29.2359 17.5595H19.4996C18.0762 17.5595 16.9225 18.7132 16.9225 20.1366V30.6191C16.9225 32.0425 18.0762 33.1962 19.4996 33.1962H29.2359C33.5541 33.1962 37.0543 29.6961 37.0543 25.3779Z" fill="#004049"/>
<defs>
<radialGradient id="paint0_radial_4017_1966" cx="0" cy="0" r="1" gradientUnits="userSpaceOnUse" gradientTransform="translate(21 -13.6078) rotate(90) scale(63.48 146.993)">
<stop stop-color="#E3E9DE"/>
<stop offset="1" stop-color="#CEFFA3"/>
</radialGradient>
</defs>
</svg>
