<svg width="105" height="29" viewBox="0 0 105 29" fill="none" xmlns="http://www.w3.org/2000/svg">
<path d="M8.73398 22.3616H0.508789V1.34497H8.41359C12.8331 1.34497 15.5549 3.33614 15.5549 6.93523C15.5549 8.86651 14.471 10.4175 12.5996 11.3847C14.9411 12.2051 16.2286 13.8729 16.2286 16.1844C16.2286 20.077 13.3601 22.3616 8.73398 22.3616ZM4.54803 4.85722V9.74682H8.06028C10.2251 9.74682 11.339 8.80962 11.339 7.28855C11.339 5.76747 10.2281 4.86021 8.06028 4.86021H4.54803V4.85722ZM4.54803 13.289V18.8493H8.38365C10.785 18.8493 12.0426 17.7954 12.0426 16.0108C12.0426 14.343 10.785 13.289 8.38365 13.289H4.54803Z" fill="white"/>
<path d="M18.2466 14.4897C18.2466 9.83663 21.4953 6.44116 26.0047 6.44116C30.9512 6.44116 34.2299 10.4505 33.4993 15.5437H22.4056C22.6691 18.0918 23.8997 19.4961 25.9777 19.4961C27.7623 19.4961 28.963 18.6188 29.4331 17.0677H33.4723C32.595 20.6099 29.8732 22.628 26.0675 22.628C21.3845 22.628 18.2526 19.3793 18.2526 14.4897H18.2466ZM22.4625 12.9656H29.1965C29.0798 10.8008 27.8491 9.42343 25.9178 9.42343C23.9865 9.42343 22.8158 10.6541 22.4625 12.9656Z" fill="white"/>
<path d="M42.5179 22.6551C38.0684 22.6551 35.5802 20.5172 35.2568 17.0349H39.1494C39.1793 18.6458 40.5537 19.6698 42.5748 19.6698C44.1557 19.6698 45.3564 19.1728 45.3564 18.0589C45.3564 17.0648 44.7127 16.6546 43.2185 16.3612L40.4069 15.8342C37.5953 15.3371 35.8976 13.7861 35.8976 11.3548C35.8976 8.45635 38.3858 6.43823 42.2783 6.43823C46.1709 6.43823 48.8926 8.51624 49.1861 11.8818H45.2935C45.1468 10.3607 44.006 9.42349 42.2783 9.42349C40.7842 9.42349 39.7901 9.98042 39.7901 10.9745C39.7901 11.9117 40.4339 12.292 41.8382 12.5555L44.8534 13.1124C47.8985 13.6993 49.4496 15.1036 49.4496 17.3582C49.4496 20.6369 46.9613 22.6581 42.5119 22.6581L42.5179 22.6551Z" fill="white"/>
<path d="M60.9627 22.655C59.1183 22.655 57.5373 21.8645 56.3665 20.3434V28.0117H52.2974V6.7316H56.0432V9.01621C57.2439 7.34842 58.9715 6.44116 60.9597 6.44116C65.1756 6.44116 67.8974 9.95341 67.8974 14.5496C67.8974 19.1457 65.1756 22.658 60.9597 22.658L60.9627 22.655ZM60.0555 10.0402C58.0643 10.0402 56.3965 11.5913 56.3965 14.5496C56.3965 17.5079 58.0643 19.029 60.0555 19.029C62.0466 19.029 63.7144 17.5348 63.7144 14.5496C63.7144 11.5643 62.0466 10.0402 60.0555 10.0402Z" fill="white"/>
<path d="M72.5385 5.50102C70.9575 5.50102 69.8467 4.47698 69.8467 3.09963C69.8467 1.72228 70.9605 0.641357 72.5385 0.641357C74.1165 0.641357 75.2603 1.66539 75.2603 3.09963C75.2603 4.53388 74.1464 5.50102 72.5385 5.50102ZM70.5503 22.3616V6.72866H74.6195V22.3616H70.5503Z" fill="white"/>
<path d="M82.3265 22.3616H78.2573V6.72866H82.0031V9.74387C83.1439 7.75269 85.5753 6.552 88.0904 6.552V10.7679C84.6351 10.5044 82.3235 11.3248 82.3235 14.7772V22.3586L82.3265 22.3616Z" fill="white"/>
<path d="M89.2583 14.4897C89.2583 9.83663 92.5071 6.44116 97.0164 6.44116C101.963 6.44116 105.242 10.4505 104.511 15.5437H93.4173C93.6808 18.0918 94.9114 19.4961 96.9894 19.4961C98.774 19.4961 99.9747 18.6188 100.445 17.0677H104.484C103.607 20.6099 100.885 22.628 97.0793 22.628C92.3963 22.628 89.2643 19.3793 89.2643 14.4897H89.2583ZM93.4712 12.9656H100.205C100.088 10.8008 98.8579 9.42343 96.9266 9.42343C94.9953 9.42343 93.8245 10.6541 93.4712 12.9656Z" fill="white"/>
</svg>
