<svg width="157" height="43" viewBox="0 0 157 43" fill="none" xmlns="http://www.w3.org/2000/svg">
<path d="M0 16.3402C0 10.8516 0 8.10738 1.06814 6.01105C2.0077 4.16706 3.5069 2.66785 5.35089 1.72829C7.44723 0.660156 10.1915 0.660156 15.68 0.660156H26.32C31.8085 0.660156 34.5528 0.660156 36.6491 1.72829C38.4931 2.66785 39.9923 4.16706 40.9319 6.01105C42 8.10738 42 10.8516 42 16.3402V26.9802C42 32.4687 42 35.2129 40.9319 37.3093C39.9923 39.1533 38.4931 40.6525 36.6491 41.592C34.5528 42.6602 31.8085 42.6602 26.32 42.6602H15.68C10.1915 42.6602 7.44723 42.6602 5.35089 41.592C3.5069 40.6525 2.0077 39.1533 1.06814 37.3093C0 35.2129 0 32.4687 0 26.9802V16.3402Z" fill="url(#paint0_radial_4067_1705)"/>
<path d="M14.4172 28.9628C14.4172 31.6658 12.2266 33.8594 9.52062 33.8594C6.81461 33.8594 4.62402 31.6688 4.62402 28.9628C4.62402 26.2568 6.81461 24.0662 9.52062 24.0662C12.2266 24.0662 14.4172 26.2568 14.4172 28.9628ZM31.1328 14.7615C31.1328 11.7887 28.7234 9.37939 25.7507 9.37939H18.6935C17.7136 9.37939 16.9195 10.1735 16.9195 11.1534V14.7615C16.9195 15.6185 17.6147 16.3167 18.4747 16.3167H29.5775C30.4346 16.3167 31.1328 15.6215 31.1328 14.7615ZM37.0543 26.038C37.0543 21.7198 33.5541 18.2196 29.2359 18.2196H19.4996C18.0762 18.2196 16.9225 19.3734 16.9225 20.7968V31.2792C16.9225 32.7027 18.0762 33.8564 19.4996 33.8564H29.2359C33.5541 33.8564 37.0543 30.3563 37.0543 26.038Z" fill="#004049"/>
<path d="M60.734 32.022H52.5088V11.0054H60.4136C64.8331 11.0054 67.5549 12.9965 67.5549 16.5956C67.5549 18.5269 66.471 20.0779 64.5996 21.0451C66.9411 21.8655 68.2286 23.5333 68.2286 25.8448C68.2286 29.7374 65.3601 32.022 60.734 32.022ZM56.548 14.5176V19.4072H60.0603C62.2251 19.4072 63.339 18.47 63.339 16.9489C63.339 15.4279 62.2281 14.5206 60.0603 14.5206H56.548V14.5176ZM56.548 22.9494V28.5097H60.3837C62.785 28.5097 64.0426 27.4558 64.0426 25.6712C64.0426 24.0034 62.785 22.9494 60.3837 22.9494H56.548Z" fill="#004049"/>
<path d="M70.2466 24.1501C70.2466 19.497 73.4953 16.1016 78.0047 16.1016C82.9512 16.1016 86.2299 20.1109 85.4993 25.2041H74.4056C74.6691 27.7522 75.8997 29.1565 77.9777 29.1565C79.7623 29.1565 80.963 28.2792 81.4331 26.7281H85.4723C84.595 30.2703 81.8732 32.2884 78.0675 32.2884C73.3845 32.2884 70.2526 29.0397 70.2526 24.1501H70.2466ZM74.4625 22.626H81.1965C81.0798 20.4612 79.8491 19.0838 77.9178 19.0838C75.9865 19.0838 74.8158 20.3145 74.4625 22.626Z" fill="#004049"/>
<path d="M94.5179 32.3155C90.0684 32.3155 87.5802 30.1776 87.2568 26.6953H91.1494C91.1793 28.3062 92.5537 29.3302 94.5748 29.3302C96.1557 29.3302 97.3564 28.8332 97.3564 27.7193C97.3564 26.7252 96.7127 26.315 95.2185 26.0216L92.4069 25.4946C89.5953 24.9975 87.8976 23.4465 87.8976 21.0152C87.8976 18.1168 90.3858 16.0986 94.2783 16.0986C98.1709 16.0986 100.893 18.1766 101.186 21.5422H97.2935C97.1468 20.0211 96.006 19.0839 94.2783 19.0839C92.7842 19.0839 91.7901 19.6408 91.7901 20.6349C91.7901 21.5721 92.4339 21.9524 93.8382 22.2159L96.8534 22.7728C99.8985 23.3597 101.45 24.764 101.45 27.0186C101.45 30.2973 98.9613 32.3185 94.5119 32.3185L94.5179 32.3155Z" fill="#004049"/>
<path d="M112.962 32.3154C111.118 32.3154 109.537 31.5249 108.366 30.0038V37.6721H104.297V16.392H108.043V18.6766C109.243 17.0088 110.971 16.1016 112.959 16.1016C117.175 16.1016 119.897 19.6138 119.897 24.21C119.897 28.8061 117.175 32.3184 112.959 32.3184L112.962 32.3154ZM112.055 19.7006C110.064 19.7006 108.396 21.2517 108.396 24.21C108.396 27.1683 110.064 28.6894 112.055 28.6894C114.046 28.6894 115.714 27.1952 115.714 24.21C115.714 21.2247 114.046 19.7006 112.055 19.7006Z" fill="#004049"/>
<path d="M124.538 15.1614C122.957 15.1614 121.846 14.1374 121.846 12.76C121.846 11.3827 122.96 10.3018 124.538 10.3018C126.116 10.3018 127.26 11.3258 127.26 12.76C127.26 14.1943 126.146 15.1614 124.538 15.1614ZM122.55 32.022V16.3891H126.619V32.022H122.55Z" fill="#004049"/>
<path d="M134.327 32.022H130.257V16.3891H134.003V19.4043C135.144 17.4131 137.575 16.2124 140.09 16.2124V20.4283C136.635 20.1648 134.324 20.9852 134.324 24.4376V32.019L134.327 32.022Z" fill="#004049"/>
<path d="M141.258 24.1501C141.258 19.497 144.507 16.1016 149.016 16.1016C153.962 16.1016 157.241 20.1109 156.511 25.2041H145.417C145.68 27.7522 146.911 29.1565 148.989 29.1565C150.774 29.1565 151.974 28.2792 152.444 26.7281H156.484C155.606 30.2703 152.884 32.2884 149.079 32.2884C144.396 32.2884 141.264 29.0397 141.264 24.1501H141.258ZM145.471 22.626H152.205C152.088 20.4612 150.857 19.0838 148.926 19.0838C146.995 19.0838 145.824 20.3145 145.471 22.626Z" fill="#004049"/>
<defs>
<radialGradient id="paint0_radial_4067_1705" cx="0" cy="0" r="1" gradientUnits="userSpaceOnUse" gradientTransform="translate(21 -12.9477) rotate(90) scale(63.48 146.993)">
<stop stop-color="#E3E9DE"/>
<stop offset="1" stop-color="#CEFFA3"/>
</radialGradient>
</defs>
</svg>
