<svg width="167" height="48" viewBox="0 0 167 48" fill="none" xmlns="http://www.w3.org/2000/svg">
<circle cx="22.5" cy="24.2499" r="20.5" stroke="#6927DA" stroke-width="3"/>
<path d="M30.6315 32.3817C26.4921 36.5211 21.8026 39.2233 17.6262 40.2972C13.4122 41.3808 10.0155 40.7571 8.00412 38.7456C5.99271 36.7342 5.36892 33.3376 6.45255 29.1235C7.52647 24.9472 10.2287 20.2576 14.3681 16.1182C18.5075 11.9788 23.197 9.27662 27.3734 8.2027C31.5875 7.11907 34.9841 7.74286 36.9955 9.75427C39.0069 11.7657 39.6307 15.1623 38.5471 19.3764C37.4731 23.5528 34.7709 28.2423 30.6315 32.3817Z" stroke="#6927DA" stroke-width="3"/>
<path d="M30.6314 16.1182C34.7708 20.2576 37.473 24.9471 38.547 29.1235C39.6306 33.3376 39.0068 36.7342 36.9954 38.7456C34.984 40.757 31.5874 41.3808 27.3733 40.2972C23.1969 39.2233 18.5074 36.5211 14.368 32.3817C10.2286 28.2423 7.52638 23.5528 6.45245 19.3764C5.36883 15.1623 5.99262 11.7657 8.00402 9.75426C10.0154 7.74285 13.4121 7.11906 17.6262 8.20269C21.8025 9.27661 26.492 11.9788 30.6314 16.1182Z" stroke="#6927DA" stroke-width="3"/>
<path d="M63.3502 34.24C68.0602 34.24 71.2402 31.78 71.2402 27.85C71.2402 19.54 60.2002 23.08 60.2002 18.7C60.2002 17.47 61.3102 16.63 63.0802 16.63C65.0902 16.63 66.3502 17.71 66.5002 19.36H70.7902C70.6702 15.37 67.6102 12.76 63.0802 12.76C58.8202 12.76 55.8202 15.22 55.8202 18.7C55.8202 26.95 66.7102 23.8 66.7102 27.91C66.7102 29.5 65.3602 30.34 63.3502 30.34C61.1302 30.34 59.7202 28.99 59.5402 26.86H55.2202C55.4002 31.33 58.5802 34.24 63.3502 34.24Z" fill="#101828"/>
<path d="M72.2605 40.12H76.4305V32.65C77.2404 33.67 78.7104 34.24 80.4205 34.24C84.7705 34.24 87.7104 31.15 87.7104 26.44C87.7104 21.73 85.0105 18.64 80.7805 18.64C78.8305 18.64 77.3305 19.36 76.4305 20.53V18.88H72.2605V40.12ZM79.9104 30.64C77.6604 30.64 76.1905 28.96 76.1905 26.44C76.1905 23.89 77.6604 22.21 79.9104 22.21C82.1005 22.21 83.6005 23.89 83.6005 26.44C83.6005 28.96 82.1005 30.64 79.9104 30.64Z" fill="#101828"/>
<path d="M88.7194 34H92.8894V25.72C92.8894 23.77 94.1794 22.36 96.0094 22.36C97.7494 22.36 98.9494 23.68 98.9494 25.51V34H103.119V24.58C103.119 21.1 100.899 18.64 97.5094 18.64C95.4094 18.64 93.7594 19.51 92.8894 20.98V12.31H88.7194V34Z" fill="#101828"/>
<path d="M114.785 28.87C114.455 30.16 113.345 30.82 111.665 30.82C109.565 30.82 108.215 29.5 107.915 27.37H118.775C118.805 27.04 118.835 26.59 118.835 26.02C118.835 22.57 116.705 18.64 111.365 18.64C106.235 18.64 103.895 22.57 103.895 26.41C103.895 30.22 106.535 34.24 111.665 34.24C115.385 34.24 118.265 32.14 118.865 28.87H114.785ZM111.365 21.7C113.375 21.7 114.545 23.05 114.665 24.73H107.975C108.335 22.63 109.475 21.7 111.365 21.7Z" fill="#101828"/>
<path d="M129.771 22.36V18.88H127.62C125.79 18.88 124.65 19.51 123.84 21.4V18.88H119.64V34H123.84V26.65C123.84 24.07 124.77 22.36 126.84 22.36H129.771Z" fill="#101828"/>
<path d="M144.171 18.88H139.971V27.16C139.971 29.08 138.681 30.52 136.851 30.52C135.141 30.52 133.941 29.2 133.941 27.37V18.88H129.771V28.3C129.771 31.75 131.991 34.24 135.381 34.24C137.451 34.24 139.131 33.34 139.971 31.9V34H144.171V18.88Z" fill="#101828"/>
<path d="M145.971 34H150.141V12.31H145.971V34Z" fill="#101828"/>
<path d="M162.046 28.87C161.716 30.16 160.606 30.82 158.926 30.82C156.826 30.82 155.476 29.5 155.176 27.37H166.036C166.066 27.04 166.096 26.59 166.096 26.02C166.096 22.57 163.966 18.64 158.626 18.64C153.496 18.64 151.156 22.57 151.156 26.41C151.156 30.22 153.796 34.24 158.926 34.24C162.646 34.24 165.526 32.14 166.126 28.87H162.046ZM158.626 21.7C160.636 21.7 161.806 23.05 161.926 24.73H155.236C155.596 22.63 156.736 21.7 158.626 21.7Z" fill="#101828"/>
</svg>
