<svg width="14" height="14" viewBox="0 0 14 14" fill="none" xmlns="http://www.w3.org/2000/svg">
<g clip-path="url(#clip0_4387_164618)">
<path fill-rule="evenodd" clip-rule="evenodd" d="M13.1468 2.01761C13.188 1.74628 13.0724 1.47437 12.8486 1.31466C12.6247 1.15553 12.3299 1.13549 12.0867 1.26315C10.1398 2.28551 3.32959 5.86092 1.23792 6.95885C0.979758 7.09394 0.827491 7.36985 0.849816 7.66007C0.87214 7.9503 1.06448 8.19988 1.34039 8.29433C2.15496 8.5731 3.15042 8.91485 4.71144 9.45007L11.0082 3.5649L5.91241 9.86165C7.57704 10.4324 10.1799 11.3248 10.833 11.5486C11.0374 11.619 11.2629 11.5944 11.4478 11.4828C11.6327 11.3706 11.7581 11.1823 11.7907 10.9682L13.1468 2.01761Z" fill="#5B6F59"/>
<path fill-rule="evenodd" clip-rule="evenodd" d="M5.1875 10.2188V12.0906C5.1875 12.378 5.35637 12.6384 5.61797 12.7558C5.88014 12.8737 6.18639 12.8268 6.40106 12.6356L8.02562 11.1919L5.1875 10.2188Z" fill="#5B6F59"/>
</g>
<defs>
<clipPath id="clip0_4387_164618">
<rect width="12.3077" height="12.3077" fill="white" transform="translate(0.847656 0.84375)"/>
</clipPath>
</defs>
</svg>
