<svg width="14" height="14" viewBox="0 0 14 14" fill="none" xmlns="http://www.w3.org/2000/svg">
<g clip-path="url(#clip0_4387_145551)">
<path d="M6.99805 0.835938C8.63539 0.835938 10.1792 1.47806 11.3447 2.64355C12.5101 3.80903 13.1523 5.35297 13.1523 6.99023C13.1523 8.6273 12.5099 10.1706 11.3447 11.3359C10.1792 12.5014 8.63539 13.1436 6.99805 13.1436C5.36071 13.1436 3.81686 12.5014 2.65137 11.3359C1.48616 10.1706 0.843828 8.6273 0.84375 6.99023C0.84375 5.35297 1.48597 3.80903 2.65137 2.64355C3.81686 1.47806 5.36071 0.835938 6.99805 0.835938ZM8.28516 3.08008C8.22401 3.09046 8.16772 3.1228 8.12695 3.17188L4.93848 7.0293C4.90809 7.0661 4.88693 7.11037 4.87793 7.1582C4.86894 7.20623 4.87176 7.25638 4.88672 7.30273C4.90166 7.34902 4.92803 7.39055 4.96289 7.42285C4.99774 7.45511 5.04047 7.4766 5.08594 7.48633L6.37793 7.76172L5.4209 10.5332C5.40635 10.5753 5.40173 10.6206 5.40723 10.665C5.41278 10.7095 5.42871 10.7523 5.45312 10.7891C5.47757 10.8258 5.51006 10.8562 5.54785 10.877C5.58572 10.8977 5.6282 10.9082 5.6709 10.9082C5.7075 10.9083 5.74382 10.9002 5.77734 10.8848C5.81082 10.8693 5.8415 10.8467 5.86621 10.8184L9.05469 7.18262C9.0848 7.14829 9.10633 7.10586 9.11719 7.06055C9.12796 7.01535 9.12722 6.96799 9.11621 6.92285C9.10518 6.87766 9.0839 6.83592 9.05371 6.80176C9.02345 6.76757 8.98546 6.74136 8.94336 6.72656L7.6084 6.25879L8.57715 3.45215C8.5984 3.39079 8.59806 3.32321 8.57715 3.26172C8.55621 3.20033 8.51527 3.14841 8.46191 3.11523C8.40865 3.08222 8.34619 3.06979 8.28516 3.08008Z" fill="#566644"/>
</g>
<defs>
<clipPath id="clip0_4387_145551">
<rect width="12.3077" height="12.3077" fill="white" transform="translate(0.847656 0.84375)"/>
</clipPath>
</defs>
</svg>
