<svg width="14" height="14" viewBox="0 0 14 14" fill="none" xmlns="http://www.w3.org/2000/svg">
<g clip-path="url(#clip0_4387_145129)">
<path d="M5.10801 0.859375H2.26777C1.48346 0.859375 0.847656 1.49518 0.847656 2.27949V5.11973C0.847656 5.90404 1.48346 6.53985 2.26777 6.53985H5.10801C5.89232 6.53985 6.52813 5.90404 6.52813 5.11973V2.27949C6.52813 1.49518 5.89232 0.859375 5.10801 0.859375Z" fill="#1F5ADF"/>
<path d="M4.34777 7.50876C4.30284 7.44119 4.2419 7.38578 4.17038 7.34745C4.09886 7.30912 4.01897 7.28906 3.93783 7.28906C3.85669 7.28906 3.7768 7.30912 3.70528 7.34745C3.63376 7.38578 3.57282 7.44119 3.52789 7.50876L0.942326 11.9888C0.90078 12.0607 0.878907 12.1424 0.878906 12.2254C0.878906 12.3085 0.900778 12.3902 0.942323 12.4621C0.983869 12.5341 1.04362 12.5938 1.11558 12.6354C1.18754 12.6769 1.26917 12.6988 1.35227 12.6988H6.52529C6.60838 12.6988 6.69001 12.6769 6.76197 12.6354C6.83393 12.5938 6.89368 12.5341 6.93523 12.4621C6.97677 12.3902 6.99865 12.3085 6.99865 12.2254C6.99865 12.1424 6.97677 12.0607 6.93523 11.9888L4.34777 7.50876Z" fill="#1F5ADF"/>
<path d="M10.3168 6.53985C11.8854 6.53985 13.157 5.26823 13.157 3.69961C13.157 2.13099 11.8854 0.859375 10.3168 0.859375C8.74818 0.859375 7.47656 2.13099 7.47656 3.69961C7.47656 5.26823 8.74818 6.53985 10.3168 6.53985Z" fill="#1F5ADF"/>
<path d="M12.3402 7.9797C11.9894 7.75061 11.5713 7.64722 11.1541 7.68643C10.737 7.72563 10.3454 7.90511 10.0434 8.19556C9.79682 7.95349 9.48668 7.78624 9.14893 7.71319C8.81118 7.64015 8.45964 7.6643 8.13505 7.78285C7.81046 7.9014 7.52611 8.1095 7.31494 8.38303C7.10377 8.65655 6.97442 8.98432 6.94188 9.32834C6.91624 9.59673 6.95026 9.86746 7.04151 10.1212C7.13276 10.3749 7.27898 10.6052 7.46969 10.7958L9.37407 12.7016C9.46199 12.7896 9.56638 12.8593 9.68126 12.9069C9.79615 12.9545 9.9193 12.979 10.0437 12.979C10.168 12.979 10.2912 12.9545 10.4061 12.9069C10.5209 12.8593 10.6253 12.7896 10.7132 12.7016L12.6171 10.7972C12.8084 10.6057 12.9549 10.3742 13.0461 10.1193C13.1372 9.86437 13.1708 9.59244 13.1443 9.32304C13.1178 9.05364 13.032 8.79345 12.8929 8.56118C12.7539 8.32891 12.5652 8.13032 12.3402 7.9797Z" fill="#1F5ADF"/>
</g>
<defs>
<clipPath id="clip0_4387_145129">
<rect width="12.3077" height="12.3077" fill="white" transform="translate(0.847656 0.84375)"/>
</clipPath>
</defs>
</svg>
